%TF.GenerationSoftware,KiCad,Pcbnew,10.0.1*%
%TF.CreationDate,2026-06-17T21:57:55+05:30*%
%TF.ProjectId,usb-c-pd-hub,7573622d-632d-4706-942d-6875622e6b69,rev?*%
%TF.SameCoordinates,Original*%
%TF.FileFunction,Soldermask,Top*%
%TF.FilePolarity,Negative*%
%FSLAX46Y46*%
G04 Gerber Fmt 4.6, Leading zero omitted, Abs format (unit mm)*
G04 Created by KiCad (PCBNEW 10.0.1) date 2026-06-17 21:57:55*
%MOMM*%
%LPD*%
G01*
G04 APERTURE LIST*
G04 Aperture macros list*
%AMRoundRect*
0 Rectangle with rounded corners*
0 $1 Rounding radius*
0 $2 $3 $4 $5 $6 $7 $8 $9 X,Y pos of 4 corners*
0 Add a 4 corners polygon primitive as box body*
4,1,4,$2,$3,$4,$5,$6,$7,$8,$9,$2,$3,0*
0 Add four circle primitives for the rounded corners*
1,1,$1+$1,$2,$3*
1,1,$1+$1,$4,$5*
1,1,$1+$1,$6,$7*
1,1,$1+$1,$8,$9*
0 Add four rect primitives between the rounded corners*
20,1,$1+$1,$2,$3,$4,$5,0*
20,1,$1+$1,$4,$5,$6,$7,0*
20,1,$1+$1,$6,$7,$8,$9,0*
20,1,$1+$1,$8,$9,$2,$3,0*%
G04 Aperture macros list end*
%ADD10RoundRect,0.250000X0.475000X-0.250000X0.475000X0.250000X-0.475000X0.250000X-0.475000X-0.250000X0*%
%ADD11RoundRect,0.250000X0.250000X0.475000X-0.250000X0.475000X-0.250000X-0.475000X0.250000X-0.475000X0*%
%ADD12RoundRect,0.250000X-0.250000X-0.475000X0.250000X-0.475000X0.250000X0.475000X-0.250000X0.475000X0*%
%ADD13RoundRect,0.250000X0.325000X0.650000X-0.325000X0.650000X-0.325000X-0.650000X0.325000X-0.650000X0*%
%ADD14RoundRect,0.250000X-0.325000X-0.650000X0.325000X-0.650000X0.325000X0.650000X-0.325000X0.650000X0*%
%ADD15RoundRect,0.243750X-0.243750X-0.456250X0.243750X-0.456250X0.243750X0.456250X-0.243750X0.456250X0*%
%ADD16RoundRect,0.250000X-1.000000X-0.650000X1.000000X-0.650000X1.000000X0.650000X-1.000000X0.650000X0*%
%ADD17RoundRect,0.250000X-0.262500X-0.450000X0.262500X-0.450000X0.262500X0.450000X-0.262500X0.450000X0*%
%ADD18RoundRect,0.250000X0.450000X-0.262500X0.450000X0.262500X-0.450000X0.262500X-0.450000X-0.262500X0*%
%ADD19RoundRect,0.250000X-0.450000X0.262500X-0.450000X-0.262500X0.450000X-0.262500X0.450000X0.262500X0*%
%ADD20RoundRect,0.250000X0.262500X0.450000X-0.262500X0.450000X-0.262500X-0.450000X0.262500X-0.450000X0*%
%ADD21R,3.500000X3.500000*%
%ADD22RoundRect,0.750000X0.750000X1.000000X-0.750000X1.000000X-0.750000X-1.000000X0.750000X-1.000000X0*%
%ADD23RoundRect,0.875000X0.875000X0.875000X-0.875000X0.875000X-0.875000X-0.875000X0.875000X-0.875000X0*%
%ADD24RoundRect,0.150000X-0.587500X-0.150000X0.587500X-0.150000X0.587500X0.150000X-0.587500X0.150000X0*%
%ADD25RoundRect,0.250001X-0.949999X0.949999X-0.949999X-0.949999X0.949999X-0.949999X0.949999X0.949999X0*%
%ADD26C,2.400000*%
%ADD27RoundRect,0.250001X0.949999X0.949999X-0.949999X0.949999X-0.949999X-0.949999X0.949999X-0.949999X0*%
%ADD28R,10.200000X3.500000*%
%ADD29RoundRect,0.250000X0.550000X-0.550000X0.550000X0.550000X-0.550000X0.550000X-0.550000X-0.550000X0*%
%ADD30C,1.600000*%
%ADD31C,3.000000*%
%ADD32RoundRect,0.217080X-0.869920X-0.184920X0.869920X-0.184920X0.869920X0.184920X-0.869920X0.184920X0*%
%ADD33RoundRect,0.102000X-1.205000X-1.650000X1.205000X-1.650000X1.205000X1.650000X-1.205000X1.650000X0*%
%ADD34RoundRect,0.062500X-0.062500X0.337500X-0.062500X-0.337500X0.062500X-0.337500X0.062500X0.337500X0*%
%ADD35RoundRect,0.062500X-0.337500X0.062500X-0.337500X-0.062500X0.337500X-0.062500X0.337500X0.062500X0*%
%ADD36R,2.750000X2.750000*%
%ADD37O,1.600000X1.000000*%
%ADD38O,2.100000X1.000000*%
%ADD39RoundRect,0.150000X-0.575000X0.150000X-0.575000X-0.150000X0.575000X-0.150000X0.575000X0.150000X0*%
%ADD40RoundRect,0.075000X-0.650000X0.075000X-0.650000X-0.075000X0.650000X-0.075000X0.650000X0.075000X0*%
%ADD41C,0.650000*%
G04 APERTURE END LIST*
D10*
%TO.C,C2*%
X28000000Y-24250000D03*
X28000000Y-22350000D03*
%TD*%
D11*
%TO.C,C7*%
X56950000Y-2400000D03*
X55050000Y-2400000D03*
%TD*%
D12*
%TO.C,C9*%
X49850000Y-5300000D03*
X51750000Y-5300000D03*
%TD*%
D13*
%TO.C,C6*%
X17875000Y-40400000D03*
X14925000Y-40400000D03*
%TD*%
%TO.C,C10*%
X17875000Y-44100000D03*
X14925000Y-44100000D03*
%TD*%
D10*
%TO.C,C3*%
X30200000Y-24250000D03*
X30200000Y-22350000D03*
%TD*%
D12*
%TO.C,C5*%
X26350000Y-31200000D03*
X28250000Y-31200000D03*
%TD*%
D10*
%TO.C,C1*%
X25700000Y-24200000D03*
X25700000Y-22300000D03*
%TD*%
D12*
%TO.C,C4*%
X23950000Y-18000000D03*
X25850000Y-18000000D03*
%TD*%
D14*
%TO.C,C8*%
X44825000Y-4300000D03*
X47775000Y-4300000D03*
%TD*%
D12*
%TO.C,C12*%
X50250000Y-21700000D03*
X52150000Y-21700000D03*
%TD*%
D11*
%TO.C,C11*%
X56750000Y-19000000D03*
X54850000Y-19000000D03*
%TD*%
D14*
%TO.C,C13*%
X44925000Y-20600000D03*
X47875000Y-20600000D03*
%TD*%
D12*
%TO.C,C16*%
X50250000Y-40700000D03*
X52150000Y-40700000D03*
%TD*%
D14*
%TO.C,C17*%
X44650000Y-40100000D03*
X47600000Y-40100000D03*
%TD*%
D15*
%TO.C,D1*%
X6962500Y-36100000D03*
X8837500Y-36100000D03*
%TD*%
D13*
%TO.C,C14*%
X17775000Y-47900000D03*
X14825000Y-47900000D03*
%TD*%
D11*
%TO.C,C15*%
X56750000Y-38100000D03*
X54850000Y-38100000D03*
%TD*%
D15*
%TO.C,D2*%
X6862500Y-39300000D03*
X8737500Y-39300000D03*
%TD*%
D16*
%TO.C,D3*%
X50100000Y-15100000D03*
X54100000Y-15100000D03*
%TD*%
%TO.C,D4*%
X50100000Y-31700000D03*
X54100000Y-31700000D03*
%TD*%
D17*
%TO.C,R4*%
X8487500Y-16500000D03*
X10312500Y-16500000D03*
%TD*%
D18*
%TO.C,R7*%
X24000000Y-31400000D03*
X24000000Y-29575000D03*
%TD*%
D19*
%TO.C,R3*%
X14200000Y-14987500D03*
X14200000Y-16812500D03*
%TD*%
%TO.C,R8*%
X10900000Y-22787500D03*
X10900000Y-24612500D03*
%TD*%
%TO.C,R6*%
X24000000Y-25987500D03*
X24000000Y-27812500D03*
%TD*%
%TO.C,R2*%
X17400000Y-14987500D03*
X17400000Y-16812500D03*
%TD*%
D20*
%TO.C,R9*%
X27212500Y-34100000D03*
X25387500Y-34100000D03*
%TD*%
D19*
%TO.C,R1*%
X20600000Y-15087500D03*
X20600000Y-16912500D03*
%TD*%
D17*
%TO.C,R5*%
X8587500Y-19700000D03*
X10412500Y-19700000D03*
%TD*%
D19*
%TO.C,R10*%
X10900000Y-26787500D03*
X10900000Y-28612500D03*
%TD*%
%TO.C,R11*%
X11500000Y-36687500D03*
X11500000Y-38512500D03*
%TD*%
D21*
%TO.C,J2*%
X67200000Y-34200000D03*
D22*
X73200000Y-34200000D03*
D23*
X70200000Y-29500000D03*
%TD*%
D24*
%TO.C,Q1*%
X14962500Y-35350000D03*
X14962500Y-37250000D03*
X16837500Y-36300000D03*
%TD*%
D25*
%TO.C,J4*%
X71232500Y-49050000D03*
D26*
X71232500Y-52550000D03*
%TD*%
D27*
%TO.C,J5*%
X26400000Y-52400000D03*
D26*
X22900000Y-52400000D03*
%TD*%
D16*
%TO.C,D5*%
X51000000Y-51000000D03*
X55000000Y-51000000D03*
%TD*%
D28*
%TO.C,L3*%
X39475000Y-50595000D03*
X39475000Y-43995000D03*
%TD*%
D24*
%TO.C,Q2*%
X21375000Y-36350000D03*
X19500000Y-37300000D03*
X19500000Y-35400000D03*
%TD*%
D29*
%TO.C,J3*%
X67010000Y-16200000D03*
D30*
X67010000Y-13700000D03*
X67010000Y-11700000D03*
X67010000Y-9200000D03*
D31*
X69720000Y-19270000D03*
X69720000Y-6130000D03*
%TD*%
D28*
%TO.C,L1*%
X39975000Y-15195000D03*
X39975000Y-8595000D03*
%TD*%
%TO.C,L2*%
X39675000Y-31495000D03*
X39675000Y-24895000D03*
%TD*%
D18*
%TO.C,R12*%
X11700000Y-34412500D03*
X11700000Y-32587500D03*
%TD*%
D19*
%TO.C,R17*%
X62750000Y-25952500D03*
X62750000Y-27777500D03*
%TD*%
D17*
%TO.C,R22*%
X49387500Y-45400000D03*
X51212500Y-45400000D03*
%TD*%
%TO.C,R18*%
X49387500Y-26500000D03*
X51212500Y-26500000D03*
%TD*%
D18*
%TO.C,R19*%
X47000000Y-28612500D03*
X47000000Y-26787500D03*
%TD*%
D17*
%TO.C,R16*%
X49275000Y-9400000D03*
X51100000Y-9400000D03*
%TD*%
D18*
%TO.C,R14*%
X47000000Y-12500000D03*
X47000000Y-10675000D03*
%TD*%
D19*
%TO.C,R15*%
X61200000Y-10087500D03*
X61200000Y-11912500D03*
%TD*%
D18*
%TO.C,R20*%
X46900000Y-25012500D03*
X46900000Y-23187500D03*
%TD*%
%TO.C,R13*%
X47000000Y-8712500D03*
X47000000Y-6887500D03*
%TD*%
D19*
%TO.C,R21*%
X62025000Y-45152500D03*
X62025000Y-46977500D03*
%TD*%
D32*
%TO.C,U4*%
X53650000Y-42960000D03*
X53650000Y-44230000D03*
X53650000Y-45500000D03*
X53650000Y-46770000D03*
X58600000Y-46770000D03*
X58600000Y-45500000D03*
X58600000Y-44230000D03*
X58600000Y-42960000D03*
D33*
X56125000Y-44865000D03*
%TD*%
D34*
%TO.C,U1*%
X19760000Y-25025000D03*
X19260000Y-25025000D03*
X18760000Y-25025000D03*
X18260000Y-25025000D03*
X17760000Y-25025000D03*
X17260000Y-25025000D03*
D35*
X16535000Y-25750000D03*
X16535000Y-26250000D03*
X16535000Y-26750000D03*
X16535000Y-27250000D03*
X16535000Y-27750000D03*
X16535000Y-28250000D03*
D34*
X17260000Y-28975000D03*
X17760000Y-28975000D03*
X18260000Y-28975000D03*
X18760000Y-28975000D03*
X19260000Y-28975000D03*
X19760000Y-28975000D03*
D35*
X20485000Y-28250000D03*
X20485000Y-27750000D03*
X20485000Y-27250000D03*
X20485000Y-26750000D03*
X20485000Y-26250000D03*
X20485000Y-25750000D03*
D36*
X18510000Y-27000000D03*
%TD*%
D32*
%TO.C,U2*%
X53550000Y-7600000D03*
X53550000Y-8870000D03*
X53550000Y-10140000D03*
X53550000Y-11410000D03*
X58500000Y-11410000D03*
X58500000Y-10140000D03*
X58500000Y-8870000D03*
X58500000Y-7600000D03*
D33*
X56025000Y-9505000D03*
%TD*%
D18*
%TO.C,R23*%
X47000000Y-48512500D03*
X47000000Y-46687500D03*
%TD*%
%TO.C,R24*%
X47000000Y-44612500D03*
X47000000Y-42787500D03*
%TD*%
D32*
%TO.C,U3*%
X53650000Y-23860000D03*
X53650000Y-25130000D03*
X53650000Y-26400000D03*
X53650000Y-27670000D03*
X58600000Y-27670000D03*
X58600000Y-26400000D03*
X58600000Y-25130000D03*
X58600000Y-23860000D03*
D33*
X56125000Y-25765000D03*
%TD*%
D37*
%TO.C,J1*%
X2550000Y-31520000D03*
D38*
X6730000Y-31520000D03*
D37*
X2550000Y-22880000D03*
D38*
X6730000Y-22880000D03*
D39*
X7645000Y-23950000D03*
X7645000Y-24750000D03*
D40*
X7645000Y-25450000D03*
X7645000Y-26450000D03*
X7645000Y-27950000D03*
X7645000Y-28950000D03*
D39*
X7645000Y-29650000D03*
X7645000Y-30450000D03*
X7645000Y-30450000D03*
X7645000Y-29650000D03*
D40*
X7645000Y-28450000D03*
X7645000Y-27450000D03*
X7645000Y-26950000D03*
X7645000Y-25950000D03*
D39*
X7645000Y-24750000D03*
X7645000Y-23950000D03*
D41*
X6200000Y-30090000D03*
X6200000Y-24310000D03*
%TD*%
M02*
