M48
; DRILL file KiCad 10.0.1 date 2026-06-17T21:58:00
; FORMAT={-:-/ absolute / metric / decimal}
; #@! TF.CreationDate,2026-06-17T21:58:00+05:30
; #@! TF.GenerationSoftware,Kicad,Pcbnew,10.0.1
; #@! TF.FileFunction,Plated,1,2,PTH
FMAT,2
METRIC
; #@! TA.AperFunction,Plated,PTH,ViaDrill
T1C0.300
; #@! TA.AperFunction,Plated,PTH,ComponentDrill
T2C0.600
; #@! TA.AperFunction,Plated,PTH,ComponentDrill
T3C0.920
; #@! TA.AperFunction,Plated,PTH,ComponentDrill
T4C1.000
; #@! TA.AperFunction,Plated,PTH,ComponentDrill
T5C1.200
; #@! TA.AperFunction,Plated,PTH,ComponentDrill
T6C2.300
%
G90
G05
T1
X2.55Y-38.6
X9.2Y-33.1
X9.4Y-28.9
X9.5Y-24.9
X9.5Y-26.0
X11.508Y-31.192
X14.1Y-27.7
X14.6Y-30.5
X14.926Y-23.574
X15.4Y-27.412
X17.4Y-30.5
X17.4Y-35.2
X18.385Y-22.0
X19.4Y-23.1
X20.1Y-40.2
X20.3Y-31.1
X21.9Y-29.2
X22.1Y-25.9
X22.309Y-24.809
X23.2Y-36.4
X23.9Y-24.3
X27.1Y-19.2
X27.6Y-28.1
X44.2Y-1.8
X49.3Y-2.5
X50.3Y-12.1
X50.4Y-28.6
X50.5Y-7.1
X50.5Y-42.7
X50.9Y-23.8
X51.0Y-47.6
X51.7Y-7.525
X51.9Y-42.4
X52.2Y-19.3
X53.8Y-21.8
X60.6Y-8.0
X62.1Y-42.1
X64.0Y-39.3
T3
X67.01Y-9.2
X67.01Y-11.7
X67.01Y-13.7
X67.01Y-16.2
T5
X22.9Y-52.4
X26.4Y-52.4
X71.233Y-49.05
X71.233Y-52.55
T6
X69.72Y-6.13
X69.72Y-19.27
T2
G00X2.85Y-22.88
M15
G01X2.25Y-22.88
M16
G05
G00X2.85Y-31.52
M15
G01X2.25Y-31.52
M16
G05
G00X7.28Y-22.88
M15
G01X6.18Y-22.88
M16
G05
G00X7.28Y-31.52
M15
G01X6.18Y-31.52
M16
G05
T4
G00X67.2Y-35.2
M15
G01X67.2Y-33.2
M16
G05
G00X71.2Y-29.5
M15
G01X69.2Y-29.5
M16
G05
G00X73.2Y-35.2
M15
G01X73.2Y-33.2
M16
G05
M30
