%TF.GenerationSoftware,KiCad,Pcbnew,10.0.1*%
%TF.CreationDate,2026-06-17T21:57:55+05:30*%
%TF.ProjectId,usb-c-pd-hub,7573622d-632d-4706-942d-6875622e6b69,rev?*%
%TF.SameCoordinates,Original*%
%TF.FileFunction,Legend,Top*%
%TF.FilePolarity,Positive*%
%FSLAX46Y46*%
G04 Gerber Fmt 4.6, Leading zero omitted, Abs format (unit mm)*
G04 Created by KiCad (PCBNEW 10.0.1) date 2026-06-17 21:57:55*
%MOMM*%
%LPD*%
G01*
G04 APERTURE LIST*
%ADD10C,0.150000*%
%ADD11C,0.120000*%
%ADD12C,0.127000*%
%ADD13C,0.200000*%
G04 APERTURE END LIST*
D10*
X28459580Y-26066666D02*
X28507200Y-26114285D01*
X28507200Y-26114285D02*
X28554819Y-26257142D01*
X28554819Y-26257142D02*
X28554819Y-26352380D01*
X28554819Y-26352380D02*
X28507200Y-26495237D01*
X28507200Y-26495237D02*
X28411961Y-26590475D01*
X28411961Y-26590475D02*
X28316723Y-26638094D01*
X28316723Y-26638094D02*
X28126247Y-26685713D01*
X28126247Y-26685713D02*
X27983390Y-26685713D01*
X27983390Y-26685713D02*
X27792914Y-26638094D01*
X27792914Y-26638094D02*
X27697676Y-26590475D01*
X27697676Y-26590475D02*
X27602438Y-26495237D01*
X27602438Y-26495237D02*
X27554819Y-26352380D01*
X27554819Y-26352380D02*
X27554819Y-26257142D01*
X27554819Y-26257142D02*
X27602438Y-26114285D01*
X27602438Y-26114285D02*
X27650057Y-26066666D01*
X27650057Y-25685713D02*
X27602438Y-25638094D01*
X27602438Y-25638094D02*
X27554819Y-25542856D01*
X27554819Y-25542856D02*
X27554819Y-25304761D01*
X27554819Y-25304761D02*
X27602438Y-25209523D01*
X27602438Y-25209523D02*
X27650057Y-25161904D01*
X27650057Y-25161904D02*
X27745295Y-25114285D01*
X27745295Y-25114285D02*
X27840533Y-25114285D01*
X27840533Y-25114285D02*
X27983390Y-25161904D01*
X27983390Y-25161904D02*
X28554819Y-25733332D01*
X28554819Y-25733332D02*
X28554819Y-25114285D01*
X55833333Y-4439580D02*
X55785714Y-4487200D01*
X55785714Y-4487200D02*
X55642857Y-4534819D01*
X55642857Y-4534819D02*
X55547619Y-4534819D01*
X55547619Y-4534819D02*
X55404762Y-4487200D01*
X55404762Y-4487200D02*
X55309524Y-4391961D01*
X55309524Y-4391961D02*
X55261905Y-4296723D01*
X55261905Y-4296723D02*
X55214286Y-4106247D01*
X55214286Y-4106247D02*
X55214286Y-3963390D01*
X55214286Y-3963390D02*
X55261905Y-3772914D01*
X55261905Y-3772914D02*
X55309524Y-3677676D01*
X55309524Y-3677676D02*
X55404762Y-3582438D01*
X55404762Y-3582438D02*
X55547619Y-3534819D01*
X55547619Y-3534819D02*
X55642857Y-3534819D01*
X55642857Y-3534819D02*
X55785714Y-3582438D01*
X55785714Y-3582438D02*
X55833333Y-3630057D01*
X56166667Y-3534819D02*
X56833333Y-3534819D01*
X56833333Y-3534819D02*
X56404762Y-4534819D01*
X50633333Y-3979580D02*
X50585714Y-4027200D01*
X50585714Y-4027200D02*
X50442857Y-4074819D01*
X50442857Y-4074819D02*
X50347619Y-4074819D01*
X50347619Y-4074819D02*
X50204762Y-4027200D01*
X50204762Y-4027200D02*
X50109524Y-3931961D01*
X50109524Y-3931961D02*
X50061905Y-3836723D01*
X50061905Y-3836723D02*
X50014286Y-3646247D01*
X50014286Y-3646247D02*
X50014286Y-3503390D01*
X50014286Y-3503390D02*
X50061905Y-3312914D01*
X50061905Y-3312914D02*
X50109524Y-3217676D01*
X50109524Y-3217676D02*
X50204762Y-3122438D01*
X50204762Y-3122438D02*
X50347619Y-3074819D01*
X50347619Y-3074819D02*
X50442857Y-3074819D01*
X50442857Y-3074819D02*
X50585714Y-3122438D01*
X50585714Y-3122438D02*
X50633333Y-3170057D01*
X51109524Y-4074819D02*
X51300000Y-4074819D01*
X51300000Y-4074819D02*
X51395238Y-4027200D01*
X51395238Y-4027200D02*
X51442857Y-3979580D01*
X51442857Y-3979580D02*
X51538095Y-3836723D01*
X51538095Y-3836723D02*
X51585714Y-3646247D01*
X51585714Y-3646247D02*
X51585714Y-3265295D01*
X51585714Y-3265295D02*
X51538095Y-3170057D01*
X51538095Y-3170057D02*
X51490476Y-3122438D01*
X51490476Y-3122438D02*
X51395238Y-3074819D01*
X51395238Y-3074819D02*
X51204762Y-3074819D01*
X51204762Y-3074819D02*
X51109524Y-3122438D01*
X51109524Y-3122438D02*
X51061905Y-3170057D01*
X51061905Y-3170057D02*
X51014286Y-3265295D01*
X51014286Y-3265295D02*
X51014286Y-3503390D01*
X51014286Y-3503390D02*
X51061905Y-3598628D01*
X51061905Y-3598628D02*
X51109524Y-3646247D01*
X51109524Y-3646247D02*
X51204762Y-3693866D01*
X51204762Y-3693866D02*
X51395238Y-3693866D01*
X51395238Y-3693866D02*
X51490476Y-3646247D01*
X51490476Y-3646247D02*
X51538095Y-3598628D01*
X51538095Y-3598628D02*
X51585714Y-3503390D01*
X16233333Y-42609580D02*
X16185714Y-42657200D01*
X16185714Y-42657200D02*
X16042857Y-42704819D01*
X16042857Y-42704819D02*
X15947619Y-42704819D01*
X15947619Y-42704819D02*
X15804762Y-42657200D01*
X15804762Y-42657200D02*
X15709524Y-42561961D01*
X15709524Y-42561961D02*
X15661905Y-42466723D01*
X15661905Y-42466723D02*
X15614286Y-42276247D01*
X15614286Y-42276247D02*
X15614286Y-42133390D01*
X15614286Y-42133390D02*
X15661905Y-41942914D01*
X15661905Y-41942914D02*
X15709524Y-41847676D01*
X15709524Y-41847676D02*
X15804762Y-41752438D01*
X15804762Y-41752438D02*
X15947619Y-41704819D01*
X15947619Y-41704819D02*
X16042857Y-41704819D01*
X16042857Y-41704819D02*
X16185714Y-41752438D01*
X16185714Y-41752438D02*
X16233333Y-41800057D01*
X17090476Y-41704819D02*
X16900000Y-41704819D01*
X16900000Y-41704819D02*
X16804762Y-41752438D01*
X16804762Y-41752438D02*
X16757143Y-41800057D01*
X16757143Y-41800057D02*
X16661905Y-41942914D01*
X16661905Y-41942914D02*
X16614286Y-42133390D01*
X16614286Y-42133390D02*
X16614286Y-42514342D01*
X16614286Y-42514342D02*
X16661905Y-42609580D01*
X16661905Y-42609580D02*
X16709524Y-42657200D01*
X16709524Y-42657200D02*
X16804762Y-42704819D01*
X16804762Y-42704819D02*
X16995238Y-42704819D01*
X16995238Y-42704819D02*
X17090476Y-42657200D01*
X17090476Y-42657200D02*
X17138095Y-42609580D01*
X17138095Y-42609580D02*
X17185714Y-42514342D01*
X17185714Y-42514342D02*
X17185714Y-42276247D01*
X17185714Y-42276247D02*
X17138095Y-42181009D01*
X17138095Y-42181009D02*
X17090476Y-42133390D01*
X17090476Y-42133390D02*
X16995238Y-42085771D01*
X16995238Y-42085771D02*
X16804762Y-42085771D01*
X16804762Y-42085771D02*
X16709524Y-42133390D01*
X16709524Y-42133390D02*
X16661905Y-42181009D01*
X16661905Y-42181009D02*
X16614286Y-42276247D01*
X15757142Y-46309580D02*
X15709523Y-46357200D01*
X15709523Y-46357200D02*
X15566666Y-46404819D01*
X15566666Y-46404819D02*
X15471428Y-46404819D01*
X15471428Y-46404819D02*
X15328571Y-46357200D01*
X15328571Y-46357200D02*
X15233333Y-46261961D01*
X15233333Y-46261961D02*
X15185714Y-46166723D01*
X15185714Y-46166723D02*
X15138095Y-45976247D01*
X15138095Y-45976247D02*
X15138095Y-45833390D01*
X15138095Y-45833390D02*
X15185714Y-45642914D01*
X15185714Y-45642914D02*
X15233333Y-45547676D01*
X15233333Y-45547676D02*
X15328571Y-45452438D01*
X15328571Y-45452438D02*
X15471428Y-45404819D01*
X15471428Y-45404819D02*
X15566666Y-45404819D01*
X15566666Y-45404819D02*
X15709523Y-45452438D01*
X15709523Y-45452438D02*
X15757142Y-45500057D01*
X16709523Y-46404819D02*
X16138095Y-46404819D01*
X16423809Y-46404819D02*
X16423809Y-45404819D01*
X16423809Y-45404819D02*
X16328571Y-45547676D01*
X16328571Y-45547676D02*
X16233333Y-45642914D01*
X16233333Y-45642914D02*
X16138095Y-45690533D01*
X17328571Y-45404819D02*
X17423809Y-45404819D01*
X17423809Y-45404819D02*
X17519047Y-45452438D01*
X17519047Y-45452438D02*
X17566666Y-45500057D01*
X17566666Y-45500057D02*
X17614285Y-45595295D01*
X17614285Y-45595295D02*
X17661904Y-45785771D01*
X17661904Y-45785771D02*
X17661904Y-46023866D01*
X17661904Y-46023866D02*
X17614285Y-46214342D01*
X17614285Y-46214342D02*
X17566666Y-46309580D01*
X17566666Y-46309580D02*
X17519047Y-46357200D01*
X17519047Y-46357200D02*
X17423809Y-46404819D01*
X17423809Y-46404819D02*
X17328571Y-46404819D01*
X17328571Y-46404819D02*
X17233333Y-46357200D01*
X17233333Y-46357200D02*
X17185714Y-46309580D01*
X17185714Y-46309580D02*
X17138095Y-46214342D01*
X17138095Y-46214342D02*
X17090476Y-46023866D01*
X17090476Y-46023866D02*
X17090476Y-45785771D01*
X17090476Y-45785771D02*
X17138095Y-45595295D01*
X17138095Y-45595295D02*
X17185714Y-45500057D01*
X17185714Y-45500057D02*
X17233333Y-45452438D01*
X17233333Y-45452438D02*
X17328571Y-45404819D01*
X30859580Y-26166666D02*
X30907200Y-26214285D01*
X30907200Y-26214285D02*
X30954819Y-26357142D01*
X30954819Y-26357142D02*
X30954819Y-26452380D01*
X30954819Y-26452380D02*
X30907200Y-26595237D01*
X30907200Y-26595237D02*
X30811961Y-26690475D01*
X30811961Y-26690475D02*
X30716723Y-26738094D01*
X30716723Y-26738094D02*
X30526247Y-26785713D01*
X30526247Y-26785713D02*
X30383390Y-26785713D01*
X30383390Y-26785713D02*
X30192914Y-26738094D01*
X30192914Y-26738094D02*
X30097676Y-26690475D01*
X30097676Y-26690475D02*
X30002438Y-26595237D01*
X30002438Y-26595237D02*
X29954819Y-26452380D01*
X29954819Y-26452380D02*
X29954819Y-26357142D01*
X29954819Y-26357142D02*
X30002438Y-26214285D01*
X30002438Y-26214285D02*
X30050057Y-26166666D01*
X29954819Y-25833332D02*
X29954819Y-25214285D01*
X29954819Y-25214285D02*
X30335771Y-25547618D01*
X30335771Y-25547618D02*
X30335771Y-25404761D01*
X30335771Y-25404761D02*
X30383390Y-25309523D01*
X30383390Y-25309523D02*
X30431009Y-25261904D01*
X30431009Y-25261904D02*
X30526247Y-25214285D01*
X30526247Y-25214285D02*
X30764342Y-25214285D01*
X30764342Y-25214285D02*
X30859580Y-25261904D01*
X30859580Y-25261904D02*
X30907200Y-25309523D01*
X30907200Y-25309523D02*
X30954819Y-25404761D01*
X30954819Y-25404761D02*
X30954819Y-25690475D01*
X30954819Y-25690475D02*
X30907200Y-25785713D01*
X30907200Y-25785713D02*
X30859580Y-25833332D01*
X27133333Y-29879580D02*
X27085714Y-29927200D01*
X27085714Y-29927200D02*
X26942857Y-29974819D01*
X26942857Y-29974819D02*
X26847619Y-29974819D01*
X26847619Y-29974819D02*
X26704762Y-29927200D01*
X26704762Y-29927200D02*
X26609524Y-29831961D01*
X26609524Y-29831961D02*
X26561905Y-29736723D01*
X26561905Y-29736723D02*
X26514286Y-29546247D01*
X26514286Y-29546247D02*
X26514286Y-29403390D01*
X26514286Y-29403390D02*
X26561905Y-29212914D01*
X26561905Y-29212914D02*
X26609524Y-29117676D01*
X26609524Y-29117676D02*
X26704762Y-29022438D01*
X26704762Y-29022438D02*
X26847619Y-28974819D01*
X26847619Y-28974819D02*
X26942857Y-28974819D01*
X26942857Y-28974819D02*
X27085714Y-29022438D01*
X27085714Y-29022438D02*
X27133333Y-29070057D01*
X28038095Y-28974819D02*
X27561905Y-28974819D01*
X27561905Y-28974819D02*
X27514286Y-29451009D01*
X27514286Y-29451009D02*
X27561905Y-29403390D01*
X27561905Y-29403390D02*
X27657143Y-29355771D01*
X27657143Y-29355771D02*
X27895238Y-29355771D01*
X27895238Y-29355771D02*
X27990476Y-29403390D01*
X27990476Y-29403390D02*
X28038095Y-29451009D01*
X28038095Y-29451009D02*
X28085714Y-29546247D01*
X28085714Y-29546247D02*
X28085714Y-29784342D01*
X28085714Y-29784342D02*
X28038095Y-29879580D01*
X28038095Y-29879580D02*
X27990476Y-29927200D01*
X27990476Y-29927200D02*
X27895238Y-29974819D01*
X27895238Y-29974819D02*
X27657143Y-29974819D01*
X27657143Y-29974819D02*
X27561905Y-29927200D01*
X27561905Y-29927200D02*
X27514286Y-29879580D01*
X26059580Y-20666666D02*
X26107200Y-20714285D01*
X26107200Y-20714285D02*
X26154819Y-20857142D01*
X26154819Y-20857142D02*
X26154819Y-20952380D01*
X26154819Y-20952380D02*
X26107200Y-21095237D01*
X26107200Y-21095237D02*
X26011961Y-21190475D01*
X26011961Y-21190475D02*
X25916723Y-21238094D01*
X25916723Y-21238094D02*
X25726247Y-21285713D01*
X25726247Y-21285713D02*
X25583390Y-21285713D01*
X25583390Y-21285713D02*
X25392914Y-21238094D01*
X25392914Y-21238094D02*
X25297676Y-21190475D01*
X25297676Y-21190475D02*
X25202438Y-21095237D01*
X25202438Y-21095237D02*
X25154819Y-20952380D01*
X25154819Y-20952380D02*
X25154819Y-20857142D01*
X25154819Y-20857142D02*
X25202438Y-20714285D01*
X25202438Y-20714285D02*
X25250057Y-20666666D01*
X26154819Y-19714285D02*
X26154819Y-20285713D01*
X26154819Y-19999999D02*
X25154819Y-19999999D01*
X25154819Y-19999999D02*
X25297676Y-20095237D01*
X25297676Y-20095237D02*
X25392914Y-20190475D01*
X25392914Y-20190475D02*
X25440533Y-20285713D01*
X24733333Y-16679580D02*
X24685714Y-16727200D01*
X24685714Y-16727200D02*
X24542857Y-16774819D01*
X24542857Y-16774819D02*
X24447619Y-16774819D01*
X24447619Y-16774819D02*
X24304762Y-16727200D01*
X24304762Y-16727200D02*
X24209524Y-16631961D01*
X24209524Y-16631961D02*
X24161905Y-16536723D01*
X24161905Y-16536723D02*
X24114286Y-16346247D01*
X24114286Y-16346247D02*
X24114286Y-16203390D01*
X24114286Y-16203390D02*
X24161905Y-16012914D01*
X24161905Y-16012914D02*
X24209524Y-15917676D01*
X24209524Y-15917676D02*
X24304762Y-15822438D01*
X24304762Y-15822438D02*
X24447619Y-15774819D01*
X24447619Y-15774819D02*
X24542857Y-15774819D01*
X24542857Y-15774819D02*
X24685714Y-15822438D01*
X24685714Y-15822438D02*
X24733333Y-15870057D01*
X25590476Y-16108152D02*
X25590476Y-16774819D01*
X25352381Y-15727200D02*
X25114286Y-16441485D01*
X25114286Y-16441485D02*
X25733333Y-16441485D01*
X46133333Y-2809580D02*
X46085714Y-2857200D01*
X46085714Y-2857200D02*
X45942857Y-2904819D01*
X45942857Y-2904819D02*
X45847619Y-2904819D01*
X45847619Y-2904819D02*
X45704762Y-2857200D01*
X45704762Y-2857200D02*
X45609524Y-2761961D01*
X45609524Y-2761961D02*
X45561905Y-2666723D01*
X45561905Y-2666723D02*
X45514286Y-2476247D01*
X45514286Y-2476247D02*
X45514286Y-2333390D01*
X45514286Y-2333390D02*
X45561905Y-2142914D01*
X45561905Y-2142914D02*
X45609524Y-2047676D01*
X45609524Y-2047676D02*
X45704762Y-1952438D01*
X45704762Y-1952438D02*
X45847619Y-1904819D01*
X45847619Y-1904819D02*
X45942857Y-1904819D01*
X45942857Y-1904819D02*
X46085714Y-1952438D01*
X46085714Y-1952438D02*
X46133333Y-2000057D01*
X46704762Y-2333390D02*
X46609524Y-2285771D01*
X46609524Y-2285771D02*
X46561905Y-2238152D01*
X46561905Y-2238152D02*
X46514286Y-2142914D01*
X46514286Y-2142914D02*
X46514286Y-2095295D01*
X46514286Y-2095295D02*
X46561905Y-2000057D01*
X46561905Y-2000057D02*
X46609524Y-1952438D01*
X46609524Y-1952438D02*
X46704762Y-1904819D01*
X46704762Y-1904819D02*
X46895238Y-1904819D01*
X46895238Y-1904819D02*
X46990476Y-1952438D01*
X46990476Y-1952438D02*
X47038095Y-2000057D01*
X47038095Y-2000057D02*
X47085714Y-2095295D01*
X47085714Y-2095295D02*
X47085714Y-2142914D01*
X47085714Y-2142914D02*
X47038095Y-2238152D01*
X47038095Y-2238152D02*
X46990476Y-2285771D01*
X46990476Y-2285771D02*
X46895238Y-2333390D01*
X46895238Y-2333390D02*
X46704762Y-2333390D01*
X46704762Y-2333390D02*
X46609524Y-2381009D01*
X46609524Y-2381009D02*
X46561905Y-2428628D01*
X46561905Y-2428628D02*
X46514286Y-2523866D01*
X46514286Y-2523866D02*
X46514286Y-2714342D01*
X46514286Y-2714342D02*
X46561905Y-2809580D01*
X46561905Y-2809580D02*
X46609524Y-2857200D01*
X46609524Y-2857200D02*
X46704762Y-2904819D01*
X46704762Y-2904819D02*
X46895238Y-2904819D01*
X46895238Y-2904819D02*
X46990476Y-2857200D01*
X46990476Y-2857200D02*
X47038095Y-2809580D01*
X47038095Y-2809580D02*
X47085714Y-2714342D01*
X47085714Y-2714342D02*
X47085714Y-2523866D01*
X47085714Y-2523866D02*
X47038095Y-2428628D01*
X47038095Y-2428628D02*
X46990476Y-2381009D01*
X46990476Y-2381009D02*
X46895238Y-2333390D01*
X50557142Y-20379580D02*
X50509523Y-20427200D01*
X50509523Y-20427200D02*
X50366666Y-20474819D01*
X50366666Y-20474819D02*
X50271428Y-20474819D01*
X50271428Y-20474819D02*
X50128571Y-20427200D01*
X50128571Y-20427200D02*
X50033333Y-20331961D01*
X50033333Y-20331961D02*
X49985714Y-20236723D01*
X49985714Y-20236723D02*
X49938095Y-20046247D01*
X49938095Y-20046247D02*
X49938095Y-19903390D01*
X49938095Y-19903390D02*
X49985714Y-19712914D01*
X49985714Y-19712914D02*
X50033333Y-19617676D01*
X50033333Y-19617676D02*
X50128571Y-19522438D01*
X50128571Y-19522438D02*
X50271428Y-19474819D01*
X50271428Y-19474819D02*
X50366666Y-19474819D01*
X50366666Y-19474819D02*
X50509523Y-19522438D01*
X50509523Y-19522438D02*
X50557142Y-19570057D01*
X51509523Y-20474819D02*
X50938095Y-20474819D01*
X51223809Y-20474819D02*
X51223809Y-19474819D01*
X51223809Y-19474819D02*
X51128571Y-19617676D01*
X51128571Y-19617676D02*
X51033333Y-19712914D01*
X51033333Y-19712914D02*
X50938095Y-19760533D01*
X51890476Y-19570057D02*
X51938095Y-19522438D01*
X51938095Y-19522438D02*
X52033333Y-19474819D01*
X52033333Y-19474819D02*
X52271428Y-19474819D01*
X52271428Y-19474819D02*
X52366666Y-19522438D01*
X52366666Y-19522438D02*
X52414285Y-19570057D01*
X52414285Y-19570057D02*
X52461904Y-19665295D01*
X52461904Y-19665295D02*
X52461904Y-19760533D01*
X52461904Y-19760533D02*
X52414285Y-19903390D01*
X52414285Y-19903390D02*
X51842857Y-20474819D01*
X51842857Y-20474819D02*
X52461904Y-20474819D01*
X55157142Y-21039580D02*
X55109523Y-21087200D01*
X55109523Y-21087200D02*
X54966666Y-21134819D01*
X54966666Y-21134819D02*
X54871428Y-21134819D01*
X54871428Y-21134819D02*
X54728571Y-21087200D01*
X54728571Y-21087200D02*
X54633333Y-20991961D01*
X54633333Y-20991961D02*
X54585714Y-20896723D01*
X54585714Y-20896723D02*
X54538095Y-20706247D01*
X54538095Y-20706247D02*
X54538095Y-20563390D01*
X54538095Y-20563390D02*
X54585714Y-20372914D01*
X54585714Y-20372914D02*
X54633333Y-20277676D01*
X54633333Y-20277676D02*
X54728571Y-20182438D01*
X54728571Y-20182438D02*
X54871428Y-20134819D01*
X54871428Y-20134819D02*
X54966666Y-20134819D01*
X54966666Y-20134819D02*
X55109523Y-20182438D01*
X55109523Y-20182438D02*
X55157142Y-20230057D01*
X56109523Y-21134819D02*
X55538095Y-21134819D01*
X55823809Y-21134819D02*
X55823809Y-20134819D01*
X55823809Y-20134819D02*
X55728571Y-20277676D01*
X55728571Y-20277676D02*
X55633333Y-20372914D01*
X55633333Y-20372914D02*
X55538095Y-20420533D01*
X57061904Y-21134819D02*
X56490476Y-21134819D01*
X56776190Y-21134819D02*
X56776190Y-20134819D01*
X56776190Y-20134819D02*
X56680952Y-20277676D01*
X56680952Y-20277676D02*
X56585714Y-20372914D01*
X56585714Y-20372914D02*
X56490476Y-20420533D01*
X45757142Y-19109580D02*
X45709523Y-19157200D01*
X45709523Y-19157200D02*
X45566666Y-19204819D01*
X45566666Y-19204819D02*
X45471428Y-19204819D01*
X45471428Y-19204819D02*
X45328571Y-19157200D01*
X45328571Y-19157200D02*
X45233333Y-19061961D01*
X45233333Y-19061961D02*
X45185714Y-18966723D01*
X45185714Y-18966723D02*
X45138095Y-18776247D01*
X45138095Y-18776247D02*
X45138095Y-18633390D01*
X45138095Y-18633390D02*
X45185714Y-18442914D01*
X45185714Y-18442914D02*
X45233333Y-18347676D01*
X45233333Y-18347676D02*
X45328571Y-18252438D01*
X45328571Y-18252438D02*
X45471428Y-18204819D01*
X45471428Y-18204819D02*
X45566666Y-18204819D01*
X45566666Y-18204819D02*
X45709523Y-18252438D01*
X45709523Y-18252438D02*
X45757142Y-18300057D01*
X46709523Y-19204819D02*
X46138095Y-19204819D01*
X46423809Y-19204819D02*
X46423809Y-18204819D01*
X46423809Y-18204819D02*
X46328571Y-18347676D01*
X46328571Y-18347676D02*
X46233333Y-18442914D01*
X46233333Y-18442914D02*
X46138095Y-18490533D01*
X47042857Y-18204819D02*
X47661904Y-18204819D01*
X47661904Y-18204819D02*
X47328571Y-18585771D01*
X47328571Y-18585771D02*
X47471428Y-18585771D01*
X47471428Y-18585771D02*
X47566666Y-18633390D01*
X47566666Y-18633390D02*
X47614285Y-18681009D01*
X47614285Y-18681009D02*
X47661904Y-18776247D01*
X47661904Y-18776247D02*
X47661904Y-19014342D01*
X47661904Y-19014342D02*
X47614285Y-19109580D01*
X47614285Y-19109580D02*
X47566666Y-19157200D01*
X47566666Y-19157200D02*
X47471428Y-19204819D01*
X47471428Y-19204819D02*
X47185714Y-19204819D01*
X47185714Y-19204819D02*
X47090476Y-19157200D01*
X47090476Y-19157200D02*
X47042857Y-19109580D01*
X50557142Y-39379580D02*
X50509523Y-39427200D01*
X50509523Y-39427200D02*
X50366666Y-39474819D01*
X50366666Y-39474819D02*
X50271428Y-39474819D01*
X50271428Y-39474819D02*
X50128571Y-39427200D01*
X50128571Y-39427200D02*
X50033333Y-39331961D01*
X50033333Y-39331961D02*
X49985714Y-39236723D01*
X49985714Y-39236723D02*
X49938095Y-39046247D01*
X49938095Y-39046247D02*
X49938095Y-38903390D01*
X49938095Y-38903390D02*
X49985714Y-38712914D01*
X49985714Y-38712914D02*
X50033333Y-38617676D01*
X50033333Y-38617676D02*
X50128571Y-38522438D01*
X50128571Y-38522438D02*
X50271428Y-38474819D01*
X50271428Y-38474819D02*
X50366666Y-38474819D01*
X50366666Y-38474819D02*
X50509523Y-38522438D01*
X50509523Y-38522438D02*
X50557142Y-38570057D01*
X51509523Y-39474819D02*
X50938095Y-39474819D01*
X51223809Y-39474819D02*
X51223809Y-38474819D01*
X51223809Y-38474819D02*
X51128571Y-38617676D01*
X51128571Y-38617676D02*
X51033333Y-38712914D01*
X51033333Y-38712914D02*
X50938095Y-38760533D01*
X52366666Y-38474819D02*
X52176190Y-38474819D01*
X52176190Y-38474819D02*
X52080952Y-38522438D01*
X52080952Y-38522438D02*
X52033333Y-38570057D01*
X52033333Y-38570057D02*
X51938095Y-38712914D01*
X51938095Y-38712914D02*
X51890476Y-38903390D01*
X51890476Y-38903390D02*
X51890476Y-39284342D01*
X51890476Y-39284342D02*
X51938095Y-39379580D01*
X51938095Y-39379580D02*
X51985714Y-39427200D01*
X51985714Y-39427200D02*
X52080952Y-39474819D01*
X52080952Y-39474819D02*
X52271428Y-39474819D01*
X52271428Y-39474819D02*
X52366666Y-39427200D01*
X52366666Y-39427200D02*
X52414285Y-39379580D01*
X52414285Y-39379580D02*
X52461904Y-39284342D01*
X52461904Y-39284342D02*
X52461904Y-39046247D01*
X52461904Y-39046247D02*
X52414285Y-38951009D01*
X52414285Y-38951009D02*
X52366666Y-38903390D01*
X52366666Y-38903390D02*
X52271428Y-38855771D01*
X52271428Y-38855771D02*
X52080952Y-38855771D01*
X52080952Y-38855771D02*
X51985714Y-38903390D01*
X51985714Y-38903390D02*
X51938095Y-38951009D01*
X51938095Y-38951009D02*
X51890476Y-39046247D01*
X45482142Y-38609580D02*
X45434523Y-38657200D01*
X45434523Y-38657200D02*
X45291666Y-38704819D01*
X45291666Y-38704819D02*
X45196428Y-38704819D01*
X45196428Y-38704819D02*
X45053571Y-38657200D01*
X45053571Y-38657200D02*
X44958333Y-38561961D01*
X44958333Y-38561961D02*
X44910714Y-38466723D01*
X44910714Y-38466723D02*
X44863095Y-38276247D01*
X44863095Y-38276247D02*
X44863095Y-38133390D01*
X44863095Y-38133390D02*
X44910714Y-37942914D01*
X44910714Y-37942914D02*
X44958333Y-37847676D01*
X44958333Y-37847676D02*
X45053571Y-37752438D01*
X45053571Y-37752438D02*
X45196428Y-37704819D01*
X45196428Y-37704819D02*
X45291666Y-37704819D01*
X45291666Y-37704819D02*
X45434523Y-37752438D01*
X45434523Y-37752438D02*
X45482142Y-37800057D01*
X46434523Y-38704819D02*
X45863095Y-38704819D01*
X46148809Y-38704819D02*
X46148809Y-37704819D01*
X46148809Y-37704819D02*
X46053571Y-37847676D01*
X46053571Y-37847676D02*
X45958333Y-37942914D01*
X45958333Y-37942914D02*
X45863095Y-37990533D01*
X46767857Y-37704819D02*
X47434523Y-37704819D01*
X47434523Y-37704819D02*
X47005952Y-38704819D01*
X7161905Y-34904819D02*
X7161905Y-33904819D01*
X7161905Y-33904819D02*
X7400000Y-33904819D01*
X7400000Y-33904819D02*
X7542857Y-33952438D01*
X7542857Y-33952438D02*
X7638095Y-34047676D01*
X7638095Y-34047676D02*
X7685714Y-34142914D01*
X7685714Y-34142914D02*
X7733333Y-34333390D01*
X7733333Y-34333390D02*
X7733333Y-34476247D01*
X7733333Y-34476247D02*
X7685714Y-34666723D01*
X7685714Y-34666723D02*
X7638095Y-34761961D01*
X7638095Y-34761961D02*
X7542857Y-34857200D01*
X7542857Y-34857200D02*
X7400000Y-34904819D01*
X7400000Y-34904819D02*
X7161905Y-34904819D01*
X8685714Y-34904819D02*
X8114286Y-34904819D01*
X8400000Y-34904819D02*
X8400000Y-33904819D01*
X8400000Y-33904819D02*
X8304762Y-34047676D01*
X8304762Y-34047676D02*
X8209524Y-34142914D01*
X8209524Y-34142914D02*
X8114286Y-34190533D01*
X15657142Y-50109580D02*
X15609523Y-50157200D01*
X15609523Y-50157200D02*
X15466666Y-50204819D01*
X15466666Y-50204819D02*
X15371428Y-50204819D01*
X15371428Y-50204819D02*
X15228571Y-50157200D01*
X15228571Y-50157200D02*
X15133333Y-50061961D01*
X15133333Y-50061961D02*
X15085714Y-49966723D01*
X15085714Y-49966723D02*
X15038095Y-49776247D01*
X15038095Y-49776247D02*
X15038095Y-49633390D01*
X15038095Y-49633390D02*
X15085714Y-49442914D01*
X15085714Y-49442914D02*
X15133333Y-49347676D01*
X15133333Y-49347676D02*
X15228571Y-49252438D01*
X15228571Y-49252438D02*
X15371428Y-49204819D01*
X15371428Y-49204819D02*
X15466666Y-49204819D01*
X15466666Y-49204819D02*
X15609523Y-49252438D01*
X15609523Y-49252438D02*
X15657142Y-49300057D01*
X16609523Y-50204819D02*
X16038095Y-50204819D01*
X16323809Y-50204819D02*
X16323809Y-49204819D01*
X16323809Y-49204819D02*
X16228571Y-49347676D01*
X16228571Y-49347676D02*
X16133333Y-49442914D01*
X16133333Y-49442914D02*
X16038095Y-49490533D01*
X17466666Y-49538152D02*
X17466666Y-50204819D01*
X17228571Y-49157200D02*
X16990476Y-49871485D01*
X16990476Y-49871485D02*
X17609523Y-49871485D01*
X55157142Y-40139580D02*
X55109523Y-40187200D01*
X55109523Y-40187200D02*
X54966666Y-40234819D01*
X54966666Y-40234819D02*
X54871428Y-40234819D01*
X54871428Y-40234819D02*
X54728571Y-40187200D01*
X54728571Y-40187200D02*
X54633333Y-40091961D01*
X54633333Y-40091961D02*
X54585714Y-39996723D01*
X54585714Y-39996723D02*
X54538095Y-39806247D01*
X54538095Y-39806247D02*
X54538095Y-39663390D01*
X54538095Y-39663390D02*
X54585714Y-39472914D01*
X54585714Y-39472914D02*
X54633333Y-39377676D01*
X54633333Y-39377676D02*
X54728571Y-39282438D01*
X54728571Y-39282438D02*
X54871428Y-39234819D01*
X54871428Y-39234819D02*
X54966666Y-39234819D01*
X54966666Y-39234819D02*
X55109523Y-39282438D01*
X55109523Y-39282438D02*
X55157142Y-39330057D01*
X56109523Y-40234819D02*
X55538095Y-40234819D01*
X55823809Y-40234819D02*
X55823809Y-39234819D01*
X55823809Y-39234819D02*
X55728571Y-39377676D01*
X55728571Y-39377676D02*
X55633333Y-39472914D01*
X55633333Y-39472914D02*
X55538095Y-39520533D01*
X57014285Y-39234819D02*
X56538095Y-39234819D01*
X56538095Y-39234819D02*
X56490476Y-39711009D01*
X56490476Y-39711009D02*
X56538095Y-39663390D01*
X56538095Y-39663390D02*
X56633333Y-39615771D01*
X56633333Y-39615771D02*
X56871428Y-39615771D01*
X56871428Y-39615771D02*
X56966666Y-39663390D01*
X56966666Y-39663390D02*
X57014285Y-39711009D01*
X57014285Y-39711009D02*
X57061904Y-39806247D01*
X57061904Y-39806247D02*
X57061904Y-40044342D01*
X57061904Y-40044342D02*
X57014285Y-40139580D01*
X57014285Y-40139580D02*
X56966666Y-40187200D01*
X56966666Y-40187200D02*
X56871428Y-40234819D01*
X56871428Y-40234819D02*
X56633333Y-40234819D01*
X56633333Y-40234819D02*
X56538095Y-40187200D01*
X56538095Y-40187200D02*
X56490476Y-40139580D01*
X4161905Y-39154819D02*
X4161905Y-38154819D01*
X4161905Y-38154819D02*
X4400000Y-38154819D01*
X4400000Y-38154819D02*
X4542857Y-38202438D01*
X4542857Y-38202438D02*
X4638095Y-38297676D01*
X4638095Y-38297676D02*
X4685714Y-38392914D01*
X4685714Y-38392914D02*
X4733333Y-38583390D01*
X4733333Y-38583390D02*
X4733333Y-38726247D01*
X4733333Y-38726247D02*
X4685714Y-38916723D01*
X4685714Y-38916723D02*
X4638095Y-39011961D01*
X4638095Y-39011961D02*
X4542857Y-39107200D01*
X4542857Y-39107200D02*
X4400000Y-39154819D01*
X4400000Y-39154819D02*
X4161905Y-39154819D01*
X5114286Y-38250057D02*
X5161905Y-38202438D01*
X5161905Y-38202438D02*
X5257143Y-38154819D01*
X5257143Y-38154819D02*
X5495238Y-38154819D01*
X5495238Y-38154819D02*
X5590476Y-38202438D01*
X5590476Y-38202438D02*
X5638095Y-38250057D01*
X5638095Y-38250057D02*
X5685714Y-38345295D01*
X5685714Y-38345295D02*
X5685714Y-38440533D01*
X5685714Y-38440533D02*
X5638095Y-38583390D01*
X5638095Y-38583390D02*
X5066667Y-39154819D01*
X5066667Y-39154819D02*
X5685714Y-39154819D01*
X51361905Y-13054819D02*
X51361905Y-12054819D01*
X51361905Y-12054819D02*
X51600000Y-12054819D01*
X51600000Y-12054819D02*
X51742857Y-12102438D01*
X51742857Y-12102438D02*
X51838095Y-12197676D01*
X51838095Y-12197676D02*
X51885714Y-12292914D01*
X51885714Y-12292914D02*
X51933333Y-12483390D01*
X51933333Y-12483390D02*
X51933333Y-12626247D01*
X51933333Y-12626247D02*
X51885714Y-12816723D01*
X51885714Y-12816723D02*
X51838095Y-12911961D01*
X51838095Y-12911961D02*
X51742857Y-13007200D01*
X51742857Y-13007200D02*
X51600000Y-13054819D01*
X51600000Y-13054819D02*
X51361905Y-13054819D01*
X52266667Y-12054819D02*
X52885714Y-12054819D01*
X52885714Y-12054819D02*
X52552381Y-12435771D01*
X52552381Y-12435771D02*
X52695238Y-12435771D01*
X52695238Y-12435771D02*
X52790476Y-12483390D01*
X52790476Y-12483390D02*
X52838095Y-12531009D01*
X52838095Y-12531009D02*
X52885714Y-12626247D01*
X52885714Y-12626247D02*
X52885714Y-12864342D01*
X52885714Y-12864342D02*
X52838095Y-12959580D01*
X52838095Y-12959580D02*
X52790476Y-13007200D01*
X52790476Y-13007200D02*
X52695238Y-13054819D01*
X52695238Y-13054819D02*
X52409524Y-13054819D01*
X52409524Y-13054819D02*
X52314286Y-13007200D01*
X52314286Y-13007200D02*
X52266667Y-12959580D01*
X51361905Y-29654819D02*
X51361905Y-28654819D01*
X51361905Y-28654819D02*
X51600000Y-28654819D01*
X51600000Y-28654819D02*
X51742857Y-28702438D01*
X51742857Y-28702438D02*
X51838095Y-28797676D01*
X51838095Y-28797676D02*
X51885714Y-28892914D01*
X51885714Y-28892914D02*
X51933333Y-29083390D01*
X51933333Y-29083390D02*
X51933333Y-29226247D01*
X51933333Y-29226247D02*
X51885714Y-29416723D01*
X51885714Y-29416723D02*
X51838095Y-29511961D01*
X51838095Y-29511961D02*
X51742857Y-29607200D01*
X51742857Y-29607200D02*
X51600000Y-29654819D01*
X51600000Y-29654819D02*
X51361905Y-29654819D01*
X52790476Y-28988152D02*
X52790476Y-29654819D01*
X52552381Y-28607200D02*
X52314286Y-29321485D01*
X52314286Y-29321485D02*
X52933333Y-29321485D01*
X9233333Y-15304819D02*
X8900000Y-14828628D01*
X8661905Y-15304819D02*
X8661905Y-14304819D01*
X8661905Y-14304819D02*
X9042857Y-14304819D01*
X9042857Y-14304819D02*
X9138095Y-14352438D01*
X9138095Y-14352438D02*
X9185714Y-14400057D01*
X9185714Y-14400057D02*
X9233333Y-14495295D01*
X9233333Y-14495295D02*
X9233333Y-14638152D01*
X9233333Y-14638152D02*
X9185714Y-14733390D01*
X9185714Y-14733390D02*
X9138095Y-14781009D01*
X9138095Y-14781009D02*
X9042857Y-14828628D01*
X9042857Y-14828628D02*
X8661905Y-14828628D01*
X10090476Y-14638152D02*
X10090476Y-15304819D01*
X9852381Y-14257200D02*
X9614286Y-14971485D01*
X9614286Y-14971485D02*
X10233333Y-14971485D01*
X22804819Y-30654166D02*
X22328628Y-30987499D01*
X22804819Y-31225594D02*
X21804819Y-31225594D01*
X21804819Y-31225594D02*
X21804819Y-30844642D01*
X21804819Y-30844642D02*
X21852438Y-30749404D01*
X21852438Y-30749404D02*
X21900057Y-30701785D01*
X21900057Y-30701785D02*
X21995295Y-30654166D01*
X21995295Y-30654166D02*
X22138152Y-30654166D01*
X22138152Y-30654166D02*
X22233390Y-30701785D01*
X22233390Y-30701785D02*
X22281009Y-30749404D01*
X22281009Y-30749404D02*
X22328628Y-30844642D01*
X22328628Y-30844642D02*
X22328628Y-31225594D01*
X21804819Y-30320832D02*
X21804819Y-29654166D01*
X21804819Y-29654166D02*
X22804819Y-30082737D01*
X16304819Y-16066666D02*
X15828628Y-16399999D01*
X16304819Y-16638094D02*
X15304819Y-16638094D01*
X15304819Y-16638094D02*
X15304819Y-16257142D01*
X15304819Y-16257142D02*
X15352438Y-16161904D01*
X15352438Y-16161904D02*
X15400057Y-16114285D01*
X15400057Y-16114285D02*
X15495295Y-16066666D01*
X15495295Y-16066666D02*
X15638152Y-16066666D01*
X15638152Y-16066666D02*
X15733390Y-16114285D01*
X15733390Y-16114285D02*
X15781009Y-16161904D01*
X15781009Y-16161904D02*
X15828628Y-16257142D01*
X15828628Y-16257142D02*
X15828628Y-16638094D01*
X15304819Y-15733332D02*
X15304819Y-15114285D01*
X15304819Y-15114285D02*
X15685771Y-15447618D01*
X15685771Y-15447618D02*
X15685771Y-15304761D01*
X15685771Y-15304761D02*
X15733390Y-15209523D01*
X15733390Y-15209523D02*
X15781009Y-15161904D01*
X15781009Y-15161904D02*
X15876247Y-15114285D01*
X15876247Y-15114285D02*
X16114342Y-15114285D01*
X16114342Y-15114285D02*
X16209580Y-15161904D01*
X16209580Y-15161904D02*
X16257200Y-15209523D01*
X16257200Y-15209523D02*
X16304819Y-15304761D01*
X16304819Y-15304761D02*
X16304819Y-15590475D01*
X16304819Y-15590475D02*
X16257200Y-15685713D01*
X16257200Y-15685713D02*
X16209580Y-15733332D01*
X13004819Y-23866666D02*
X12528628Y-24199999D01*
X13004819Y-24438094D02*
X12004819Y-24438094D01*
X12004819Y-24438094D02*
X12004819Y-24057142D01*
X12004819Y-24057142D02*
X12052438Y-23961904D01*
X12052438Y-23961904D02*
X12100057Y-23914285D01*
X12100057Y-23914285D02*
X12195295Y-23866666D01*
X12195295Y-23866666D02*
X12338152Y-23866666D01*
X12338152Y-23866666D02*
X12433390Y-23914285D01*
X12433390Y-23914285D02*
X12481009Y-23961904D01*
X12481009Y-23961904D02*
X12528628Y-24057142D01*
X12528628Y-24057142D02*
X12528628Y-24438094D01*
X12433390Y-23295237D02*
X12385771Y-23390475D01*
X12385771Y-23390475D02*
X12338152Y-23438094D01*
X12338152Y-23438094D02*
X12242914Y-23485713D01*
X12242914Y-23485713D02*
X12195295Y-23485713D01*
X12195295Y-23485713D02*
X12100057Y-23438094D01*
X12100057Y-23438094D02*
X12052438Y-23390475D01*
X12052438Y-23390475D02*
X12004819Y-23295237D01*
X12004819Y-23295237D02*
X12004819Y-23104761D01*
X12004819Y-23104761D02*
X12052438Y-23009523D01*
X12052438Y-23009523D02*
X12100057Y-22961904D01*
X12100057Y-22961904D02*
X12195295Y-22914285D01*
X12195295Y-22914285D02*
X12242914Y-22914285D01*
X12242914Y-22914285D02*
X12338152Y-22961904D01*
X12338152Y-22961904D02*
X12385771Y-23009523D01*
X12385771Y-23009523D02*
X12433390Y-23104761D01*
X12433390Y-23104761D02*
X12433390Y-23295237D01*
X12433390Y-23295237D02*
X12481009Y-23390475D01*
X12481009Y-23390475D02*
X12528628Y-23438094D01*
X12528628Y-23438094D02*
X12623866Y-23485713D01*
X12623866Y-23485713D02*
X12814342Y-23485713D01*
X12814342Y-23485713D02*
X12909580Y-23438094D01*
X12909580Y-23438094D02*
X12957200Y-23390475D01*
X12957200Y-23390475D02*
X13004819Y-23295237D01*
X13004819Y-23295237D02*
X13004819Y-23104761D01*
X13004819Y-23104761D02*
X12957200Y-23009523D01*
X12957200Y-23009523D02*
X12909580Y-22961904D01*
X12909580Y-22961904D02*
X12814342Y-22914285D01*
X12814342Y-22914285D02*
X12623866Y-22914285D01*
X12623866Y-22914285D02*
X12528628Y-22961904D01*
X12528628Y-22961904D02*
X12481009Y-23009523D01*
X12481009Y-23009523D02*
X12433390Y-23104761D01*
X26104819Y-27066666D02*
X25628628Y-27399999D01*
X26104819Y-27638094D02*
X25104819Y-27638094D01*
X25104819Y-27638094D02*
X25104819Y-27257142D01*
X25104819Y-27257142D02*
X25152438Y-27161904D01*
X25152438Y-27161904D02*
X25200057Y-27114285D01*
X25200057Y-27114285D02*
X25295295Y-27066666D01*
X25295295Y-27066666D02*
X25438152Y-27066666D01*
X25438152Y-27066666D02*
X25533390Y-27114285D01*
X25533390Y-27114285D02*
X25581009Y-27161904D01*
X25581009Y-27161904D02*
X25628628Y-27257142D01*
X25628628Y-27257142D02*
X25628628Y-27638094D01*
X25104819Y-26209523D02*
X25104819Y-26399999D01*
X25104819Y-26399999D02*
X25152438Y-26495237D01*
X25152438Y-26495237D02*
X25200057Y-26542856D01*
X25200057Y-26542856D02*
X25342914Y-26638094D01*
X25342914Y-26638094D02*
X25533390Y-26685713D01*
X25533390Y-26685713D02*
X25914342Y-26685713D01*
X25914342Y-26685713D02*
X26009580Y-26638094D01*
X26009580Y-26638094D02*
X26057200Y-26590475D01*
X26057200Y-26590475D02*
X26104819Y-26495237D01*
X26104819Y-26495237D02*
X26104819Y-26304761D01*
X26104819Y-26304761D02*
X26057200Y-26209523D01*
X26057200Y-26209523D02*
X26009580Y-26161904D01*
X26009580Y-26161904D02*
X25914342Y-26114285D01*
X25914342Y-26114285D02*
X25676247Y-26114285D01*
X25676247Y-26114285D02*
X25581009Y-26161904D01*
X25581009Y-26161904D02*
X25533390Y-26209523D01*
X25533390Y-26209523D02*
X25485771Y-26304761D01*
X25485771Y-26304761D02*
X25485771Y-26495237D01*
X25485771Y-26495237D02*
X25533390Y-26590475D01*
X25533390Y-26590475D02*
X25581009Y-26638094D01*
X25581009Y-26638094D02*
X25676247Y-26685713D01*
X19504819Y-16066666D02*
X19028628Y-16399999D01*
X19504819Y-16638094D02*
X18504819Y-16638094D01*
X18504819Y-16638094D02*
X18504819Y-16257142D01*
X18504819Y-16257142D02*
X18552438Y-16161904D01*
X18552438Y-16161904D02*
X18600057Y-16114285D01*
X18600057Y-16114285D02*
X18695295Y-16066666D01*
X18695295Y-16066666D02*
X18838152Y-16066666D01*
X18838152Y-16066666D02*
X18933390Y-16114285D01*
X18933390Y-16114285D02*
X18981009Y-16161904D01*
X18981009Y-16161904D02*
X19028628Y-16257142D01*
X19028628Y-16257142D02*
X19028628Y-16638094D01*
X18600057Y-15685713D02*
X18552438Y-15638094D01*
X18552438Y-15638094D02*
X18504819Y-15542856D01*
X18504819Y-15542856D02*
X18504819Y-15304761D01*
X18504819Y-15304761D02*
X18552438Y-15209523D01*
X18552438Y-15209523D02*
X18600057Y-15161904D01*
X18600057Y-15161904D02*
X18695295Y-15114285D01*
X18695295Y-15114285D02*
X18790533Y-15114285D01*
X18790533Y-15114285D02*
X18933390Y-15161904D01*
X18933390Y-15161904D02*
X19504819Y-15733332D01*
X19504819Y-15733332D02*
X19504819Y-15114285D01*
X26133333Y-36204819D02*
X25800000Y-35728628D01*
X25561905Y-36204819D02*
X25561905Y-35204819D01*
X25561905Y-35204819D02*
X25942857Y-35204819D01*
X25942857Y-35204819D02*
X26038095Y-35252438D01*
X26038095Y-35252438D02*
X26085714Y-35300057D01*
X26085714Y-35300057D02*
X26133333Y-35395295D01*
X26133333Y-35395295D02*
X26133333Y-35538152D01*
X26133333Y-35538152D02*
X26085714Y-35633390D01*
X26085714Y-35633390D02*
X26038095Y-35681009D01*
X26038095Y-35681009D02*
X25942857Y-35728628D01*
X25942857Y-35728628D02*
X25561905Y-35728628D01*
X26609524Y-36204819D02*
X26800000Y-36204819D01*
X26800000Y-36204819D02*
X26895238Y-36157200D01*
X26895238Y-36157200D02*
X26942857Y-36109580D01*
X26942857Y-36109580D02*
X27038095Y-35966723D01*
X27038095Y-35966723D02*
X27085714Y-35776247D01*
X27085714Y-35776247D02*
X27085714Y-35395295D01*
X27085714Y-35395295D02*
X27038095Y-35300057D01*
X27038095Y-35300057D02*
X26990476Y-35252438D01*
X26990476Y-35252438D02*
X26895238Y-35204819D01*
X26895238Y-35204819D02*
X26704762Y-35204819D01*
X26704762Y-35204819D02*
X26609524Y-35252438D01*
X26609524Y-35252438D02*
X26561905Y-35300057D01*
X26561905Y-35300057D02*
X26514286Y-35395295D01*
X26514286Y-35395295D02*
X26514286Y-35633390D01*
X26514286Y-35633390D02*
X26561905Y-35728628D01*
X26561905Y-35728628D02*
X26609524Y-35776247D01*
X26609524Y-35776247D02*
X26704762Y-35823866D01*
X26704762Y-35823866D02*
X26895238Y-35823866D01*
X26895238Y-35823866D02*
X26990476Y-35776247D01*
X26990476Y-35776247D02*
X27038095Y-35728628D01*
X27038095Y-35728628D02*
X27085714Y-35633390D01*
X22704819Y-16166666D02*
X22228628Y-16499999D01*
X22704819Y-16738094D02*
X21704819Y-16738094D01*
X21704819Y-16738094D02*
X21704819Y-16357142D01*
X21704819Y-16357142D02*
X21752438Y-16261904D01*
X21752438Y-16261904D02*
X21800057Y-16214285D01*
X21800057Y-16214285D02*
X21895295Y-16166666D01*
X21895295Y-16166666D02*
X22038152Y-16166666D01*
X22038152Y-16166666D02*
X22133390Y-16214285D01*
X22133390Y-16214285D02*
X22181009Y-16261904D01*
X22181009Y-16261904D02*
X22228628Y-16357142D01*
X22228628Y-16357142D02*
X22228628Y-16738094D01*
X22704819Y-15214285D02*
X22704819Y-15785713D01*
X22704819Y-15499999D02*
X21704819Y-15499999D01*
X21704819Y-15499999D02*
X21847676Y-15595237D01*
X21847676Y-15595237D02*
X21942914Y-15690475D01*
X21942914Y-15690475D02*
X21990533Y-15785713D01*
X9333333Y-18504819D02*
X9000000Y-18028628D01*
X8761905Y-18504819D02*
X8761905Y-17504819D01*
X8761905Y-17504819D02*
X9142857Y-17504819D01*
X9142857Y-17504819D02*
X9238095Y-17552438D01*
X9238095Y-17552438D02*
X9285714Y-17600057D01*
X9285714Y-17600057D02*
X9333333Y-17695295D01*
X9333333Y-17695295D02*
X9333333Y-17838152D01*
X9333333Y-17838152D02*
X9285714Y-17933390D01*
X9285714Y-17933390D02*
X9238095Y-17981009D01*
X9238095Y-17981009D02*
X9142857Y-18028628D01*
X9142857Y-18028628D02*
X8761905Y-18028628D01*
X10238095Y-17504819D02*
X9761905Y-17504819D01*
X9761905Y-17504819D02*
X9714286Y-17981009D01*
X9714286Y-17981009D02*
X9761905Y-17933390D01*
X9761905Y-17933390D02*
X9857143Y-17885771D01*
X9857143Y-17885771D02*
X10095238Y-17885771D01*
X10095238Y-17885771D02*
X10190476Y-17933390D01*
X10190476Y-17933390D02*
X10238095Y-17981009D01*
X10238095Y-17981009D02*
X10285714Y-18076247D01*
X10285714Y-18076247D02*
X10285714Y-18314342D01*
X10285714Y-18314342D02*
X10238095Y-18409580D01*
X10238095Y-18409580D02*
X10190476Y-18457200D01*
X10190476Y-18457200D02*
X10095238Y-18504819D01*
X10095238Y-18504819D02*
X9857143Y-18504819D01*
X9857143Y-18504819D02*
X9761905Y-18457200D01*
X9761905Y-18457200D02*
X9714286Y-18409580D01*
X13004819Y-28342857D02*
X12528628Y-28676190D01*
X13004819Y-28914285D02*
X12004819Y-28914285D01*
X12004819Y-28914285D02*
X12004819Y-28533333D01*
X12004819Y-28533333D02*
X12052438Y-28438095D01*
X12052438Y-28438095D02*
X12100057Y-28390476D01*
X12100057Y-28390476D02*
X12195295Y-28342857D01*
X12195295Y-28342857D02*
X12338152Y-28342857D01*
X12338152Y-28342857D02*
X12433390Y-28390476D01*
X12433390Y-28390476D02*
X12481009Y-28438095D01*
X12481009Y-28438095D02*
X12528628Y-28533333D01*
X12528628Y-28533333D02*
X12528628Y-28914285D01*
X13004819Y-27390476D02*
X13004819Y-27961904D01*
X13004819Y-27676190D02*
X12004819Y-27676190D01*
X12004819Y-27676190D02*
X12147676Y-27771428D01*
X12147676Y-27771428D02*
X12242914Y-27866666D01*
X12242914Y-27866666D02*
X12290533Y-27961904D01*
X12004819Y-26771428D02*
X12004819Y-26676190D01*
X12004819Y-26676190D02*
X12052438Y-26580952D01*
X12052438Y-26580952D02*
X12100057Y-26533333D01*
X12100057Y-26533333D02*
X12195295Y-26485714D01*
X12195295Y-26485714D02*
X12385771Y-26438095D01*
X12385771Y-26438095D02*
X12623866Y-26438095D01*
X12623866Y-26438095D02*
X12814342Y-26485714D01*
X12814342Y-26485714D02*
X12909580Y-26533333D01*
X12909580Y-26533333D02*
X12957200Y-26580952D01*
X12957200Y-26580952D02*
X13004819Y-26676190D01*
X13004819Y-26676190D02*
X13004819Y-26771428D01*
X13004819Y-26771428D02*
X12957200Y-26866666D01*
X12957200Y-26866666D02*
X12909580Y-26914285D01*
X12909580Y-26914285D02*
X12814342Y-26961904D01*
X12814342Y-26961904D02*
X12623866Y-27009523D01*
X12623866Y-27009523D02*
X12385771Y-27009523D01*
X12385771Y-27009523D02*
X12195295Y-26961904D01*
X12195295Y-26961904D02*
X12100057Y-26914285D01*
X12100057Y-26914285D02*
X12052438Y-26866666D01*
X12052438Y-26866666D02*
X12004819Y-26771428D01*
X13604819Y-38242857D02*
X13128628Y-38576190D01*
X13604819Y-38814285D02*
X12604819Y-38814285D01*
X12604819Y-38814285D02*
X12604819Y-38433333D01*
X12604819Y-38433333D02*
X12652438Y-38338095D01*
X12652438Y-38338095D02*
X12700057Y-38290476D01*
X12700057Y-38290476D02*
X12795295Y-38242857D01*
X12795295Y-38242857D02*
X12938152Y-38242857D01*
X12938152Y-38242857D02*
X13033390Y-38290476D01*
X13033390Y-38290476D02*
X13081009Y-38338095D01*
X13081009Y-38338095D02*
X13128628Y-38433333D01*
X13128628Y-38433333D02*
X13128628Y-38814285D01*
X13604819Y-37290476D02*
X13604819Y-37861904D01*
X13604819Y-37576190D02*
X12604819Y-37576190D01*
X12604819Y-37576190D02*
X12747676Y-37671428D01*
X12747676Y-37671428D02*
X12842914Y-37766666D01*
X12842914Y-37766666D02*
X12890533Y-37861904D01*
X13604819Y-36338095D02*
X13604819Y-36909523D01*
X13604819Y-36623809D02*
X12604819Y-36623809D01*
X12604819Y-36623809D02*
X12747676Y-36719047D01*
X12747676Y-36719047D02*
X12842914Y-36814285D01*
X12842914Y-36814285D02*
X12890533Y-36909523D01*
X75316666Y-27904819D02*
X75316666Y-28619104D01*
X75316666Y-28619104D02*
X75269047Y-28761961D01*
X75269047Y-28761961D02*
X75173809Y-28857200D01*
X75173809Y-28857200D02*
X75030952Y-28904819D01*
X75030952Y-28904819D02*
X74935714Y-28904819D01*
X75745238Y-28000057D02*
X75792857Y-27952438D01*
X75792857Y-27952438D02*
X75888095Y-27904819D01*
X75888095Y-27904819D02*
X76126190Y-27904819D01*
X76126190Y-27904819D02*
X76221428Y-27952438D01*
X76221428Y-27952438D02*
X76269047Y-28000057D01*
X76269047Y-28000057D02*
X76316666Y-28095295D01*
X76316666Y-28095295D02*
X76316666Y-28190533D01*
X76316666Y-28190533D02*
X76269047Y-28333390D01*
X76269047Y-28333390D02*
X75697619Y-28904819D01*
X75697619Y-28904819D02*
X76316666Y-28904819D01*
X15804761Y-34450057D02*
X15709523Y-34402438D01*
X15709523Y-34402438D02*
X15614285Y-34307200D01*
X15614285Y-34307200D02*
X15471428Y-34164342D01*
X15471428Y-34164342D02*
X15376190Y-34116723D01*
X15376190Y-34116723D02*
X15280952Y-34116723D01*
X15328571Y-34354819D02*
X15233333Y-34307200D01*
X15233333Y-34307200D02*
X15138095Y-34211961D01*
X15138095Y-34211961D02*
X15090476Y-34021485D01*
X15090476Y-34021485D02*
X15090476Y-33688152D01*
X15090476Y-33688152D02*
X15138095Y-33497676D01*
X15138095Y-33497676D02*
X15233333Y-33402438D01*
X15233333Y-33402438D02*
X15328571Y-33354819D01*
X15328571Y-33354819D02*
X15519047Y-33354819D01*
X15519047Y-33354819D02*
X15614285Y-33402438D01*
X15614285Y-33402438D02*
X15709523Y-33497676D01*
X15709523Y-33497676D02*
X15757142Y-33688152D01*
X15757142Y-33688152D02*
X15757142Y-34021485D01*
X15757142Y-34021485D02*
X15709523Y-34211961D01*
X15709523Y-34211961D02*
X15614285Y-34307200D01*
X15614285Y-34307200D02*
X15519047Y-34354819D01*
X15519047Y-34354819D02*
X15328571Y-34354819D01*
X16709523Y-34354819D02*
X16138095Y-34354819D01*
X16423809Y-34354819D02*
X16423809Y-33354819D01*
X16423809Y-33354819D02*
X16328571Y-33497676D01*
X16328571Y-33497676D02*
X16233333Y-33592914D01*
X16233333Y-33592914D02*
X16138095Y-33640533D01*
X74907319Y-51133333D02*
X75621604Y-51133333D01*
X75621604Y-51133333D02*
X75764461Y-51180952D01*
X75764461Y-51180952D02*
X75859700Y-51276190D01*
X75859700Y-51276190D02*
X75907319Y-51419047D01*
X75907319Y-51419047D02*
X75907319Y-51514285D01*
X75240652Y-50228571D02*
X75907319Y-50228571D01*
X74859700Y-50466666D02*
X75573985Y-50704761D01*
X75573985Y-50704761D02*
X75573985Y-50085714D01*
X24316666Y-56074819D02*
X24316666Y-56789104D01*
X24316666Y-56789104D02*
X24269047Y-56931961D01*
X24269047Y-56931961D02*
X24173809Y-57027200D01*
X24173809Y-57027200D02*
X24030952Y-57074819D01*
X24030952Y-57074819D02*
X23935714Y-57074819D01*
X25269047Y-56074819D02*
X24792857Y-56074819D01*
X24792857Y-56074819D02*
X24745238Y-56551009D01*
X24745238Y-56551009D02*
X24792857Y-56503390D01*
X24792857Y-56503390D02*
X24888095Y-56455771D01*
X24888095Y-56455771D02*
X25126190Y-56455771D01*
X25126190Y-56455771D02*
X25221428Y-56503390D01*
X25221428Y-56503390D02*
X25269047Y-56551009D01*
X25269047Y-56551009D02*
X25316666Y-56646247D01*
X25316666Y-56646247D02*
X25316666Y-56884342D01*
X25316666Y-56884342D02*
X25269047Y-56979580D01*
X25269047Y-56979580D02*
X25221428Y-57027200D01*
X25221428Y-57027200D02*
X25126190Y-57074819D01*
X25126190Y-57074819D02*
X24888095Y-57074819D01*
X24888095Y-57074819D02*
X24792857Y-57027200D01*
X24792857Y-57027200D02*
X24745238Y-56979580D01*
X52261905Y-48954819D02*
X52261905Y-47954819D01*
X52261905Y-47954819D02*
X52500000Y-47954819D01*
X52500000Y-47954819D02*
X52642857Y-48002438D01*
X52642857Y-48002438D02*
X52738095Y-48097676D01*
X52738095Y-48097676D02*
X52785714Y-48192914D01*
X52785714Y-48192914D02*
X52833333Y-48383390D01*
X52833333Y-48383390D02*
X52833333Y-48526247D01*
X52833333Y-48526247D02*
X52785714Y-48716723D01*
X52785714Y-48716723D02*
X52738095Y-48811961D01*
X52738095Y-48811961D02*
X52642857Y-48907200D01*
X52642857Y-48907200D02*
X52500000Y-48954819D01*
X52500000Y-48954819D02*
X52261905Y-48954819D01*
X53738095Y-47954819D02*
X53261905Y-47954819D01*
X53261905Y-47954819D02*
X53214286Y-48431009D01*
X53214286Y-48431009D02*
X53261905Y-48383390D01*
X53261905Y-48383390D02*
X53357143Y-48335771D01*
X53357143Y-48335771D02*
X53595238Y-48335771D01*
X53595238Y-48335771D02*
X53690476Y-48383390D01*
X53690476Y-48383390D02*
X53738095Y-48431009D01*
X53738095Y-48431009D02*
X53785714Y-48526247D01*
X53785714Y-48526247D02*
X53785714Y-48764342D01*
X53785714Y-48764342D02*
X53738095Y-48859580D01*
X53738095Y-48859580D02*
X53690476Y-48907200D01*
X53690476Y-48907200D02*
X53595238Y-48954819D01*
X53595238Y-48954819D02*
X53357143Y-48954819D01*
X53357143Y-48954819D02*
X53261905Y-48907200D01*
X53261905Y-48907200D02*
X53214286Y-48859580D01*
X33729819Y-47461666D02*
X33729819Y-47937856D01*
X33729819Y-47937856D02*
X32729819Y-47937856D01*
X32729819Y-47223570D02*
X32729819Y-46604523D01*
X32729819Y-46604523D02*
X33110771Y-46937856D01*
X33110771Y-46937856D02*
X33110771Y-46794999D01*
X33110771Y-46794999D02*
X33158390Y-46699761D01*
X33158390Y-46699761D02*
X33206009Y-46652142D01*
X33206009Y-46652142D02*
X33301247Y-46604523D01*
X33301247Y-46604523D02*
X33539342Y-46604523D01*
X33539342Y-46604523D02*
X33634580Y-46652142D01*
X33634580Y-46652142D02*
X33682200Y-46699761D01*
X33682200Y-46699761D02*
X33729819Y-46794999D01*
X33729819Y-46794999D02*
X33729819Y-47080713D01*
X33729819Y-47080713D02*
X33682200Y-47175951D01*
X33682200Y-47175951D02*
X33634580Y-47223570D01*
X20342261Y-34500057D02*
X20247023Y-34452438D01*
X20247023Y-34452438D02*
X20151785Y-34357200D01*
X20151785Y-34357200D02*
X20008928Y-34214342D01*
X20008928Y-34214342D02*
X19913690Y-34166723D01*
X19913690Y-34166723D02*
X19818452Y-34166723D01*
X19866071Y-34404819D02*
X19770833Y-34357200D01*
X19770833Y-34357200D02*
X19675595Y-34261961D01*
X19675595Y-34261961D02*
X19627976Y-34071485D01*
X19627976Y-34071485D02*
X19627976Y-33738152D01*
X19627976Y-33738152D02*
X19675595Y-33547676D01*
X19675595Y-33547676D02*
X19770833Y-33452438D01*
X19770833Y-33452438D02*
X19866071Y-33404819D01*
X19866071Y-33404819D02*
X20056547Y-33404819D01*
X20056547Y-33404819D02*
X20151785Y-33452438D01*
X20151785Y-33452438D02*
X20247023Y-33547676D01*
X20247023Y-33547676D02*
X20294642Y-33738152D01*
X20294642Y-33738152D02*
X20294642Y-34071485D01*
X20294642Y-34071485D02*
X20247023Y-34261961D01*
X20247023Y-34261961D02*
X20151785Y-34357200D01*
X20151785Y-34357200D02*
X20056547Y-34404819D01*
X20056547Y-34404819D02*
X19866071Y-34404819D01*
X20675595Y-33500057D02*
X20723214Y-33452438D01*
X20723214Y-33452438D02*
X20818452Y-33404819D01*
X20818452Y-33404819D02*
X21056547Y-33404819D01*
X21056547Y-33404819D02*
X21151785Y-33452438D01*
X21151785Y-33452438D02*
X21199404Y-33500057D01*
X21199404Y-33500057D02*
X21247023Y-33595295D01*
X21247023Y-33595295D02*
X21247023Y-33690533D01*
X21247023Y-33690533D02*
X21199404Y-33833390D01*
X21199404Y-33833390D02*
X20627976Y-34404819D01*
X20627976Y-34404819D02*
X21247023Y-34404819D01*
X64204819Y-13033333D02*
X64919104Y-13033333D01*
X64919104Y-13033333D02*
X65061961Y-13080952D01*
X65061961Y-13080952D02*
X65157200Y-13176190D01*
X65157200Y-13176190D02*
X65204819Y-13319047D01*
X65204819Y-13319047D02*
X65204819Y-13414285D01*
X64204819Y-12652380D02*
X64204819Y-12033333D01*
X64204819Y-12033333D02*
X64585771Y-12366666D01*
X64585771Y-12366666D02*
X64585771Y-12223809D01*
X64585771Y-12223809D02*
X64633390Y-12128571D01*
X64633390Y-12128571D02*
X64681009Y-12080952D01*
X64681009Y-12080952D02*
X64776247Y-12033333D01*
X64776247Y-12033333D02*
X65014342Y-12033333D01*
X65014342Y-12033333D02*
X65109580Y-12080952D01*
X65109580Y-12080952D02*
X65157200Y-12128571D01*
X65157200Y-12128571D02*
X65204819Y-12223809D01*
X65204819Y-12223809D02*
X65204819Y-12509523D01*
X65204819Y-12509523D02*
X65157200Y-12604761D01*
X65157200Y-12604761D02*
X65109580Y-12652380D01*
X34229819Y-12061666D02*
X34229819Y-12537856D01*
X34229819Y-12537856D02*
X33229819Y-12537856D01*
X34229819Y-11204523D02*
X34229819Y-11775951D01*
X34229819Y-11490237D02*
X33229819Y-11490237D01*
X33229819Y-11490237D02*
X33372676Y-11585475D01*
X33372676Y-11585475D02*
X33467914Y-11680713D01*
X33467914Y-11680713D02*
X33515533Y-11775951D01*
X33929819Y-28361666D02*
X33929819Y-28837856D01*
X33929819Y-28837856D02*
X32929819Y-28837856D01*
X33025057Y-28075951D02*
X32977438Y-28028332D01*
X32977438Y-28028332D02*
X32929819Y-27933094D01*
X32929819Y-27933094D02*
X32929819Y-27694999D01*
X32929819Y-27694999D02*
X32977438Y-27599761D01*
X32977438Y-27599761D02*
X33025057Y-27552142D01*
X33025057Y-27552142D02*
X33120295Y-27504523D01*
X33120295Y-27504523D02*
X33215533Y-27504523D01*
X33215533Y-27504523D02*
X33358390Y-27552142D01*
X33358390Y-27552142D02*
X33929819Y-28123570D01*
X33929819Y-28123570D02*
X33929819Y-27504523D01*
X10504819Y-34142857D02*
X10028628Y-34476190D01*
X10504819Y-34714285D02*
X9504819Y-34714285D01*
X9504819Y-34714285D02*
X9504819Y-34333333D01*
X9504819Y-34333333D02*
X9552438Y-34238095D01*
X9552438Y-34238095D02*
X9600057Y-34190476D01*
X9600057Y-34190476D02*
X9695295Y-34142857D01*
X9695295Y-34142857D02*
X9838152Y-34142857D01*
X9838152Y-34142857D02*
X9933390Y-34190476D01*
X9933390Y-34190476D02*
X9981009Y-34238095D01*
X9981009Y-34238095D02*
X10028628Y-34333333D01*
X10028628Y-34333333D02*
X10028628Y-34714285D01*
X10504819Y-33190476D02*
X10504819Y-33761904D01*
X10504819Y-33476190D02*
X9504819Y-33476190D01*
X9504819Y-33476190D02*
X9647676Y-33571428D01*
X9647676Y-33571428D02*
X9742914Y-33666666D01*
X9742914Y-33666666D02*
X9790533Y-33761904D01*
X9600057Y-32809523D02*
X9552438Y-32761904D01*
X9552438Y-32761904D02*
X9504819Y-32666666D01*
X9504819Y-32666666D02*
X9504819Y-32428571D01*
X9504819Y-32428571D02*
X9552438Y-32333333D01*
X9552438Y-32333333D02*
X9600057Y-32285714D01*
X9600057Y-32285714D02*
X9695295Y-32238095D01*
X9695295Y-32238095D02*
X9790533Y-32238095D01*
X9790533Y-32238095D02*
X9933390Y-32285714D01*
X9933390Y-32285714D02*
X10504819Y-32857142D01*
X10504819Y-32857142D02*
X10504819Y-32238095D01*
X64854819Y-27507857D02*
X64378628Y-27841190D01*
X64854819Y-28079285D02*
X63854819Y-28079285D01*
X63854819Y-28079285D02*
X63854819Y-27698333D01*
X63854819Y-27698333D02*
X63902438Y-27603095D01*
X63902438Y-27603095D02*
X63950057Y-27555476D01*
X63950057Y-27555476D02*
X64045295Y-27507857D01*
X64045295Y-27507857D02*
X64188152Y-27507857D01*
X64188152Y-27507857D02*
X64283390Y-27555476D01*
X64283390Y-27555476D02*
X64331009Y-27603095D01*
X64331009Y-27603095D02*
X64378628Y-27698333D01*
X64378628Y-27698333D02*
X64378628Y-28079285D01*
X64854819Y-26555476D02*
X64854819Y-27126904D01*
X64854819Y-26841190D02*
X63854819Y-26841190D01*
X63854819Y-26841190D02*
X63997676Y-26936428D01*
X63997676Y-26936428D02*
X64092914Y-27031666D01*
X64092914Y-27031666D02*
X64140533Y-27126904D01*
X63854819Y-26222142D02*
X63854819Y-25555476D01*
X63854819Y-25555476D02*
X64854819Y-25984047D01*
X48757142Y-47654819D02*
X48423809Y-47178628D01*
X48185714Y-47654819D02*
X48185714Y-46654819D01*
X48185714Y-46654819D02*
X48566666Y-46654819D01*
X48566666Y-46654819D02*
X48661904Y-46702438D01*
X48661904Y-46702438D02*
X48709523Y-46750057D01*
X48709523Y-46750057D02*
X48757142Y-46845295D01*
X48757142Y-46845295D02*
X48757142Y-46988152D01*
X48757142Y-46988152D02*
X48709523Y-47083390D01*
X48709523Y-47083390D02*
X48661904Y-47131009D01*
X48661904Y-47131009D02*
X48566666Y-47178628D01*
X48566666Y-47178628D02*
X48185714Y-47178628D01*
X49138095Y-46750057D02*
X49185714Y-46702438D01*
X49185714Y-46702438D02*
X49280952Y-46654819D01*
X49280952Y-46654819D02*
X49519047Y-46654819D01*
X49519047Y-46654819D02*
X49614285Y-46702438D01*
X49614285Y-46702438D02*
X49661904Y-46750057D01*
X49661904Y-46750057D02*
X49709523Y-46845295D01*
X49709523Y-46845295D02*
X49709523Y-46940533D01*
X49709523Y-46940533D02*
X49661904Y-47083390D01*
X49661904Y-47083390D02*
X49090476Y-47654819D01*
X49090476Y-47654819D02*
X49709523Y-47654819D01*
X50090476Y-46750057D02*
X50138095Y-46702438D01*
X50138095Y-46702438D02*
X50233333Y-46654819D01*
X50233333Y-46654819D02*
X50471428Y-46654819D01*
X50471428Y-46654819D02*
X50566666Y-46702438D01*
X50566666Y-46702438D02*
X50614285Y-46750057D01*
X50614285Y-46750057D02*
X50661904Y-46845295D01*
X50661904Y-46845295D02*
X50661904Y-46940533D01*
X50661904Y-46940533D02*
X50614285Y-47083390D01*
X50614285Y-47083390D02*
X50042857Y-47654819D01*
X50042857Y-47654819D02*
X50661904Y-47654819D01*
X50057142Y-25254819D02*
X49723809Y-24778628D01*
X49485714Y-25254819D02*
X49485714Y-24254819D01*
X49485714Y-24254819D02*
X49866666Y-24254819D01*
X49866666Y-24254819D02*
X49961904Y-24302438D01*
X49961904Y-24302438D02*
X50009523Y-24350057D01*
X50009523Y-24350057D02*
X50057142Y-24445295D01*
X50057142Y-24445295D02*
X50057142Y-24588152D01*
X50057142Y-24588152D02*
X50009523Y-24683390D01*
X50009523Y-24683390D02*
X49961904Y-24731009D01*
X49961904Y-24731009D02*
X49866666Y-24778628D01*
X49866666Y-24778628D02*
X49485714Y-24778628D01*
X51009523Y-25254819D02*
X50438095Y-25254819D01*
X50723809Y-25254819D02*
X50723809Y-24254819D01*
X50723809Y-24254819D02*
X50628571Y-24397676D01*
X50628571Y-24397676D02*
X50533333Y-24492914D01*
X50533333Y-24492914D02*
X50438095Y-24540533D01*
X51580952Y-24683390D02*
X51485714Y-24635771D01*
X51485714Y-24635771D02*
X51438095Y-24588152D01*
X51438095Y-24588152D02*
X51390476Y-24492914D01*
X51390476Y-24492914D02*
X51390476Y-24445295D01*
X51390476Y-24445295D02*
X51438095Y-24350057D01*
X51438095Y-24350057D02*
X51485714Y-24302438D01*
X51485714Y-24302438D02*
X51580952Y-24254819D01*
X51580952Y-24254819D02*
X51771428Y-24254819D01*
X51771428Y-24254819D02*
X51866666Y-24302438D01*
X51866666Y-24302438D02*
X51914285Y-24350057D01*
X51914285Y-24350057D02*
X51961904Y-24445295D01*
X51961904Y-24445295D02*
X51961904Y-24492914D01*
X51961904Y-24492914D02*
X51914285Y-24588152D01*
X51914285Y-24588152D02*
X51866666Y-24635771D01*
X51866666Y-24635771D02*
X51771428Y-24683390D01*
X51771428Y-24683390D02*
X51580952Y-24683390D01*
X51580952Y-24683390D02*
X51485714Y-24731009D01*
X51485714Y-24731009D02*
X51438095Y-24778628D01*
X51438095Y-24778628D02*
X51390476Y-24873866D01*
X51390476Y-24873866D02*
X51390476Y-25064342D01*
X51390476Y-25064342D02*
X51438095Y-25159580D01*
X51438095Y-25159580D02*
X51485714Y-25207200D01*
X51485714Y-25207200D02*
X51580952Y-25254819D01*
X51580952Y-25254819D02*
X51771428Y-25254819D01*
X51771428Y-25254819D02*
X51866666Y-25207200D01*
X51866666Y-25207200D02*
X51914285Y-25159580D01*
X51914285Y-25159580D02*
X51961904Y-25064342D01*
X51961904Y-25064342D02*
X51961904Y-24873866D01*
X51961904Y-24873866D02*
X51914285Y-24778628D01*
X51914285Y-24778628D02*
X51866666Y-24731009D01*
X51866666Y-24731009D02*
X51771428Y-24683390D01*
X47354819Y-31742857D02*
X46878628Y-32076190D01*
X47354819Y-32314285D02*
X46354819Y-32314285D01*
X46354819Y-32314285D02*
X46354819Y-31933333D01*
X46354819Y-31933333D02*
X46402438Y-31838095D01*
X46402438Y-31838095D02*
X46450057Y-31790476D01*
X46450057Y-31790476D02*
X46545295Y-31742857D01*
X46545295Y-31742857D02*
X46688152Y-31742857D01*
X46688152Y-31742857D02*
X46783390Y-31790476D01*
X46783390Y-31790476D02*
X46831009Y-31838095D01*
X46831009Y-31838095D02*
X46878628Y-31933333D01*
X46878628Y-31933333D02*
X46878628Y-32314285D01*
X47354819Y-30790476D02*
X47354819Y-31361904D01*
X47354819Y-31076190D02*
X46354819Y-31076190D01*
X46354819Y-31076190D02*
X46497676Y-31171428D01*
X46497676Y-31171428D02*
X46592914Y-31266666D01*
X46592914Y-31266666D02*
X46640533Y-31361904D01*
X47354819Y-30314285D02*
X47354819Y-30123809D01*
X47354819Y-30123809D02*
X47307200Y-30028571D01*
X47307200Y-30028571D02*
X47259580Y-29980952D01*
X47259580Y-29980952D02*
X47116723Y-29885714D01*
X47116723Y-29885714D02*
X46926247Y-29838095D01*
X46926247Y-29838095D02*
X46545295Y-29838095D01*
X46545295Y-29838095D02*
X46450057Y-29885714D01*
X46450057Y-29885714D02*
X46402438Y-29933333D01*
X46402438Y-29933333D02*
X46354819Y-30028571D01*
X46354819Y-30028571D02*
X46354819Y-30219047D01*
X46354819Y-30219047D02*
X46402438Y-30314285D01*
X46402438Y-30314285D02*
X46450057Y-30361904D01*
X46450057Y-30361904D02*
X46545295Y-30409523D01*
X46545295Y-30409523D02*
X46783390Y-30409523D01*
X46783390Y-30409523D02*
X46878628Y-30361904D01*
X46878628Y-30361904D02*
X46926247Y-30314285D01*
X46926247Y-30314285D02*
X46973866Y-30219047D01*
X46973866Y-30219047D02*
X46973866Y-30028571D01*
X46973866Y-30028571D02*
X46926247Y-29933333D01*
X46926247Y-29933333D02*
X46878628Y-29885714D01*
X46878628Y-29885714D02*
X46783390Y-29838095D01*
X49457142Y-11554819D02*
X49123809Y-11078628D01*
X48885714Y-11554819D02*
X48885714Y-10554819D01*
X48885714Y-10554819D02*
X49266666Y-10554819D01*
X49266666Y-10554819D02*
X49361904Y-10602438D01*
X49361904Y-10602438D02*
X49409523Y-10650057D01*
X49409523Y-10650057D02*
X49457142Y-10745295D01*
X49457142Y-10745295D02*
X49457142Y-10888152D01*
X49457142Y-10888152D02*
X49409523Y-10983390D01*
X49409523Y-10983390D02*
X49361904Y-11031009D01*
X49361904Y-11031009D02*
X49266666Y-11078628D01*
X49266666Y-11078628D02*
X48885714Y-11078628D01*
X50409523Y-11554819D02*
X49838095Y-11554819D01*
X50123809Y-11554819D02*
X50123809Y-10554819D01*
X50123809Y-10554819D02*
X50028571Y-10697676D01*
X50028571Y-10697676D02*
X49933333Y-10792914D01*
X49933333Y-10792914D02*
X49838095Y-10840533D01*
X51266666Y-10554819D02*
X51076190Y-10554819D01*
X51076190Y-10554819D02*
X50980952Y-10602438D01*
X50980952Y-10602438D02*
X50933333Y-10650057D01*
X50933333Y-10650057D02*
X50838095Y-10792914D01*
X50838095Y-10792914D02*
X50790476Y-10983390D01*
X50790476Y-10983390D02*
X50790476Y-11364342D01*
X50790476Y-11364342D02*
X50838095Y-11459580D01*
X50838095Y-11459580D02*
X50885714Y-11507200D01*
X50885714Y-11507200D02*
X50980952Y-11554819D01*
X50980952Y-11554819D02*
X51171428Y-11554819D01*
X51171428Y-11554819D02*
X51266666Y-11507200D01*
X51266666Y-11507200D02*
X51314285Y-11459580D01*
X51314285Y-11459580D02*
X51361904Y-11364342D01*
X51361904Y-11364342D02*
X51361904Y-11126247D01*
X51361904Y-11126247D02*
X51314285Y-11031009D01*
X51314285Y-11031009D02*
X51266666Y-10983390D01*
X51266666Y-10983390D02*
X51171428Y-10935771D01*
X51171428Y-10935771D02*
X50980952Y-10935771D01*
X50980952Y-10935771D02*
X50885714Y-10983390D01*
X50885714Y-10983390D02*
X50838095Y-11031009D01*
X50838095Y-11031009D02*
X50790476Y-11126247D01*
X47054819Y-15542857D02*
X46578628Y-15876190D01*
X47054819Y-16114285D02*
X46054819Y-16114285D01*
X46054819Y-16114285D02*
X46054819Y-15733333D01*
X46054819Y-15733333D02*
X46102438Y-15638095D01*
X46102438Y-15638095D02*
X46150057Y-15590476D01*
X46150057Y-15590476D02*
X46245295Y-15542857D01*
X46245295Y-15542857D02*
X46388152Y-15542857D01*
X46388152Y-15542857D02*
X46483390Y-15590476D01*
X46483390Y-15590476D02*
X46531009Y-15638095D01*
X46531009Y-15638095D02*
X46578628Y-15733333D01*
X46578628Y-15733333D02*
X46578628Y-16114285D01*
X47054819Y-14590476D02*
X47054819Y-15161904D01*
X47054819Y-14876190D02*
X46054819Y-14876190D01*
X46054819Y-14876190D02*
X46197676Y-14971428D01*
X46197676Y-14971428D02*
X46292914Y-15066666D01*
X46292914Y-15066666D02*
X46340533Y-15161904D01*
X46388152Y-13733333D02*
X47054819Y-13733333D01*
X46007200Y-13971428D02*
X46721485Y-14209523D01*
X46721485Y-14209523D02*
X46721485Y-13590476D01*
X63304819Y-11642857D02*
X62828628Y-11976190D01*
X63304819Y-12214285D02*
X62304819Y-12214285D01*
X62304819Y-12214285D02*
X62304819Y-11833333D01*
X62304819Y-11833333D02*
X62352438Y-11738095D01*
X62352438Y-11738095D02*
X62400057Y-11690476D01*
X62400057Y-11690476D02*
X62495295Y-11642857D01*
X62495295Y-11642857D02*
X62638152Y-11642857D01*
X62638152Y-11642857D02*
X62733390Y-11690476D01*
X62733390Y-11690476D02*
X62781009Y-11738095D01*
X62781009Y-11738095D02*
X62828628Y-11833333D01*
X62828628Y-11833333D02*
X62828628Y-12214285D01*
X63304819Y-10690476D02*
X63304819Y-11261904D01*
X63304819Y-10976190D02*
X62304819Y-10976190D01*
X62304819Y-10976190D02*
X62447676Y-11071428D01*
X62447676Y-11071428D02*
X62542914Y-11166666D01*
X62542914Y-11166666D02*
X62590533Y-11261904D01*
X62304819Y-9785714D02*
X62304819Y-10261904D01*
X62304819Y-10261904D02*
X62781009Y-10309523D01*
X62781009Y-10309523D02*
X62733390Y-10261904D01*
X62733390Y-10261904D02*
X62685771Y-10166666D01*
X62685771Y-10166666D02*
X62685771Y-9928571D01*
X62685771Y-9928571D02*
X62733390Y-9833333D01*
X62733390Y-9833333D02*
X62781009Y-9785714D01*
X62781009Y-9785714D02*
X62876247Y-9738095D01*
X62876247Y-9738095D02*
X63114342Y-9738095D01*
X63114342Y-9738095D02*
X63209580Y-9785714D01*
X63209580Y-9785714D02*
X63257200Y-9833333D01*
X63257200Y-9833333D02*
X63304819Y-9928571D01*
X63304819Y-9928571D02*
X63304819Y-10166666D01*
X63304819Y-10166666D02*
X63257200Y-10261904D01*
X63257200Y-10261904D02*
X63209580Y-10309523D01*
X49054819Y-23942857D02*
X48578628Y-24276190D01*
X49054819Y-24514285D02*
X48054819Y-24514285D01*
X48054819Y-24514285D02*
X48054819Y-24133333D01*
X48054819Y-24133333D02*
X48102438Y-24038095D01*
X48102438Y-24038095D02*
X48150057Y-23990476D01*
X48150057Y-23990476D02*
X48245295Y-23942857D01*
X48245295Y-23942857D02*
X48388152Y-23942857D01*
X48388152Y-23942857D02*
X48483390Y-23990476D01*
X48483390Y-23990476D02*
X48531009Y-24038095D01*
X48531009Y-24038095D02*
X48578628Y-24133333D01*
X48578628Y-24133333D02*
X48578628Y-24514285D01*
X48150057Y-23561904D02*
X48102438Y-23514285D01*
X48102438Y-23514285D02*
X48054819Y-23419047D01*
X48054819Y-23419047D02*
X48054819Y-23180952D01*
X48054819Y-23180952D02*
X48102438Y-23085714D01*
X48102438Y-23085714D02*
X48150057Y-23038095D01*
X48150057Y-23038095D02*
X48245295Y-22990476D01*
X48245295Y-22990476D02*
X48340533Y-22990476D01*
X48340533Y-22990476D02*
X48483390Y-23038095D01*
X48483390Y-23038095D02*
X49054819Y-23609523D01*
X49054819Y-23609523D02*
X49054819Y-22990476D01*
X48054819Y-22371428D02*
X48054819Y-22276190D01*
X48054819Y-22276190D02*
X48102438Y-22180952D01*
X48102438Y-22180952D02*
X48150057Y-22133333D01*
X48150057Y-22133333D02*
X48245295Y-22085714D01*
X48245295Y-22085714D02*
X48435771Y-22038095D01*
X48435771Y-22038095D02*
X48673866Y-22038095D01*
X48673866Y-22038095D02*
X48864342Y-22085714D01*
X48864342Y-22085714D02*
X48959580Y-22133333D01*
X48959580Y-22133333D02*
X49007200Y-22180952D01*
X49007200Y-22180952D02*
X49054819Y-22276190D01*
X49054819Y-22276190D02*
X49054819Y-22371428D01*
X49054819Y-22371428D02*
X49007200Y-22466666D01*
X49007200Y-22466666D02*
X48959580Y-22514285D01*
X48959580Y-22514285D02*
X48864342Y-22561904D01*
X48864342Y-22561904D02*
X48673866Y-22609523D01*
X48673866Y-22609523D02*
X48435771Y-22609523D01*
X48435771Y-22609523D02*
X48245295Y-22561904D01*
X48245295Y-22561904D02*
X48150057Y-22514285D01*
X48150057Y-22514285D02*
X48102438Y-22466666D01*
X48102438Y-22466666D02*
X48054819Y-22371428D01*
X41757142Y-6054819D02*
X41423809Y-5578628D01*
X41185714Y-6054819D02*
X41185714Y-5054819D01*
X41185714Y-5054819D02*
X41566666Y-5054819D01*
X41566666Y-5054819D02*
X41661904Y-5102438D01*
X41661904Y-5102438D02*
X41709523Y-5150057D01*
X41709523Y-5150057D02*
X41757142Y-5245295D01*
X41757142Y-5245295D02*
X41757142Y-5388152D01*
X41757142Y-5388152D02*
X41709523Y-5483390D01*
X41709523Y-5483390D02*
X41661904Y-5531009D01*
X41661904Y-5531009D02*
X41566666Y-5578628D01*
X41566666Y-5578628D02*
X41185714Y-5578628D01*
X42709523Y-6054819D02*
X42138095Y-6054819D01*
X42423809Y-6054819D02*
X42423809Y-5054819D01*
X42423809Y-5054819D02*
X42328571Y-5197676D01*
X42328571Y-5197676D02*
X42233333Y-5292914D01*
X42233333Y-5292914D02*
X42138095Y-5340533D01*
X43042857Y-5054819D02*
X43661904Y-5054819D01*
X43661904Y-5054819D02*
X43328571Y-5435771D01*
X43328571Y-5435771D02*
X43471428Y-5435771D01*
X43471428Y-5435771D02*
X43566666Y-5483390D01*
X43566666Y-5483390D02*
X43614285Y-5531009D01*
X43614285Y-5531009D02*
X43661904Y-5626247D01*
X43661904Y-5626247D02*
X43661904Y-5864342D01*
X43661904Y-5864342D02*
X43614285Y-5959580D01*
X43614285Y-5959580D02*
X43566666Y-6007200D01*
X43566666Y-6007200D02*
X43471428Y-6054819D01*
X43471428Y-6054819D02*
X43185714Y-6054819D01*
X43185714Y-6054819D02*
X43090476Y-6007200D01*
X43090476Y-6007200D02*
X43042857Y-5959580D01*
X64129819Y-46707857D02*
X63653628Y-47041190D01*
X64129819Y-47279285D02*
X63129819Y-47279285D01*
X63129819Y-47279285D02*
X63129819Y-46898333D01*
X63129819Y-46898333D02*
X63177438Y-46803095D01*
X63177438Y-46803095D02*
X63225057Y-46755476D01*
X63225057Y-46755476D02*
X63320295Y-46707857D01*
X63320295Y-46707857D02*
X63463152Y-46707857D01*
X63463152Y-46707857D02*
X63558390Y-46755476D01*
X63558390Y-46755476D02*
X63606009Y-46803095D01*
X63606009Y-46803095D02*
X63653628Y-46898333D01*
X63653628Y-46898333D02*
X63653628Y-47279285D01*
X63225057Y-46326904D02*
X63177438Y-46279285D01*
X63177438Y-46279285D02*
X63129819Y-46184047D01*
X63129819Y-46184047D02*
X63129819Y-45945952D01*
X63129819Y-45945952D02*
X63177438Y-45850714D01*
X63177438Y-45850714D02*
X63225057Y-45803095D01*
X63225057Y-45803095D02*
X63320295Y-45755476D01*
X63320295Y-45755476D02*
X63415533Y-45755476D01*
X63415533Y-45755476D02*
X63558390Y-45803095D01*
X63558390Y-45803095D02*
X64129819Y-46374523D01*
X64129819Y-46374523D02*
X64129819Y-45755476D01*
X64129819Y-44803095D02*
X64129819Y-45374523D01*
X64129819Y-45088809D02*
X63129819Y-45088809D01*
X63129819Y-45088809D02*
X63272676Y-45184047D01*
X63272676Y-45184047D02*
X63367914Y-45279285D01*
X63367914Y-45279285D02*
X63415533Y-45374523D01*
X55934999Y-40852636D02*
X55934999Y-41665449D01*
X55934999Y-41665449D02*
X55982812Y-41761074D01*
X55982812Y-41761074D02*
X56030624Y-41808887D01*
X56030624Y-41808887D02*
X56126249Y-41856699D01*
X56126249Y-41856699D02*
X56317499Y-41856699D01*
X56317499Y-41856699D02*
X56413124Y-41808887D01*
X56413124Y-41808887D02*
X56460937Y-41761074D01*
X56460937Y-41761074D02*
X56508749Y-41665449D01*
X56508749Y-41665449D02*
X56508749Y-40852636D01*
X57417188Y-41187324D02*
X57417188Y-41856699D01*
X57178125Y-40804824D02*
X56939063Y-41522011D01*
X56939063Y-41522011D02*
X57560625Y-41522011D01*
X21294819Y-27761904D02*
X22104342Y-27761904D01*
X22104342Y-27761904D02*
X22199580Y-27714285D01*
X22199580Y-27714285D02*
X22247200Y-27666666D01*
X22247200Y-27666666D02*
X22294819Y-27571428D01*
X22294819Y-27571428D02*
X22294819Y-27380952D01*
X22294819Y-27380952D02*
X22247200Y-27285714D01*
X22247200Y-27285714D02*
X22199580Y-27238095D01*
X22199580Y-27238095D02*
X22104342Y-27190476D01*
X22104342Y-27190476D02*
X21294819Y-27190476D01*
X22294819Y-26190476D02*
X22294819Y-26761904D01*
X22294819Y-26476190D02*
X21294819Y-26476190D01*
X21294819Y-26476190D02*
X21437676Y-26571428D01*
X21437676Y-26571428D02*
X21532914Y-26666666D01*
X21532914Y-26666666D02*
X21580533Y-26761904D01*
X55260019Y-5132176D02*
X55260019Y-5944989D01*
X55260019Y-5944989D02*
X55307832Y-6040614D01*
X55307832Y-6040614D02*
X55355644Y-6088427D01*
X55355644Y-6088427D02*
X55451269Y-6136239D01*
X55451269Y-6136239D02*
X55642519Y-6136239D01*
X55642519Y-6136239D02*
X55738144Y-6088427D01*
X55738144Y-6088427D02*
X55785957Y-6040614D01*
X55785957Y-6040614D02*
X55833769Y-5944989D01*
X55833769Y-5944989D02*
X55833769Y-5132176D01*
X56264083Y-5227801D02*
X56311895Y-5179989D01*
X56311895Y-5179989D02*
X56407520Y-5132176D01*
X56407520Y-5132176D02*
X56646583Y-5132176D01*
X56646583Y-5132176D02*
X56742208Y-5179989D01*
X56742208Y-5179989D02*
X56790020Y-5227801D01*
X56790020Y-5227801D02*
X56837833Y-5323426D01*
X56837833Y-5323426D02*
X56837833Y-5419051D01*
X56837833Y-5419051D02*
X56790020Y-5562489D01*
X56790020Y-5562489D02*
X56216270Y-6136239D01*
X56216270Y-6136239D02*
X56837833Y-6136239D01*
X47554819Y-51442857D02*
X47078628Y-51776190D01*
X47554819Y-52014285D02*
X46554819Y-52014285D01*
X46554819Y-52014285D02*
X46554819Y-51633333D01*
X46554819Y-51633333D02*
X46602438Y-51538095D01*
X46602438Y-51538095D02*
X46650057Y-51490476D01*
X46650057Y-51490476D02*
X46745295Y-51442857D01*
X46745295Y-51442857D02*
X46888152Y-51442857D01*
X46888152Y-51442857D02*
X46983390Y-51490476D01*
X46983390Y-51490476D02*
X47031009Y-51538095D01*
X47031009Y-51538095D02*
X47078628Y-51633333D01*
X47078628Y-51633333D02*
X47078628Y-52014285D01*
X46650057Y-51061904D02*
X46602438Y-51014285D01*
X46602438Y-51014285D02*
X46554819Y-50919047D01*
X46554819Y-50919047D02*
X46554819Y-50680952D01*
X46554819Y-50680952D02*
X46602438Y-50585714D01*
X46602438Y-50585714D02*
X46650057Y-50538095D01*
X46650057Y-50538095D02*
X46745295Y-50490476D01*
X46745295Y-50490476D02*
X46840533Y-50490476D01*
X46840533Y-50490476D02*
X46983390Y-50538095D01*
X46983390Y-50538095D02*
X47554819Y-51109523D01*
X47554819Y-51109523D02*
X47554819Y-50490476D01*
X46554819Y-50157142D02*
X46554819Y-49538095D01*
X46554819Y-49538095D02*
X46935771Y-49871428D01*
X46935771Y-49871428D02*
X46935771Y-49728571D01*
X46935771Y-49728571D02*
X46983390Y-49633333D01*
X46983390Y-49633333D02*
X47031009Y-49585714D01*
X47031009Y-49585714D02*
X47126247Y-49538095D01*
X47126247Y-49538095D02*
X47364342Y-49538095D01*
X47364342Y-49538095D02*
X47459580Y-49585714D01*
X47459580Y-49585714D02*
X47507200Y-49633333D01*
X47507200Y-49633333D02*
X47554819Y-49728571D01*
X47554819Y-49728571D02*
X47554819Y-50014285D01*
X47554819Y-50014285D02*
X47507200Y-50109523D01*
X47507200Y-50109523D02*
X47459580Y-50157142D01*
X49254819Y-43542857D02*
X48778628Y-43876190D01*
X49254819Y-44114285D02*
X48254819Y-44114285D01*
X48254819Y-44114285D02*
X48254819Y-43733333D01*
X48254819Y-43733333D02*
X48302438Y-43638095D01*
X48302438Y-43638095D02*
X48350057Y-43590476D01*
X48350057Y-43590476D02*
X48445295Y-43542857D01*
X48445295Y-43542857D02*
X48588152Y-43542857D01*
X48588152Y-43542857D02*
X48683390Y-43590476D01*
X48683390Y-43590476D02*
X48731009Y-43638095D01*
X48731009Y-43638095D02*
X48778628Y-43733333D01*
X48778628Y-43733333D02*
X48778628Y-44114285D01*
X48350057Y-43161904D02*
X48302438Y-43114285D01*
X48302438Y-43114285D02*
X48254819Y-43019047D01*
X48254819Y-43019047D02*
X48254819Y-42780952D01*
X48254819Y-42780952D02*
X48302438Y-42685714D01*
X48302438Y-42685714D02*
X48350057Y-42638095D01*
X48350057Y-42638095D02*
X48445295Y-42590476D01*
X48445295Y-42590476D02*
X48540533Y-42590476D01*
X48540533Y-42590476D02*
X48683390Y-42638095D01*
X48683390Y-42638095D02*
X49254819Y-43209523D01*
X49254819Y-43209523D02*
X49254819Y-42590476D01*
X48588152Y-41733333D02*
X49254819Y-41733333D01*
X48207200Y-41971428D02*
X48921485Y-42209523D01*
X48921485Y-42209523D02*
X48921485Y-41590476D01*
X55360019Y-21392176D02*
X55360019Y-22204989D01*
X55360019Y-22204989D02*
X55407832Y-22300614D01*
X55407832Y-22300614D02*
X55455644Y-22348427D01*
X55455644Y-22348427D02*
X55551269Y-22396239D01*
X55551269Y-22396239D02*
X55742519Y-22396239D01*
X55742519Y-22396239D02*
X55838144Y-22348427D01*
X55838144Y-22348427D02*
X55885957Y-22300614D01*
X55885957Y-22300614D02*
X55933769Y-22204989D01*
X55933769Y-22204989D02*
X55933769Y-21392176D01*
X56316270Y-21392176D02*
X56937833Y-21392176D01*
X56937833Y-21392176D02*
X56603145Y-21774676D01*
X56603145Y-21774676D02*
X56746583Y-21774676D01*
X56746583Y-21774676D02*
X56842208Y-21822489D01*
X56842208Y-21822489D02*
X56890020Y-21870301D01*
X56890020Y-21870301D02*
X56937833Y-21965926D01*
X56937833Y-21965926D02*
X56937833Y-22204989D01*
X56937833Y-22204989D02*
X56890020Y-22300614D01*
X56890020Y-22300614D02*
X56842208Y-22348427D01*
X56842208Y-22348427D02*
X56746583Y-22396239D01*
X56746583Y-22396239D02*
X56459708Y-22396239D01*
X56459708Y-22396239D02*
X56364083Y-22348427D01*
X56364083Y-22348427D02*
X56316270Y-22300614D01*
X8699819Y-27533333D02*
X9414104Y-27533333D01*
X9414104Y-27533333D02*
X9556961Y-27580952D01*
X9556961Y-27580952D02*
X9652200Y-27676190D01*
X9652200Y-27676190D02*
X9699819Y-27819047D01*
X9699819Y-27819047D02*
X9699819Y-27914285D01*
X9699819Y-26533333D02*
X9699819Y-27104761D01*
X9699819Y-26819047D02*
X8699819Y-26819047D01*
X8699819Y-26819047D02*
X8842676Y-26914285D01*
X8842676Y-26914285D02*
X8937914Y-27009523D01*
X8937914Y-27009523D02*
X8985533Y-27104761D01*
%TO.C,C2*%
D11*
X27265000Y-23561252D02*
X27265000Y-23038748D01*
X28735000Y-23561252D02*
X28735000Y-23038748D01*
%TO.C,C7*%
X56261252Y-3135000D02*
X55738748Y-3135000D01*
X56261252Y-1665000D02*
X55738748Y-1665000D01*
%TO.C,C9*%
X50538748Y-4565000D02*
X51061252Y-4565000D01*
X50538748Y-6035000D02*
X51061252Y-6035000D01*
%TO.C,C6*%
X17111252Y-41310000D02*
X15688748Y-41310000D01*
X17111252Y-39490000D02*
X15688748Y-39490000D01*
%TO.C,C10*%
X17111252Y-45010000D02*
X15688748Y-45010000D01*
X17111252Y-43190000D02*
X15688748Y-43190000D01*
%TO.C,C3*%
X29465000Y-23561252D02*
X29465000Y-23038748D01*
X30935000Y-23561252D02*
X30935000Y-23038748D01*
%TO.C,C5*%
X27038748Y-30465000D02*
X27561252Y-30465000D01*
X27038748Y-31935000D02*
X27561252Y-31935000D01*
%TO.C,C1*%
X24965000Y-23511252D02*
X24965000Y-22988748D01*
X26435000Y-23511252D02*
X26435000Y-22988748D01*
%TO.C,C4*%
X24638748Y-17265000D02*
X25161252Y-17265000D01*
X24638748Y-18735000D02*
X25161252Y-18735000D01*
%TO.C,C8*%
X45588748Y-3390000D02*
X47011252Y-3390000D01*
X45588748Y-5210000D02*
X47011252Y-5210000D01*
%TO.C,C12*%
X50938748Y-20965000D02*
X51461252Y-20965000D01*
X50938748Y-22435000D02*
X51461252Y-22435000D01*
%TO.C,C11*%
X56061252Y-19735000D02*
X55538748Y-19735000D01*
X56061252Y-18265000D02*
X55538748Y-18265000D01*
%TO.C,C13*%
X45688748Y-19690000D02*
X47111252Y-19690000D01*
X45688748Y-21510000D02*
X47111252Y-21510000D01*
%TO.C,C16*%
X50938748Y-39965000D02*
X51461252Y-39965000D01*
X50938748Y-41435000D02*
X51461252Y-41435000D01*
%TO.C,C17*%
X45413748Y-39190000D02*
X46836252Y-39190000D01*
X45413748Y-41010000D02*
X46836252Y-41010000D01*
%TO.C,D1*%
X6215000Y-35140000D02*
X6215000Y-37060000D01*
X6215000Y-37060000D02*
X8900000Y-37060000D01*
X8900000Y-35140000D02*
X6215000Y-35140000D01*
%TO.C,C14*%
X17011252Y-48810000D02*
X15588748Y-48810000D01*
X17011252Y-46990000D02*
X15588748Y-46990000D01*
%TO.C,C15*%
X56061252Y-38835000D02*
X55538748Y-38835000D01*
X56061252Y-37365000D02*
X55538748Y-37365000D01*
%TO.C,D2*%
X6115000Y-38340000D02*
X6115000Y-40260000D01*
X6115000Y-40260000D02*
X8800000Y-40260000D01*
X8800000Y-38340000D02*
X6115000Y-38340000D01*
%TO.C,D3*%
X48590000Y-13450000D02*
X48590000Y-16750000D01*
X48590000Y-13450000D02*
X54100000Y-13450000D01*
X48590000Y-16750000D02*
X54100000Y-16750000D01*
%TO.C,D4*%
X48590000Y-30050000D02*
X48590000Y-33350000D01*
X48590000Y-30050000D02*
X54100000Y-30050000D01*
X48590000Y-33350000D02*
X54100000Y-33350000D01*
%TO.C,R4*%
X9172936Y-15765000D02*
X9627064Y-15765000D01*
X9172936Y-17235000D02*
X9627064Y-17235000D01*
%TO.C,R7*%
X23265000Y-30714564D02*
X23265000Y-30260436D01*
X24735000Y-30714564D02*
X24735000Y-30260436D01*
%TO.C,R3*%
X14935000Y-15672936D02*
X14935000Y-16127064D01*
X13465000Y-15672936D02*
X13465000Y-16127064D01*
%TO.C,R8*%
X11635000Y-23472936D02*
X11635000Y-23927064D01*
X10165000Y-23472936D02*
X10165000Y-23927064D01*
%TO.C,R6*%
X24735000Y-26672936D02*
X24735000Y-27127064D01*
X23265000Y-26672936D02*
X23265000Y-27127064D01*
%TO.C,R2*%
X18135000Y-15672936D02*
X18135000Y-16127064D01*
X16665000Y-15672936D02*
X16665000Y-16127064D01*
%TO.C,R9*%
X26527064Y-34835000D02*
X26072936Y-34835000D01*
X26527064Y-33365000D02*
X26072936Y-33365000D01*
%TO.C,R1*%
X21335000Y-15772936D02*
X21335000Y-16227064D01*
X19865000Y-15772936D02*
X19865000Y-16227064D01*
%TO.C,R5*%
X9272936Y-18965000D02*
X9727064Y-18965000D01*
X9272936Y-20435000D02*
X9727064Y-20435000D01*
%TO.C,R10*%
X11635000Y-27472936D02*
X11635000Y-27927064D01*
X10165000Y-27472936D02*
X10165000Y-27927064D01*
%TO.C,R11*%
X12235000Y-37372936D02*
X12235000Y-37827064D01*
X10765000Y-37372936D02*
X10765000Y-37827064D01*
%TO.C,J2*%
X81000000Y-38800000D02*
X66300000Y-38800000D01*
X81000000Y-29600000D02*
X81000000Y-38800000D01*
X72200000Y-29600000D02*
X81000000Y-29600000D01*
X67150000Y-39000000D02*
X66100000Y-39000000D01*
X66300000Y-38800000D02*
X66300000Y-36200000D01*
X66300000Y-32300000D02*
X66300000Y-29600000D01*
X66300000Y-29600000D02*
X68200000Y-29600000D01*
X66100000Y-37950000D02*
X66100000Y-39000000D01*
%TO.C,Q1*%
X15140000Y-34740000D02*
X16660000Y-34740000D01*
X15140000Y-34790000D02*
X15140000Y-34740000D01*
X15140000Y-36690000D02*
X15140000Y-35910000D01*
X15140000Y-37860000D02*
X15140000Y-37810000D01*
X16660000Y-34740000D02*
X16660000Y-35740000D01*
X16660000Y-36860000D02*
X16660000Y-37860000D01*
X16660000Y-37860000D02*
X15140000Y-37860000D01*
X14840000Y-36250000D02*
X14360000Y-36250000D01*
X14600000Y-35920000D01*
X14840000Y-36250000D01*
G36*
X14840000Y-36250000D02*
G01*
X14360000Y-36250000D01*
X14600000Y-35920000D01*
X14840000Y-36250000D01*
G37*
%TO.C,J4*%
X74452500Y-47180000D02*
X74452500Y-54420000D01*
X68232500Y-47180000D02*
X68232500Y-54420000D01*
X67132500Y-47180000D02*
X67132500Y-54420000D01*
X66612500Y-47180000D02*
X74452500Y-47180000D01*
X66612500Y-48750000D02*
X66612500Y-47180000D01*
X74452500Y-54420000D02*
X66612500Y-54420000D01*
X66612500Y-54420000D02*
X66612500Y-49350000D01*
X66612500Y-49050000D02*
X66002500Y-49490000D01*
X66002500Y-48610000D01*
X66612500Y-49050000D01*
G36*
X66612500Y-49050000D02*
G01*
X66002500Y-49490000D01*
X66002500Y-48610000D01*
X66612500Y-49050000D01*
G37*
%TO.C,J5*%
X28270000Y-55620000D02*
X21030000Y-55620000D01*
X28270000Y-49400000D02*
X21030000Y-49400000D01*
X28270000Y-48300000D02*
X21030000Y-48300000D01*
X28270000Y-47780000D02*
X28270000Y-55620000D01*
X26700000Y-47780000D02*
X28270000Y-47780000D01*
X21030000Y-55620000D02*
X21030000Y-47780000D01*
X21030000Y-47780000D02*
X26100000Y-47780000D01*
X26400000Y-47780000D02*
X25960000Y-47170000D01*
X26840000Y-47170000D01*
X26400000Y-47780000D01*
G36*
X26400000Y-47780000D02*
G01*
X25960000Y-47170000D01*
X26840000Y-47170000D01*
X26400000Y-47780000D01*
G37*
%TO.C,D5*%
X49490000Y-49350000D02*
X49490000Y-52650000D01*
X49490000Y-49350000D02*
X55000000Y-49350000D01*
X49490000Y-52650000D02*
X55000000Y-52650000D01*
%TO.C,L3*%
X34115000Y-52605000D02*
X35615000Y-52605000D01*
X34115000Y-52605000D02*
X34115000Y-51105000D01*
X44835000Y-52605000D02*
X43335000Y-52605000D01*
X44835000Y-52605000D02*
X44835000Y-51105000D01*
X34115000Y-41985000D02*
X34115000Y-43485000D01*
X34115000Y-41985000D02*
X35615000Y-41985000D01*
X44835000Y-41985000D02*
X44835000Y-43485000D01*
X44835000Y-41985000D02*
X43335000Y-41985000D01*
%TO.C,Q2*%
X19377500Y-36300000D02*
X18897500Y-36300000D01*
X19137500Y-35970000D01*
X19377500Y-36300000D01*
G36*
X19377500Y-36300000D02*
G01*
X18897500Y-36300000D01*
X19137500Y-35970000D01*
X19377500Y-36300000D01*
G37*
X21197500Y-37910000D02*
X19677500Y-37910000D01*
X21197500Y-36910000D02*
X21197500Y-37910000D01*
X21197500Y-34790000D02*
X21197500Y-35790000D01*
X19677500Y-37910000D02*
X19677500Y-37860000D01*
X19677500Y-36740000D02*
X19677500Y-35960000D01*
X19677500Y-34840000D02*
X19677500Y-34790000D01*
X19677500Y-34790000D02*
X21197500Y-34790000D01*
%TO.C,J3*%
X79500000Y-19950000D02*
X80000000Y-19950000D01*
X80000000Y-19950000D02*
X80000000Y-5450000D01*
X66000000Y-18950000D02*
X68000000Y-18950000D01*
X71500000Y-18950000D02*
X79500000Y-18950000D01*
X79500000Y-18950000D02*
X79500000Y-19950000D01*
X65750000Y-16700000D02*
X65750000Y-15700000D01*
X66000000Y-6450000D02*
X66000000Y-18950000D01*
X68000000Y-6450000D02*
X66000000Y-6450000D01*
X79500000Y-6450000D02*
X71500000Y-6450000D01*
X79500000Y-5450000D02*
X79500000Y-6450000D01*
X80000000Y-5450000D02*
X79500000Y-5450000D01*
%TO.C,L1*%
X34615000Y-17205000D02*
X36115000Y-17205000D01*
X34615000Y-17205000D02*
X34615000Y-15705000D01*
X45335000Y-17205000D02*
X43835000Y-17205000D01*
X45335000Y-17205000D02*
X45335000Y-15705000D01*
X34615000Y-6585000D02*
X34615000Y-8085000D01*
X34615000Y-6585000D02*
X36115000Y-6585000D01*
X45335000Y-6585000D02*
X45335000Y-8085000D01*
X45335000Y-6585000D02*
X43835000Y-6585000D01*
%TO.C,L2*%
X34315000Y-33505000D02*
X35815000Y-33505000D01*
X34315000Y-33505000D02*
X34315000Y-32005000D01*
X45035000Y-33505000D02*
X43535000Y-33505000D01*
X45035000Y-33505000D02*
X45035000Y-32005000D01*
X34315000Y-22885000D02*
X34315000Y-24385000D01*
X34315000Y-22885000D02*
X35815000Y-22885000D01*
X45035000Y-22885000D02*
X45035000Y-24385000D01*
X45035000Y-22885000D02*
X43535000Y-22885000D01*
%TO.C,R12*%
X10965000Y-33727064D02*
X10965000Y-33272936D01*
X12435000Y-33727064D02*
X12435000Y-33272936D01*
%TO.C,R17*%
X63485000Y-26637936D02*
X63485000Y-27092064D01*
X62015000Y-26637936D02*
X62015000Y-27092064D01*
%TO.C,R22*%
X50072936Y-44665000D02*
X50527064Y-44665000D01*
X50072936Y-46135000D02*
X50527064Y-46135000D01*
%TO.C,R18*%
X50072936Y-25765000D02*
X50527064Y-25765000D01*
X50072936Y-27235000D02*
X50527064Y-27235000D01*
%TO.C,R19*%
X46265000Y-27927064D02*
X46265000Y-27472936D01*
X47735000Y-27927064D02*
X47735000Y-27472936D01*
%TO.C,R16*%
X49960436Y-8665000D02*
X50414564Y-8665000D01*
X49960436Y-10135000D02*
X50414564Y-10135000D01*
%TO.C,R14*%
X46265000Y-11814564D02*
X46265000Y-11360436D01*
X47735000Y-11814564D02*
X47735000Y-11360436D01*
%TO.C,R15*%
X61935000Y-10772936D02*
X61935000Y-11227064D01*
X60465000Y-10772936D02*
X60465000Y-11227064D01*
%TO.C,R20*%
X46165000Y-24327064D02*
X46165000Y-23872936D01*
X47635000Y-24327064D02*
X47635000Y-23872936D01*
%TO.C,R13*%
X46265000Y-8027064D02*
X46265000Y-7572936D01*
X47735000Y-8027064D02*
X47735000Y-7572936D01*
%TO.C,R21*%
X62760000Y-45837936D02*
X62760000Y-46292064D01*
X61290000Y-45837936D02*
X61290000Y-46292064D01*
%TO.C,U4*%
D12*
X54125000Y-42365000D02*
X58125000Y-42365000D01*
X58125000Y-42365000D02*
X58125000Y-42465000D01*
X54125000Y-42365000D02*
X54125000Y-42465000D01*
X54125000Y-47365000D02*
X58125000Y-47365000D01*
X54125000Y-47265000D02*
X54125000Y-47365000D01*
X58125000Y-47265000D02*
X58125000Y-47365000D01*
D13*
X53558000Y-42125000D02*
G75*
G02*
X53358000Y-42125000I-100000J0D01*
G01*
X53358000Y-42125000D02*
G75*
G02*
X53558000Y-42125000I100000J0D01*
G01*
%TO.C,U1*%
D11*
X20620000Y-24890000D02*
X20620000Y-25365000D01*
X20145000Y-24890000D02*
X20620000Y-24890000D01*
X16400000Y-24890000D02*
X16875000Y-24890000D01*
X16400000Y-25365000D02*
X16400000Y-24890000D01*
X20620000Y-28635000D02*
X20620000Y-29110000D01*
X20620000Y-29110000D02*
X20145000Y-29110000D01*
X16875000Y-29110000D02*
X16400000Y-29110000D01*
X16400000Y-29110000D02*
X16400000Y-28635000D01*
X19760000Y-24360000D02*
X19520000Y-24030000D01*
X20000000Y-24030000D01*
X19760000Y-24360000D01*
G36*
X19760000Y-24360000D02*
G01*
X19520000Y-24030000D01*
X20000000Y-24030000D01*
X19760000Y-24360000D01*
G37*
%TO.C,U2*%
D12*
X54025000Y-7005000D02*
X58025000Y-7005000D01*
X58025000Y-7005000D02*
X58025000Y-7105000D01*
X54025000Y-7005000D02*
X54025000Y-7105000D01*
X54025000Y-12005000D02*
X58025000Y-12005000D01*
X54025000Y-11905000D02*
X54025000Y-12005000D01*
X58025000Y-11905000D02*
X58025000Y-12005000D01*
D13*
X53458000Y-6765000D02*
G75*
G02*
X53258000Y-6765000I-100000J0D01*
G01*
X53258000Y-6765000D02*
G75*
G02*
X53458000Y-6765000I100000J0D01*
G01*
%TO.C,R23*%
D11*
X46265000Y-47827064D02*
X46265000Y-47372936D01*
X47735000Y-47827064D02*
X47735000Y-47372936D01*
%TO.C,R24*%
X46265000Y-43927064D02*
X46265000Y-43472936D01*
X47735000Y-43927064D02*
X47735000Y-43472936D01*
%TO.C,U3*%
D12*
X54125000Y-23265000D02*
X58125000Y-23265000D01*
X58125000Y-23265000D02*
X58125000Y-23365000D01*
X54125000Y-23265000D02*
X54125000Y-23365000D01*
X54125000Y-28265000D02*
X58125000Y-28265000D01*
X54125000Y-28165000D02*
X54125000Y-28265000D01*
X58125000Y-28165000D02*
X58125000Y-28265000D01*
D13*
X53558000Y-23025000D02*
G75*
G02*
X53358000Y-23025000I-100000J0D01*
G01*
X53358000Y-23025000D02*
G75*
G02*
X53558000Y-23025000I100000J0D01*
G01*
%TO.C,J1*%
D11*
X1600000Y-31900000D02*
X-300000Y-31900000D01*
X5500000Y-31900000D02*
X3500000Y-31900000D01*
X-300000Y-22500000D02*
X-300000Y-31900000D01*
X1600000Y-22500000D02*
X-300000Y-22500000D01*
X5500000Y-22500000D02*
X3500000Y-22500000D01*
%TD*%
M02*
