%TF.GenerationSoftware,KiCad,Pcbnew,10.0.1*%
%TF.CreationDate,2026-06-17T11:34:46+05:30*%
%TF.ProjectId,Macropad,4d616372-6f70-4616-942e-6b696361645f,rev?*%
%TF.SameCoordinates,Original*%
%TF.FileFunction,Copper,L1,Top*%
%TF.FilePolarity,Positive*%
%FSLAX46Y46*%
G04 Gerber Fmt 4.6, Leading zero omitted, Abs format (unit mm)*
G04 Created by KiCad (PCBNEW 10.0.1) date 2026-06-17 11:34:46*
%MOMM*%
%LPD*%
G01*
G04 APERTURE LIST*
%TA.AperFunction,ComponentPad*%
%ADD10C,2.500000*%
%TD*%
%TA.AperFunction,ComponentPad*%
%ADD11R,2.000000X2.000000*%
%TD*%
%TA.AperFunction,ComponentPad*%
%ADD12C,2.000000*%
%TD*%
%TA.AperFunction,ComponentPad*%
%ADD13R,3.200000X2.000000*%
%TD*%
%TA.AperFunction,ComponentPad*%
%ADD14R,1.508000X1.508000*%
%TD*%
%TA.AperFunction,ComponentPad*%
%ADD15C,1.508000*%
%TD*%
%TA.AperFunction,ComponentPad*%
%ADD16R,1.752600X1.752600*%
%TD*%
%TA.AperFunction,ComponentPad*%
%ADD17C,1.752600*%
%TD*%
%TA.AperFunction,ViaPad*%
%ADD18C,0.800000*%
%TD*%
%TA.AperFunction,Conductor*%
%ADD19C,0.250000*%
%TD*%
G04 APERTURE END LIST*
D10*
%TO.P,S2,1,1_1*%
%TO.N,/COL1*%
X28690000Y-34960000D03*
%TO.P,S2,2,2_2*%
%TO.N,Net-(D2-A)*%
X35040000Y-32420000D03*
%TD*%
%TO.P,S9,1,1_1*%
%TO.N,/COL2*%
X47690000Y-73060000D03*
%TO.P,S9,2,2_2*%
%TO.N,Net-(D9-A)*%
X54040000Y-70520000D03*
%TD*%
D11*
%TO.P,SW1,A,A_A*%
%TO.N,/ENC_A*%
X49700000Y-16400000D03*
D12*
%TO.P,SW1,B,B_B*%
%TO.N,/ENC_B*%
X49700000Y-21400000D03*
%TO.P,SW1,C,C_C*%
%TO.N,GND*%
X49700000Y-18900000D03*
D13*
%TO.P,SW1,MP*%
%TO.N,N/C*%
X57200000Y-13300000D03*
X57200000Y-24500000D03*
D12*
%TO.P,SW1,S1,S1_S1*%
%TO.N,/COL0*%
X64200000Y-21400000D03*
%TO.P,SW1,S2,S2_S2*%
%TO.N,Net-(D10-A)*%
X64200000Y-16400000D03*
%TD*%
D10*
%TO.P,S7,1,1_1*%
%TO.N,/COL0*%
X9690000Y-73060000D03*
%TO.P,S7,2,2_2*%
%TO.N,Net-(D7-A)*%
X16040000Y-70520000D03*
%TD*%
%TO.P,S5,1,1_1*%
%TO.N,/COL1*%
X28690000Y-54060000D03*
%TO.P,S5,2,2_2*%
%TO.N,Net-(D5-A)*%
X35040000Y-51520000D03*
%TD*%
%TO.P,S3,1,1_1*%
%TO.N,/COL2*%
X47690000Y-34960000D03*
%TO.P,S3,2,2_2*%
%TO.N,Net-(D3-A)*%
X54040000Y-32420000D03*
%TD*%
%TO.P,S8,1,1_1*%
%TO.N,/COL1*%
X28690000Y-73060000D03*
%TO.P,S8,2,2_2*%
%TO.N,Net-(D8-A)*%
X35040000Y-70520000D03*
%TD*%
D14*
%TO.P,J1,1,GND_1*%
%TO.N,GND*%
X21510000Y-23800000D03*
D15*
%TO.P,J1,2,VCC_2*%
%TO.N,+5V*%
X18970000Y-23800000D03*
%TO.P,J1,3,SCL_3*%
%TO.N,/SCL*%
X16430000Y-23800000D03*
%TO.P,J1,4,SDA_4*%
%TO.N,/SDA*%
X13890000Y-23800000D03*
%TD*%
D10*
%TO.P,S4,1,1_1*%
%TO.N,/COL0*%
X9690000Y-54060000D03*
%TO.P,S4,2,2_2*%
%TO.N,Net-(D4-A)*%
X16040000Y-51520000D03*
%TD*%
%TO.P,S1,1,1_1*%
%TO.N,/COL0*%
X9690000Y-34960000D03*
%TO.P,S1,2,2_2*%
%TO.N,Net-(D1-A)*%
X16040000Y-32420000D03*
%TD*%
%TO.P,S6,1,1_1*%
%TO.N,/COL2*%
X47690000Y-54060000D03*
%TO.P,S6,2,2_2*%
%TO.N,Net-(D6-A)*%
X54040000Y-51520000D03*
%TD*%
D16*
%TO.P,U1,1,TX0/PD3_1*%
%TO.N,unconnected-(U1-TX0{slash}PD3-Pad1)*%
X47220000Y-30000D03*
D17*
%TO.P,U1,2,RX1/PD2_2*%
%TO.N,unconnected-(U1-RX1{slash}PD2-Pad2)*%
X47220000Y-2570000D03*
%TO.P,U1,3,GND_3*%
%TO.N,GND*%
X47220000Y-5110000D03*
%TO.P,U1,4,GND_4*%
X47220000Y-7650000D03*
%TO.P,U1,5,2/PD1_5*%
%TO.N,/SDA*%
X47220000Y-10190000D03*
%TO.P,U1,6,3/PD0_6*%
%TO.N,/SCL*%
X47220000Y-12730000D03*
%TO.P,U1,7,4/PD4_7*%
%TO.N,/ROW0*%
X47220000Y-15270000D03*
%TO.P,U1,8,5/PC6_8*%
%TO.N,/ROW1*%
X47220000Y-17810000D03*
%TO.P,U1,9,6/PD7_9*%
%TO.N,/ROW2*%
X47220000Y-20350000D03*
%TO.P,U1,10,7/PE6_10*%
%TO.N,/ROW3*%
X47220000Y-22890000D03*
%TO.P,U1,11,8/PB4_11*%
%TO.N,/COL0*%
X47220000Y-25430000D03*
%TO.P,U1,12,9/PB5_12*%
%TO.N,/COL1*%
X47220000Y-27970000D03*
%TO.P,U1,13,10/PB6_13*%
%TO.N,/COL2*%
X31980000Y-27970000D03*
%TO.P,U1,14,16/PB2_14*%
%TO.N,/ENC_A*%
X31980000Y-25430000D03*
%TO.P,U1,15,14/PB3_15*%
%TO.N,/ENC_B*%
X31980000Y-22890000D03*
%TO.P,U1,16,15/PB1_16*%
%TO.N,unconnected-(U1-15{slash}PB1-Pad16)*%
X31980000Y-20350000D03*
%TO.P,U1,17,A0/PF7_17*%
%TO.N,unconnected-(U1-A0{slash}PF7-Pad17)*%
X31980000Y-17810000D03*
%TO.P,U1,18,A1/PF6_18*%
%TO.N,unconnected-(U1-A1{slash}PF6-Pad18)*%
X31980000Y-15270000D03*
%TO.P,U1,19,A2/PF5_19*%
%TO.N,unconnected-(U1-A2{slash}PF5-Pad19)*%
X31980000Y-12730000D03*
%TO.P,U1,20,A3/PF4_20*%
%TO.N,unconnected-(U1-A3{slash}PF4-Pad20)*%
X31980000Y-10190000D03*
%TO.P,U1,21,VCC_21*%
%TO.N,+5V*%
X31980000Y-7650000D03*
%TO.P,U1,22,RST_22*%
%TO.N,Net-(U1-RST)*%
X31980000Y-5110000D03*
%TO.P,U1,23,GND_23*%
%TO.N,GND*%
X31980000Y-2570000D03*
%TO.P,U1,24,RAW_24*%
%TO.N,unconnected-(U1-RAW-Pad24)*%
X31980000Y-30000D03*
%TD*%
D18*
%TO.N,/ENC_A*%
X38200000Y-22000000D03*
%TO.N,Net-(U1-RST)*%
X39048000Y-79302500D03*
%TO.N,/ROW0*%
X41088200Y-36561800D03*
%TO.N,/ROW2*%
X45956300Y-78546400D03*
%TO.N,/ROW1*%
X42111800Y-55950000D03*
%TO.N,GND*%
X21510000Y-79293200D03*
%TO.N,/COL2*%
X33481200Y-31220900D03*
%TD*%
%TO.N,/ENC_A*%
D19*
X35410000Y-22000000D02*
X38200000Y-22000000D01*
X31980000Y-25430000D02*
X35410000Y-22000000D01*
%TO.N,Net-(U1-RST)*%
X39048000Y-12178000D02*
X39048000Y-79302500D01*
X31980000Y-5110000D02*
X39048000Y-12178000D01*
%TO.N,/ROW0*%
X41088200Y-21401800D02*
X41088200Y-36561800D01*
X47220000Y-15270000D02*
X41088200Y-21401800D01*
%TO.N,/ROW2*%
X44950100Y-22619900D02*
X47220000Y-20350000D01*
X44950100Y-77540200D02*
X44950100Y-22619900D01*
X45956300Y-78546400D02*
X44950100Y-77540200D01*
%TO.N,/ROW1*%
X42111800Y-22918200D02*
X47220000Y-17810000D01*
X42111800Y-55950000D02*
X42111800Y-22918200D01*
%TO.N,/COL0*%
X9921100Y-72828900D02*
X9690000Y-73060000D01*
X9921100Y-52554900D02*
X9921100Y-72828900D01*
X9921100Y-35191100D02*
X9921100Y-52554900D01*
X9690000Y-34960000D02*
X9921100Y-35191100D01*
X9921100Y-53828900D02*
X9690000Y-54060000D01*
X9921100Y-52554900D02*
X9921100Y-53828900D01*
%TO.N,GND*%
X47220000Y-7650000D02*
X47220000Y-5110000D01*
X21510000Y-13040000D02*
X31980000Y-2570000D01*
X21510000Y-23800000D02*
X21510000Y-13040000D01*
X21510000Y-23800000D02*
X21510000Y-79293200D01*
%TO.N,/COL2*%
X47871700Y-72878300D02*
X47690000Y-73060000D01*
X47871700Y-52533400D02*
X47871700Y-72878300D01*
X47871700Y-53878300D02*
X47871700Y-52533400D01*
X47690000Y-54060000D02*
X47871700Y-53878300D01*
X47871700Y-35141700D02*
X47690000Y-34960000D01*
X47871700Y-52533400D02*
X47871700Y-35141700D01*
X31980000Y-29719700D02*
X33481200Y-31220900D01*
X31980000Y-27970000D02*
X31980000Y-29719700D01*
%TO.N,/COL1*%
X28927300Y-54297300D02*
X28690000Y-54060000D01*
X28927300Y-72822700D02*
X28927300Y-54297300D01*
X28690000Y-73060000D02*
X28927300Y-72822700D01*
X28927200Y-35197200D02*
X28690000Y-34960000D01*
X28927200Y-53822800D02*
X28927200Y-35197200D01*
X28690000Y-54060000D02*
X28927200Y-53822800D01*
%TD*%
M02*
