M48
; DRILL file KiCad 10.0.1 date 2026-06-16T22:37:34
; FORMAT={-:-/ absolute / metric / decimal}
; #@! TF.CreationDate,2026-06-16T22:37:34+05:30
; #@! TF.GenerationSoftware,Kicad,Pcbnew,10.0.1
; #@! TF.FileFunction,Plated,1,2,PTH
FMAT,2
METRIC
; #@! TA.AperFunction,Plated,PTH,ViaDrill
T1C0.300
; #@! TA.AperFunction,Plated,PTH,ComponentDrill
T2C0.750
; #@! TA.AperFunction,Plated,PTH,ComponentDrill
T3C0.800
; #@! TA.AperFunction,Plated,PTH,ComponentDrill
T4C0.900
; #@! TA.AperFunction,Plated,PTH,ComponentDrill
T5C1.000
; #@! TA.AperFunction,Plated,PTH,ComponentDrill
T6C1.092
; #@! TA.AperFunction,Plated,PTH,ComponentDrill
T7C1.500
; #@! TA.AperFunction,Plated,PTH,ComponentDrill
T8C2.200
%
G90
G05
T1
X37.608Y-60.118
X46.599Y-116.202
X48.319Y-97.921
X49.208Y-117.658
X56.188Y-102.218
X60.485Y-60.118
X67.81Y-79.275
X70.63Y-116.337
X73.334Y-104.913
X76.297Y-98.158
X76.32Y-53.862
X76.8Y-77.9
X76.8Y-80.5
X79.703Y-34.592
X79.877Y-104.913
X82.8Y-90.3
X82.991Y-59.724
X89.187Y-78.94
X96.663Y-98.17
X97.075Y-81.339
X99.947Y-59.724
X105.627Y-78.989
X111.922Y-72.131
X112.987Y-54.29
X114.471Y-97.625
X114.808Y-36.532
X139.491Y-60.027
X144.158Y-79.125
X144.631Y-54.234
X144.738Y-69.186
X151.224Y-69.186
X153.299Y-36.177
X155.231Y-116.927
X156.9Y-41.159
X157.288Y-60.027
X163.294Y-79.014
X170.011Y-40.502
X171.62Y-39.978
X174.972Y-98.171
X176.541Y-14.949
X181.463Y-17.646
X181.569Y-55.313
X183.876Y-41.004
X184.3Y-51.7
X189.985Y-97.994
X196.686Y-60.077
X201.208Y-79.014
X204.664Y-63.499
X205.726Y-40.997
X213.53Y-60.077
X219.292Y-63.976
X223.543Y-116.746
X226.006Y-39.873
X226.28Y-60.135
X229.336Y-98.237
X229.553Y-111.356
X230.307Y-63.976
X230.347Y-31.123
X231.644Y-48.708
X235.1Y-67.4
X235.452Y-59.508
X237.046Y-82.872
X237.194Y-55.206
X238.1Y-70.0
X238.651Y-56.5
X238.805Y-73.115
X239.329Y-55.867
X239.539Y-79.022
X239.6Y-51.2
X240.295Y-86.688
X240.449Y-50.651
X241.999Y-52.201
X242.519Y-41.284
X247.3Y-31.9
X249.8Y-31.748
X249.841Y-98.129
X250.117Y-25.593
X250.513Y-78.615
X252.078Y-59.508
X252.979Y-28.914
X255.423Y-82.872
X260.8Y-117.553
X272.5Y-101.2
X273.607Y-40.357
X274.979Y-24.289
X279.8Y-117.6
X282.503Y-78.658
X282.794Y-18.883
X283.683Y-18.432
X284.084Y-10.811
X285.257Y-15.415
X286.834Y-12.128
X289.084Y-11.675
X290.168Y-21.665
X290.201Y-79.699
X290.295Y-40.357
X291.06Y-8.789
X292.773Y-10.574
X294.659Y-61.959
X296.7Y-74.3
X297.4Y-64.4
X316.9Y-86.381
X318.472Y-80.904
X322.098Y-26.119
T2
X267.798Y-23.855
X269.798Y-23.855
T3
X213.897Y-16.135
X213.897Y-23.755
X216.438Y-16.135
X216.438Y-23.755
X218.977Y-16.135
X218.977Y-23.755
X221.517Y-16.135
X221.517Y-23.755
X224.057Y-16.135
X224.057Y-23.755
X226.597Y-16.135
X226.597Y-23.755
X229.137Y-16.135
X229.137Y-23.755
X231.677Y-16.135
X231.677Y-23.755
X234.218Y-16.135
X234.218Y-23.755
X236.757Y-16.135
X236.757Y-23.755
X239.297Y-16.135
X239.297Y-23.755
X241.837Y-16.135
X241.837Y-23.755
X244.377Y-16.135
X244.377Y-23.755
X246.917Y-16.135
X246.917Y-23.755
T4
X27.525Y-43.025
X29.906Y-119.225
X30.065Y-43.025
X32.288Y-62.075
X32.446Y-119.225
X34.669Y-81.125
X34.828Y-62.075
X37.209Y-81.125
X39.431Y-100.175
X41.971Y-100.175
X46.575Y-43.025
X49.115Y-43.025
X53.719Y-119.225
X56.1Y-62.075
X56.259Y-119.225
X58.64Y-62.075
X60.862Y-81.125
X63.402Y-81.125
X65.625Y-43.025
X68.165Y-43.025
X70.388Y-100.175
X72.927Y-100.175
X75.15Y-62.075
X77.531Y-119.225
X77.69Y-62.075
X79.912Y-81.125
X80.071Y-119.225
X82.453Y-81.125
X84.675Y-43.025
X87.215Y-43.025
X89.438Y-100.175
X91.977Y-100.175
X94.2Y-62.075
X96.74Y-62.075
X98.962Y-81.125
X101.502Y-81.125
X103.725Y-43.025
X106.265Y-43.025
X108.487Y-100.175
X111.027Y-100.175
X113.25Y-62.075
X115.79Y-62.075
X118.012Y-81.125
X120.552Y-81.125
X122.775Y-43.025
X125.315Y-43.025
X127.537Y-100.175
X130.077Y-100.175
X132.3Y-62.075
X134.84Y-62.075
X137.062Y-81.125
X139.602Y-81.125
X141.825Y-43.025
X144.365Y-43.025
X146.588Y-100.175
X148.969Y-119.225
X149.127Y-100.175
X151.35Y-62.075
X151.509Y-119.225
X153.89Y-62.075
X156.112Y-81.125
X158.653Y-81.125
X160.875Y-43.025
X163.415Y-43.025
X165.637Y-100.175
X168.177Y-100.175
X170.4Y-62.075
X172.94Y-62.075
X175.162Y-81.125
X177.702Y-81.125
X179.925Y-43.025
X182.465Y-43.025
X184.688Y-100.175
X187.227Y-100.175
X189.45Y-62.075
X191.99Y-62.075
X194.212Y-81.125
X196.752Y-81.125
X198.975Y-43.025
X201.515Y-43.025
X203.737Y-100.175
X206.278Y-100.175
X208.5Y-62.075
X211.04Y-62.075
X213.262Y-81.125
X215.802Y-81.125
X218.025Y-43.025
X218.025Y-119.225
X220.565Y-43.025
X220.565Y-119.225
X222.787Y-100.175
X225.327Y-100.175
X227.55Y-62.075
X230.09Y-62.075
X232.312Y-81.125
X234.852Y-81.125
X237.075Y-43.025
X237.075Y-119.225
X239.615Y-43.025
X239.615Y-119.225
X241.837Y-100.175
X244.377Y-100.175
X246.6Y-62.075
X249.14Y-62.075
X251.362Y-81.125
X253.902Y-81.125
X256.125Y-43.025
X256.125Y-119.225
X258.665Y-43.025
X258.665Y-119.225
X265.65Y-62.075
X268.031Y-100.175
X268.19Y-62.075
X270.571Y-100.175
X275.175Y-119.225
X277.715Y-119.225
X282.319Y-81.125
X284.7Y-43.025
X284.859Y-81.125
X287.24Y-43.025
X289.462Y-62.075
X292.002Y-62.075
X294.225Y-100.175
X294.225Y-119.225
X296.765Y-100.175
X296.765Y-119.225
X313.275Y-43.025
X313.275Y-62.075
X313.275Y-81.125
X313.275Y-100.175
X313.275Y-119.225
X315.815Y-43.025
X315.815Y-62.075
X315.815Y-81.125
X315.815Y-100.175
X315.815Y-119.225
T5
X19.85Y-11.7
X19.85Y-14.2
X19.85Y-16.7
X34.35Y-11.7
X34.35Y-16.7
X165.79Y-25.7
X168.33Y-25.7
X170.87Y-25.7
X173.41Y-25.7
T6
X298.12Y-8.68
X298.12Y-23.92
X300.66Y-8.68
X300.66Y-23.92
X303.2Y-8.68
X303.2Y-16.3
X303.2Y-18.84
X303.2Y-21.38
X303.2Y-23.92
X305.74Y-8.68
X305.74Y-23.92
X308.28Y-8.68
X308.28Y-23.92
X310.82Y-8.68
X310.82Y-23.92
X313.36Y-8.68
X313.36Y-23.92
X315.9Y-8.68
X315.9Y-23.92
X318.44Y-8.68
X318.44Y-23.92
X320.98Y-8.68
X320.98Y-23.92
X323.52Y-8.68
X323.52Y-23.92
X326.06Y-8.68
X326.06Y-23.92
T7
X25.012Y-35.24
X27.394Y-111.44
X29.775Y-54.29
X31.362Y-32.7
X32.156Y-73.34
X33.744Y-108.9
X36.125Y-51.75
X36.919Y-92.39
X38.506Y-70.8
X43.269Y-89.85
X44.062Y-35.24
X50.412Y-32.7
X51.206Y-111.44
X53.587Y-54.29
X57.556Y-108.9
X58.35Y-73.34
X59.938Y-51.75
X63.112Y-35.24
X64.7Y-70.8
X67.875Y-92.39
X69.462Y-32.7
X72.638Y-54.29
X74.225Y-89.85
X75.019Y-111.44
X77.4Y-73.34
X78.987Y-51.75
X81.369Y-108.9
X82.162Y-35.24
X83.75Y-70.8
X86.925Y-92.39
X88.513Y-32.7
X91.688Y-54.29
X93.275Y-89.85
X96.45Y-73.34
X98.037Y-51.75
X101.212Y-35.24
X102.8Y-70.8
X105.975Y-92.39
X107.562Y-32.7
X110.737Y-54.29
X112.325Y-89.85
X115.5Y-73.34
X117.087Y-51.75
X120.262Y-35.24
X121.85Y-70.8
X125.025Y-92.39
X126.612Y-32.7
X129.787Y-54.29
X131.375Y-89.85
X134.55Y-73.34
X136.137Y-51.75
X139.312Y-35.24
X140.9Y-70.8
X144.075Y-92.39
X145.662Y-32.7
X146.456Y-111.44
X148.838Y-54.29
X150.425Y-89.85
X152.806Y-108.9
X153.6Y-73.34
X155.188Y-51.75
X158.362Y-35.24
X159.95Y-70.8
X163.125Y-92.39
X164.713Y-32.7
X167.887Y-54.29
X169.475Y-89.85
X172.65Y-73.34
X174.237Y-51.75
X177.412Y-35.24
X179.0Y-70.8
X182.175Y-92.39
X183.762Y-32.7
X186.938Y-54.29
X188.525Y-89.85
X191.7Y-73.34
X193.287Y-51.75
X196.462Y-35.24
X198.05Y-70.8
X201.225Y-92.39
X202.812Y-32.7
X205.987Y-54.29
X207.575Y-89.85
X210.75Y-73.34
X212.337Y-51.75
X215.512Y-35.24
X215.512Y-111.44
X217.1Y-70.8
X220.275Y-92.39
X221.862Y-32.7
X221.862Y-108.9
X225.037Y-54.29
X226.625Y-89.85
X229.8Y-73.34
X231.387Y-51.75
X234.562Y-35.24
X234.562Y-111.44
X236.15Y-70.8
X239.325Y-92.39
X240.912Y-32.7
X240.912Y-108.9
X244.087Y-54.29
X245.675Y-89.85
X248.85Y-73.34
X250.438Y-51.75
X253.612Y-35.24
X253.612Y-111.44
X255.2Y-70.8
X259.962Y-32.7
X259.962Y-108.9
X263.137Y-54.29
X265.519Y-92.39
X269.488Y-51.75
X271.869Y-89.85
X272.662Y-111.44
X279.012Y-108.9
X279.806Y-73.34
X282.188Y-35.24
X286.156Y-70.8
X286.95Y-54.29
X288.537Y-32.7
X291.712Y-92.39
X291.712Y-111.44
X293.3Y-51.75
X298.062Y-89.85
X298.062Y-108.9
X310.762Y-54.29
X310.762Y-73.34
X310.762Y-92.39
X310.762Y-111.44
X317.113Y-51.75
X317.113Y-70.8
X317.113Y-89.85
X317.113Y-108.9
T8
X27.35Y-8.6
X27.35Y-19.8
M30
