%TF.GenerationSoftware,KiCad,Pcbnew,10.0.1*%
%TF.CreationDate,2026-06-16T22:36:38+05:30*%
%TF.ProjectId,Keyboard,4b657962-6f61-4726-942e-6b696361645f,rev?*%
%TF.SameCoordinates,Original*%
%TF.FileFunction,Legend,Bot*%
%TF.FilePolarity,Positive*%
%FSLAX46Y46*%
G04 Gerber Fmt 4.6, Leading zero omitted, Abs format (unit mm)*
G04 Created by KiCad (PCBNEW 10.0.1) date 2026-06-16 22:36:38*
%MOMM*%
%LPD*%
G01*
G04 APERTURE LIST*
%ADD10C,0.200000*%
%ADD11C,0.150000*%
%ADD12C,0.120000*%
G04 APERTURE END LIST*
D10*
X175814286Y-27038838D02*
X175909524Y-26991219D01*
X175909524Y-26991219D02*
X176052381Y-26991219D01*
X176052381Y-26991219D02*
X176195238Y-27038838D01*
X176195238Y-27038838D02*
X176290476Y-27134076D01*
X176290476Y-27134076D02*
X176338095Y-27229314D01*
X176338095Y-27229314D02*
X176385714Y-27419790D01*
X176385714Y-27419790D02*
X176385714Y-27562647D01*
X176385714Y-27562647D02*
X176338095Y-27753123D01*
X176338095Y-27753123D02*
X176290476Y-27848361D01*
X176290476Y-27848361D02*
X176195238Y-27943600D01*
X176195238Y-27943600D02*
X176052381Y-27991219D01*
X176052381Y-27991219D02*
X175957143Y-27991219D01*
X175957143Y-27991219D02*
X175814286Y-27943600D01*
X175814286Y-27943600D02*
X175766667Y-27895980D01*
X175766667Y-27895980D02*
X175766667Y-27562647D01*
X175766667Y-27562647D02*
X175957143Y-27562647D01*
X175338095Y-27991219D02*
X175338095Y-26991219D01*
X175338095Y-26991219D02*
X174766667Y-27991219D01*
X174766667Y-27991219D02*
X174766667Y-26991219D01*
X174290476Y-27991219D02*
X174290476Y-26991219D01*
X174290476Y-26991219D02*
X174052381Y-26991219D01*
X174052381Y-26991219D02*
X173909524Y-27038838D01*
X173909524Y-27038838D02*
X173814286Y-27134076D01*
X173814286Y-27134076D02*
X173766667Y-27229314D01*
X173766667Y-27229314D02*
X173719048Y-27419790D01*
X173719048Y-27419790D02*
X173719048Y-27562647D01*
X173719048Y-27562647D02*
X173766667Y-27753123D01*
X173766667Y-27753123D02*
X173814286Y-27848361D01*
X173814286Y-27848361D02*
X173909524Y-27943600D01*
X173909524Y-27943600D02*
X174052381Y-27991219D01*
X174052381Y-27991219D02*
X174290476Y-27991219D01*
X172671428Y-26991219D02*
X172338095Y-27991219D01*
X172338095Y-27991219D02*
X172004762Y-26991219D01*
X171100000Y-27895980D02*
X171147619Y-27943600D01*
X171147619Y-27943600D02*
X171290476Y-27991219D01*
X171290476Y-27991219D02*
X171385714Y-27991219D01*
X171385714Y-27991219D02*
X171528571Y-27943600D01*
X171528571Y-27943600D02*
X171623809Y-27848361D01*
X171623809Y-27848361D02*
X171671428Y-27753123D01*
X171671428Y-27753123D02*
X171719047Y-27562647D01*
X171719047Y-27562647D02*
X171719047Y-27419790D01*
X171719047Y-27419790D02*
X171671428Y-27229314D01*
X171671428Y-27229314D02*
X171623809Y-27134076D01*
X171623809Y-27134076D02*
X171528571Y-27038838D01*
X171528571Y-27038838D02*
X171385714Y-26991219D01*
X171385714Y-26991219D02*
X171290476Y-26991219D01*
X171290476Y-26991219D02*
X171147619Y-27038838D01*
X171147619Y-27038838D02*
X171100000Y-27086457D01*
X170100000Y-27895980D02*
X170147619Y-27943600D01*
X170147619Y-27943600D02*
X170290476Y-27991219D01*
X170290476Y-27991219D02*
X170385714Y-27991219D01*
X170385714Y-27991219D02*
X170528571Y-27943600D01*
X170528571Y-27943600D02*
X170623809Y-27848361D01*
X170623809Y-27848361D02*
X170671428Y-27753123D01*
X170671428Y-27753123D02*
X170719047Y-27562647D01*
X170719047Y-27562647D02*
X170719047Y-27419790D01*
X170719047Y-27419790D02*
X170671428Y-27229314D01*
X170671428Y-27229314D02*
X170623809Y-27134076D01*
X170623809Y-27134076D02*
X170528571Y-27038838D01*
X170528571Y-27038838D02*
X170385714Y-26991219D01*
X170385714Y-26991219D02*
X170290476Y-26991219D01*
X170290476Y-26991219D02*
X170147619Y-27038838D01*
X170147619Y-27038838D02*
X170100000Y-27086457D01*
X168957142Y-27943600D02*
X168814285Y-27991219D01*
X168814285Y-27991219D02*
X168576190Y-27991219D01*
X168576190Y-27991219D02*
X168480952Y-27943600D01*
X168480952Y-27943600D02*
X168433333Y-27895980D01*
X168433333Y-27895980D02*
X168385714Y-27800742D01*
X168385714Y-27800742D02*
X168385714Y-27705504D01*
X168385714Y-27705504D02*
X168433333Y-27610266D01*
X168433333Y-27610266D02*
X168480952Y-27562647D01*
X168480952Y-27562647D02*
X168576190Y-27515028D01*
X168576190Y-27515028D02*
X168766666Y-27467409D01*
X168766666Y-27467409D02*
X168861904Y-27419790D01*
X168861904Y-27419790D02*
X168909523Y-27372171D01*
X168909523Y-27372171D02*
X168957142Y-27276933D01*
X168957142Y-27276933D02*
X168957142Y-27181695D01*
X168957142Y-27181695D02*
X168909523Y-27086457D01*
X168909523Y-27086457D02*
X168861904Y-27038838D01*
X168861904Y-27038838D02*
X168766666Y-26991219D01*
X168766666Y-26991219D02*
X168528571Y-26991219D01*
X168528571Y-26991219D02*
X168385714Y-27038838D01*
X167385714Y-27895980D02*
X167433333Y-27943600D01*
X167433333Y-27943600D02*
X167576190Y-27991219D01*
X167576190Y-27991219D02*
X167671428Y-27991219D01*
X167671428Y-27991219D02*
X167814285Y-27943600D01*
X167814285Y-27943600D02*
X167909523Y-27848361D01*
X167909523Y-27848361D02*
X167957142Y-27753123D01*
X167957142Y-27753123D02*
X168004761Y-27562647D01*
X168004761Y-27562647D02*
X168004761Y-27419790D01*
X168004761Y-27419790D02*
X167957142Y-27229314D01*
X167957142Y-27229314D02*
X167909523Y-27134076D01*
X167909523Y-27134076D02*
X167814285Y-27038838D01*
X167814285Y-27038838D02*
X167671428Y-26991219D01*
X167671428Y-26991219D02*
X167576190Y-26991219D01*
X167576190Y-26991219D02*
X167433333Y-27038838D01*
X167433333Y-27038838D02*
X167385714Y-27086457D01*
X166957142Y-27991219D02*
X166957142Y-26991219D01*
X166385714Y-27991219D02*
X166814285Y-27419790D01*
X166385714Y-26991219D02*
X166957142Y-27562647D01*
X165242856Y-27943600D02*
X165099999Y-27991219D01*
X165099999Y-27991219D02*
X164861904Y-27991219D01*
X164861904Y-27991219D02*
X164766666Y-27943600D01*
X164766666Y-27943600D02*
X164719047Y-27895980D01*
X164719047Y-27895980D02*
X164671428Y-27800742D01*
X164671428Y-27800742D02*
X164671428Y-27705504D01*
X164671428Y-27705504D02*
X164719047Y-27610266D01*
X164719047Y-27610266D02*
X164766666Y-27562647D01*
X164766666Y-27562647D02*
X164861904Y-27515028D01*
X164861904Y-27515028D02*
X165052380Y-27467409D01*
X165052380Y-27467409D02*
X165147618Y-27419790D01*
X165147618Y-27419790D02*
X165195237Y-27372171D01*
X165195237Y-27372171D02*
X165242856Y-27276933D01*
X165242856Y-27276933D02*
X165242856Y-27181695D01*
X165242856Y-27181695D02*
X165195237Y-27086457D01*
X165195237Y-27086457D02*
X165147618Y-27038838D01*
X165147618Y-27038838D02*
X165052380Y-26991219D01*
X165052380Y-26991219D02*
X164814285Y-26991219D01*
X164814285Y-26991219D02*
X164671428Y-27038838D01*
X164242856Y-27991219D02*
X164242856Y-26991219D01*
X164242856Y-26991219D02*
X164004761Y-26991219D01*
X164004761Y-26991219D02*
X163861904Y-27038838D01*
X163861904Y-27038838D02*
X163766666Y-27134076D01*
X163766666Y-27134076D02*
X163719047Y-27229314D01*
X163719047Y-27229314D02*
X163671428Y-27419790D01*
X163671428Y-27419790D02*
X163671428Y-27562647D01*
X163671428Y-27562647D02*
X163719047Y-27753123D01*
X163719047Y-27753123D02*
X163766666Y-27848361D01*
X163766666Y-27848361D02*
X163861904Y-27943600D01*
X163861904Y-27943600D02*
X164004761Y-27991219D01*
X164004761Y-27991219D02*
X164242856Y-27991219D01*
X163290475Y-27705504D02*
X162814285Y-27705504D01*
X163385713Y-27991219D02*
X163052380Y-26991219D01*
X163052380Y-26991219D02*
X162719047Y-27991219D01*
D11*
X38227857Y-60634819D02*
X38561190Y-60158628D01*
X38799285Y-60634819D02*
X38799285Y-59634819D01*
X38799285Y-59634819D02*
X38418333Y-59634819D01*
X38418333Y-59634819D02*
X38323095Y-59682438D01*
X38323095Y-59682438D02*
X38275476Y-59730057D01*
X38275476Y-59730057D02*
X38227857Y-59825295D01*
X38227857Y-59825295D02*
X38227857Y-59968152D01*
X38227857Y-59968152D02*
X38275476Y-60063390D01*
X38275476Y-60063390D02*
X38323095Y-60111009D01*
X38323095Y-60111009D02*
X38418333Y-60158628D01*
X38418333Y-60158628D02*
X38799285Y-60158628D01*
X37275476Y-60634819D02*
X37846904Y-60634819D01*
X37561190Y-60634819D02*
X37561190Y-59634819D01*
X37561190Y-59634819D02*
X37656428Y-59777676D01*
X37656428Y-59777676D02*
X37751666Y-59872914D01*
X37751666Y-59872914D02*
X37846904Y-59920533D01*
X36799285Y-60634819D02*
X36608809Y-60634819D01*
X36608809Y-60634819D02*
X36513571Y-60587200D01*
X36513571Y-60587200D02*
X36465952Y-60539580D01*
X36465952Y-60539580D02*
X36370714Y-60396723D01*
X36370714Y-60396723D02*
X36323095Y-60206247D01*
X36323095Y-60206247D02*
X36323095Y-59825295D01*
X36323095Y-59825295D02*
X36370714Y-59730057D01*
X36370714Y-59730057D02*
X36418333Y-59682438D01*
X36418333Y-59682438D02*
X36513571Y-59634819D01*
X36513571Y-59634819D02*
X36704047Y-59634819D01*
X36704047Y-59634819D02*
X36799285Y-59682438D01*
X36799285Y-59682438D02*
X36846904Y-59730057D01*
X36846904Y-59730057D02*
X36894523Y-59825295D01*
X36894523Y-59825295D02*
X36894523Y-60063390D01*
X36894523Y-60063390D02*
X36846904Y-60158628D01*
X36846904Y-60158628D02*
X36799285Y-60206247D01*
X36799285Y-60206247D02*
X36704047Y-60253866D01*
X36704047Y-60253866D02*
X36513571Y-60253866D01*
X36513571Y-60253866D02*
X36418333Y-60206247D01*
X36418333Y-60206247D02*
X36370714Y-60158628D01*
X36370714Y-60158628D02*
X36323095Y-60063390D01*
X128239166Y-41584819D02*
X128572499Y-41108628D01*
X128810594Y-41584819D02*
X128810594Y-40584819D01*
X128810594Y-40584819D02*
X128429642Y-40584819D01*
X128429642Y-40584819D02*
X128334404Y-40632438D01*
X128334404Y-40632438D02*
X128286785Y-40680057D01*
X128286785Y-40680057D02*
X128239166Y-40775295D01*
X128239166Y-40775295D02*
X128239166Y-40918152D01*
X128239166Y-40918152D02*
X128286785Y-41013390D01*
X128286785Y-41013390D02*
X128334404Y-41061009D01*
X128334404Y-41061009D02*
X128429642Y-41108628D01*
X128429642Y-41108628D02*
X128810594Y-41108628D01*
X127762975Y-41584819D02*
X127572499Y-41584819D01*
X127572499Y-41584819D02*
X127477261Y-41537200D01*
X127477261Y-41537200D02*
X127429642Y-41489580D01*
X127429642Y-41489580D02*
X127334404Y-41346723D01*
X127334404Y-41346723D02*
X127286785Y-41156247D01*
X127286785Y-41156247D02*
X127286785Y-40775295D01*
X127286785Y-40775295D02*
X127334404Y-40680057D01*
X127334404Y-40680057D02*
X127382023Y-40632438D01*
X127382023Y-40632438D02*
X127477261Y-40584819D01*
X127477261Y-40584819D02*
X127667737Y-40584819D01*
X127667737Y-40584819D02*
X127762975Y-40632438D01*
X127762975Y-40632438D02*
X127810594Y-40680057D01*
X127810594Y-40680057D02*
X127858213Y-40775295D01*
X127858213Y-40775295D02*
X127858213Y-41013390D01*
X127858213Y-41013390D02*
X127810594Y-41108628D01*
X127810594Y-41108628D02*
X127762975Y-41156247D01*
X127762975Y-41156247D02*
X127667737Y-41203866D01*
X127667737Y-41203866D02*
X127477261Y-41203866D01*
X127477261Y-41203866D02*
X127382023Y-41156247D01*
X127382023Y-41156247D02*
X127334404Y-41108628D01*
X127334404Y-41108628D02*
X127286785Y-41013390D01*
X319215357Y-60634819D02*
X319548690Y-60158628D01*
X319786785Y-60634819D02*
X319786785Y-59634819D01*
X319786785Y-59634819D02*
X319405833Y-59634819D01*
X319405833Y-59634819D02*
X319310595Y-59682438D01*
X319310595Y-59682438D02*
X319262976Y-59730057D01*
X319262976Y-59730057D02*
X319215357Y-59825295D01*
X319215357Y-59825295D02*
X319215357Y-59968152D01*
X319215357Y-59968152D02*
X319262976Y-60063390D01*
X319262976Y-60063390D02*
X319310595Y-60111009D01*
X319310595Y-60111009D02*
X319405833Y-60158628D01*
X319405833Y-60158628D02*
X319786785Y-60158628D01*
X318882023Y-59634819D02*
X318262976Y-59634819D01*
X318262976Y-59634819D02*
X318596309Y-60015771D01*
X318596309Y-60015771D02*
X318453452Y-60015771D01*
X318453452Y-60015771D02*
X318358214Y-60063390D01*
X318358214Y-60063390D02*
X318310595Y-60111009D01*
X318310595Y-60111009D02*
X318262976Y-60206247D01*
X318262976Y-60206247D02*
X318262976Y-60444342D01*
X318262976Y-60444342D02*
X318310595Y-60539580D01*
X318310595Y-60539580D02*
X318358214Y-60587200D01*
X318358214Y-60587200D02*
X318453452Y-60634819D01*
X318453452Y-60634819D02*
X318739166Y-60634819D01*
X318739166Y-60634819D02*
X318834404Y-60587200D01*
X318834404Y-60587200D02*
X318882023Y-60539580D01*
X317929642Y-59634819D02*
X317310595Y-59634819D01*
X317310595Y-59634819D02*
X317643928Y-60015771D01*
X317643928Y-60015771D02*
X317501071Y-60015771D01*
X317501071Y-60015771D02*
X317405833Y-60063390D01*
X317405833Y-60063390D02*
X317358214Y-60111009D01*
X317358214Y-60111009D02*
X317310595Y-60206247D01*
X317310595Y-60206247D02*
X317310595Y-60444342D01*
X317310595Y-60444342D02*
X317358214Y-60539580D01*
X317358214Y-60539580D02*
X317405833Y-60587200D01*
X317405833Y-60587200D02*
X317501071Y-60634819D01*
X317501071Y-60634819D02*
X317786785Y-60634819D01*
X317786785Y-60634819D02*
X317882023Y-60587200D01*
X317882023Y-60587200D02*
X317929642Y-60539580D01*
X319215357Y-117784819D02*
X319548690Y-117308628D01*
X319786785Y-117784819D02*
X319786785Y-116784819D01*
X319786785Y-116784819D02*
X319405833Y-116784819D01*
X319405833Y-116784819D02*
X319310595Y-116832438D01*
X319310595Y-116832438D02*
X319262976Y-116880057D01*
X319262976Y-116880057D02*
X319215357Y-116975295D01*
X319215357Y-116975295D02*
X319215357Y-117118152D01*
X319215357Y-117118152D02*
X319262976Y-117213390D01*
X319262976Y-117213390D02*
X319310595Y-117261009D01*
X319310595Y-117261009D02*
X319405833Y-117308628D01*
X319405833Y-117308628D02*
X319786785Y-117308628D01*
X318882023Y-116784819D02*
X318215357Y-116784819D01*
X318215357Y-116784819D02*
X318643928Y-117784819D01*
X317310595Y-117784819D02*
X317882023Y-117784819D01*
X317596309Y-117784819D02*
X317596309Y-116784819D01*
X317596309Y-116784819D02*
X317691547Y-116927676D01*
X317691547Y-116927676D02*
X317786785Y-117022914D01*
X317786785Y-117022914D02*
X317882023Y-117070533D01*
X200152857Y-79684819D02*
X200486190Y-79208628D01*
X200724285Y-79684819D02*
X200724285Y-78684819D01*
X200724285Y-78684819D02*
X200343333Y-78684819D01*
X200343333Y-78684819D02*
X200248095Y-78732438D01*
X200248095Y-78732438D02*
X200200476Y-78780057D01*
X200200476Y-78780057D02*
X200152857Y-78875295D01*
X200152857Y-78875295D02*
X200152857Y-79018152D01*
X200152857Y-79018152D02*
X200200476Y-79113390D01*
X200200476Y-79113390D02*
X200248095Y-79161009D01*
X200248095Y-79161009D02*
X200343333Y-79208628D01*
X200343333Y-79208628D02*
X200724285Y-79208628D01*
X199295714Y-79018152D02*
X199295714Y-79684819D01*
X199533809Y-78637200D02*
X199771904Y-79351485D01*
X199771904Y-79351485D02*
X199152857Y-79351485D01*
X198819523Y-78780057D02*
X198771904Y-78732438D01*
X198771904Y-78732438D02*
X198676666Y-78684819D01*
X198676666Y-78684819D02*
X198438571Y-78684819D01*
X198438571Y-78684819D02*
X198343333Y-78732438D01*
X198343333Y-78732438D02*
X198295714Y-78780057D01*
X198295714Y-78780057D02*
X198248095Y-78875295D01*
X198248095Y-78875295D02*
X198248095Y-78970533D01*
X198248095Y-78970533D02*
X198295714Y-79113390D01*
X198295714Y-79113390D02*
X198867142Y-79684819D01*
X198867142Y-79684819D02*
X198248095Y-79684819D01*
X300165357Y-98734819D02*
X300498690Y-98258628D01*
X300736785Y-98734819D02*
X300736785Y-97734819D01*
X300736785Y-97734819D02*
X300355833Y-97734819D01*
X300355833Y-97734819D02*
X300260595Y-97782438D01*
X300260595Y-97782438D02*
X300212976Y-97830057D01*
X300212976Y-97830057D02*
X300165357Y-97925295D01*
X300165357Y-97925295D02*
X300165357Y-98068152D01*
X300165357Y-98068152D02*
X300212976Y-98163390D01*
X300212976Y-98163390D02*
X300260595Y-98211009D01*
X300260595Y-98211009D02*
X300355833Y-98258628D01*
X300355833Y-98258628D02*
X300736785Y-98258628D01*
X299308214Y-97734819D02*
X299498690Y-97734819D01*
X299498690Y-97734819D02*
X299593928Y-97782438D01*
X299593928Y-97782438D02*
X299641547Y-97830057D01*
X299641547Y-97830057D02*
X299736785Y-97972914D01*
X299736785Y-97972914D02*
X299784404Y-98163390D01*
X299784404Y-98163390D02*
X299784404Y-98544342D01*
X299784404Y-98544342D02*
X299736785Y-98639580D01*
X299736785Y-98639580D02*
X299689166Y-98687200D01*
X299689166Y-98687200D02*
X299593928Y-98734819D01*
X299593928Y-98734819D02*
X299403452Y-98734819D01*
X299403452Y-98734819D02*
X299308214Y-98687200D01*
X299308214Y-98687200D02*
X299260595Y-98639580D01*
X299260595Y-98639580D02*
X299212976Y-98544342D01*
X299212976Y-98544342D02*
X299212976Y-98306247D01*
X299212976Y-98306247D02*
X299260595Y-98211009D01*
X299260595Y-98211009D02*
X299308214Y-98163390D01*
X299308214Y-98163390D02*
X299403452Y-98115771D01*
X299403452Y-98115771D02*
X299593928Y-98115771D01*
X299593928Y-98115771D02*
X299689166Y-98163390D01*
X299689166Y-98163390D02*
X299736785Y-98211009D01*
X299736785Y-98211009D02*
X299784404Y-98306247D01*
X298593928Y-97734819D02*
X298498690Y-97734819D01*
X298498690Y-97734819D02*
X298403452Y-97782438D01*
X298403452Y-97782438D02*
X298355833Y-97830057D01*
X298355833Y-97830057D02*
X298308214Y-97925295D01*
X298308214Y-97925295D02*
X298260595Y-98115771D01*
X298260595Y-98115771D02*
X298260595Y-98353866D01*
X298260595Y-98353866D02*
X298308214Y-98544342D01*
X298308214Y-98544342D02*
X298355833Y-98639580D01*
X298355833Y-98639580D02*
X298403452Y-98687200D01*
X298403452Y-98687200D02*
X298498690Y-98734819D01*
X298498690Y-98734819D02*
X298593928Y-98734819D01*
X298593928Y-98734819D02*
X298689166Y-98687200D01*
X298689166Y-98687200D02*
X298736785Y-98639580D01*
X298736785Y-98639580D02*
X298784404Y-98544342D01*
X298784404Y-98544342D02*
X298832023Y-98353866D01*
X298832023Y-98353866D02*
X298832023Y-98115771D01*
X298832023Y-98115771D02*
X298784404Y-97925295D01*
X298784404Y-97925295D02*
X298736785Y-97830057D01*
X298736785Y-97830057D02*
X298689166Y-97782438D01*
X298689166Y-97782438D02*
X298593928Y-97734819D01*
X76327857Y-98734819D02*
X76661190Y-98258628D01*
X76899285Y-98734819D02*
X76899285Y-97734819D01*
X76899285Y-97734819D02*
X76518333Y-97734819D01*
X76518333Y-97734819D02*
X76423095Y-97782438D01*
X76423095Y-97782438D02*
X76375476Y-97830057D01*
X76375476Y-97830057D02*
X76327857Y-97925295D01*
X76327857Y-97925295D02*
X76327857Y-98068152D01*
X76327857Y-98068152D02*
X76375476Y-98163390D01*
X76375476Y-98163390D02*
X76423095Y-98211009D01*
X76423095Y-98211009D02*
X76518333Y-98258628D01*
X76518333Y-98258628D02*
X76899285Y-98258628D01*
X75470714Y-98068152D02*
X75470714Y-98734819D01*
X75708809Y-97687200D02*
X75946904Y-98401485D01*
X75946904Y-98401485D02*
X75327857Y-98401485D01*
X74899285Y-98734819D02*
X74708809Y-98734819D01*
X74708809Y-98734819D02*
X74613571Y-98687200D01*
X74613571Y-98687200D02*
X74565952Y-98639580D01*
X74565952Y-98639580D02*
X74470714Y-98496723D01*
X74470714Y-98496723D02*
X74423095Y-98306247D01*
X74423095Y-98306247D02*
X74423095Y-97925295D01*
X74423095Y-97925295D02*
X74470714Y-97830057D01*
X74470714Y-97830057D02*
X74518333Y-97782438D01*
X74518333Y-97782438D02*
X74613571Y-97734819D01*
X74613571Y-97734819D02*
X74804047Y-97734819D01*
X74804047Y-97734819D02*
X74899285Y-97782438D01*
X74899285Y-97782438D02*
X74946904Y-97830057D01*
X74946904Y-97830057D02*
X74994523Y-97925295D01*
X74994523Y-97925295D02*
X74994523Y-98163390D01*
X74994523Y-98163390D02*
X74946904Y-98258628D01*
X74946904Y-98258628D02*
X74899285Y-98306247D01*
X74899285Y-98306247D02*
X74804047Y-98353866D01*
X74804047Y-98353866D02*
X74613571Y-98353866D01*
X74613571Y-98353866D02*
X74518333Y-98306247D01*
X74518333Y-98306247D02*
X74470714Y-98258628D01*
X74470714Y-98258628D02*
X74423095Y-98163390D01*
X262065357Y-117784819D02*
X262398690Y-117308628D01*
X262636785Y-117784819D02*
X262636785Y-116784819D01*
X262636785Y-116784819D02*
X262255833Y-116784819D01*
X262255833Y-116784819D02*
X262160595Y-116832438D01*
X262160595Y-116832438D02*
X262112976Y-116880057D01*
X262112976Y-116880057D02*
X262065357Y-116975295D01*
X262065357Y-116975295D02*
X262065357Y-117118152D01*
X262065357Y-117118152D02*
X262112976Y-117213390D01*
X262112976Y-117213390D02*
X262160595Y-117261009D01*
X262160595Y-117261009D02*
X262255833Y-117308628D01*
X262255833Y-117308628D02*
X262636785Y-117308628D01*
X261208214Y-116784819D02*
X261398690Y-116784819D01*
X261398690Y-116784819D02*
X261493928Y-116832438D01*
X261493928Y-116832438D02*
X261541547Y-116880057D01*
X261541547Y-116880057D02*
X261636785Y-117022914D01*
X261636785Y-117022914D02*
X261684404Y-117213390D01*
X261684404Y-117213390D02*
X261684404Y-117594342D01*
X261684404Y-117594342D02*
X261636785Y-117689580D01*
X261636785Y-117689580D02*
X261589166Y-117737200D01*
X261589166Y-117737200D02*
X261493928Y-117784819D01*
X261493928Y-117784819D02*
X261303452Y-117784819D01*
X261303452Y-117784819D02*
X261208214Y-117737200D01*
X261208214Y-117737200D02*
X261160595Y-117689580D01*
X261160595Y-117689580D02*
X261112976Y-117594342D01*
X261112976Y-117594342D02*
X261112976Y-117356247D01*
X261112976Y-117356247D02*
X261160595Y-117261009D01*
X261160595Y-117261009D02*
X261208214Y-117213390D01*
X261208214Y-117213390D02*
X261303452Y-117165771D01*
X261303452Y-117165771D02*
X261493928Y-117165771D01*
X261493928Y-117165771D02*
X261589166Y-117213390D01*
X261589166Y-117213390D02*
X261636785Y-117261009D01*
X261636785Y-117261009D02*
X261684404Y-117356247D01*
X260541547Y-117213390D02*
X260636785Y-117165771D01*
X260636785Y-117165771D02*
X260684404Y-117118152D01*
X260684404Y-117118152D02*
X260732023Y-117022914D01*
X260732023Y-117022914D02*
X260732023Y-116975295D01*
X260732023Y-116975295D02*
X260684404Y-116880057D01*
X260684404Y-116880057D02*
X260636785Y-116832438D01*
X260636785Y-116832438D02*
X260541547Y-116784819D01*
X260541547Y-116784819D02*
X260351071Y-116784819D01*
X260351071Y-116784819D02*
X260255833Y-116832438D01*
X260255833Y-116832438D02*
X260208214Y-116880057D01*
X260208214Y-116880057D02*
X260160595Y-116975295D01*
X260160595Y-116975295D02*
X260160595Y-117022914D01*
X260160595Y-117022914D02*
X260208214Y-117118152D01*
X260208214Y-117118152D02*
X260255833Y-117165771D01*
X260255833Y-117165771D02*
X260351071Y-117213390D01*
X260351071Y-117213390D02*
X260541547Y-117213390D01*
X260541547Y-117213390D02*
X260636785Y-117261009D01*
X260636785Y-117261009D02*
X260684404Y-117308628D01*
X260684404Y-117308628D02*
X260732023Y-117403866D01*
X260732023Y-117403866D02*
X260732023Y-117594342D01*
X260732023Y-117594342D02*
X260684404Y-117689580D01*
X260684404Y-117689580D02*
X260636785Y-117737200D01*
X260636785Y-117737200D02*
X260541547Y-117784819D01*
X260541547Y-117784819D02*
X260351071Y-117784819D01*
X260351071Y-117784819D02*
X260255833Y-117737200D01*
X260255833Y-117737200D02*
X260208214Y-117689580D01*
X260208214Y-117689580D02*
X260160595Y-117594342D01*
X260160595Y-117594342D02*
X260160595Y-117403866D01*
X260160595Y-117403866D02*
X260208214Y-117308628D01*
X260208214Y-117308628D02*
X260255833Y-117261009D01*
X260255833Y-117261009D02*
X260351071Y-117213390D01*
X219202857Y-79684819D02*
X219536190Y-79208628D01*
X219774285Y-79684819D02*
X219774285Y-78684819D01*
X219774285Y-78684819D02*
X219393333Y-78684819D01*
X219393333Y-78684819D02*
X219298095Y-78732438D01*
X219298095Y-78732438D02*
X219250476Y-78780057D01*
X219250476Y-78780057D02*
X219202857Y-78875295D01*
X219202857Y-78875295D02*
X219202857Y-79018152D01*
X219202857Y-79018152D02*
X219250476Y-79113390D01*
X219250476Y-79113390D02*
X219298095Y-79161009D01*
X219298095Y-79161009D02*
X219393333Y-79208628D01*
X219393333Y-79208628D02*
X219774285Y-79208628D01*
X218345714Y-79018152D02*
X218345714Y-79684819D01*
X218583809Y-78637200D02*
X218821904Y-79351485D01*
X218821904Y-79351485D02*
X218202857Y-79351485D01*
X217917142Y-78684819D02*
X217298095Y-78684819D01*
X217298095Y-78684819D02*
X217631428Y-79065771D01*
X217631428Y-79065771D02*
X217488571Y-79065771D01*
X217488571Y-79065771D02*
X217393333Y-79113390D01*
X217393333Y-79113390D02*
X217345714Y-79161009D01*
X217345714Y-79161009D02*
X217298095Y-79256247D01*
X217298095Y-79256247D02*
X217298095Y-79494342D01*
X217298095Y-79494342D02*
X217345714Y-79589580D01*
X217345714Y-79589580D02*
X217393333Y-79637200D01*
X217393333Y-79637200D02*
X217488571Y-79684819D01*
X217488571Y-79684819D02*
X217774285Y-79684819D01*
X217774285Y-79684819D02*
X217869523Y-79637200D01*
X217869523Y-79637200D02*
X217917142Y-79589580D01*
X288259157Y-79684819D02*
X288592490Y-79208628D01*
X288830585Y-79684819D02*
X288830585Y-78684819D01*
X288830585Y-78684819D02*
X288449633Y-78684819D01*
X288449633Y-78684819D02*
X288354395Y-78732438D01*
X288354395Y-78732438D02*
X288306776Y-78780057D01*
X288306776Y-78780057D02*
X288259157Y-78875295D01*
X288259157Y-78875295D02*
X288259157Y-79018152D01*
X288259157Y-79018152D02*
X288306776Y-79113390D01*
X288306776Y-79113390D02*
X288354395Y-79161009D01*
X288354395Y-79161009D02*
X288449633Y-79208628D01*
X288449633Y-79208628D02*
X288830585Y-79208628D01*
X287402014Y-79018152D02*
X287402014Y-79684819D01*
X287640109Y-78637200D02*
X287878204Y-79351485D01*
X287878204Y-79351485D02*
X287259157Y-79351485D01*
X286449633Y-78684819D02*
X286640109Y-78684819D01*
X286640109Y-78684819D02*
X286735347Y-78732438D01*
X286735347Y-78732438D02*
X286782966Y-78780057D01*
X286782966Y-78780057D02*
X286878204Y-78922914D01*
X286878204Y-78922914D02*
X286925823Y-79113390D01*
X286925823Y-79113390D02*
X286925823Y-79494342D01*
X286925823Y-79494342D02*
X286878204Y-79589580D01*
X286878204Y-79589580D02*
X286830585Y-79637200D01*
X286830585Y-79637200D02*
X286735347Y-79684819D01*
X286735347Y-79684819D02*
X286544871Y-79684819D01*
X286544871Y-79684819D02*
X286449633Y-79637200D01*
X286449633Y-79637200D02*
X286402014Y-79589580D01*
X286402014Y-79589580D02*
X286354395Y-79494342D01*
X286354395Y-79494342D02*
X286354395Y-79256247D01*
X286354395Y-79256247D02*
X286402014Y-79161009D01*
X286402014Y-79161009D02*
X286449633Y-79113390D01*
X286449633Y-79113390D02*
X286544871Y-79065771D01*
X286544871Y-79065771D02*
X286735347Y-79065771D01*
X286735347Y-79065771D02*
X286830585Y-79113390D01*
X286830585Y-79113390D02*
X286878204Y-79161009D01*
X286878204Y-79161009D02*
X286925823Y-79256247D01*
X190627857Y-98734819D02*
X190961190Y-98258628D01*
X191199285Y-98734819D02*
X191199285Y-97734819D01*
X191199285Y-97734819D02*
X190818333Y-97734819D01*
X190818333Y-97734819D02*
X190723095Y-97782438D01*
X190723095Y-97782438D02*
X190675476Y-97830057D01*
X190675476Y-97830057D02*
X190627857Y-97925295D01*
X190627857Y-97925295D02*
X190627857Y-98068152D01*
X190627857Y-98068152D02*
X190675476Y-98163390D01*
X190675476Y-98163390D02*
X190723095Y-98211009D01*
X190723095Y-98211009D02*
X190818333Y-98258628D01*
X190818333Y-98258628D02*
X191199285Y-98258628D01*
X189723095Y-97734819D02*
X190199285Y-97734819D01*
X190199285Y-97734819D02*
X190246904Y-98211009D01*
X190246904Y-98211009D02*
X190199285Y-98163390D01*
X190199285Y-98163390D02*
X190104047Y-98115771D01*
X190104047Y-98115771D02*
X189865952Y-98115771D01*
X189865952Y-98115771D02*
X189770714Y-98163390D01*
X189770714Y-98163390D02*
X189723095Y-98211009D01*
X189723095Y-98211009D02*
X189675476Y-98306247D01*
X189675476Y-98306247D02*
X189675476Y-98544342D01*
X189675476Y-98544342D02*
X189723095Y-98639580D01*
X189723095Y-98639580D02*
X189770714Y-98687200D01*
X189770714Y-98687200D02*
X189865952Y-98734819D01*
X189865952Y-98734819D02*
X190104047Y-98734819D01*
X190104047Y-98734819D02*
X190199285Y-98687200D01*
X190199285Y-98687200D02*
X190246904Y-98639580D01*
X188770714Y-97734819D02*
X189246904Y-97734819D01*
X189246904Y-97734819D02*
X189294523Y-98211009D01*
X189294523Y-98211009D02*
X189246904Y-98163390D01*
X189246904Y-98163390D02*
X189151666Y-98115771D01*
X189151666Y-98115771D02*
X188913571Y-98115771D01*
X188913571Y-98115771D02*
X188818333Y-98163390D01*
X188818333Y-98163390D02*
X188770714Y-98211009D01*
X188770714Y-98211009D02*
X188723095Y-98306247D01*
X188723095Y-98306247D02*
X188723095Y-98544342D01*
X188723095Y-98544342D02*
X188770714Y-98639580D01*
X188770714Y-98639580D02*
X188818333Y-98687200D01*
X188818333Y-98687200D02*
X188913571Y-98734819D01*
X188913571Y-98734819D02*
X189151666Y-98734819D01*
X189151666Y-98734819D02*
X189246904Y-98687200D01*
X189246904Y-98687200D02*
X189294523Y-98639580D01*
X154909157Y-117784819D02*
X155242490Y-117308628D01*
X155480585Y-117784819D02*
X155480585Y-116784819D01*
X155480585Y-116784819D02*
X155099633Y-116784819D01*
X155099633Y-116784819D02*
X155004395Y-116832438D01*
X155004395Y-116832438D02*
X154956776Y-116880057D01*
X154956776Y-116880057D02*
X154909157Y-116975295D01*
X154909157Y-116975295D02*
X154909157Y-117118152D01*
X154909157Y-117118152D02*
X154956776Y-117213390D01*
X154956776Y-117213390D02*
X155004395Y-117261009D01*
X155004395Y-117261009D02*
X155099633Y-117308628D01*
X155099633Y-117308628D02*
X155480585Y-117308628D01*
X154052014Y-116784819D02*
X154242490Y-116784819D01*
X154242490Y-116784819D02*
X154337728Y-116832438D01*
X154337728Y-116832438D02*
X154385347Y-116880057D01*
X154385347Y-116880057D02*
X154480585Y-117022914D01*
X154480585Y-117022914D02*
X154528204Y-117213390D01*
X154528204Y-117213390D02*
X154528204Y-117594342D01*
X154528204Y-117594342D02*
X154480585Y-117689580D01*
X154480585Y-117689580D02*
X154432966Y-117737200D01*
X154432966Y-117737200D02*
X154337728Y-117784819D01*
X154337728Y-117784819D02*
X154147252Y-117784819D01*
X154147252Y-117784819D02*
X154052014Y-117737200D01*
X154052014Y-117737200D02*
X154004395Y-117689580D01*
X154004395Y-117689580D02*
X153956776Y-117594342D01*
X153956776Y-117594342D02*
X153956776Y-117356247D01*
X153956776Y-117356247D02*
X154004395Y-117261009D01*
X154004395Y-117261009D02*
X154052014Y-117213390D01*
X154052014Y-117213390D02*
X154147252Y-117165771D01*
X154147252Y-117165771D02*
X154337728Y-117165771D01*
X154337728Y-117165771D02*
X154432966Y-117213390D01*
X154432966Y-117213390D02*
X154480585Y-117261009D01*
X154480585Y-117261009D02*
X154528204Y-117356247D01*
X153052014Y-116784819D02*
X153528204Y-116784819D01*
X153528204Y-116784819D02*
X153575823Y-117261009D01*
X153575823Y-117261009D02*
X153528204Y-117213390D01*
X153528204Y-117213390D02*
X153432966Y-117165771D01*
X153432966Y-117165771D02*
X153194871Y-117165771D01*
X153194871Y-117165771D02*
X153099633Y-117213390D01*
X153099633Y-117213390D02*
X153052014Y-117261009D01*
X153052014Y-117261009D02*
X153004395Y-117356247D01*
X153004395Y-117356247D02*
X153004395Y-117594342D01*
X153004395Y-117594342D02*
X153052014Y-117689580D01*
X153052014Y-117689580D02*
X153099633Y-117737200D01*
X153099633Y-117737200D02*
X153194871Y-117784819D01*
X153194871Y-117784819D02*
X153432966Y-117784819D01*
X153432966Y-117784819D02*
X153528204Y-117737200D01*
X153528204Y-117737200D02*
X153575823Y-117689580D01*
X114427857Y-98734819D02*
X114761190Y-98258628D01*
X114999285Y-98734819D02*
X114999285Y-97734819D01*
X114999285Y-97734819D02*
X114618333Y-97734819D01*
X114618333Y-97734819D02*
X114523095Y-97782438D01*
X114523095Y-97782438D02*
X114475476Y-97830057D01*
X114475476Y-97830057D02*
X114427857Y-97925295D01*
X114427857Y-97925295D02*
X114427857Y-98068152D01*
X114427857Y-98068152D02*
X114475476Y-98163390D01*
X114475476Y-98163390D02*
X114523095Y-98211009D01*
X114523095Y-98211009D02*
X114618333Y-98258628D01*
X114618333Y-98258628D02*
X114999285Y-98258628D01*
X113523095Y-97734819D02*
X113999285Y-97734819D01*
X113999285Y-97734819D02*
X114046904Y-98211009D01*
X114046904Y-98211009D02*
X113999285Y-98163390D01*
X113999285Y-98163390D02*
X113904047Y-98115771D01*
X113904047Y-98115771D02*
X113665952Y-98115771D01*
X113665952Y-98115771D02*
X113570714Y-98163390D01*
X113570714Y-98163390D02*
X113523095Y-98211009D01*
X113523095Y-98211009D02*
X113475476Y-98306247D01*
X113475476Y-98306247D02*
X113475476Y-98544342D01*
X113475476Y-98544342D02*
X113523095Y-98639580D01*
X113523095Y-98639580D02*
X113570714Y-98687200D01*
X113570714Y-98687200D02*
X113665952Y-98734819D01*
X113665952Y-98734819D02*
X113904047Y-98734819D01*
X113904047Y-98734819D02*
X113999285Y-98687200D01*
X113999285Y-98687200D02*
X114046904Y-98639580D01*
X112523095Y-98734819D02*
X113094523Y-98734819D01*
X112808809Y-98734819D02*
X112808809Y-97734819D01*
X112808809Y-97734819D02*
X112904047Y-97877676D01*
X112904047Y-97877676D02*
X112999285Y-97972914D01*
X112999285Y-97972914D02*
X113094523Y-98020533D01*
X238252857Y-79684819D02*
X238586190Y-79208628D01*
X238824285Y-79684819D02*
X238824285Y-78684819D01*
X238824285Y-78684819D02*
X238443333Y-78684819D01*
X238443333Y-78684819D02*
X238348095Y-78732438D01*
X238348095Y-78732438D02*
X238300476Y-78780057D01*
X238300476Y-78780057D02*
X238252857Y-78875295D01*
X238252857Y-78875295D02*
X238252857Y-79018152D01*
X238252857Y-79018152D02*
X238300476Y-79113390D01*
X238300476Y-79113390D02*
X238348095Y-79161009D01*
X238348095Y-79161009D02*
X238443333Y-79208628D01*
X238443333Y-79208628D02*
X238824285Y-79208628D01*
X237395714Y-79018152D02*
X237395714Y-79684819D01*
X237633809Y-78637200D02*
X237871904Y-79351485D01*
X237871904Y-79351485D02*
X237252857Y-79351485D01*
X236443333Y-79018152D02*
X236443333Y-79684819D01*
X236681428Y-78637200D02*
X236919523Y-79351485D01*
X236919523Y-79351485D02*
X236300476Y-79351485D01*
X32989166Y-41584819D02*
X33322499Y-41108628D01*
X33560594Y-41584819D02*
X33560594Y-40584819D01*
X33560594Y-40584819D02*
X33179642Y-40584819D01*
X33179642Y-40584819D02*
X33084404Y-40632438D01*
X33084404Y-40632438D02*
X33036785Y-40680057D01*
X33036785Y-40680057D02*
X32989166Y-40775295D01*
X32989166Y-40775295D02*
X32989166Y-40918152D01*
X32989166Y-40918152D02*
X33036785Y-41013390D01*
X33036785Y-41013390D02*
X33084404Y-41061009D01*
X33084404Y-41061009D02*
X33179642Y-41108628D01*
X33179642Y-41108628D02*
X33560594Y-41108628D01*
X32132023Y-40918152D02*
X32132023Y-41584819D01*
X32370118Y-40537200D02*
X32608213Y-41251485D01*
X32608213Y-41251485D02*
X31989166Y-41251485D01*
X62040357Y-60634819D02*
X62373690Y-60158628D01*
X62611785Y-60634819D02*
X62611785Y-59634819D01*
X62611785Y-59634819D02*
X62230833Y-59634819D01*
X62230833Y-59634819D02*
X62135595Y-59682438D01*
X62135595Y-59682438D02*
X62087976Y-59730057D01*
X62087976Y-59730057D02*
X62040357Y-59825295D01*
X62040357Y-59825295D02*
X62040357Y-59968152D01*
X62040357Y-59968152D02*
X62087976Y-60063390D01*
X62087976Y-60063390D02*
X62135595Y-60111009D01*
X62135595Y-60111009D02*
X62230833Y-60158628D01*
X62230833Y-60158628D02*
X62611785Y-60158628D01*
X61659404Y-59730057D02*
X61611785Y-59682438D01*
X61611785Y-59682438D02*
X61516547Y-59634819D01*
X61516547Y-59634819D02*
X61278452Y-59634819D01*
X61278452Y-59634819D02*
X61183214Y-59682438D01*
X61183214Y-59682438D02*
X61135595Y-59730057D01*
X61135595Y-59730057D02*
X61087976Y-59825295D01*
X61087976Y-59825295D02*
X61087976Y-59920533D01*
X61087976Y-59920533D02*
X61135595Y-60063390D01*
X61135595Y-60063390D02*
X61707023Y-60634819D01*
X61707023Y-60634819D02*
X61087976Y-60634819D01*
X60468928Y-59634819D02*
X60373690Y-59634819D01*
X60373690Y-59634819D02*
X60278452Y-59682438D01*
X60278452Y-59682438D02*
X60230833Y-59730057D01*
X60230833Y-59730057D02*
X60183214Y-59825295D01*
X60183214Y-59825295D02*
X60135595Y-60015771D01*
X60135595Y-60015771D02*
X60135595Y-60253866D01*
X60135595Y-60253866D02*
X60183214Y-60444342D01*
X60183214Y-60444342D02*
X60230833Y-60539580D01*
X60230833Y-60539580D02*
X60278452Y-60587200D01*
X60278452Y-60587200D02*
X60373690Y-60634819D01*
X60373690Y-60634819D02*
X60468928Y-60634819D01*
X60468928Y-60634819D02*
X60564166Y-60587200D01*
X60564166Y-60587200D02*
X60611785Y-60539580D01*
X60611785Y-60539580D02*
X60659404Y-60444342D01*
X60659404Y-60444342D02*
X60707023Y-60253866D01*
X60707023Y-60253866D02*
X60707023Y-60015771D01*
X60707023Y-60015771D02*
X60659404Y-59825295D01*
X60659404Y-59825295D02*
X60611785Y-59730057D01*
X60611785Y-59730057D02*
X60564166Y-59682438D01*
X60564166Y-59682438D02*
X60468928Y-59634819D01*
X100140357Y-60634819D02*
X100473690Y-60158628D01*
X100711785Y-60634819D02*
X100711785Y-59634819D01*
X100711785Y-59634819D02*
X100330833Y-59634819D01*
X100330833Y-59634819D02*
X100235595Y-59682438D01*
X100235595Y-59682438D02*
X100187976Y-59730057D01*
X100187976Y-59730057D02*
X100140357Y-59825295D01*
X100140357Y-59825295D02*
X100140357Y-59968152D01*
X100140357Y-59968152D02*
X100187976Y-60063390D01*
X100187976Y-60063390D02*
X100235595Y-60111009D01*
X100235595Y-60111009D02*
X100330833Y-60158628D01*
X100330833Y-60158628D02*
X100711785Y-60158628D01*
X99759404Y-59730057D02*
X99711785Y-59682438D01*
X99711785Y-59682438D02*
X99616547Y-59634819D01*
X99616547Y-59634819D02*
X99378452Y-59634819D01*
X99378452Y-59634819D02*
X99283214Y-59682438D01*
X99283214Y-59682438D02*
X99235595Y-59730057D01*
X99235595Y-59730057D02*
X99187976Y-59825295D01*
X99187976Y-59825295D02*
X99187976Y-59920533D01*
X99187976Y-59920533D02*
X99235595Y-60063390D01*
X99235595Y-60063390D02*
X99807023Y-60634819D01*
X99807023Y-60634819D02*
X99187976Y-60634819D01*
X98807023Y-59730057D02*
X98759404Y-59682438D01*
X98759404Y-59682438D02*
X98664166Y-59634819D01*
X98664166Y-59634819D02*
X98426071Y-59634819D01*
X98426071Y-59634819D02*
X98330833Y-59682438D01*
X98330833Y-59682438D02*
X98283214Y-59730057D01*
X98283214Y-59730057D02*
X98235595Y-59825295D01*
X98235595Y-59825295D02*
X98235595Y-59920533D01*
X98235595Y-59920533D02*
X98283214Y-60063390D01*
X98283214Y-60063390D02*
X98854642Y-60634819D01*
X98854642Y-60634819D02*
X98235595Y-60634819D01*
X35846657Y-117784819D02*
X36179990Y-117308628D01*
X36418085Y-117784819D02*
X36418085Y-116784819D01*
X36418085Y-116784819D02*
X36037133Y-116784819D01*
X36037133Y-116784819D02*
X35941895Y-116832438D01*
X35941895Y-116832438D02*
X35894276Y-116880057D01*
X35894276Y-116880057D02*
X35846657Y-116975295D01*
X35846657Y-116975295D02*
X35846657Y-117118152D01*
X35846657Y-117118152D02*
X35894276Y-117213390D01*
X35894276Y-117213390D02*
X35941895Y-117261009D01*
X35941895Y-117261009D02*
X36037133Y-117308628D01*
X36037133Y-117308628D02*
X36418085Y-117308628D01*
X34989514Y-116784819D02*
X35179990Y-116784819D01*
X35179990Y-116784819D02*
X35275228Y-116832438D01*
X35275228Y-116832438D02*
X35322847Y-116880057D01*
X35322847Y-116880057D02*
X35418085Y-117022914D01*
X35418085Y-117022914D02*
X35465704Y-117213390D01*
X35465704Y-117213390D02*
X35465704Y-117594342D01*
X35465704Y-117594342D02*
X35418085Y-117689580D01*
X35418085Y-117689580D02*
X35370466Y-117737200D01*
X35370466Y-117737200D02*
X35275228Y-117784819D01*
X35275228Y-117784819D02*
X35084752Y-117784819D01*
X35084752Y-117784819D02*
X34989514Y-117737200D01*
X34989514Y-117737200D02*
X34941895Y-117689580D01*
X34941895Y-117689580D02*
X34894276Y-117594342D01*
X34894276Y-117594342D02*
X34894276Y-117356247D01*
X34894276Y-117356247D02*
X34941895Y-117261009D01*
X34941895Y-117261009D02*
X34989514Y-117213390D01*
X34989514Y-117213390D02*
X35084752Y-117165771D01*
X35084752Y-117165771D02*
X35275228Y-117165771D01*
X35275228Y-117165771D02*
X35370466Y-117213390D01*
X35370466Y-117213390D02*
X35418085Y-117261009D01*
X35418085Y-117261009D02*
X35465704Y-117356247D01*
X34513323Y-116880057D02*
X34465704Y-116832438D01*
X34465704Y-116832438D02*
X34370466Y-116784819D01*
X34370466Y-116784819D02*
X34132371Y-116784819D01*
X34132371Y-116784819D02*
X34037133Y-116832438D01*
X34037133Y-116832438D02*
X33989514Y-116880057D01*
X33989514Y-116880057D02*
X33941895Y-116975295D01*
X33941895Y-116975295D02*
X33941895Y-117070533D01*
X33941895Y-117070533D02*
X33989514Y-117213390D01*
X33989514Y-117213390D02*
X34560942Y-117784819D01*
X34560942Y-117784819D02*
X33941895Y-117784819D01*
X257302857Y-79684819D02*
X257636190Y-79208628D01*
X257874285Y-79684819D02*
X257874285Y-78684819D01*
X257874285Y-78684819D02*
X257493333Y-78684819D01*
X257493333Y-78684819D02*
X257398095Y-78732438D01*
X257398095Y-78732438D02*
X257350476Y-78780057D01*
X257350476Y-78780057D02*
X257302857Y-78875295D01*
X257302857Y-78875295D02*
X257302857Y-79018152D01*
X257302857Y-79018152D02*
X257350476Y-79113390D01*
X257350476Y-79113390D02*
X257398095Y-79161009D01*
X257398095Y-79161009D02*
X257493333Y-79208628D01*
X257493333Y-79208628D02*
X257874285Y-79208628D01*
X256445714Y-79018152D02*
X256445714Y-79684819D01*
X256683809Y-78637200D02*
X256921904Y-79351485D01*
X256921904Y-79351485D02*
X256302857Y-79351485D01*
X255445714Y-78684819D02*
X255921904Y-78684819D01*
X255921904Y-78684819D02*
X255969523Y-79161009D01*
X255969523Y-79161009D02*
X255921904Y-79113390D01*
X255921904Y-79113390D02*
X255826666Y-79065771D01*
X255826666Y-79065771D02*
X255588571Y-79065771D01*
X255588571Y-79065771D02*
X255493333Y-79113390D01*
X255493333Y-79113390D02*
X255445714Y-79161009D01*
X255445714Y-79161009D02*
X255398095Y-79256247D01*
X255398095Y-79256247D02*
X255398095Y-79494342D01*
X255398095Y-79494342D02*
X255445714Y-79589580D01*
X255445714Y-79589580D02*
X255493333Y-79637200D01*
X255493333Y-79637200D02*
X255588571Y-79684819D01*
X255588571Y-79684819D02*
X255826666Y-79684819D01*
X255826666Y-79684819D02*
X255921904Y-79637200D01*
X255921904Y-79637200D02*
X255969523Y-79589580D01*
X233490357Y-60634819D02*
X233823690Y-60158628D01*
X234061785Y-60634819D02*
X234061785Y-59634819D01*
X234061785Y-59634819D02*
X233680833Y-59634819D01*
X233680833Y-59634819D02*
X233585595Y-59682438D01*
X233585595Y-59682438D02*
X233537976Y-59730057D01*
X233537976Y-59730057D02*
X233490357Y-59825295D01*
X233490357Y-59825295D02*
X233490357Y-59968152D01*
X233490357Y-59968152D02*
X233537976Y-60063390D01*
X233537976Y-60063390D02*
X233585595Y-60111009D01*
X233585595Y-60111009D02*
X233680833Y-60158628D01*
X233680833Y-60158628D02*
X234061785Y-60158628D01*
X233109404Y-59730057D02*
X233061785Y-59682438D01*
X233061785Y-59682438D02*
X232966547Y-59634819D01*
X232966547Y-59634819D02*
X232728452Y-59634819D01*
X232728452Y-59634819D02*
X232633214Y-59682438D01*
X232633214Y-59682438D02*
X232585595Y-59730057D01*
X232585595Y-59730057D02*
X232537976Y-59825295D01*
X232537976Y-59825295D02*
X232537976Y-59920533D01*
X232537976Y-59920533D02*
X232585595Y-60063390D01*
X232585595Y-60063390D02*
X233157023Y-60634819D01*
X233157023Y-60634819D02*
X232537976Y-60634819D01*
X232061785Y-60634819D02*
X231871309Y-60634819D01*
X231871309Y-60634819D02*
X231776071Y-60587200D01*
X231776071Y-60587200D02*
X231728452Y-60539580D01*
X231728452Y-60539580D02*
X231633214Y-60396723D01*
X231633214Y-60396723D02*
X231585595Y-60206247D01*
X231585595Y-60206247D02*
X231585595Y-59825295D01*
X231585595Y-59825295D02*
X231633214Y-59730057D01*
X231633214Y-59730057D02*
X231680833Y-59682438D01*
X231680833Y-59682438D02*
X231776071Y-59634819D01*
X231776071Y-59634819D02*
X231966547Y-59634819D01*
X231966547Y-59634819D02*
X232061785Y-59682438D01*
X232061785Y-59682438D02*
X232109404Y-59730057D01*
X232109404Y-59730057D02*
X232157023Y-59825295D01*
X232157023Y-59825295D02*
X232157023Y-60063390D01*
X232157023Y-60063390D02*
X232109404Y-60158628D01*
X232109404Y-60158628D02*
X232061785Y-60206247D01*
X232061785Y-60206247D02*
X231966547Y-60253866D01*
X231966547Y-60253866D02*
X231776071Y-60253866D01*
X231776071Y-60253866D02*
X231680833Y-60206247D01*
X231680833Y-60206247D02*
X231633214Y-60158628D01*
X231633214Y-60158628D02*
X231585595Y-60063390D01*
X143002857Y-79684819D02*
X143336190Y-79208628D01*
X143574285Y-79684819D02*
X143574285Y-78684819D01*
X143574285Y-78684819D02*
X143193333Y-78684819D01*
X143193333Y-78684819D02*
X143098095Y-78732438D01*
X143098095Y-78732438D02*
X143050476Y-78780057D01*
X143050476Y-78780057D02*
X143002857Y-78875295D01*
X143002857Y-78875295D02*
X143002857Y-79018152D01*
X143002857Y-79018152D02*
X143050476Y-79113390D01*
X143050476Y-79113390D02*
X143098095Y-79161009D01*
X143098095Y-79161009D02*
X143193333Y-79208628D01*
X143193333Y-79208628D02*
X143574285Y-79208628D01*
X142669523Y-78684819D02*
X142050476Y-78684819D01*
X142050476Y-78684819D02*
X142383809Y-79065771D01*
X142383809Y-79065771D02*
X142240952Y-79065771D01*
X142240952Y-79065771D02*
X142145714Y-79113390D01*
X142145714Y-79113390D02*
X142098095Y-79161009D01*
X142098095Y-79161009D02*
X142050476Y-79256247D01*
X142050476Y-79256247D02*
X142050476Y-79494342D01*
X142050476Y-79494342D02*
X142098095Y-79589580D01*
X142098095Y-79589580D02*
X142145714Y-79637200D01*
X142145714Y-79637200D02*
X142240952Y-79684819D01*
X142240952Y-79684819D02*
X142526666Y-79684819D01*
X142526666Y-79684819D02*
X142621904Y-79637200D01*
X142621904Y-79637200D02*
X142669523Y-79589580D01*
X141574285Y-79684819D02*
X141383809Y-79684819D01*
X141383809Y-79684819D02*
X141288571Y-79637200D01*
X141288571Y-79637200D02*
X141240952Y-79589580D01*
X141240952Y-79589580D02*
X141145714Y-79446723D01*
X141145714Y-79446723D02*
X141098095Y-79256247D01*
X141098095Y-79256247D02*
X141098095Y-78875295D01*
X141098095Y-78875295D02*
X141145714Y-78780057D01*
X141145714Y-78780057D02*
X141193333Y-78732438D01*
X141193333Y-78732438D02*
X141288571Y-78684819D01*
X141288571Y-78684819D02*
X141479047Y-78684819D01*
X141479047Y-78684819D02*
X141574285Y-78732438D01*
X141574285Y-78732438D02*
X141621904Y-78780057D01*
X141621904Y-78780057D02*
X141669523Y-78875295D01*
X141669523Y-78875295D02*
X141669523Y-79113390D01*
X141669523Y-79113390D02*
X141621904Y-79208628D01*
X141621904Y-79208628D02*
X141574285Y-79256247D01*
X141574285Y-79256247D02*
X141479047Y-79303866D01*
X141479047Y-79303866D02*
X141288571Y-79303866D01*
X141288571Y-79303866D02*
X141193333Y-79256247D01*
X141193333Y-79256247D02*
X141145714Y-79208628D01*
X141145714Y-79208628D02*
X141098095Y-79113390D01*
X211022319Y-19183095D02*
X211831842Y-19183095D01*
X211831842Y-19183095D02*
X211927080Y-19230714D01*
X211927080Y-19230714D02*
X211974700Y-19278333D01*
X211974700Y-19278333D02*
X212022319Y-19373571D01*
X212022319Y-19373571D02*
X212022319Y-19564047D01*
X212022319Y-19564047D02*
X211974700Y-19659285D01*
X211974700Y-19659285D02*
X211927080Y-19706904D01*
X211927080Y-19706904D02*
X211831842Y-19754523D01*
X211831842Y-19754523D02*
X211022319Y-19754523D01*
X211117557Y-20183095D02*
X211069938Y-20230714D01*
X211069938Y-20230714D02*
X211022319Y-20325952D01*
X211022319Y-20325952D02*
X211022319Y-20564047D01*
X211022319Y-20564047D02*
X211069938Y-20659285D01*
X211069938Y-20659285D02*
X211117557Y-20706904D01*
X211117557Y-20706904D02*
X211212795Y-20754523D01*
X211212795Y-20754523D02*
X211308033Y-20754523D01*
X211308033Y-20754523D02*
X211450890Y-20706904D01*
X211450890Y-20706904D02*
X212022319Y-20135476D01*
X212022319Y-20135476D02*
X212022319Y-20754523D01*
X157290357Y-60634819D02*
X157623690Y-60158628D01*
X157861785Y-60634819D02*
X157861785Y-59634819D01*
X157861785Y-59634819D02*
X157480833Y-59634819D01*
X157480833Y-59634819D02*
X157385595Y-59682438D01*
X157385595Y-59682438D02*
X157337976Y-59730057D01*
X157337976Y-59730057D02*
X157290357Y-59825295D01*
X157290357Y-59825295D02*
X157290357Y-59968152D01*
X157290357Y-59968152D02*
X157337976Y-60063390D01*
X157337976Y-60063390D02*
X157385595Y-60111009D01*
X157385595Y-60111009D02*
X157480833Y-60158628D01*
X157480833Y-60158628D02*
X157861785Y-60158628D01*
X156909404Y-59730057D02*
X156861785Y-59682438D01*
X156861785Y-59682438D02*
X156766547Y-59634819D01*
X156766547Y-59634819D02*
X156528452Y-59634819D01*
X156528452Y-59634819D02*
X156433214Y-59682438D01*
X156433214Y-59682438D02*
X156385595Y-59730057D01*
X156385595Y-59730057D02*
X156337976Y-59825295D01*
X156337976Y-59825295D02*
X156337976Y-59920533D01*
X156337976Y-59920533D02*
X156385595Y-60063390D01*
X156385595Y-60063390D02*
X156957023Y-60634819D01*
X156957023Y-60634819D02*
X156337976Y-60634819D01*
X155433214Y-59634819D02*
X155909404Y-59634819D01*
X155909404Y-59634819D02*
X155957023Y-60111009D01*
X155957023Y-60111009D02*
X155909404Y-60063390D01*
X155909404Y-60063390D02*
X155814166Y-60015771D01*
X155814166Y-60015771D02*
X155576071Y-60015771D01*
X155576071Y-60015771D02*
X155480833Y-60063390D01*
X155480833Y-60063390D02*
X155433214Y-60111009D01*
X155433214Y-60111009D02*
X155385595Y-60206247D01*
X155385595Y-60206247D02*
X155385595Y-60444342D01*
X155385595Y-60444342D02*
X155433214Y-60539580D01*
X155433214Y-60539580D02*
X155480833Y-60587200D01*
X155480833Y-60587200D02*
X155576071Y-60634819D01*
X155576071Y-60634819D02*
X155814166Y-60634819D01*
X155814166Y-60634819D02*
X155909404Y-60587200D01*
X155909404Y-60587200D02*
X155957023Y-60539580D01*
X59659157Y-117784819D02*
X59992490Y-117308628D01*
X60230585Y-117784819D02*
X60230585Y-116784819D01*
X60230585Y-116784819D02*
X59849633Y-116784819D01*
X59849633Y-116784819D02*
X59754395Y-116832438D01*
X59754395Y-116832438D02*
X59706776Y-116880057D01*
X59706776Y-116880057D02*
X59659157Y-116975295D01*
X59659157Y-116975295D02*
X59659157Y-117118152D01*
X59659157Y-117118152D02*
X59706776Y-117213390D01*
X59706776Y-117213390D02*
X59754395Y-117261009D01*
X59754395Y-117261009D02*
X59849633Y-117308628D01*
X59849633Y-117308628D02*
X60230585Y-117308628D01*
X58802014Y-116784819D02*
X58992490Y-116784819D01*
X58992490Y-116784819D02*
X59087728Y-116832438D01*
X59087728Y-116832438D02*
X59135347Y-116880057D01*
X59135347Y-116880057D02*
X59230585Y-117022914D01*
X59230585Y-117022914D02*
X59278204Y-117213390D01*
X59278204Y-117213390D02*
X59278204Y-117594342D01*
X59278204Y-117594342D02*
X59230585Y-117689580D01*
X59230585Y-117689580D02*
X59182966Y-117737200D01*
X59182966Y-117737200D02*
X59087728Y-117784819D01*
X59087728Y-117784819D02*
X58897252Y-117784819D01*
X58897252Y-117784819D02*
X58802014Y-117737200D01*
X58802014Y-117737200D02*
X58754395Y-117689580D01*
X58754395Y-117689580D02*
X58706776Y-117594342D01*
X58706776Y-117594342D02*
X58706776Y-117356247D01*
X58706776Y-117356247D02*
X58754395Y-117261009D01*
X58754395Y-117261009D02*
X58802014Y-117213390D01*
X58802014Y-117213390D02*
X58897252Y-117165771D01*
X58897252Y-117165771D02*
X59087728Y-117165771D01*
X59087728Y-117165771D02*
X59182966Y-117213390D01*
X59182966Y-117213390D02*
X59230585Y-117261009D01*
X59230585Y-117261009D02*
X59278204Y-117356247D01*
X58373442Y-116784819D02*
X57754395Y-116784819D01*
X57754395Y-116784819D02*
X58087728Y-117165771D01*
X58087728Y-117165771D02*
X57944871Y-117165771D01*
X57944871Y-117165771D02*
X57849633Y-117213390D01*
X57849633Y-117213390D02*
X57802014Y-117261009D01*
X57802014Y-117261009D02*
X57754395Y-117356247D01*
X57754395Y-117356247D02*
X57754395Y-117594342D01*
X57754395Y-117594342D02*
X57802014Y-117689580D01*
X57802014Y-117689580D02*
X57849633Y-117737200D01*
X57849633Y-117737200D02*
X57944871Y-117784819D01*
X57944871Y-117784819D02*
X58230585Y-117784819D01*
X58230585Y-117784819D02*
X58325823Y-117737200D01*
X58325823Y-117737200D02*
X58373442Y-117689580D01*
X119190357Y-60634819D02*
X119523690Y-60158628D01*
X119761785Y-60634819D02*
X119761785Y-59634819D01*
X119761785Y-59634819D02*
X119380833Y-59634819D01*
X119380833Y-59634819D02*
X119285595Y-59682438D01*
X119285595Y-59682438D02*
X119237976Y-59730057D01*
X119237976Y-59730057D02*
X119190357Y-59825295D01*
X119190357Y-59825295D02*
X119190357Y-59968152D01*
X119190357Y-59968152D02*
X119237976Y-60063390D01*
X119237976Y-60063390D02*
X119285595Y-60111009D01*
X119285595Y-60111009D02*
X119380833Y-60158628D01*
X119380833Y-60158628D02*
X119761785Y-60158628D01*
X118809404Y-59730057D02*
X118761785Y-59682438D01*
X118761785Y-59682438D02*
X118666547Y-59634819D01*
X118666547Y-59634819D02*
X118428452Y-59634819D01*
X118428452Y-59634819D02*
X118333214Y-59682438D01*
X118333214Y-59682438D02*
X118285595Y-59730057D01*
X118285595Y-59730057D02*
X118237976Y-59825295D01*
X118237976Y-59825295D02*
X118237976Y-59920533D01*
X118237976Y-59920533D02*
X118285595Y-60063390D01*
X118285595Y-60063390D02*
X118857023Y-60634819D01*
X118857023Y-60634819D02*
X118237976Y-60634819D01*
X117904642Y-59634819D02*
X117285595Y-59634819D01*
X117285595Y-59634819D02*
X117618928Y-60015771D01*
X117618928Y-60015771D02*
X117476071Y-60015771D01*
X117476071Y-60015771D02*
X117380833Y-60063390D01*
X117380833Y-60063390D02*
X117333214Y-60111009D01*
X117333214Y-60111009D02*
X117285595Y-60206247D01*
X117285595Y-60206247D02*
X117285595Y-60444342D01*
X117285595Y-60444342D02*
X117333214Y-60539580D01*
X117333214Y-60539580D02*
X117380833Y-60587200D01*
X117380833Y-60587200D02*
X117476071Y-60634819D01*
X117476071Y-60634819D02*
X117761785Y-60634819D01*
X117761785Y-60634819D02*
X117857023Y-60587200D01*
X117857023Y-60587200D02*
X117904642Y-60539580D01*
X95377857Y-98734819D02*
X95711190Y-98258628D01*
X95949285Y-98734819D02*
X95949285Y-97734819D01*
X95949285Y-97734819D02*
X95568333Y-97734819D01*
X95568333Y-97734819D02*
X95473095Y-97782438D01*
X95473095Y-97782438D02*
X95425476Y-97830057D01*
X95425476Y-97830057D02*
X95377857Y-97925295D01*
X95377857Y-97925295D02*
X95377857Y-98068152D01*
X95377857Y-98068152D02*
X95425476Y-98163390D01*
X95425476Y-98163390D02*
X95473095Y-98211009D01*
X95473095Y-98211009D02*
X95568333Y-98258628D01*
X95568333Y-98258628D02*
X95949285Y-98258628D01*
X94473095Y-97734819D02*
X94949285Y-97734819D01*
X94949285Y-97734819D02*
X94996904Y-98211009D01*
X94996904Y-98211009D02*
X94949285Y-98163390D01*
X94949285Y-98163390D02*
X94854047Y-98115771D01*
X94854047Y-98115771D02*
X94615952Y-98115771D01*
X94615952Y-98115771D02*
X94520714Y-98163390D01*
X94520714Y-98163390D02*
X94473095Y-98211009D01*
X94473095Y-98211009D02*
X94425476Y-98306247D01*
X94425476Y-98306247D02*
X94425476Y-98544342D01*
X94425476Y-98544342D02*
X94473095Y-98639580D01*
X94473095Y-98639580D02*
X94520714Y-98687200D01*
X94520714Y-98687200D02*
X94615952Y-98734819D01*
X94615952Y-98734819D02*
X94854047Y-98734819D01*
X94854047Y-98734819D02*
X94949285Y-98687200D01*
X94949285Y-98687200D02*
X94996904Y-98639580D01*
X93806428Y-97734819D02*
X93711190Y-97734819D01*
X93711190Y-97734819D02*
X93615952Y-97782438D01*
X93615952Y-97782438D02*
X93568333Y-97830057D01*
X93568333Y-97830057D02*
X93520714Y-97925295D01*
X93520714Y-97925295D02*
X93473095Y-98115771D01*
X93473095Y-98115771D02*
X93473095Y-98353866D01*
X93473095Y-98353866D02*
X93520714Y-98544342D01*
X93520714Y-98544342D02*
X93568333Y-98639580D01*
X93568333Y-98639580D02*
X93615952Y-98687200D01*
X93615952Y-98687200D02*
X93711190Y-98734819D01*
X93711190Y-98734819D02*
X93806428Y-98734819D01*
X93806428Y-98734819D02*
X93901666Y-98687200D01*
X93901666Y-98687200D02*
X93949285Y-98639580D01*
X93949285Y-98639580D02*
X93996904Y-98544342D01*
X93996904Y-98544342D02*
X94044523Y-98353866D01*
X94044523Y-98353866D02*
X94044523Y-98115771D01*
X94044523Y-98115771D02*
X93996904Y-97925295D01*
X93996904Y-97925295D02*
X93949285Y-97830057D01*
X93949285Y-97830057D02*
X93901666Y-97782438D01*
X93901666Y-97782438D02*
X93806428Y-97734819D01*
X228727857Y-98734819D02*
X229061190Y-98258628D01*
X229299285Y-98734819D02*
X229299285Y-97734819D01*
X229299285Y-97734819D02*
X228918333Y-97734819D01*
X228918333Y-97734819D02*
X228823095Y-97782438D01*
X228823095Y-97782438D02*
X228775476Y-97830057D01*
X228775476Y-97830057D02*
X228727857Y-97925295D01*
X228727857Y-97925295D02*
X228727857Y-98068152D01*
X228727857Y-98068152D02*
X228775476Y-98163390D01*
X228775476Y-98163390D02*
X228823095Y-98211009D01*
X228823095Y-98211009D02*
X228918333Y-98258628D01*
X228918333Y-98258628D02*
X229299285Y-98258628D01*
X227823095Y-97734819D02*
X228299285Y-97734819D01*
X228299285Y-97734819D02*
X228346904Y-98211009D01*
X228346904Y-98211009D02*
X228299285Y-98163390D01*
X228299285Y-98163390D02*
X228204047Y-98115771D01*
X228204047Y-98115771D02*
X227965952Y-98115771D01*
X227965952Y-98115771D02*
X227870714Y-98163390D01*
X227870714Y-98163390D02*
X227823095Y-98211009D01*
X227823095Y-98211009D02*
X227775476Y-98306247D01*
X227775476Y-98306247D02*
X227775476Y-98544342D01*
X227775476Y-98544342D02*
X227823095Y-98639580D01*
X227823095Y-98639580D02*
X227870714Y-98687200D01*
X227870714Y-98687200D02*
X227965952Y-98734819D01*
X227965952Y-98734819D02*
X228204047Y-98734819D01*
X228204047Y-98734819D02*
X228299285Y-98687200D01*
X228299285Y-98687200D02*
X228346904Y-98639580D01*
X227442142Y-97734819D02*
X226775476Y-97734819D01*
X226775476Y-97734819D02*
X227204047Y-98734819D01*
X185865357Y-41584819D02*
X186198690Y-41108628D01*
X186436785Y-41584819D02*
X186436785Y-40584819D01*
X186436785Y-40584819D02*
X186055833Y-40584819D01*
X186055833Y-40584819D02*
X185960595Y-40632438D01*
X185960595Y-40632438D02*
X185912976Y-40680057D01*
X185912976Y-40680057D02*
X185865357Y-40775295D01*
X185865357Y-40775295D02*
X185865357Y-40918152D01*
X185865357Y-40918152D02*
X185912976Y-41013390D01*
X185912976Y-41013390D02*
X185960595Y-41061009D01*
X185960595Y-41061009D02*
X186055833Y-41108628D01*
X186055833Y-41108628D02*
X186436785Y-41108628D01*
X184912976Y-41584819D02*
X185484404Y-41584819D01*
X185198690Y-41584819D02*
X185198690Y-40584819D01*
X185198690Y-40584819D02*
X185293928Y-40727676D01*
X185293928Y-40727676D02*
X185389166Y-40822914D01*
X185389166Y-40822914D02*
X185484404Y-40870533D01*
X184532023Y-40680057D02*
X184484404Y-40632438D01*
X184484404Y-40632438D02*
X184389166Y-40584819D01*
X184389166Y-40584819D02*
X184151071Y-40584819D01*
X184151071Y-40584819D02*
X184055833Y-40632438D01*
X184055833Y-40632438D02*
X184008214Y-40680057D01*
X184008214Y-40680057D02*
X183960595Y-40775295D01*
X183960595Y-40775295D02*
X183960595Y-40870533D01*
X183960595Y-40870533D02*
X184008214Y-41013390D01*
X184008214Y-41013390D02*
X184579642Y-41584819D01*
X184579642Y-41584819D02*
X183960595Y-41584819D01*
X273971657Y-98734819D02*
X274304990Y-98258628D01*
X274543085Y-98734819D02*
X274543085Y-97734819D01*
X274543085Y-97734819D02*
X274162133Y-97734819D01*
X274162133Y-97734819D02*
X274066895Y-97782438D01*
X274066895Y-97782438D02*
X274019276Y-97830057D01*
X274019276Y-97830057D02*
X273971657Y-97925295D01*
X273971657Y-97925295D02*
X273971657Y-98068152D01*
X273971657Y-98068152D02*
X274019276Y-98163390D01*
X274019276Y-98163390D02*
X274066895Y-98211009D01*
X274066895Y-98211009D02*
X274162133Y-98258628D01*
X274162133Y-98258628D02*
X274543085Y-98258628D01*
X273066895Y-97734819D02*
X273543085Y-97734819D01*
X273543085Y-97734819D02*
X273590704Y-98211009D01*
X273590704Y-98211009D02*
X273543085Y-98163390D01*
X273543085Y-98163390D02*
X273447847Y-98115771D01*
X273447847Y-98115771D02*
X273209752Y-98115771D01*
X273209752Y-98115771D02*
X273114514Y-98163390D01*
X273114514Y-98163390D02*
X273066895Y-98211009D01*
X273066895Y-98211009D02*
X273019276Y-98306247D01*
X273019276Y-98306247D02*
X273019276Y-98544342D01*
X273019276Y-98544342D02*
X273066895Y-98639580D01*
X273066895Y-98639580D02*
X273114514Y-98687200D01*
X273114514Y-98687200D02*
X273209752Y-98734819D01*
X273209752Y-98734819D02*
X273447847Y-98734819D01*
X273447847Y-98734819D02*
X273543085Y-98687200D01*
X273543085Y-98687200D02*
X273590704Y-98639580D01*
X272543085Y-98734819D02*
X272352609Y-98734819D01*
X272352609Y-98734819D02*
X272257371Y-98687200D01*
X272257371Y-98687200D02*
X272209752Y-98639580D01*
X272209752Y-98639580D02*
X272114514Y-98496723D01*
X272114514Y-98496723D02*
X272066895Y-98306247D01*
X272066895Y-98306247D02*
X272066895Y-97925295D01*
X272066895Y-97925295D02*
X272114514Y-97830057D01*
X272114514Y-97830057D02*
X272162133Y-97782438D01*
X272162133Y-97782438D02*
X272257371Y-97734819D01*
X272257371Y-97734819D02*
X272447847Y-97734819D01*
X272447847Y-97734819D02*
X272543085Y-97782438D01*
X272543085Y-97782438D02*
X272590704Y-97830057D01*
X272590704Y-97830057D02*
X272638323Y-97925295D01*
X272638323Y-97925295D02*
X272638323Y-98163390D01*
X272638323Y-98163390D02*
X272590704Y-98258628D01*
X272590704Y-98258628D02*
X272543085Y-98306247D01*
X272543085Y-98306247D02*
X272447847Y-98353866D01*
X272447847Y-98353866D02*
X272257371Y-98353866D01*
X272257371Y-98353866D02*
X272162133Y-98306247D01*
X272162133Y-98306247D02*
X272114514Y-98258628D01*
X272114514Y-98258628D02*
X272066895Y-98163390D01*
X147765357Y-41584819D02*
X148098690Y-41108628D01*
X148336785Y-41584819D02*
X148336785Y-40584819D01*
X148336785Y-40584819D02*
X147955833Y-40584819D01*
X147955833Y-40584819D02*
X147860595Y-40632438D01*
X147860595Y-40632438D02*
X147812976Y-40680057D01*
X147812976Y-40680057D02*
X147765357Y-40775295D01*
X147765357Y-40775295D02*
X147765357Y-40918152D01*
X147765357Y-40918152D02*
X147812976Y-41013390D01*
X147812976Y-41013390D02*
X147860595Y-41061009D01*
X147860595Y-41061009D02*
X147955833Y-41108628D01*
X147955833Y-41108628D02*
X148336785Y-41108628D01*
X146812976Y-41584819D02*
X147384404Y-41584819D01*
X147098690Y-41584819D02*
X147098690Y-40584819D01*
X147098690Y-40584819D02*
X147193928Y-40727676D01*
X147193928Y-40727676D02*
X147289166Y-40822914D01*
X147289166Y-40822914D02*
X147384404Y-40870533D01*
X146193928Y-40584819D02*
X146098690Y-40584819D01*
X146098690Y-40584819D02*
X146003452Y-40632438D01*
X146003452Y-40632438D02*
X145955833Y-40680057D01*
X145955833Y-40680057D02*
X145908214Y-40775295D01*
X145908214Y-40775295D02*
X145860595Y-40965771D01*
X145860595Y-40965771D02*
X145860595Y-41203866D01*
X145860595Y-41203866D02*
X145908214Y-41394342D01*
X145908214Y-41394342D02*
X145955833Y-41489580D01*
X145955833Y-41489580D02*
X146003452Y-41537200D01*
X146003452Y-41537200D02*
X146098690Y-41584819D01*
X146098690Y-41584819D02*
X146193928Y-41584819D01*
X146193928Y-41584819D02*
X146289166Y-41537200D01*
X146289166Y-41537200D02*
X146336785Y-41489580D01*
X146336785Y-41489580D02*
X146384404Y-41394342D01*
X146384404Y-41394342D02*
X146432023Y-41203866D01*
X146432023Y-41203866D02*
X146432023Y-40965771D01*
X146432023Y-40965771D02*
X146384404Y-40775295D01*
X146384404Y-40775295D02*
X146336785Y-40680057D01*
X146336785Y-40680057D02*
X146289166Y-40632438D01*
X146289166Y-40632438D02*
X146193928Y-40584819D01*
X45371657Y-98734819D02*
X45704990Y-98258628D01*
X45943085Y-98734819D02*
X45943085Y-97734819D01*
X45943085Y-97734819D02*
X45562133Y-97734819D01*
X45562133Y-97734819D02*
X45466895Y-97782438D01*
X45466895Y-97782438D02*
X45419276Y-97830057D01*
X45419276Y-97830057D02*
X45371657Y-97925295D01*
X45371657Y-97925295D02*
X45371657Y-98068152D01*
X45371657Y-98068152D02*
X45419276Y-98163390D01*
X45419276Y-98163390D02*
X45466895Y-98211009D01*
X45466895Y-98211009D02*
X45562133Y-98258628D01*
X45562133Y-98258628D02*
X45943085Y-98258628D01*
X44514514Y-98068152D02*
X44514514Y-98734819D01*
X44752609Y-97687200D02*
X44990704Y-98401485D01*
X44990704Y-98401485D02*
X44371657Y-98401485D01*
X43847847Y-98163390D02*
X43943085Y-98115771D01*
X43943085Y-98115771D02*
X43990704Y-98068152D01*
X43990704Y-98068152D02*
X44038323Y-97972914D01*
X44038323Y-97972914D02*
X44038323Y-97925295D01*
X44038323Y-97925295D02*
X43990704Y-97830057D01*
X43990704Y-97830057D02*
X43943085Y-97782438D01*
X43943085Y-97782438D02*
X43847847Y-97734819D01*
X43847847Y-97734819D02*
X43657371Y-97734819D01*
X43657371Y-97734819D02*
X43562133Y-97782438D01*
X43562133Y-97782438D02*
X43514514Y-97830057D01*
X43514514Y-97830057D02*
X43466895Y-97925295D01*
X43466895Y-97925295D02*
X43466895Y-97972914D01*
X43466895Y-97972914D02*
X43514514Y-98068152D01*
X43514514Y-98068152D02*
X43562133Y-98115771D01*
X43562133Y-98115771D02*
X43657371Y-98163390D01*
X43657371Y-98163390D02*
X43847847Y-98163390D01*
X43847847Y-98163390D02*
X43943085Y-98211009D01*
X43943085Y-98211009D02*
X43990704Y-98258628D01*
X43990704Y-98258628D02*
X44038323Y-98353866D01*
X44038323Y-98353866D02*
X44038323Y-98544342D01*
X44038323Y-98544342D02*
X43990704Y-98639580D01*
X43990704Y-98639580D02*
X43943085Y-98687200D01*
X43943085Y-98687200D02*
X43847847Y-98734819D01*
X43847847Y-98734819D02*
X43657371Y-98734819D01*
X43657371Y-98734819D02*
X43562133Y-98687200D01*
X43562133Y-98687200D02*
X43514514Y-98639580D01*
X43514514Y-98639580D02*
X43466895Y-98544342D01*
X43466895Y-98544342D02*
X43466895Y-98353866D01*
X43466895Y-98353866D02*
X43514514Y-98258628D01*
X43514514Y-98258628D02*
X43562133Y-98211009D01*
X43562133Y-98211009D02*
X43657371Y-98163390D01*
X176340357Y-60634819D02*
X176673690Y-60158628D01*
X176911785Y-60634819D02*
X176911785Y-59634819D01*
X176911785Y-59634819D02*
X176530833Y-59634819D01*
X176530833Y-59634819D02*
X176435595Y-59682438D01*
X176435595Y-59682438D02*
X176387976Y-59730057D01*
X176387976Y-59730057D02*
X176340357Y-59825295D01*
X176340357Y-59825295D02*
X176340357Y-59968152D01*
X176340357Y-59968152D02*
X176387976Y-60063390D01*
X176387976Y-60063390D02*
X176435595Y-60111009D01*
X176435595Y-60111009D02*
X176530833Y-60158628D01*
X176530833Y-60158628D02*
X176911785Y-60158628D01*
X175959404Y-59730057D02*
X175911785Y-59682438D01*
X175911785Y-59682438D02*
X175816547Y-59634819D01*
X175816547Y-59634819D02*
X175578452Y-59634819D01*
X175578452Y-59634819D02*
X175483214Y-59682438D01*
X175483214Y-59682438D02*
X175435595Y-59730057D01*
X175435595Y-59730057D02*
X175387976Y-59825295D01*
X175387976Y-59825295D02*
X175387976Y-59920533D01*
X175387976Y-59920533D02*
X175435595Y-60063390D01*
X175435595Y-60063390D02*
X176007023Y-60634819D01*
X176007023Y-60634819D02*
X175387976Y-60634819D01*
X174530833Y-59634819D02*
X174721309Y-59634819D01*
X174721309Y-59634819D02*
X174816547Y-59682438D01*
X174816547Y-59682438D02*
X174864166Y-59730057D01*
X174864166Y-59730057D02*
X174959404Y-59872914D01*
X174959404Y-59872914D02*
X175007023Y-60063390D01*
X175007023Y-60063390D02*
X175007023Y-60444342D01*
X175007023Y-60444342D02*
X174959404Y-60539580D01*
X174959404Y-60539580D02*
X174911785Y-60587200D01*
X174911785Y-60587200D02*
X174816547Y-60634819D01*
X174816547Y-60634819D02*
X174626071Y-60634819D01*
X174626071Y-60634819D02*
X174530833Y-60587200D01*
X174530833Y-60587200D02*
X174483214Y-60539580D01*
X174483214Y-60539580D02*
X174435595Y-60444342D01*
X174435595Y-60444342D02*
X174435595Y-60206247D01*
X174435595Y-60206247D02*
X174483214Y-60111009D01*
X174483214Y-60111009D02*
X174530833Y-60063390D01*
X174530833Y-60063390D02*
X174626071Y-60015771D01*
X174626071Y-60015771D02*
X174816547Y-60015771D01*
X174816547Y-60015771D02*
X174911785Y-60063390D01*
X174911785Y-60063390D02*
X174959404Y-60111009D01*
X174959404Y-60111009D02*
X175007023Y-60206247D01*
X283282738Y-9050057D02*
X283377976Y-9002438D01*
X283377976Y-9002438D02*
X283473214Y-8907200D01*
X283473214Y-8907200D02*
X283616071Y-8764342D01*
X283616071Y-8764342D02*
X283711309Y-8716723D01*
X283711309Y-8716723D02*
X283806547Y-8716723D01*
X283758928Y-8954819D02*
X283854166Y-8907200D01*
X283854166Y-8907200D02*
X283949404Y-8811961D01*
X283949404Y-8811961D02*
X283997023Y-8621485D01*
X283997023Y-8621485D02*
X283997023Y-8288152D01*
X283997023Y-8288152D02*
X283949404Y-8097676D01*
X283949404Y-8097676D02*
X283854166Y-8002438D01*
X283854166Y-8002438D02*
X283758928Y-7954819D01*
X283758928Y-7954819D02*
X283568452Y-7954819D01*
X283568452Y-7954819D02*
X283473214Y-8002438D01*
X283473214Y-8002438D02*
X283377976Y-8097676D01*
X283377976Y-8097676D02*
X283330357Y-8288152D01*
X283330357Y-8288152D02*
X283330357Y-8621485D01*
X283330357Y-8621485D02*
X283377976Y-8811961D01*
X283377976Y-8811961D02*
X283473214Y-8907200D01*
X283473214Y-8907200D02*
X283568452Y-8954819D01*
X283568452Y-8954819D02*
X283758928Y-8954819D01*
X282377976Y-8954819D02*
X282949404Y-8954819D01*
X282663690Y-8954819D02*
X282663690Y-7954819D01*
X282663690Y-7954819D02*
X282758928Y-8097676D01*
X282758928Y-8097676D02*
X282854166Y-8192914D01*
X282854166Y-8192914D02*
X282949404Y-8240533D01*
X66802857Y-79684819D02*
X67136190Y-79208628D01*
X67374285Y-79684819D02*
X67374285Y-78684819D01*
X67374285Y-78684819D02*
X66993333Y-78684819D01*
X66993333Y-78684819D02*
X66898095Y-78732438D01*
X66898095Y-78732438D02*
X66850476Y-78780057D01*
X66850476Y-78780057D02*
X66802857Y-78875295D01*
X66802857Y-78875295D02*
X66802857Y-79018152D01*
X66802857Y-79018152D02*
X66850476Y-79113390D01*
X66850476Y-79113390D02*
X66898095Y-79161009D01*
X66898095Y-79161009D02*
X66993333Y-79208628D01*
X66993333Y-79208628D02*
X67374285Y-79208628D01*
X66469523Y-78684819D02*
X65850476Y-78684819D01*
X65850476Y-78684819D02*
X66183809Y-79065771D01*
X66183809Y-79065771D02*
X66040952Y-79065771D01*
X66040952Y-79065771D02*
X65945714Y-79113390D01*
X65945714Y-79113390D02*
X65898095Y-79161009D01*
X65898095Y-79161009D02*
X65850476Y-79256247D01*
X65850476Y-79256247D02*
X65850476Y-79494342D01*
X65850476Y-79494342D02*
X65898095Y-79589580D01*
X65898095Y-79589580D02*
X65945714Y-79637200D01*
X65945714Y-79637200D02*
X66040952Y-79684819D01*
X66040952Y-79684819D02*
X66326666Y-79684819D01*
X66326666Y-79684819D02*
X66421904Y-79637200D01*
X66421904Y-79637200D02*
X66469523Y-79589580D01*
X64945714Y-78684819D02*
X65421904Y-78684819D01*
X65421904Y-78684819D02*
X65469523Y-79161009D01*
X65469523Y-79161009D02*
X65421904Y-79113390D01*
X65421904Y-79113390D02*
X65326666Y-79065771D01*
X65326666Y-79065771D02*
X65088571Y-79065771D01*
X65088571Y-79065771D02*
X64993333Y-79113390D01*
X64993333Y-79113390D02*
X64945714Y-79161009D01*
X64945714Y-79161009D02*
X64898095Y-79256247D01*
X64898095Y-79256247D02*
X64898095Y-79494342D01*
X64898095Y-79494342D02*
X64945714Y-79589580D01*
X64945714Y-79589580D02*
X64993333Y-79637200D01*
X64993333Y-79637200D02*
X65088571Y-79684819D01*
X65088571Y-79684819D02*
X65326666Y-79684819D01*
X65326666Y-79684819D02*
X65421904Y-79637200D01*
X65421904Y-79637200D02*
X65469523Y-79589580D01*
X223965357Y-41584819D02*
X224298690Y-41108628D01*
X224536785Y-41584819D02*
X224536785Y-40584819D01*
X224536785Y-40584819D02*
X224155833Y-40584819D01*
X224155833Y-40584819D02*
X224060595Y-40632438D01*
X224060595Y-40632438D02*
X224012976Y-40680057D01*
X224012976Y-40680057D02*
X223965357Y-40775295D01*
X223965357Y-40775295D02*
X223965357Y-40918152D01*
X223965357Y-40918152D02*
X224012976Y-41013390D01*
X224012976Y-41013390D02*
X224060595Y-41061009D01*
X224060595Y-41061009D02*
X224155833Y-41108628D01*
X224155833Y-41108628D02*
X224536785Y-41108628D01*
X223012976Y-41584819D02*
X223584404Y-41584819D01*
X223298690Y-41584819D02*
X223298690Y-40584819D01*
X223298690Y-40584819D02*
X223393928Y-40727676D01*
X223393928Y-40727676D02*
X223489166Y-40822914D01*
X223489166Y-40822914D02*
X223584404Y-40870533D01*
X222155833Y-40918152D02*
X222155833Y-41584819D01*
X222393928Y-40537200D02*
X222632023Y-41251485D01*
X222632023Y-41251485D02*
X222012976Y-41251485D01*
X243015357Y-117784819D02*
X243348690Y-117308628D01*
X243586785Y-117784819D02*
X243586785Y-116784819D01*
X243586785Y-116784819D02*
X243205833Y-116784819D01*
X243205833Y-116784819D02*
X243110595Y-116832438D01*
X243110595Y-116832438D02*
X243062976Y-116880057D01*
X243062976Y-116880057D02*
X243015357Y-116975295D01*
X243015357Y-116975295D02*
X243015357Y-117118152D01*
X243015357Y-117118152D02*
X243062976Y-117213390D01*
X243062976Y-117213390D02*
X243110595Y-117261009D01*
X243110595Y-117261009D02*
X243205833Y-117308628D01*
X243205833Y-117308628D02*
X243586785Y-117308628D01*
X242158214Y-116784819D02*
X242348690Y-116784819D01*
X242348690Y-116784819D02*
X242443928Y-116832438D01*
X242443928Y-116832438D02*
X242491547Y-116880057D01*
X242491547Y-116880057D02*
X242586785Y-117022914D01*
X242586785Y-117022914D02*
X242634404Y-117213390D01*
X242634404Y-117213390D02*
X242634404Y-117594342D01*
X242634404Y-117594342D02*
X242586785Y-117689580D01*
X242586785Y-117689580D02*
X242539166Y-117737200D01*
X242539166Y-117737200D02*
X242443928Y-117784819D01*
X242443928Y-117784819D02*
X242253452Y-117784819D01*
X242253452Y-117784819D02*
X242158214Y-117737200D01*
X242158214Y-117737200D02*
X242110595Y-117689580D01*
X242110595Y-117689580D02*
X242062976Y-117594342D01*
X242062976Y-117594342D02*
X242062976Y-117356247D01*
X242062976Y-117356247D02*
X242110595Y-117261009D01*
X242110595Y-117261009D02*
X242158214Y-117213390D01*
X242158214Y-117213390D02*
X242253452Y-117165771D01*
X242253452Y-117165771D02*
X242443928Y-117165771D01*
X242443928Y-117165771D02*
X242539166Y-117213390D01*
X242539166Y-117213390D02*
X242586785Y-117261009D01*
X242586785Y-117261009D02*
X242634404Y-117356247D01*
X241729642Y-116784819D02*
X241062976Y-116784819D01*
X241062976Y-116784819D02*
X241491547Y-117784819D01*
X85852857Y-79684819D02*
X86186190Y-79208628D01*
X86424285Y-79684819D02*
X86424285Y-78684819D01*
X86424285Y-78684819D02*
X86043333Y-78684819D01*
X86043333Y-78684819D02*
X85948095Y-78732438D01*
X85948095Y-78732438D02*
X85900476Y-78780057D01*
X85900476Y-78780057D02*
X85852857Y-78875295D01*
X85852857Y-78875295D02*
X85852857Y-79018152D01*
X85852857Y-79018152D02*
X85900476Y-79113390D01*
X85900476Y-79113390D02*
X85948095Y-79161009D01*
X85948095Y-79161009D02*
X86043333Y-79208628D01*
X86043333Y-79208628D02*
X86424285Y-79208628D01*
X85519523Y-78684819D02*
X84900476Y-78684819D01*
X84900476Y-78684819D02*
X85233809Y-79065771D01*
X85233809Y-79065771D02*
X85090952Y-79065771D01*
X85090952Y-79065771D02*
X84995714Y-79113390D01*
X84995714Y-79113390D02*
X84948095Y-79161009D01*
X84948095Y-79161009D02*
X84900476Y-79256247D01*
X84900476Y-79256247D02*
X84900476Y-79494342D01*
X84900476Y-79494342D02*
X84948095Y-79589580D01*
X84948095Y-79589580D02*
X84995714Y-79637200D01*
X84995714Y-79637200D02*
X85090952Y-79684819D01*
X85090952Y-79684819D02*
X85376666Y-79684819D01*
X85376666Y-79684819D02*
X85471904Y-79637200D01*
X85471904Y-79637200D02*
X85519523Y-79589580D01*
X84043333Y-78684819D02*
X84233809Y-78684819D01*
X84233809Y-78684819D02*
X84329047Y-78732438D01*
X84329047Y-78732438D02*
X84376666Y-78780057D01*
X84376666Y-78780057D02*
X84471904Y-78922914D01*
X84471904Y-78922914D02*
X84519523Y-79113390D01*
X84519523Y-79113390D02*
X84519523Y-79494342D01*
X84519523Y-79494342D02*
X84471904Y-79589580D01*
X84471904Y-79589580D02*
X84424285Y-79637200D01*
X84424285Y-79637200D02*
X84329047Y-79684819D01*
X84329047Y-79684819D02*
X84138571Y-79684819D01*
X84138571Y-79684819D02*
X84043333Y-79637200D01*
X84043333Y-79637200D02*
X83995714Y-79589580D01*
X83995714Y-79589580D02*
X83948095Y-79494342D01*
X83948095Y-79494342D02*
X83948095Y-79256247D01*
X83948095Y-79256247D02*
X83995714Y-79161009D01*
X83995714Y-79161009D02*
X84043333Y-79113390D01*
X84043333Y-79113390D02*
X84138571Y-79065771D01*
X84138571Y-79065771D02*
X84329047Y-79065771D01*
X84329047Y-79065771D02*
X84424285Y-79113390D01*
X84424285Y-79113390D02*
X84471904Y-79161009D01*
X84471904Y-79161009D02*
X84519523Y-79256247D01*
X71089166Y-41584819D02*
X71422499Y-41108628D01*
X71660594Y-41584819D02*
X71660594Y-40584819D01*
X71660594Y-40584819D02*
X71279642Y-40584819D01*
X71279642Y-40584819D02*
X71184404Y-40632438D01*
X71184404Y-40632438D02*
X71136785Y-40680057D01*
X71136785Y-40680057D02*
X71089166Y-40775295D01*
X71089166Y-40775295D02*
X71089166Y-40918152D01*
X71089166Y-40918152D02*
X71136785Y-41013390D01*
X71136785Y-41013390D02*
X71184404Y-41061009D01*
X71184404Y-41061009D02*
X71279642Y-41108628D01*
X71279642Y-41108628D02*
X71660594Y-41108628D01*
X70232023Y-40584819D02*
X70422499Y-40584819D01*
X70422499Y-40584819D02*
X70517737Y-40632438D01*
X70517737Y-40632438D02*
X70565356Y-40680057D01*
X70565356Y-40680057D02*
X70660594Y-40822914D01*
X70660594Y-40822914D02*
X70708213Y-41013390D01*
X70708213Y-41013390D02*
X70708213Y-41394342D01*
X70708213Y-41394342D02*
X70660594Y-41489580D01*
X70660594Y-41489580D02*
X70612975Y-41537200D01*
X70612975Y-41537200D02*
X70517737Y-41584819D01*
X70517737Y-41584819D02*
X70327261Y-41584819D01*
X70327261Y-41584819D02*
X70232023Y-41537200D01*
X70232023Y-41537200D02*
X70184404Y-41489580D01*
X70184404Y-41489580D02*
X70136785Y-41394342D01*
X70136785Y-41394342D02*
X70136785Y-41156247D01*
X70136785Y-41156247D02*
X70184404Y-41061009D01*
X70184404Y-41061009D02*
X70232023Y-41013390D01*
X70232023Y-41013390D02*
X70327261Y-40965771D01*
X70327261Y-40965771D02*
X70517737Y-40965771D01*
X70517737Y-40965771D02*
X70612975Y-41013390D01*
X70612975Y-41013390D02*
X70660594Y-41061009D01*
X70660594Y-41061009D02*
X70708213Y-41156247D01*
X40609157Y-79684819D02*
X40942490Y-79208628D01*
X41180585Y-79684819D02*
X41180585Y-78684819D01*
X41180585Y-78684819D02*
X40799633Y-78684819D01*
X40799633Y-78684819D02*
X40704395Y-78732438D01*
X40704395Y-78732438D02*
X40656776Y-78780057D01*
X40656776Y-78780057D02*
X40609157Y-78875295D01*
X40609157Y-78875295D02*
X40609157Y-79018152D01*
X40609157Y-79018152D02*
X40656776Y-79113390D01*
X40656776Y-79113390D02*
X40704395Y-79161009D01*
X40704395Y-79161009D02*
X40799633Y-79208628D01*
X40799633Y-79208628D02*
X41180585Y-79208628D01*
X40275823Y-78684819D02*
X39656776Y-78684819D01*
X39656776Y-78684819D02*
X39990109Y-79065771D01*
X39990109Y-79065771D02*
X39847252Y-79065771D01*
X39847252Y-79065771D02*
X39752014Y-79113390D01*
X39752014Y-79113390D02*
X39704395Y-79161009D01*
X39704395Y-79161009D02*
X39656776Y-79256247D01*
X39656776Y-79256247D02*
X39656776Y-79494342D01*
X39656776Y-79494342D02*
X39704395Y-79589580D01*
X39704395Y-79589580D02*
X39752014Y-79637200D01*
X39752014Y-79637200D02*
X39847252Y-79684819D01*
X39847252Y-79684819D02*
X40132966Y-79684819D01*
X40132966Y-79684819D02*
X40228204Y-79637200D01*
X40228204Y-79637200D02*
X40275823Y-79589580D01*
X38799633Y-79018152D02*
X38799633Y-79684819D01*
X39037728Y-78637200D02*
X39275823Y-79351485D01*
X39275823Y-79351485D02*
X38656776Y-79351485D01*
D10*
X297667780Y-5246517D02*
X297667780Y-5817945D01*
X297667780Y-5532231D02*
X298667780Y-5532231D01*
X298667780Y-5532231D02*
X298524923Y-5627469D01*
X298524923Y-5627469D02*
X298429685Y-5722707D01*
X298429685Y-5722707D02*
X298382066Y-5817945D01*
X298667780Y-4627469D02*
X298667780Y-4532231D01*
X298667780Y-4532231D02*
X298620161Y-4436993D01*
X298620161Y-4436993D02*
X298572542Y-4389374D01*
X298572542Y-4389374D02*
X298477304Y-4341755D01*
X298477304Y-4341755D02*
X298286828Y-4294136D01*
X298286828Y-4294136D02*
X298048733Y-4294136D01*
X298048733Y-4294136D02*
X297858257Y-4341755D01*
X297858257Y-4341755D02*
X297763019Y-4389374D01*
X297763019Y-4389374D02*
X297715400Y-4436993D01*
X297715400Y-4436993D02*
X297667780Y-4532231D01*
X297667780Y-4532231D02*
X297667780Y-4627469D01*
X297667780Y-4627469D02*
X297715400Y-4722707D01*
X297715400Y-4722707D02*
X297763019Y-4770326D01*
X297763019Y-4770326D02*
X297858257Y-4817945D01*
X297858257Y-4817945D02*
X298048733Y-4865564D01*
X298048733Y-4865564D02*
X298286828Y-4865564D01*
X298286828Y-4865564D02*
X298477304Y-4817945D01*
X298477304Y-4817945D02*
X298572542Y-4770326D01*
X298572542Y-4770326D02*
X298620161Y-4722707D01*
X298620161Y-4722707D02*
X298667780Y-4627469D01*
X297667780Y-27258244D02*
X297667780Y-27067768D01*
X297667780Y-27067768D02*
X297715400Y-26972530D01*
X297715400Y-26972530D02*
X297763019Y-26924911D01*
X297763019Y-26924911D02*
X297905876Y-26829673D01*
X297905876Y-26829673D02*
X298096352Y-26782054D01*
X298096352Y-26782054D02*
X298477304Y-26782054D01*
X298477304Y-26782054D02*
X298572542Y-26829673D01*
X298572542Y-26829673D02*
X298620161Y-26877292D01*
X298620161Y-26877292D02*
X298667780Y-26972530D01*
X298667780Y-26972530D02*
X298667780Y-27163006D01*
X298667780Y-27163006D02*
X298620161Y-27258244D01*
X298620161Y-27258244D02*
X298572542Y-27305863D01*
X298572542Y-27305863D02*
X298477304Y-27353482D01*
X298477304Y-27353482D02*
X298239209Y-27353482D01*
X298239209Y-27353482D02*
X298143971Y-27305863D01*
X298143971Y-27305863D02*
X298096352Y-27258244D01*
X298096352Y-27258244D02*
X298048733Y-27163006D01*
X298048733Y-27163006D02*
X298048733Y-26972530D01*
X298048733Y-26972530D02*
X298096352Y-26877292D01*
X298096352Y-26877292D02*
X298143971Y-26829673D01*
X298143971Y-26829673D02*
X298239209Y-26782054D01*
X300207780Y-5246517D02*
X300207780Y-5817945D01*
X300207780Y-5532231D02*
X301207780Y-5532231D01*
X301207780Y-5532231D02*
X301064923Y-5627469D01*
X301064923Y-5627469D02*
X300969685Y-5722707D01*
X300969685Y-5722707D02*
X300922066Y-5817945D01*
X301207780Y-4389374D02*
X301207780Y-4579850D01*
X301207780Y-4579850D02*
X301160161Y-4675088D01*
X301160161Y-4675088D02*
X301112542Y-4722707D01*
X301112542Y-4722707D02*
X300969685Y-4817945D01*
X300969685Y-4817945D02*
X300779209Y-4865564D01*
X300779209Y-4865564D02*
X300398257Y-4865564D01*
X300398257Y-4865564D02*
X300303019Y-4817945D01*
X300303019Y-4817945D02*
X300255400Y-4770326D01*
X300255400Y-4770326D02*
X300207780Y-4675088D01*
X300207780Y-4675088D02*
X300207780Y-4484612D01*
X300207780Y-4484612D02*
X300255400Y-4389374D01*
X300255400Y-4389374D02*
X300303019Y-4341755D01*
X300303019Y-4341755D02*
X300398257Y-4294136D01*
X300398257Y-4294136D02*
X300636352Y-4294136D01*
X300636352Y-4294136D02*
X300731590Y-4341755D01*
X300731590Y-4341755D02*
X300779209Y-4389374D01*
X300779209Y-4389374D02*
X300826828Y-4484612D01*
X300826828Y-4484612D02*
X300826828Y-4675088D01*
X300826828Y-4675088D02*
X300779209Y-4770326D01*
X300779209Y-4770326D02*
X300731590Y-4817945D01*
X300731590Y-4817945D02*
X300636352Y-4865564D01*
X301112542Y-19125713D02*
X301160161Y-19078094D01*
X301160161Y-19078094D02*
X301207780Y-18982856D01*
X301207780Y-18982856D02*
X301207780Y-18744761D01*
X301207780Y-18744761D02*
X301160161Y-18649523D01*
X301160161Y-18649523D02*
X301112542Y-18601904D01*
X301112542Y-18601904D02*
X301017304Y-18554285D01*
X301017304Y-18554285D02*
X300922066Y-18554285D01*
X300922066Y-18554285D02*
X300779209Y-18601904D01*
X300779209Y-18601904D02*
X300207780Y-19173332D01*
X300207780Y-19173332D02*
X300207780Y-18554285D01*
X300207780Y-21094285D02*
X300207780Y-21665713D01*
X300207780Y-21379999D02*
X301207780Y-21379999D01*
X301207780Y-21379999D02*
X301064923Y-21475237D01*
X301064923Y-21475237D02*
X300969685Y-21570475D01*
X300969685Y-21570475D02*
X300922066Y-21665713D01*
X300779209Y-27163006D02*
X300826828Y-27258244D01*
X300826828Y-27258244D02*
X300874447Y-27305863D01*
X300874447Y-27305863D02*
X300969685Y-27353482D01*
X300969685Y-27353482D02*
X301017304Y-27353482D01*
X301017304Y-27353482D02*
X301112542Y-27305863D01*
X301112542Y-27305863D02*
X301160161Y-27258244D01*
X301160161Y-27258244D02*
X301207780Y-27163006D01*
X301207780Y-27163006D02*
X301207780Y-26972530D01*
X301207780Y-26972530D02*
X301160161Y-26877292D01*
X301160161Y-26877292D02*
X301112542Y-26829673D01*
X301112542Y-26829673D02*
X301017304Y-26782054D01*
X301017304Y-26782054D02*
X300969685Y-26782054D01*
X300969685Y-26782054D02*
X300874447Y-26829673D01*
X300874447Y-26829673D02*
X300826828Y-26877292D01*
X300826828Y-26877292D02*
X300779209Y-26972530D01*
X300779209Y-26972530D02*
X300779209Y-27163006D01*
X300779209Y-27163006D02*
X300731590Y-27258244D01*
X300731590Y-27258244D02*
X300683971Y-27305863D01*
X300683971Y-27305863D02*
X300588733Y-27353482D01*
X300588733Y-27353482D02*
X300398257Y-27353482D01*
X300398257Y-27353482D02*
X300303019Y-27305863D01*
X300303019Y-27305863D02*
X300255400Y-27258244D01*
X300255400Y-27258244D02*
X300207780Y-27163006D01*
X300207780Y-27163006D02*
X300207780Y-26972530D01*
X300207780Y-26972530D02*
X300255400Y-26877292D01*
X300255400Y-26877292D02*
X300303019Y-26829673D01*
X300303019Y-26829673D02*
X300398257Y-26782054D01*
X300398257Y-26782054D02*
X300588733Y-26782054D01*
X300588733Y-26782054D02*
X300683971Y-26829673D01*
X300683971Y-26829673D02*
X300731590Y-26877292D01*
X300731590Y-26877292D02*
X300779209Y-26972530D01*
X301207782Y-16633332D02*
X301207782Y-15966666D01*
X301207782Y-15966666D02*
X300207782Y-16395237D01*
X302747780Y-5246517D02*
X302747780Y-5817945D01*
X302747780Y-5532231D02*
X303747780Y-5532231D01*
X303747780Y-5532231D02*
X303604923Y-5627469D01*
X303604923Y-5627469D02*
X303509685Y-5722707D01*
X303509685Y-5722707D02*
X303462066Y-5817945D01*
X303414447Y-4389374D02*
X302747780Y-4389374D01*
X303795400Y-4627469D02*
X303081114Y-4865564D01*
X303081114Y-4865564D02*
X303081114Y-4246517D01*
X303747780Y-27401101D02*
X303747780Y-26734435D01*
X303747780Y-26734435D02*
X302747780Y-27163006D01*
X305287780Y-5246517D02*
X305287780Y-5817945D01*
X305287780Y-5532231D02*
X306287780Y-5532231D01*
X306287780Y-5532231D02*
X306144923Y-5627469D01*
X306144923Y-5627469D02*
X306049685Y-5722707D01*
X306049685Y-5722707D02*
X306002066Y-5817945D01*
X306287780Y-4341755D02*
X306287780Y-4817945D01*
X306287780Y-4817945D02*
X305811590Y-4865564D01*
X305811590Y-4865564D02*
X305859209Y-4817945D01*
X305859209Y-4817945D02*
X305906828Y-4722707D01*
X305906828Y-4722707D02*
X305906828Y-4484612D01*
X305906828Y-4484612D02*
X305859209Y-4389374D01*
X305859209Y-4389374D02*
X305811590Y-4341755D01*
X305811590Y-4341755D02*
X305716352Y-4294136D01*
X305716352Y-4294136D02*
X305478257Y-4294136D01*
X305478257Y-4294136D02*
X305383019Y-4341755D01*
X305383019Y-4341755D02*
X305335400Y-4389374D01*
X305335400Y-4389374D02*
X305287780Y-4484612D01*
X305287780Y-4484612D02*
X305287780Y-4722707D01*
X305287780Y-4722707D02*
X305335400Y-4817945D01*
X305335400Y-4817945D02*
X305383019Y-4865564D01*
X306287780Y-26877292D02*
X306287780Y-27067768D01*
X306287780Y-27067768D02*
X306240161Y-27163006D01*
X306240161Y-27163006D02*
X306192542Y-27210625D01*
X306192542Y-27210625D02*
X306049685Y-27305863D01*
X306049685Y-27305863D02*
X305859209Y-27353482D01*
X305859209Y-27353482D02*
X305478257Y-27353482D01*
X305478257Y-27353482D02*
X305383019Y-27305863D01*
X305383019Y-27305863D02*
X305335400Y-27258244D01*
X305335400Y-27258244D02*
X305287780Y-27163006D01*
X305287780Y-27163006D02*
X305287780Y-26972530D01*
X305287780Y-26972530D02*
X305335400Y-26877292D01*
X305335400Y-26877292D02*
X305383019Y-26829673D01*
X305383019Y-26829673D02*
X305478257Y-26782054D01*
X305478257Y-26782054D02*
X305716352Y-26782054D01*
X305716352Y-26782054D02*
X305811590Y-26829673D01*
X305811590Y-26829673D02*
X305859209Y-26877292D01*
X305859209Y-26877292D02*
X305906828Y-26972530D01*
X305906828Y-26972530D02*
X305906828Y-27163006D01*
X305906828Y-27163006D02*
X305859209Y-27258244D01*
X305859209Y-27258244D02*
X305811590Y-27305863D01*
X305811590Y-27305863D02*
X305716352Y-27353482D01*
X307827780Y-5246517D02*
X307827780Y-5817945D01*
X307827780Y-5532231D02*
X308827780Y-5532231D01*
X308827780Y-5532231D02*
X308684923Y-5627469D01*
X308684923Y-5627469D02*
X308589685Y-5722707D01*
X308589685Y-5722707D02*
X308542066Y-5817945D01*
X308399209Y-4675088D02*
X308446828Y-4770326D01*
X308446828Y-4770326D02*
X308494447Y-4817945D01*
X308494447Y-4817945D02*
X308589685Y-4865564D01*
X308589685Y-4865564D02*
X308637304Y-4865564D01*
X308637304Y-4865564D02*
X308732542Y-4817945D01*
X308732542Y-4817945D02*
X308780161Y-4770326D01*
X308780161Y-4770326D02*
X308827780Y-4675088D01*
X308827780Y-4675088D02*
X308827780Y-4484612D01*
X308827780Y-4484612D02*
X308780161Y-4389374D01*
X308780161Y-4389374D02*
X308732542Y-4341755D01*
X308732542Y-4341755D02*
X308637304Y-4294136D01*
X308637304Y-4294136D02*
X308589685Y-4294136D01*
X308589685Y-4294136D02*
X308494447Y-4341755D01*
X308494447Y-4341755D02*
X308446828Y-4389374D01*
X308446828Y-4389374D02*
X308399209Y-4484612D01*
X308399209Y-4484612D02*
X308399209Y-4675088D01*
X308399209Y-4675088D02*
X308351590Y-4770326D01*
X308351590Y-4770326D02*
X308303971Y-4817945D01*
X308303971Y-4817945D02*
X308208733Y-4865564D01*
X308208733Y-4865564D02*
X308018257Y-4865564D01*
X308018257Y-4865564D02*
X307923019Y-4817945D01*
X307923019Y-4817945D02*
X307875400Y-4770326D01*
X307875400Y-4770326D02*
X307827780Y-4675088D01*
X307827780Y-4675088D02*
X307827780Y-4484612D01*
X307827780Y-4484612D02*
X307875400Y-4389374D01*
X307875400Y-4389374D02*
X307923019Y-4341755D01*
X307923019Y-4341755D02*
X308018257Y-4294136D01*
X308018257Y-4294136D02*
X308208733Y-4294136D01*
X308208733Y-4294136D02*
X308303971Y-4341755D01*
X308303971Y-4341755D02*
X308351590Y-4389374D01*
X308351590Y-4389374D02*
X308399209Y-4484612D01*
X308827780Y-26829673D02*
X308827780Y-27305863D01*
X308827780Y-27305863D02*
X308351590Y-27353482D01*
X308351590Y-27353482D02*
X308399209Y-27305863D01*
X308399209Y-27305863D02*
X308446828Y-27210625D01*
X308446828Y-27210625D02*
X308446828Y-26972530D01*
X308446828Y-26972530D02*
X308399209Y-26877292D01*
X308399209Y-26877292D02*
X308351590Y-26829673D01*
X308351590Y-26829673D02*
X308256352Y-26782054D01*
X308256352Y-26782054D02*
X308018257Y-26782054D01*
X308018257Y-26782054D02*
X307923019Y-26829673D01*
X307923019Y-26829673D02*
X307875400Y-26877292D01*
X307875400Y-26877292D02*
X307827780Y-26972530D01*
X307827780Y-26972530D02*
X307827780Y-27210625D01*
X307827780Y-27210625D02*
X307875400Y-27305863D01*
X307875400Y-27305863D02*
X307923019Y-27353482D01*
X310367780Y-5246517D02*
X310367780Y-5817945D01*
X310367780Y-5532231D02*
X311367780Y-5532231D01*
X311367780Y-5532231D02*
X311224923Y-5627469D01*
X311224923Y-5627469D02*
X311129685Y-5722707D01*
X311129685Y-5722707D02*
X311082066Y-5817945D01*
X310367780Y-4770326D02*
X310367780Y-4579850D01*
X310367780Y-4579850D02*
X310415400Y-4484612D01*
X310415400Y-4484612D02*
X310463019Y-4436993D01*
X310463019Y-4436993D02*
X310605876Y-4341755D01*
X310605876Y-4341755D02*
X310796352Y-4294136D01*
X310796352Y-4294136D02*
X311177304Y-4294136D01*
X311177304Y-4294136D02*
X311272542Y-4341755D01*
X311272542Y-4341755D02*
X311320161Y-4389374D01*
X311320161Y-4389374D02*
X311367780Y-4484612D01*
X311367780Y-4484612D02*
X311367780Y-4675088D01*
X311367780Y-4675088D02*
X311320161Y-4770326D01*
X311320161Y-4770326D02*
X311272542Y-4817945D01*
X311272542Y-4817945D02*
X311177304Y-4865564D01*
X311177304Y-4865564D02*
X310939209Y-4865564D01*
X310939209Y-4865564D02*
X310843971Y-4817945D01*
X310843971Y-4817945D02*
X310796352Y-4770326D01*
X310796352Y-4770326D02*
X310748733Y-4675088D01*
X310748733Y-4675088D02*
X310748733Y-4484612D01*
X310748733Y-4484612D02*
X310796352Y-4389374D01*
X310796352Y-4389374D02*
X310843971Y-4341755D01*
X310843971Y-4341755D02*
X310939209Y-4294136D01*
X311034447Y-26877292D02*
X310367780Y-26877292D01*
X311415400Y-27115387D02*
X310701114Y-27353482D01*
X310701114Y-27353482D02*
X310701114Y-26734435D01*
X313812542Y-5817945D02*
X313860161Y-5770326D01*
X313860161Y-5770326D02*
X313907780Y-5675088D01*
X313907780Y-5675088D02*
X313907780Y-5436993D01*
X313907780Y-5436993D02*
X313860161Y-5341755D01*
X313860161Y-5341755D02*
X313812542Y-5294136D01*
X313812542Y-5294136D02*
X313717304Y-5246517D01*
X313717304Y-5246517D02*
X313622066Y-5246517D01*
X313622066Y-5246517D02*
X313479209Y-5294136D01*
X313479209Y-5294136D02*
X312907780Y-5865564D01*
X312907780Y-5865564D02*
X312907780Y-5246517D01*
X313907780Y-4627469D02*
X313907780Y-4532231D01*
X313907780Y-4532231D02*
X313860161Y-4436993D01*
X313860161Y-4436993D02*
X313812542Y-4389374D01*
X313812542Y-4389374D02*
X313717304Y-4341755D01*
X313717304Y-4341755D02*
X313526828Y-4294136D01*
X313526828Y-4294136D02*
X313288733Y-4294136D01*
X313288733Y-4294136D02*
X313098257Y-4341755D01*
X313098257Y-4341755D02*
X313003019Y-4389374D01*
X313003019Y-4389374D02*
X312955400Y-4436993D01*
X312955400Y-4436993D02*
X312907780Y-4532231D01*
X312907780Y-4532231D02*
X312907780Y-4627469D01*
X312907780Y-4627469D02*
X312955400Y-4722707D01*
X312955400Y-4722707D02*
X313003019Y-4770326D01*
X313003019Y-4770326D02*
X313098257Y-4817945D01*
X313098257Y-4817945D02*
X313288733Y-4865564D01*
X313288733Y-4865564D02*
X313526828Y-4865564D01*
X313526828Y-4865564D02*
X313717304Y-4817945D01*
X313717304Y-4817945D02*
X313812542Y-4770326D01*
X313812542Y-4770326D02*
X313860161Y-4722707D01*
X313860161Y-4722707D02*
X313907780Y-4627469D01*
X313907780Y-27401101D02*
X313907780Y-26782054D01*
X313907780Y-26782054D02*
X313526828Y-27115387D01*
X313526828Y-27115387D02*
X313526828Y-26972530D01*
X313526828Y-26972530D02*
X313479209Y-26877292D01*
X313479209Y-26877292D02*
X313431590Y-26829673D01*
X313431590Y-26829673D02*
X313336352Y-26782054D01*
X313336352Y-26782054D02*
X313098257Y-26782054D01*
X313098257Y-26782054D02*
X313003019Y-26829673D01*
X313003019Y-26829673D02*
X312955400Y-26877292D01*
X312955400Y-26877292D02*
X312907780Y-26972530D01*
X312907780Y-26972530D02*
X312907780Y-27258244D01*
X312907780Y-27258244D02*
X312955400Y-27353482D01*
X312955400Y-27353482D02*
X313003019Y-27401101D01*
X316352542Y-5817945D02*
X316400161Y-5770326D01*
X316400161Y-5770326D02*
X316447780Y-5675088D01*
X316447780Y-5675088D02*
X316447780Y-5436993D01*
X316447780Y-5436993D02*
X316400161Y-5341755D01*
X316400161Y-5341755D02*
X316352542Y-5294136D01*
X316352542Y-5294136D02*
X316257304Y-5246517D01*
X316257304Y-5246517D02*
X316162066Y-5246517D01*
X316162066Y-5246517D02*
X316019209Y-5294136D01*
X316019209Y-5294136D02*
X315447780Y-5865564D01*
X315447780Y-5865564D02*
X315447780Y-5246517D01*
X315447780Y-4294136D02*
X315447780Y-4865564D01*
X315447780Y-4579850D02*
X316447780Y-4579850D01*
X316447780Y-4579850D02*
X316304923Y-4675088D01*
X316304923Y-4675088D02*
X316209685Y-4770326D01*
X316209685Y-4770326D02*
X316162066Y-4865564D01*
X316352542Y-27353482D02*
X316400161Y-27305863D01*
X316400161Y-27305863D02*
X316447780Y-27210625D01*
X316447780Y-27210625D02*
X316447780Y-26972530D01*
X316447780Y-26972530D02*
X316400161Y-26877292D01*
X316400161Y-26877292D02*
X316352542Y-26829673D01*
X316352542Y-26829673D02*
X316257304Y-26782054D01*
X316257304Y-26782054D02*
X316162066Y-26782054D01*
X316162066Y-26782054D02*
X316019209Y-26829673D01*
X316019209Y-26829673D02*
X315447780Y-27401101D01*
X315447780Y-27401101D02*
X315447780Y-26782054D01*
X318987780Y-5865564D02*
X318987780Y-5246517D01*
X318987780Y-5246517D02*
X318606828Y-5579850D01*
X318606828Y-5579850D02*
X318606828Y-5436993D01*
X318606828Y-5436993D02*
X318559209Y-5341755D01*
X318559209Y-5341755D02*
X318511590Y-5294136D01*
X318511590Y-5294136D02*
X318416352Y-5246517D01*
X318416352Y-5246517D02*
X318178257Y-5246517D01*
X318178257Y-5246517D02*
X318083019Y-5294136D01*
X318083019Y-5294136D02*
X318035400Y-5341755D01*
X318035400Y-5341755D02*
X317987780Y-5436993D01*
X317987780Y-5436993D02*
X317987780Y-5722707D01*
X317987780Y-5722707D02*
X318035400Y-5817945D01*
X318035400Y-5817945D02*
X318083019Y-5865564D01*
X318083019Y-4817945D02*
X318035400Y-4770326D01*
X318035400Y-4770326D02*
X317987780Y-4817945D01*
X317987780Y-4817945D02*
X318035400Y-4865564D01*
X318035400Y-4865564D02*
X318083019Y-4817945D01*
X318083019Y-4817945D02*
X317987780Y-4817945D01*
X318987780Y-4436993D02*
X318987780Y-3817946D01*
X318987780Y-3817946D02*
X318606828Y-4151279D01*
X318606828Y-4151279D02*
X318606828Y-4008422D01*
X318606828Y-4008422D02*
X318559209Y-3913184D01*
X318559209Y-3913184D02*
X318511590Y-3865565D01*
X318511590Y-3865565D02*
X318416352Y-3817946D01*
X318416352Y-3817946D02*
X318178257Y-3817946D01*
X318178257Y-3817946D02*
X318083019Y-3865565D01*
X318083019Y-3865565D02*
X318035400Y-3913184D01*
X318035400Y-3913184D02*
X317987780Y-4008422D01*
X317987780Y-4008422D02*
X317987780Y-4294136D01*
X317987780Y-4294136D02*
X318035400Y-4389374D01*
X318035400Y-4389374D02*
X318083019Y-4436993D01*
X318654447Y-3484612D02*
X317987780Y-3246517D01*
X317987780Y-3246517D02*
X318654447Y-3008422D01*
X318940161Y-28877292D02*
X318987780Y-28972530D01*
X318987780Y-28972530D02*
X318987780Y-29115387D01*
X318987780Y-29115387D02*
X318940161Y-29258244D01*
X318940161Y-29258244D02*
X318844923Y-29353482D01*
X318844923Y-29353482D02*
X318749685Y-29401101D01*
X318749685Y-29401101D02*
X318559209Y-29448720D01*
X318559209Y-29448720D02*
X318416352Y-29448720D01*
X318416352Y-29448720D02*
X318225876Y-29401101D01*
X318225876Y-29401101D02*
X318130638Y-29353482D01*
X318130638Y-29353482D02*
X318035400Y-29258244D01*
X318035400Y-29258244D02*
X317987780Y-29115387D01*
X317987780Y-29115387D02*
X317987780Y-29020149D01*
X317987780Y-29020149D02*
X318035400Y-28877292D01*
X318035400Y-28877292D02*
X318083019Y-28829673D01*
X318083019Y-28829673D02*
X318416352Y-28829673D01*
X318416352Y-28829673D02*
X318416352Y-29020149D01*
X317987780Y-28401101D02*
X318987780Y-28401101D01*
X318987780Y-28401101D02*
X317987780Y-27829673D01*
X317987780Y-27829673D02*
X318987780Y-27829673D01*
X317987780Y-27353482D02*
X318987780Y-27353482D01*
X318987780Y-27353482D02*
X318987780Y-27115387D01*
X318987780Y-27115387D02*
X318940161Y-26972530D01*
X318940161Y-26972530D02*
X318844923Y-26877292D01*
X318844923Y-26877292D02*
X318749685Y-26829673D01*
X318749685Y-26829673D02*
X318559209Y-26782054D01*
X318559209Y-26782054D02*
X318416352Y-26782054D01*
X318416352Y-26782054D02*
X318225876Y-26829673D01*
X318225876Y-26829673D02*
X318130638Y-26877292D01*
X318130638Y-26877292D02*
X318035400Y-26972530D01*
X318035400Y-26972530D02*
X317987780Y-27115387D01*
X317987780Y-27115387D02*
X317987780Y-27353482D01*
X320527780Y-5198898D02*
X321003971Y-5532231D01*
X320527780Y-5770326D02*
X321527780Y-5770326D01*
X321527780Y-5770326D02*
X321527780Y-5389374D01*
X321527780Y-5389374D02*
X321480161Y-5294136D01*
X321480161Y-5294136D02*
X321432542Y-5246517D01*
X321432542Y-5246517D02*
X321337304Y-5198898D01*
X321337304Y-5198898D02*
X321194447Y-5198898D01*
X321194447Y-5198898D02*
X321099209Y-5246517D01*
X321099209Y-5246517D02*
X321051590Y-5294136D01*
X321051590Y-5294136D02*
X321003971Y-5389374D01*
X321003971Y-5389374D02*
X321003971Y-5770326D01*
X320575400Y-4817945D02*
X320527780Y-4675088D01*
X320527780Y-4675088D02*
X320527780Y-4436993D01*
X320527780Y-4436993D02*
X320575400Y-4341755D01*
X320575400Y-4341755D02*
X320623019Y-4294136D01*
X320623019Y-4294136D02*
X320718257Y-4246517D01*
X320718257Y-4246517D02*
X320813495Y-4246517D01*
X320813495Y-4246517D02*
X320908733Y-4294136D01*
X320908733Y-4294136D02*
X320956352Y-4341755D01*
X320956352Y-4341755D02*
X321003971Y-4436993D01*
X321003971Y-4436993D02*
X321051590Y-4627469D01*
X321051590Y-4627469D02*
X321099209Y-4722707D01*
X321099209Y-4722707D02*
X321146828Y-4770326D01*
X321146828Y-4770326D02*
X321242066Y-4817945D01*
X321242066Y-4817945D02*
X321337304Y-4817945D01*
X321337304Y-4817945D02*
X321432542Y-4770326D01*
X321432542Y-4770326D02*
X321480161Y-4722707D01*
X321480161Y-4722707D02*
X321527780Y-4627469D01*
X321527780Y-4627469D02*
X321527780Y-4389374D01*
X321527780Y-4389374D02*
X321480161Y-4246517D01*
X321527780Y-3960802D02*
X321527780Y-3389374D01*
X320527780Y-3675088D02*
X321527780Y-3675088D01*
X321480161Y-28877292D02*
X321527780Y-28972530D01*
X321527780Y-28972530D02*
X321527780Y-29115387D01*
X321527780Y-29115387D02*
X321480161Y-29258244D01*
X321480161Y-29258244D02*
X321384923Y-29353482D01*
X321384923Y-29353482D02*
X321289685Y-29401101D01*
X321289685Y-29401101D02*
X321099209Y-29448720D01*
X321099209Y-29448720D02*
X320956352Y-29448720D01*
X320956352Y-29448720D02*
X320765876Y-29401101D01*
X320765876Y-29401101D02*
X320670638Y-29353482D01*
X320670638Y-29353482D02*
X320575400Y-29258244D01*
X320575400Y-29258244D02*
X320527780Y-29115387D01*
X320527780Y-29115387D02*
X320527780Y-29020149D01*
X320527780Y-29020149D02*
X320575400Y-28877292D01*
X320575400Y-28877292D02*
X320623019Y-28829673D01*
X320623019Y-28829673D02*
X320956352Y-28829673D01*
X320956352Y-28829673D02*
X320956352Y-29020149D01*
X320527780Y-28401101D02*
X321527780Y-28401101D01*
X321527780Y-28401101D02*
X320527780Y-27829673D01*
X320527780Y-27829673D02*
X321527780Y-27829673D01*
X320527780Y-27353482D02*
X321527780Y-27353482D01*
X321527780Y-27353482D02*
X321527780Y-27115387D01*
X321527780Y-27115387D02*
X321480161Y-26972530D01*
X321480161Y-26972530D02*
X321384923Y-26877292D01*
X321384923Y-26877292D02*
X321289685Y-26829673D01*
X321289685Y-26829673D02*
X321099209Y-26782054D01*
X321099209Y-26782054D02*
X320956352Y-26782054D01*
X320956352Y-26782054D02*
X320765876Y-26829673D01*
X320765876Y-26829673D02*
X320670638Y-26877292D01*
X320670638Y-26877292D02*
X320575400Y-26972530D01*
X320575400Y-26972530D02*
X320527780Y-27115387D01*
X320527780Y-27115387D02*
X320527780Y-27353482D01*
X324020161Y-5246517D02*
X324067780Y-5341755D01*
X324067780Y-5341755D02*
X324067780Y-5484612D01*
X324067780Y-5484612D02*
X324020161Y-5627469D01*
X324020161Y-5627469D02*
X323924923Y-5722707D01*
X323924923Y-5722707D02*
X323829685Y-5770326D01*
X323829685Y-5770326D02*
X323639209Y-5817945D01*
X323639209Y-5817945D02*
X323496352Y-5817945D01*
X323496352Y-5817945D02*
X323305876Y-5770326D01*
X323305876Y-5770326D02*
X323210638Y-5722707D01*
X323210638Y-5722707D02*
X323115400Y-5627469D01*
X323115400Y-5627469D02*
X323067780Y-5484612D01*
X323067780Y-5484612D02*
X323067780Y-5389374D01*
X323067780Y-5389374D02*
X323115400Y-5246517D01*
X323115400Y-5246517D02*
X323163019Y-5198898D01*
X323163019Y-5198898D02*
X323496352Y-5198898D01*
X323496352Y-5198898D02*
X323496352Y-5389374D01*
X323067780Y-4770326D02*
X324067780Y-4770326D01*
X324067780Y-4770326D02*
X323067780Y-4198898D01*
X323067780Y-4198898D02*
X324067780Y-4198898D01*
X323067780Y-3722707D02*
X324067780Y-3722707D01*
X324067780Y-3722707D02*
X324067780Y-3484612D01*
X324067780Y-3484612D02*
X324020161Y-3341755D01*
X324020161Y-3341755D02*
X323924923Y-3246517D01*
X323924923Y-3246517D02*
X323829685Y-3198898D01*
X323829685Y-3198898D02*
X323639209Y-3151279D01*
X323639209Y-3151279D02*
X323496352Y-3151279D01*
X323496352Y-3151279D02*
X323305876Y-3198898D01*
X323305876Y-3198898D02*
X323210638Y-3246517D01*
X323210638Y-3246517D02*
X323115400Y-3341755D01*
X323115400Y-3341755D02*
X323067780Y-3484612D01*
X323067780Y-3484612D02*
X323067780Y-3722707D01*
X324067780Y-27115387D02*
X324067780Y-27020149D01*
X324067780Y-27020149D02*
X324020161Y-26924911D01*
X324020161Y-26924911D02*
X323972542Y-26877292D01*
X323972542Y-26877292D02*
X323877304Y-26829673D01*
X323877304Y-26829673D02*
X323686828Y-26782054D01*
X323686828Y-26782054D02*
X323448733Y-26782054D01*
X323448733Y-26782054D02*
X323258257Y-26829673D01*
X323258257Y-26829673D02*
X323163019Y-26877292D01*
X323163019Y-26877292D02*
X323115400Y-26924911D01*
X323115400Y-26924911D02*
X323067780Y-27020149D01*
X323067780Y-27020149D02*
X323067780Y-27115387D01*
X323067780Y-27115387D02*
X323115400Y-27210625D01*
X323115400Y-27210625D02*
X323163019Y-27258244D01*
X323163019Y-27258244D02*
X323258257Y-27305863D01*
X323258257Y-27305863D02*
X323448733Y-27353482D01*
X323448733Y-27353482D02*
X323686828Y-27353482D01*
X323686828Y-27353482D02*
X323877304Y-27305863D01*
X323877304Y-27305863D02*
X323972542Y-27258244D01*
X323972542Y-27258244D02*
X324020161Y-27210625D01*
X324020161Y-27210625D02*
X324067780Y-27115387D01*
X326131590Y-5436993D02*
X326083971Y-5294136D01*
X326083971Y-5294136D02*
X326036352Y-5246517D01*
X326036352Y-5246517D02*
X325941114Y-5198898D01*
X325941114Y-5198898D02*
X325798257Y-5198898D01*
X325798257Y-5198898D02*
X325703019Y-5246517D01*
X325703019Y-5246517D02*
X325655400Y-5294136D01*
X325655400Y-5294136D02*
X325607780Y-5389374D01*
X325607780Y-5389374D02*
X325607780Y-5770326D01*
X325607780Y-5770326D02*
X326607780Y-5770326D01*
X326607780Y-5770326D02*
X326607780Y-5436993D01*
X326607780Y-5436993D02*
X326560161Y-5341755D01*
X326560161Y-5341755D02*
X326512542Y-5294136D01*
X326512542Y-5294136D02*
X326417304Y-5246517D01*
X326417304Y-5246517D02*
X326322066Y-5246517D01*
X326322066Y-5246517D02*
X326226828Y-5294136D01*
X326226828Y-5294136D02*
X326179209Y-5341755D01*
X326179209Y-5341755D02*
X326131590Y-5436993D01*
X326131590Y-5436993D02*
X326131590Y-5770326D01*
X325988733Y-4770326D02*
X325988733Y-4008422D01*
X325607780Y-4389374D02*
X326369685Y-4389374D01*
X325607780Y-26782054D02*
X325607780Y-27353482D01*
X325607780Y-27067768D02*
X326607780Y-27067768D01*
X326607780Y-27067768D02*
X326464923Y-27163006D01*
X326464923Y-27163006D02*
X326369685Y-27258244D01*
X326369685Y-27258244D02*
X326322066Y-27353482D01*
D11*
X138240357Y-60634819D02*
X138573690Y-60158628D01*
X138811785Y-60634819D02*
X138811785Y-59634819D01*
X138811785Y-59634819D02*
X138430833Y-59634819D01*
X138430833Y-59634819D02*
X138335595Y-59682438D01*
X138335595Y-59682438D02*
X138287976Y-59730057D01*
X138287976Y-59730057D02*
X138240357Y-59825295D01*
X138240357Y-59825295D02*
X138240357Y-59968152D01*
X138240357Y-59968152D02*
X138287976Y-60063390D01*
X138287976Y-60063390D02*
X138335595Y-60111009D01*
X138335595Y-60111009D02*
X138430833Y-60158628D01*
X138430833Y-60158628D02*
X138811785Y-60158628D01*
X137859404Y-59730057D02*
X137811785Y-59682438D01*
X137811785Y-59682438D02*
X137716547Y-59634819D01*
X137716547Y-59634819D02*
X137478452Y-59634819D01*
X137478452Y-59634819D02*
X137383214Y-59682438D01*
X137383214Y-59682438D02*
X137335595Y-59730057D01*
X137335595Y-59730057D02*
X137287976Y-59825295D01*
X137287976Y-59825295D02*
X137287976Y-59920533D01*
X137287976Y-59920533D02*
X137335595Y-60063390D01*
X137335595Y-60063390D02*
X137907023Y-60634819D01*
X137907023Y-60634819D02*
X137287976Y-60634819D01*
X136430833Y-59968152D02*
X136430833Y-60634819D01*
X136668928Y-59587200D02*
X136907023Y-60301485D01*
X136907023Y-60301485D02*
X136287976Y-60301485D01*
X319215357Y-79684819D02*
X319548690Y-79208628D01*
X319786785Y-79684819D02*
X319786785Y-78684819D01*
X319786785Y-78684819D02*
X319405833Y-78684819D01*
X319405833Y-78684819D02*
X319310595Y-78732438D01*
X319310595Y-78732438D02*
X319262976Y-78780057D01*
X319262976Y-78780057D02*
X319215357Y-78875295D01*
X319215357Y-78875295D02*
X319215357Y-79018152D01*
X319215357Y-79018152D02*
X319262976Y-79113390D01*
X319262976Y-79113390D02*
X319310595Y-79161009D01*
X319310595Y-79161009D02*
X319405833Y-79208628D01*
X319405833Y-79208628D02*
X319786785Y-79208628D01*
X318358214Y-79018152D02*
X318358214Y-79684819D01*
X318596309Y-78637200D02*
X318834404Y-79351485D01*
X318834404Y-79351485D02*
X318215357Y-79351485D01*
X317929642Y-78684819D02*
X317262976Y-78684819D01*
X317262976Y-78684819D02*
X317691547Y-79684819D01*
X262065357Y-41584819D02*
X262398690Y-41108628D01*
X262636785Y-41584819D02*
X262636785Y-40584819D01*
X262636785Y-40584819D02*
X262255833Y-40584819D01*
X262255833Y-40584819D02*
X262160595Y-40632438D01*
X262160595Y-40632438D02*
X262112976Y-40680057D01*
X262112976Y-40680057D02*
X262065357Y-40775295D01*
X262065357Y-40775295D02*
X262065357Y-40918152D01*
X262065357Y-40918152D02*
X262112976Y-41013390D01*
X262112976Y-41013390D02*
X262160595Y-41061009D01*
X262160595Y-41061009D02*
X262255833Y-41108628D01*
X262255833Y-41108628D02*
X262636785Y-41108628D01*
X261112976Y-41584819D02*
X261684404Y-41584819D01*
X261398690Y-41584819D02*
X261398690Y-40584819D01*
X261398690Y-40584819D02*
X261493928Y-40727676D01*
X261493928Y-40727676D02*
X261589166Y-40822914D01*
X261589166Y-40822914D02*
X261684404Y-40870533D01*
X260255833Y-40584819D02*
X260446309Y-40584819D01*
X260446309Y-40584819D02*
X260541547Y-40632438D01*
X260541547Y-40632438D02*
X260589166Y-40680057D01*
X260589166Y-40680057D02*
X260684404Y-40822914D01*
X260684404Y-40822914D02*
X260732023Y-41013390D01*
X260732023Y-41013390D02*
X260732023Y-41394342D01*
X260732023Y-41394342D02*
X260684404Y-41489580D01*
X260684404Y-41489580D02*
X260636785Y-41537200D01*
X260636785Y-41537200D02*
X260541547Y-41584819D01*
X260541547Y-41584819D02*
X260351071Y-41584819D01*
X260351071Y-41584819D02*
X260255833Y-41537200D01*
X260255833Y-41537200D02*
X260208214Y-41489580D01*
X260208214Y-41489580D02*
X260160595Y-41394342D01*
X260160595Y-41394342D02*
X260160595Y-41156247D01*
X260160595Y-41156247D02*
X260208214Y-41061009D01*
X260208214Y-41061009D02*
X260255833Y-41013390D01*
X260255833Y-41013390D02*
X260351071Y-40965771D01*
X260351071Y-40965771D02*
X260541547Y-40965771D01*
X260541547Y-40965771D02*
X260636785Y-41013390D01*
X260636785Y-41013390D02*
X260684404Y-41061009D01*
X260684404Y-41061009D02*
X260732023Y-41156247D01*
X288354166Y-14704819D02*
X288687499Y-14228628D01*
X288925594Y-14704819D02*
X288925594Y-13704819D01*
X288925594Y-13704819D02*
X288544642Y-13704819D01*
X288544642Y-13704819D02*
X288449404Y-13752438D01*
X288449404Y-13752438D02*
X288401785Y-13800057D01*
X288401785Y-13800057D02*
X288354166Y-13895295D01*
X288354166Y-13895295D02*
X288354166Y-14038152D01*
X288354166Y-14038152D02*
X288401785Y-14133390D01*
X288401785Y-14133390D02*
X288449404Y-14181009D01*
X288449404Y-14181009D02*
X288544642Y-14228628D01*
X288544642Y-14228628D02*
X288925594Y-14228628D01*
X287973213Y-13800057D02*
X287925594Y-13752438D01*
X287925594Y-13752438D02*
X287830356Y-13704819D01*
X287830356Y-13704819D02*
X287592261Y-13704819D01*
X287592261Y-13704819D02*
X287497023Y-13752438D01*
X287497023Y-13752438D02*
X287449404Y-13800057D01*
X287449404Y-13800057D02*
X287401785Y-13895295D01*
X287401785Y-13895295D02*
X287401785Y-13990533D01*
X287401785Y-13990533D02*
X287449404Y-14133390D01*
X287449404Y-14133390D02*
X288020832Y-14704819D01*
X288020832Y-14704819D02*
X287401785Y-14704819D01*
X300165357Y-117784819D02*
X300498690Y-117308628D01*
X300736785Y-117784819D02*
X300736785Y-116784819D01*
X300736785Y-116784819D02*
X300355833Y-116784819D01*
X300355833Y-116784819D02*
X300260595Y-116832438D01*
X300260595Y-116832438D02*
X300212976Y-116880057D01*
X300212976Y-116880057D02*
X300165357Y-116975295D01*
X300165357Y-116975295D02*
X300165357Y-117118152D01*
X300165357Y-117118152D02*
X300212976Y-117213390D01*
X300212976Y-117213390D02*
X300260595Y-117261009D01*
X300260595Y-117261009D02*
X300355833Y-117308628D01*
X300355833Y-117308628D02*
X300736785Y-117308628D01*
X299832023Y-116784819D02*
X299165357Y-116784819D01*
X299165357Y-116784819D02*
X299593928Y-117784819D01*
X298593928Y-116784819D02*
X298498690Y-116784819D01*
X298498690Y-116784819D02*
X298403452Y-116832438D01*
X298403452Y-116832438D02*
X298355833Y-116880057D01*
X298355833Y-116880057D02*
X298308214Y-116975295D01*
X298308214Y-116975295D02*
X298260595Y-117165771D01*
X298260595Y-117165771D02*
X298260595Y-117403866D01*
X298260595Y-117403866D02*
X298308214Y-117594342D01*
X298308214Y-117594342D02*
X298355833Y-117689580D01*
X298355833Y-117689580D02*
X298403452Y-117737200D01*
X298403452Y-117737200D02*
X298498690Y-117784819D01*
X298498690Y-117784819D02*
X298593928Y-117784819D01*
X298593928Y-117784819D02*
X298689166Y-117737200D01*
X298689166Y-117737200D02*
X298736785Y-117689580D01*
X298736785Y-117689580D02*
X298784404Y-117594342D01*
X298784404Y-117594342D02*
X298832023Y-117403866D01*
X298832023Y-117403866D02*
X298832023Y-117165771D01*
X298832023Y-117165771D02*
X298784404Y-116975295D01*
X298784404Y-116975295D02*
X298736785Y-116880057D01*
X298736785Y-116880057D02*
X298689166Y-116832438D01*
X298689166Y-116832438D02*
X298593928Y-116784819D01*
X181102857Y-79684819D02*
X181436190Y-79208628D01*
X181674285Y-79684819D02*
X181674285Y-78684819D01*
X181674285Y-78684819D02*
X181293333Y-78684819D01*
X181293333Y-78684819D02*
X181198095Y-78732438D01*
X181198095Y-78732438D02*
X181150476Y-78780057D01*
X181150476Y-78780057D02*
X181102857Y-78875295D01*
X181102857Y-78875295D02*
X181102857Y-79018152D01*
X181102857Y-79018152D02*
X181150476Y-79113390D01*
X181150476Y-79113390D02*
X181198095Y-79161009D01*
X181198095Y-79161009D02*
X181293333Y-79208628D01*
X181293333Y-79208628D02*
X181674285Y-79208628D01*
X180245714Y-79018152D02*
X180245714Y-79684819D01*
X180483809Y-78637200D02*
X180721904Y-79351485D01*
X180721904Y-79351485D02*
X180102857Y-79351485D01*
X179198095Y-79684819D02*
X179769523Y-79684819D01*
X179483809Y-79684819D02*
X179483809Y-78684819D01*
X179483809Y-78684819D02*
X179579047Y-78827676D01*
X179579047Y-78827676D02*
X179674285Y-78922914D01*
X179674285Y-78922914D02*
X179769523Y-78970533D01*
X223965357Y-117784819D02*
X224298690Y-117308628D01*
X224536785Y-117784819D02*
X224536785Y-116784819D01*
X224536785Y-116784819D02*
X224155833Y-116784819D01*
X224155833Y-116784819D02*
X224060595Y-116832438D01*
X224060595Y-116832438D02*
X224012976Y-116880057D01*
X224012976Y-116880057D02*
X223965357Y-116975295D01*
X223965357Y-116975295D02*
X223965357Y-117118152D01*
X223965357Y-117118152D02*
X224012976Y-117213390D01*
X224012976Y-117213390D02*
X224060595Y-117261009D01*
X224060595Y-117261009D02*
X224155833Y-117308628D01*
X224155833Y-117308628D02*
X224536785Y-117308628D01*
X223108214Y-116784819D02*
X223298690Y-116784819D01*
X223298690Y-116784819D02*
X223393928Y-116832438D01*
X223393928Y-116832438D02*
X223441547Y-116880057D01*
X223441547Y-116880057D02*
X223536785Y-117022914D01*
X223536785Y-117022914D02*
X223584404Y-117213390D01*
X223584404Y-117213390D02*
X223584404Y-117594342D01*
X223584404Y-117594342D02*
X223536785Y-117689580D01*
X223536785Y-117689580D02*
X223489166Y-117737200D01*
X223489166Y-117737200D02*
X223393928Y-117784819D01*
X223393928Y-117784819D02*
X223203452Y-117784819D01*
X223203452Y-117784819D02*
X223108214Y-117737200D01*
X223108214Y-117737200D02*
X223060595Y-117689580D01*
X223060595Y-117689580D02*
X223012976Y-117594342D01*
X223012976Y-117594342D02*
X223012976Y-117356247D01*
X223012976Y-117356247D02*
X223060595Y-117261009D01*
X223060595Y-117261009D02*
X223108214Y-117213390D01*
X223108214Y-117213390D02*
X223203452Y-117165771D01*
X223203452Y-117165771D02*
X223393928Y-117165771D01*
X223393928Y-117165771D02*
X223489166Y-117213390D01*
X223489166Y-117213390D02*
X223536785Y-117261009D01*
X223536785Y-117261009D02*
X223584404Y-117356247D01*
X222155833Y-116784819D02*
X222346309Y-116784819D01*
X222346309Y-116784819D02*
X222441547Y-116832438D01*
X222441547Y-116832438D02*
X222489166Y-116880057D01*
X222489166Y-116880057D02*
X222584404Y-117022914D01*
X222584404Y-117022914D02*
X222632023Y-117213390D01*
X222632023Y-117213390D02*
X222632023Y-117594342D01*
X222632023Y-117594342D02*
X222584404Y-117689580D01*
X222584404Y-117689580D02*
X222536785Y-117737200D01*
X222536785Y-117737200D02*
X222441547Y-117784819D01*
X222441547Y-117784819D02*
X222251071Y-117784819D01*
X222251071Y-117784819D02*
X222155833Y-117737200D01*
X222155833Y-117737200D02*
X222108214Y-117689580D01*
X222108214Y-117689580D02*
X222060595Y-117594342D01*
X222060595Y-117594342D02*
X222060595Y-117356247D01*
X222060595Y-117356247D02*
X222108214Y-117261009D01*
X222108214Y-117261009D02*
X222155833Y-117213390D01*
X222155833Y-117213390D02*
X222251071Y-117165771D01*
X222251071Y-117165771D02*
X222441547Y-117165771D01*
X222441547Y-117165771D02*
X222536785Y-117213390D01*
X222536785Y-117213390D02*
X222584404Y-117261009D01*
X222584404Y-117261009D02*
X222632023Y-117356247D01*
X104902857Y-79684819D02*
X105236190Y-79208628D01*
X105474285Y-79684819D02*
X105474285Y-78684819D01*
X105474285Y-78684819D02*
X105093333Y-78684819D01*
X105093333Y-78684819D02*
X104998095Y-78732438D01*
X104998095Y-78732438D02*
X104950476Y-78780057D01*
X104950476Y-78780057D02*
X104902857Y-78875295D01*
X104902857Y-78875295D02*
X104902857Y-79018152D01*
X104902857Y-79018152D02*
X104950476Y-79113390D01*
X104950476Y-79113390D02*
X104998095Y-79161009D01*
X104998095Y-79161009D02*
X105093333Y-79208628D01*
X105093333Y-79208628D02*
X105474285Y-79208628D01*
X104569523Y-78684819D02*
X103950476Y-78684819D01*
X103950476Y-78684819D02*
X104283809Y-79065771D01*
X104283809Y-79065771D02*
X104140952Y-79065771D01*
X104140952Y-79065771D02*
X104045714Y-79113390D01*
X104045714Y-79113390D02*
X103998095Y-79161009D01*
X103998095Y-79161009D02*
X103950476Y-79256247D01*
X103950476Y-79256247D02*
X103950476Y-79494342D01*
X103950476Y-79494342D02*
X103998095Y-79589580D01*
X103998095Y-79589580D02*
X104045714Y-79637200D01*
X104045714Y-79637200D02*
X104140952Y-79684819D01*
X104140952Y-79684819D02*
X104426666Y-79684819D01*
X104426666Y-79684819D02*
X104521904Y-79637200D01*
X104521904Y-79637200D02*
X104569523Y-79589580D01*
X103617142Y-78684819D02*
X102950476Y-78684819D01*
X102950476Y-78684819D02*
X103379047Y-79684819D01*
X171577857Y-98734819D02*
X171911190Y-98258628D01*
X172149285Y-98734819D02*
X172149285Y-97734819D01*
X172149285Y-97734819D02*
X171768333Y-97734819D01*
X171768333Y-97734819D02*
X171673095Y-97782438D01*
X171673095Y-97782438D02*
X171625476Y-97830057D01*
X171625476Y-97830057D02*
X171577857Y-97925295D01*
X171577857Y-97925295D02*
X171577857Y-98068152D01*
X171577857Y-98068152D02*
X171625476Y-98163390D01*
X171625476Y-98163390D02*
X171673095Y-98211009D01*
X171673095Y-98211009D02*
X171768333Y-98258628D01*
X171768333Y-98258628D02*
X172149285Y-98258628D01*
X170673095Y-97734819D02*
X171149285Y-97734819D01*
X171149285Y-97734819D02*
X171196904Y-98211009D01*
X171196904Y-98211009D02*
X171149285Y-98163390D01*
X171149285Y-98163390D02*
X171054047Y-98115771D01*
X171054047Y-98115771D02*
X170815952Y-98115771D01*
X170815952Y-98115771D02*
X170720714Y-98163390D01*
X170720714Y-98163390D02*
X170673095Y-98211009D01*
X170673095Y-98211009D02*
X170625476Y-98306247D01*
X170625476Y-98306247D02*
X170625476Y-98544342D01*
X170625476Y-98544342D02*
X170673095Y-98639580D01*
X170673095Y-98639580D02*
X170720714Y-98687200D01*
X170720714Y-98687200D02*
X170815952Y-98734819D01*
X170815952Y-98734819D02*
X171054047Y-98734819D01*
X171054047Y-98734819D02*
X171149285Y-98687200D01*
X171149285Y-98687200D02*
X171196904Y-98639580D01*
X169768333Y-98068152D02*
X169768333Y-98734819D01*
X170006428Y-97687200D02*
X170244523Y-98401485D01*
X170244523Y-98401485D02*
X169625476Y-98401485D01*
X290640357Y-41584819D02*
X290973690Y-41108628D01*
X291211785Y-41584819D02*
X291211785Y-40584819D01*
X291211785Y-40584819D02*
X290830833Y-40584819D01*
X290830833Y-40584819D02*
X290735595Y-40632438D01*
X290735595Y-40632438D02*
X290687976Y-40680057D01*
X290687976Y-40680057D02*
X290640357Y-40775295D01*
X290640357Y-40775295D02*
X290640357Y-40918152D01*
X290640357Y-40918152D02*
X290687976Y-41013390D01*
X290687976Y-41013390D02*
X290735595Y-41061009D01*
X290735595Y-41061009D02*
X290830833Y-41108628D01*
X290830833Y-41108628D02*
X291211785Y-41108628D01*
X289687976Y-41584819D02*
X290259404Y-41584819D01*
X289973690Y-41584819D02*
X289973690Y-40584819D01*
X289973690Y-40584819D02*
X290068928Y-40727676D01*
X290068928Y-40727676D02*
X290164166Y-40822914D01*
X290164166Y-40822914D02*
X290259404Y-40870533D01*
X289354642Y-40584819D02*
X288687976Y-40584819D01*
X288687976Y-40584819D02*
X289116547Y-41584819D01*
X204915357Y-41584819D02*
X205248690Y-41108628D01*
X205486785Y-41584819D02*
X205486785Y-40584819D01*
X205486785Y-40584819D02*
X205105833Y-40584819D01*
X205105833Y-40584819D02*
X205010595Y-40632438D01*
X205010595Y-40632438D02*
X204962976Y-40680057D01*
X204962976Y-40680057D02*
X204915357Y-40775295D01*
X204915357Y-40775295D02*
X204915357Y-40918152D01*
X204915357Y-40918152D02*
X204962976Y-41013390D01*
X204962976Y-41013390D02*
X205010595Y-41061009D01*
X205010595Y-41061009D02*
X205105833Y-41108628D01*
X205105833Y-41108628D02*
X205486785Y-41108628D01*
X203962976Y-41584819D02*
X204534404Y-41584819D01*
X204248690Y-41584819D02*
X204248690Y-40584819D01*
X204248690Y-40584819D02*
X204343928Y-40727676D01*
X204343928Y-40727676D02*
X204439166Y-40822914D01*
X204439166Y-40822914D02*
X204534404Y-40870533D01*
X203629642Y-40584819D02*
X203010595Y-40584819D01*
X203010595Y-40584819D02*
X203343928Y-40965771D01*
X203343928Y-40965771D02*
X203201071Y-40965771D01*
X203201071Y-40965771D02*
X203105833Y-41013390D01*
X203105833Y-41013390D02*
X203058214Y-41061009D01*
X203058214Y-41061009D02*
X203010595Y-41156247D01*
X203010595Y-41156247D02*
X203010595Y-41394342D01*
X203010595Y-41394342D02*
X203058214Y-41489580D01*
X203058214Y-41489580D02*
X203105833Y-41537200D01*
X203105833Y-41537200D02*
X203201071Y-41584819D01*
X203201071Y-41584819D02*
X203486785Y-41584819D01*
X203486785Y-41584819D02*
X203582023Y-41537200D01*
X203582023Y-41537200D02*
X203629642Y-41489580D01*
X214440357Y-60634819D02*
X214773690Y-60158628D01*
X215011785Y-60634819D02*
X215011785Y-59634819D01*
X215011785Y-59634819D02*
X214630833Y-59634819D01*
X214630833Y-59634819D02*
X214535595Y-59682438D01*
X214535595Y-59682438D02*
X214487976Y-59730057D01*
X214487976Y-59730057D02*
X214440357Y-59825295D01*
X214440357Y-59825295D02*
X214440357Y-59968152D01*
X214440357Y-59968152D02*
X214487976Y-60063390D01*
X214487976Y-60063390D02*
X214535595Y-60111009D01*
X214535595Y-60111009D02*
X214630833Y-60158628D01*
X214630833Y-60158628D02*
X215011785Y-60158628D01*
X214059404Y-59730057D02*
X214011785Y-59682438D01*
X214011785Y-59682438D02*
X213916547Y-59634819D01*
X213916547Y-59634819D02*
X213678452Y-59634819D01*
X213678452Y-59634819D02*
X213583214Y-59682438D01*
X213583214Y-59682438D02*
X213535595Y-59730057D01*
X213535595Y-59730057D02*
X213487976Y-59825295D01*
X213487976Y-59825295D02*
X213487976Y-59920533D01*
X213487976Y-59920533D02*
X213535595Y-60063390D01*
X213535595Y-60063390D02*
X214107023Y-60634819D01*
X214107023Y-60634819D02*
X213487976Y-60634819D01*
X212916547Y-60063390D02*
X213011785Y-60015771D01*
X213011785Y-60015771D02*
X213059404Y-59968152D01*
X213059404Y-59968152D02*
X213107023Y-59872914D01*
X213107023Y-59872914D02*
X213107023Y-59825295D01*
X213107023Y-59825295D02*
X213059404Y-59730057D01*
X213059404Y-59730057D02*
X213011785Y-59682438D01*
X213011785Y-59682438D02*
X212916547Y-59634819D01*
X212916547Y-59634819D02*
X212726071Y-59634819D01*
X212726071Y-59634819D02*
X212630833Y-59682438D01*
X212630833Y-59682438D02*
X212583214Y-59730057D01*
X212583214Y-59730057D02*
X212535595Y-59825295D01*
X212535595Y-59825295D02*
X212535595Y-59872914D01*
X212535595Y-59872914D02*
X212583214Y-59968152D01*
X212583214Y-59968152D02*
X212630833Y-60015771D01*
X212630833Y-60015771D02*
X212726071Y-60063390D01*
X212726071Y-60063390D02*
X212916547Y-60063390D01*
X212916547Y-60063390D02*
X213011785Y-60111009D01*
X213011785Y-60111009D02*
X213059404Y-60158628D01*
X213059404Y-60158628D02*
X213107023Y-60253866D01*
X213107023Y-60253866D02*
X213107023Y-60444342D01*
X213107023Y-60444342D02*
X213059404Y-60539580D01*
X213059404Y-60539580D02*
X213011785Y-60587200D01*
X213011785Y-60587200D02*
X212916547Y-60634819D01*
X212916547Y-60634819D02*
X212726071Y-60634819D01*
X212726071Y-60634819D02*
X212630833Y-60587200D01*
X212630833Y-60587200D02*
X212583214Y-60539580D01*
X212583214Y-60539580D02*
X212535595Y-60444342D01*
X212535595Y-60444342D02*
X212535595Y-60253866D01*
X212535595Y-60253866D02*
X212583214Y-60158628D01*
X212583214Y-60158628D02*
X212630833Y-60111009D01*
X212630833Y-60111009D02*
X212726071Y-60063390D01*
X133477857Y-98734819D02*
X133811190Y-98258628D01*
X134049285Y-98734819D02*
X134049285Y-97734819D01*
X134049285Y-97734819D02*
X133668333Y-97734819D01*
X133668333Y-97734819D02*
X133573095Y-97782438D01*
X133573095Y-97782438D02*
X133525476Y-97830057D01*
X133525476Y-97830057D02*
X133477857Y-97925295D01*
X133477857Y-97925295D02*
X133477857Y-98068152D01*
X133477857Y-98068152D02*
X133525476Y-98163390D01*
X133525476Y-98163390D02*
X133573095Y-98211009D01*
X133573095Y-98211009D02*
X133668333Y-98258628D01*
X133668333Y-98258628D02*
X134049285Y-98258628D01*
X132573095Y-97734819D02*
X133049285Y-97734819D01*
X133049285Y-97734819D02*
X133096904Y-98211009D01*
X133096904Y-98211009D02*
X133049285Y-98163390D01*
X133049285Y-98163390D02*
X132954047Y-98115771D01*
X132954047Y-98115771D02*
X132715952Y-98115771D01*
X132715952Y-98115771D02*
X132620714Y-98163390D01*
X132620714Y-98163390D02*
X132573095Y-98211009D01*
X132573095Y-98211009D02*
X132525476Y-98306247D01*
X132525476Y-98306247D02*
X132525476Y-98544342D01*
X132525476Y-98544342D02*
X132573095Y-98639580D01*
X132573095Y-98639580D02*
X132620714Y-98687200D01*
X132620714Y-98687200D02*
X132715952Y-98734819D01*
X132715952Y-98734819D02*
X132954047Y-98734819D01*
X132954047Y-98734819D02*
X133049285Y-98687200D01*
X133049285Y-98687200D02*
X133096904Y-98639580D01*
X132144523Y-97830057D02*
X132096904Y-97782438D01*
X132096904Y-97782438D02*
X132001666Y-97734819D01*
X132001666Y-97734819D02*
X131763571Y-97734819D01*
X131763571Y-97734819D02*
X131668333Y-97782438D01*
X131668333Y-97782438D02*
X131620714Y-97830057D01*
X131620714Y-97830057D02*
X131573095Y-97925295D01*
X131573095Y-97925295D02*
X131573095Y-98020533D01*
X131573095Y-98020533D02*
X131620714Y-98163390D01*
X131620714Y-98163390D02*
X132192142Y-98734819D01*
X132192142Y-98734819D02*
X131573095Y-98734819D01*
X281115357Y-117784819D02*
X281448690Y-117308628D01*
X281686785Y-117784819D02*
X281686785Y-116784819D01*
X281686785Y-116784819D02*
X281305833Y-116784819D01*
X281305833Y-116784819D02*
X281210595Y-116832438D01*
X281210595Y-116832438D02*
X281162976Y-116880057D01*
X281162976Y-116880057D02*
X281115357Y-116975295D01*
X281115357Y-116975295D02*
X281115357Y-117118152D01*
X281115357Y-117118152D02*
X281162976Y-117213390D01*
X281162976Y-117213390D02*
X281210595Y-117261009D01*
X281210595Y-117261009D02*
X281305833Y-117308628D01*
X281305833Y-117308628D02*
X281686785Y-117308628D01*
X280258214Y-116784819D02*
X280448690Y-116784819D01*
X280448690Y-116784819D02*
X280543928Y-116832438D01*
X280543928Y-116832438D02*
X280591547Y-116880057D01*
X280591547Y-116880057D02*
X280686785Y-117022914D01*
X280686785Y-117022914D02*
X280734404Y-117213390D01*
X280734404Y-117213390D02*
X280734404Y-117594342D01*
X280734404Y-117594342D02*
X280686785Y-117689580D01*
X280686785Y-117689580D02*
X280639166Y-117737200D01*
X280639166Y-117737200D02*
X280543928Y-117784819D01*
X280543928Y-117784819D02*
X280353452Y-117784819D01*
X280353452Y-117784819D02*
X280258214Y-117737200D01*
X280258214Y-117737200D02*
X280210595Y-117689580D01*
X280210595Y-117689580D02*
X280162976Y-117594342D01*
X280162976Y-117594342D02*
X280162976Y-117356247D01*
X280162976Y-117356247D02*
X280210595Y-117261009D01*
X280210595Y-117261009D02*
X280258214Y-117213390D01*
X280258214Y-117213390D02*
X280353452Y-117165771D01*
X280353452Y-117165771D02*
X280543928Y-117165771D01*
X280543928Y-117165771D02*
X280639166Y-117213390D01*
X280639166Y-117213390D02*
X280686785Y-117261009D01*
X280686785Y-117261009D02*
X280734404Y-117356247D01*
X279686785Y-117784819D02*
X279496309Y-117784819D01*
X279496309Y-117784819D02*
X279401071Y-117737200D01*
X279401071Y-117737200D02*
X279353452Y-117689580D01*
X279353452Y-117689580D02*
X279258214Y-117546723D01*
X279258214Y-117546723D02*
X279210595Y-117356247D01*
X279210595Y-117356247D02*
X279210595Y-116975295D01*
X279210595Y-116975295D02*
X279258214Y-116880057D01*
X279258214Y-116880057D02*
X279305833Y-116832438D01*
X279305833Y-116832438D02*
X279401071Y-116784819D01*
X279401071Y-116784819D02*
X279591547Y-116784819D01*
X279591547Y-116784819D02*
X279686785Y-116832438D01*
X279686785Y-116832438D02*
X279734404Y-116880057D01*
X279734404Y-116880057D02*
X279782023Y-116975295D01*
X279782023Y-116975295D02*
X279782023Y-117213390D01*
X279782023Y-117213390D02*
X279734404Y-117308628D01*
X279734404Y-117308628D02*
X279686785Y-117356247D01*
X279686785Y-117356247D02*
X279591547Y-117403866D01*
X279591547Y-117403866D02*
X279401071Y-117403866D01*
X279401071Y-117403866D02*
X279305833Y-117356247D01*
X279305833Y-117356247D02*
X279258214Y-117308628D01*
X279258214Y-117308628D02*
X279210595Y-117213390D01*
X325133332Y-40307200D02*
X324990475Y-40354819D01*
X324990475Y-40354819D02*
X324752380Y-40354819D01*
X324752380Y-40354819D02*
X324657142Y-40307200D01*
X324657142Y-40307200D02*
X324609523Y-40259580D01*
X324609523Y-40259580D02*
X324561904Y-40164342D01*
X324561904Y-40164342D02*
X324561904Y-40069104D01*
X324561904Y-40069104D02*
X324609523Y-39973866D01*
X324609523Y-39973866D02*
X324657142Y-39926247D01*
X324657142Y-39926247D02*
X324752380Y-39878628D01*
X324752380Y-39878628D02*
X324942856Y-39831009D01*
X324942856Y-39831009D02*
X325038094Y-39783390D01*
X325038094Y-39783390D02*
X325085713Y-39735771D01*
X325085713Y-39735771D02*
X325133332Y-39640533D01*
X325133332Y-39640533D02*
X325133332Y-39545295D01*
X325133332Y-39545295D02*
X325085713Y-39450057D01*
X325085713Y-39450057D02*
X325038094Y-39402438D01*
X325038094Y-39402438D02*
X324942856Y-39354819D01*
X324942856Y-39354819D02*
X324704761Y-39354819D01*
X324704761Y-39354819D02*
X324561904Y-39402438D01*
X324228570Y-39354819D02*
X323990475Y-40354819D01*
X323990475Y-40354819D02*
X323799999Y-39640533D01*
X323799999Y-39640533D02*
X323609523Y-40354819D01*
X323609523Y-40354819D02*
X323371428Y-39354819D01*
X323038094Y-39450057D02*
X322990475Y-39402438D01*
X322990475Y-39402438D02*
X322895237Y-39354819D01*
X322895237Y-39354819D02*
X322657142Y-39354819D01*
X322657142Y-39354819D02*
X322561904Y-39402438D01*
X322561904Y-39402438D02*
X322514285Y-39450057D01*
X322514285Y-39450057D02*
X322466666Y-39545295D01*
X322466666Y-39545295D02*
X322466666Y-39640533D01*
X322466666Y-39640533D02*
X322514285Y-39783390D01*
X322514285Y-39783390D02*
X323085713Y-40354819D01*
X323085713Y-40354819D02*
X322466666Y-40354819D01*
X83471657Y-117784819D02*
X83804990Y-117308628D01*
X84043085Y-117784819D02*
X84043085Y-116784819D01*
X84043085Y-116784819D02*
X83662133Y-116784819D01*
X83662133Y-116784819D02*
X83566895Y-116832438D01*
X83566895Y-116832438D02*
X83519276Y-116880057D01*
X83519276Y-116880057D02*
X83471657Y-116975295D01*
X83471657Y-116975295D02*
X83471657Y-117118152D01*
X83471657Y-117118152D02*
X83519276Y-117213390D01*
X83519276Y-117213390D02*
X83566895Y-117261009D01*
X83566895Y-117261009D02*
X83662133Y-117308628D01*
X83662133Y-117308628D02*
X84043085Y-117308628D01*
X82614514Y-116784819D02*
X82804990Y-116784819D01*
X82804990Y-116784819D02*
X82900228Y-116832438D01*
X82900228Y-116832438D02*
X82947847Y-116880057D01*
X82947847Y-116880057D02*
X83043085Y-117022914D01*
X83043085Y-117022914D02*
X83090704Y-117213390D01*
X83090704Y-117213390D02*
X83090704Y-117594342D01*
X83090704Y-117594342D02*
X83043085Y-117689580D01*
X83043085Y-117689580D02*
X82995466Y-117737200D01*
X82995466Y-117737200D02*
X82900228Y-117784819D01*
X82900228Y-117784819D02*
X82709752Y-117784819D01*
X82709752Y-117784819D02*
X82614514Y-117737200D01*
X82614514Y-117737200D02*
X82566895Y-117689580D01*
X82566895Y-117689580D02*
X82519276Y-117594342D01*
X82519276Y-117594342D02*
X82519276Y-117356247D01*
X82519276Y-117356247D02*
X82566895Y-117261009D01*
X82566895Y-117261009D02*
X82614514Y-117213390D01*
X82614514Y-117213390D02*
X82709752Y-117165771D01*
X82709752Y-117165771D02*
X82900228Y-117165771D01*
X82900228Y-117165771D02*
X82995466Y-117213390D01*
X82995466Y-117213390D02*
X83043085Y-117261009D01*
X83043085Y-117261009D02*
X83090704Y-117356247D01*
X81662133Y-117118152D02*
X81662133Y-117784819D01*
X81900228Y-116737200D02*
X82138323Y-117451485D01*
X82138323Y-117451485D02*
X81519276Y-117451485D01*
X269130833Y-20409819D02*
X269130833Y-21124104D01*
X269130833Y-21124104D02*
X269178452Y-21266961D01*
X269178452Y-21266961D02*
X269273690Y-21362200D01*
X269273690Y-21362200D02*
X269416547Y-21409819D01*
X269416547Y-21409819D02*
X269511785Y-21409819D01*
X268130833Y-21409819D02*
X268702261Y-21409819D01*
X268416547Y-21409819D02*
X268416547Y-20409819D01*
X268416547Y-20409819D02*
X268511785Y-20552676D01*
X268511785Y-20552676D02*
X268607023Y-20647914D01*
X268607023Y-20647914D02*
X268702261Y-20695533D01*
X81090357Y-60634819D02*
X81423690Y-60158628D01*
X81661785Y-60634819D02*
X81661785Y-59634819D01*
X81661785Y-59634819D02*
X81280833Y-59634819D01*
X81280833Y-59634819D02*
X81185595Y-59682438D01*
X81185595Y-59682438D02*
X81137976Y-59730057D01*
X81137976Y-59730057D02*
X81090357Y-59825295D01*
X81090357Y-59825295D02*
X81090357Y-59968152D01*
X81090357Y-59968152D02*
X81137976Y-60063390D01*
X81137976Y-60063390D02*
X81185595Y-60111009D01*
X81185595Y-60111009D02*
X81280833Y-60158628D01*
X81280833Y-60158628D02*
X81661785Y-60158628D01*
X80709404Y-59730057D02*
X80661785Y-59682438D01*
X80661785Y-59682438D02*
X80566547Y-59634819D01*
X80566547Y-59634819D02*
X80328452Y-59634819D01*
X80328452Y-59634819D02*
X80233214Y-59682438D01*
X80233214Y-59682438D02*
X80185595Y-59730057D01*
X80185595Y-59730057D02*
X80137976Y-59825295D01*
X80137976Y-59825295D02*
X80137976Y-59920533D01*
X80137976Y-59920533D02*
X80185595Y-60063390D01*
X80185595Y-60063390D02*
X80757023Y-60634819D01*
X80757023Y-60634819D02*
X80137976Y-60634819D01*
X79185595Y-60634819D02*
X79757023Y-60634819D01*
X79471309Y-60634819D02*
X79471309Y-59634819D01*
X79471309Y-59634819D02*
X79566547Y-59777676D01*
X79566547Y-59777676D02*
X79661785Y-59872914D01*
X79661785Y-59872914D02*
X79757023Y-59920533D01*
X123952857Y-79684819D02*
X124286190Y-79208628D01*
X124524285Y-79684819D02*
X124524285Y-78684819D01*
X124524285Y-78684819D02*
X124143333Y-78684819D01*
X124143333Y-78684819D02*
X124048095Y-78732438D01*
X124048095Y-78732438D02*
X124000476Y-78780057D01*
X124000476Y-78780057D02*
X123952857Y-78875295D01*
X123952857Y-78875295D02*
X123952857Y-79018152D01*
X123952857Y-79018152D02*
X124000476Y-79113390D01*
X124000476Y-79113390D02*
X124048095Y-79161009D01*
X124048095Y-79161009D02*
X124143333Y-79208628D01*
X124143333Y-79208628D02*
X124524285Y-79208628D01*
X123619523Y-78684819D02*
X123000476Y-78684819D01*
X123000476Y-78684819D02*
X123333809Y-79065771D01*
X123333809Y-79065771D02*
X123190952Y-79065771D01*
X123190952Y-79065771D02*
X123095714Y-79113390D01*
X123095714Y-79113390D02*
X123048095Y-79161009D01*
X123048095Y-79161009D02*
X123000476Y-79256247D01*
X123000476Y-79256247D02*
X123000476Y-79494342D01*
X123000476Y-79494342D02*
X123048095Y-79589580D01*
X123048095Y-79589580D02*
X123095714Y-79637200D01*
X123095714Y-79637200D02*
X123190952Y-79684819D01*
X123190952Y-79684819D02*
X123476666Y-79684819D01*
X123476666Y-79684819D02*
X123571904Y-79637200D01*
X123571904Y-79637200D02*
X123619523Y-79589580D01*
X122429047Y-79113390D02*
X122524285Y-79065771D01*
X122524285Y-79065771D02*
X122571904Y-79018152D01*
X122571904Y-79018152D02*
X122619523Y-78922914D01*
X122619523Y-78922914D02*
X122619523Y-78875295D01*
X122619523Y-78875295D02*
X122571904Y-78780057D01*
X122571904Y-78780057D02*
X122524285Y-78732438D01*
X122524285Y-78732438D02*
X122429047Y-78684819D01*
X122429047Y-78684819D02*
X122238571Y-78684819D01*
X122238571Y-78684819D02*
X122143333Y-78732438D01*
X122143333Y-78732438D02*
X122095714Y-78780057D01*
X122095714Y-78780057D02*
X122048095Y-78875295D01*
X122048095Y-78875295D02*
X122048095Y-78922914D01*
X122048095Y-78922914D02*
X122095714Y-79018152D01*
X122095714Y-79018152D02*
X122143333Y-79065771D01*
X122143333Y-79065771D02*
X122238571Y-79113390D01*
X122238571Y-79113390D02*
X122429047Y-79113390D01*
X122429047Y-79113390D02*
X122524285Y-79161009D01*
X122524285Y-79161009D02*
X122571904Y-79208628D01*
X122571904Y-79208628D02*
X122619523Y-79303866D01*
X122619523Y-79303866D02*
X122619523Y-79494342D01*
X122619523Y-79494342D02*
X122571904Y-79589580D01*
X122571904Y-79589580D02*
X122524285Y-79637200D01*
X122524285Y-79637200D02*
X122429047Y-79684819D01*
X122429047Y-79684819D02*
X122238571Y-79684819D01*
X122238571Y-79684819D02*
X122143333Y-79637200D01*
X122143333Y-79637200D02*
X122095714Y-79589580D01*
X122095714Y-79589580D02*
X122048095Y-79494342D01*
X122048095Y-79494342D02*
X122048095Y-79303866D01*
X122048095Y-79303866D02*
X122095714Y-79208628D01*
X122095714Y-79208628D02*
X122143333Y-79161009D01*
X122143333Y-79161009D02*
X122238571Y-79113390D01*
X271590357Y-60634819D02*
X271923690Y-60158628D01*
X272161785Y-60634819D02*
X272161785Y-59634819D01*
X272161785Y-59634819D02*
X271780833Y-59634819D01*
X271780833Y-59634819D02*
X271685595Y-59682438D01*
X271685595Y-59682438D02*
X271637976Y-59730057D01*
X271637976Y-59730057D02*
X271590357Y-59825295D01*
X271590357Y-59825295D02*
X271590357Y-59968152D01*
X271590357Y-59968152D02*
X271637976Y-60063390D01*
X271637976Y-60063390D02*
X271685595Y-60111009D01*
X271685595Y-60111009D02*
X271780833Y-60158628D01*
X271780833Y-60158628D02*
X272161785Y-60158628D01*
X271257023Y-59634819D02*
X270637976Y-59634819D01*
X270637976Y-59634819D02*
X270971309Y-60015771D01*
X270971309Y-60015771D02*
X270828452Y-60015771D01*
X270828452Y-60015771D02*
X270733214Y-60063390D01*
X270733214Y-60063390D02*
X270685595Y-60111009D01*
X270685595Y-60111009D02*
X270637976Y-60206247D01*
X270637976Y-60206247D02*
X270637976Y-60444342D01*
X270637976Y-60444342D02*
X270685595Y-60539580D01*
X270685595Y-60539580D02*
X270733214Y-60587200D01*
X270733214Y-60587200D02*
X270828452Y-60634819D01*
X270828452Y-60634819D02*
X271114166Y-60634819D01*
X271114166Y-60634819D02*
X271209404Y-60587200D01*
X271209404Y-60587200D02*
X271257023Y-60539580D01*
X269685595Y-60634819D02*
X270257023Y-60634819D01*
X269971309Y-60634819D02*
X269971309Y-59634819D01*
X269971309Y-59634819D02*
X270066547Y-59777676D01*
X270066547Y-59777676D02*
X270161785Y-59872914D01*
X270161785Y-59872914D02*
X270257023Y-59920533D01*
X162052857Y-79684819D02*
X162386190Y-79208628D01*
X162624285Y-79684819D02*
X162624285Y-78684819D01*
X162624285Y-78684819D02*
X162243333Y-78684819D01*
X162243333Y-78684819D02*
X162148095Y-78732438D01*
X162148095Y-78732438D02*
X162100476Y-78780057D01*
X162100476Y-78780057D02*
X162052857Y-78875295D01*
X162052857Y-78875295D02*
X162052857Y-79018152D01*
X162052857Y-79018152D02*
X162100476Y-79113390D01*
X162100476Y-79113390D02*
X162148095Y-79161009D01*
X162148095Y-79161009D02*
X162243333Y-79208628D01*
X162243333Y-79208628D02*
X162624285Y-79208628D01*
X161195714Y-79018152D02*
X161195714Y-79684819D01*
X161433809Y-78637200D02*
X161671904Y-79351485D01*
X161671904Y-79351485D02*
X161052857Y-79351485D01*
X160481428Y-78684819D02*
X160386190Y-78684819D01*
X160386190Y-78684819D02*
X160290952Y-78732438D01*
X160290952Y-78732438D02*
X160243333Y-78780057D01*
X160243333Y-78780057D02*
X160195714Y-78875295D01*
X160195714Y-78875295D02*
X160148095Y-79065771D01*
X160148095Y-79065771D02*
X160148095Y-79303866D01*
X160148095Y-79303866D02*
X160195714Y-79494342D01*
X160195714Y-79494342D02*
X160243333Y-79589580D01*
X160243333Y-79589580D02*
X160290952Y-79637200D01*
X160290952Y-79637200D02*
X160386190Y-79684819D01*
X160386190Y-79684819D02*
X160481428Y-79684819D01*
X160481428Y-79684819D02*
X160576666Y-79637200D01*
X160576666Y-79637200D02*
X160624285Y-79589580D01*
X160624285Y-79589580D02*
X160671904Y-79494342D01*
X160671904Y-79494342D02*
X160719523Y-79303866D01*
X160719523Y-79303866D02*
X160719523Y-79065771D01*
X160719523Y-79065771D02*
X160671904Y-78875295D01*
X160671904Y-78875295D02*
X160624285Y-78780057D01*
X160624285Y-78780057D02*
X160576666Y-78732438D01*
X160576666Y-78732438D02*
X160481428Y-78684819D01*
X288354166Y-19704819D02*
X288687499Y-19228628D01*
X288925594Y-19704819D02*
X288925594Y-18704819D01*
X288925594Y-18704819D02*
X288544642Y-18704819D01*
X288544642Y-18704819D02*
X288449404Y-18752438D01*
X288449404Y-18752438D02*
X288401785Y-18800057D01*
X288401785Y-18800057D02*
X288354166Y-18895295D01*
X288354166Y-18895295D02*
X288354166Y-19038152D01*
X288354166Y-19038152D02*
X288401785Y-19133390D01*
X288401785Y-19133390D02*
X288449404Y-19181009D01*
X288449404Y-19181009D02*
X288544642Y-19228628D01*
X288544642Y-19228628D02*
X288925594Y-19228628D01*
X288020832Y-18704819D02*
X287401785Y-18704819D01*
X287401785Y-18704819D02*
X287735118Y-19085771D01*
X287735118Y-19085771D02*
X287592261Y-19085771D01*
X287592261Y-19085771D02*
X287497023Y-19133390D01*
X287497023Y-19133390D02*
X287449404Y-19181009D01*
X287449404Y-19181009D02*
X287401785Y-19276247D01*
X287401785Y-19276247D02*
X287401785Y-19514342D01*
X287401785Y-19514342D02*
X287449404Y-19609580D01*
X287449404Y-19609580D02*
X287497023Y-19657200D01*
X287497023Y-19657200D02*
X287592261Y-19704819D01*
X287592261Y-19704819D02*
X287877975Y-19704819D01*
X287877975Y-19704819D02*
X287973213Y-19657200D01*
X287973213Y-19657200D02*
X288020832Y-19609580D01*
X109189166Y-41584819D02*
X109522499Y-41108628D01*
X109760594Y-41584819D02*
X109760594Y-40584819D01*
X109760594Y-40584819D02*
X109379642Y-40584819D01*
X109379642Y-40584819D02*
X109284404Y-40632438D01*
X109284404Y-40632438D02*
X109236785Y-40680057D01*
X109236785Y-40680057D02*
X109189166Y-40775295D01*
X109189166Y-40775295D02*
X109189166Y-40918152D01*
X109189166Y-40918152D02*
X109236785Y-41013390D01*
X109236785Y-41013390D02*
X109284404Y-41061009D01*
X109284404Y-41061009D02*
X109379642Y-41108628D01*
X109379642Y-41108628D02*
X109760594Y-41108628D01*
X108617737Y-41013390D02*
X108712975Y-40965771D01*
X108712975Y-40965771D02*
X108760594Y-40918152D01*
X108760594Y-40918152D02*
X108808213Y-40822914D01*
X108808213Y-40822914D02*
X108808213Y-40775295D01*
X108808213Y-40775295D02*
X108760594Y-40680057D01*
X108760594Y-40680057D02*
X108712975Y-40632438D01*
X108712975Y-40632438D02*
X108617737Y-40584819D01*
X108617737Y-40584819D02*
X108427261Y-40584819D01*
X108427261Y-40584819D02*
X108332023Y-40632438D01*
X108332023Y-40632438D02*
X108284404Y-40680057D01*
X108284404Y-40680057D02*
X108236785Y-40775295D01*
X108236785Y-40775295D02*
X108236785Y-40822914D01*
X108236785Y-40822914D02*
X108284404Y-40918152D01*
X108284404Y-40918152D02*
X108332023Y-40965771D01*
X108332023Y-40965771D02*
X108427261Y-41013390D01*
X108427261Y-41013390D02*
X108617737Y-41013390D01*
X108617737Y-41013390D02*
X108712975Y-41061009D01*
X108712975Y-41061009D02*
X108760594Y-41108628D01*
X108760594Y-41108628D02*
X108808213Y-41203866D01*
X108808213Y-41203866D02*
X108808213Y-41394342D01*
X108808213Y-41394342D02*
X108760594Y-41489580D01*
X108760594Y-41489580D02*
X108712975Y-41537200D01*
X108712975Y-41537200D02*
X108617737Y-41584819D01*
X108617737Y-41584819D02*
X108427261Y-41584819D01*
X108427261Y-41584819D02*
X108332023Y-41537200D01*
X108332023Y-41537200D02*
X108284404Y-41489580D01*
X108284404Y-41489580D02*
X108236785Y-41394342D01*
X108236785Y-41394342D02*
X108236785Y-41203866D01*
X108236785Y-41203866D02*
X108284404Y-41108628D01*
X108284404Y-41108628D02*
X108332023Y-41061009D01*
X108332023Y-41061009D02*
X108427261Y-41013390D01*
X52039166Y-41584819D02*
X52372499Y-41108628D01*
X52610594Y-41584819D02*
X52610594Y-40584819D01*
X52610594Y-40584819D02*
X52229642Y-40584819D01*
X52229642Y-40584819D02*
X52134404Y-40632438D01*
X52134404Y-40632438D02*
X52086785Y-40680057D01*
X52086785Y-40680057D02*
X52039166Y-40775295D01*
X52039166Y-40775295D02*
X52039166Y-40918152D01*
X52039166Y-40918152D02*
X52086785Y-41013390D01*
X52086785Y-41013390D02*
X52134404Y-41061009D01*
X52134404Y-41061009D02*
X52229642Y-41108628D01*
X52229642Y-41108628D02*
X52610594Y-41108628D01*
X51134404Y-40584819D02*
X51610594Y-40584819D01*
X51610594Y-40584819D02*
X51658213Y-41061009D01*
X51658213Y-41061009D02*
X51610594Y-41013390D01*
X51610594Y-41013390D02*
X51515356Y-40965771D01*
X51515356Y-40965771D02*
X51277261Y-40965771D01*
X51277261Y-40965771D02*
X51182023Y-41013390D01*
X51182023Y-41013390D02*
X51134404Y-41061009D01*
X51134404Y-41061009D02*
X51086785Y-41156247D01*
X51086785Y-41156247D02*
X51086785Y-41394342D01*
X51086785Y-41394342D02*
X51134404Y-41489580D01*
X51134404Y-41489580D02*
X51182023Y-41537200D01*
X51182023Y-41537200D02*
X51277261Y-41584819D01*
X51277261Y-41584819D02*
X51515356Y-41584819D01*
X51515356Y-41584819D02*
X51610594Y-41537200D01*
X51610594Y-41537200D02*
X51658213Y-41489580D01*
X295402857Y-60634819D02*
X295736190Y-60158628D01*
X295974285Y-60634819D02*
X295974285Y-59634819D01*
X295974285Y-59634819D02*
X295593333Y-59634819D01*
X295593333Y-59634819D02*
X295498095Y-59682438D01*
X295498095Y-59682438D02*
X295450476Y-59730057D01*
X295450476Y-59730057D02*
X295402857Y-59825295D01*
X295402857Y-59825295D02*
X295402857Y-59968152D01*
X295402857Y-59968152D02*
X295450476Y-60063390D01*
X295450476Y-60063390D02*
X295498095Y-60111009D01*
X295498095Y-60111009D02*
X295593333Y-60158628D01*
X295593333Y-60158628D02*
X295974285Y-60158628D01*
X295069523Y-59634819D02*
X294450476Y-59634819D01*
X294450476Y-59634819D02*
X294783809Y-60015771D01*
X294783809Y-60015771D02*
X294640952Y-60015771D01*
X294640952Y-60015771D02*
X294545714Y-60063390D01*
X294545714Y-60063390D02*
X294498095Y-60111009D01*
X294498095Y-60111009D02*
X294450476Y-60206247D01*
X294450476Y-60206247D02*
X294450476Y-60444342D01*
X294450476Y-60444342D02*
X294498095Y-60539580D01*
X294498095Y-60539580D02*
X294545714Y-60587200D01*
X294545714Y-60587200D02*
X294640952Y-60634819D01*
X294640952Y-60634819D02*
X294926666Y-60634819D01*
X294926666Y-60634819D02*
X295021904Y-60587200D01*
X295021904Y-60587200D02*
X295069523Y-60539580D01*
X294069523Y-59730057D02*
X294021904Y-59682438D01*
X294021904Y-59682438D02*
X293926666Y-59634819D01*
X293926666Y-59634819D02*
X293688571Y-59634819D01*
X293688571Y-59634819D02*
X293593333Y-59682438D01*
X293593333Y-59682438D02*
X293545714Y-59730057D01*
X293545714Y-59730057D02*
X293498095Y-59825295D01*
X293498095Y-59825295D02*
X293498095Y-59920533D01*
X293498095Y-59920533D02*
X293545714Y-60063390D01*
X293545714Y-60063390D02*
X294117142Y-60634819D01*
X294117142Y-60634819D02*
X293498095Y-60634819D01*
X319215357Y-98734819D02*
X319548690Y-98258628D01*
X319786785Y-98734819D02*
X319786785Y-97734819D01*
X319786785Y-97734819D02*
X319405833Y-97734819D01*
X319405833Y-97734819D02*
X319310595Y-97782438D01*
X319310595Y-97782438D02*
X319262976Y-97830057D01*
X319262976Y-97830057D02*
X319215357Y-97925295D01*
X319215357Y-97925295D02*
X319215357Y-98068152D01*
X319215357Y-98068152D02*
X319262976Y-98163390D01*
X319262976Y-98163390D02*
X319310595Y-98211009D01*
X319310595Y-98211009D02*
X319405833Y-98258628D01*
X319405833Y-98258628D02*
X319786785Y-98258628D01*
X318358214Y-97734819D02*
X318548690Y-97734819D01*
X318548690Y-97734819D02*
X318643928Y-97782438D01*
X318643928Y-97782438D02*
X318691547Y-97830057D01*
X318691547Y-97830057D02*
X318786785Y-97972914D01*
X318786785Y-97972914D02*
X318834404Y-98163390D01*
X318834404Y-98163390D02*
X318834404Y-98544342D01*
X318834404Y-98544342D02*
X318786785Y-98639580D01*
X318786785Y-98639580D02*
X318739166Y-98687200D01*
X318739166Y-98687200D02*
X318643928Y-98734819D01*
X318643928Y-98734819D02*
X318453452Y-98734819D01*
X318453452Y-98734819D02*
X318358214Y-98687200D01*
X318358214Y-98687200D02*
X318310595Y-98639580D01*
X318310595Y-98639580D02*
X318262976Y-98544342D01*
X318262976Y-98544342D02*
X318262976Y-98306247D01*
X318262976Y-98306247D02*
X318310595Y-98211009D01*
X318310595Y-98211009D02*
X318358214Y-98163390D01*
X318358214Y-98163390D02*
X318453452Y-98115771D01*
X318453452Y-98115771D02*
X318643928Y-98115771D01*
X318643928Y-98115771D02*
X318739166Y-98163390D01*
X318739166Y-98163390D02*
X318786785Y-98211009D01*
X318786785Y-98211009D02*
X318834404Y-98306247D01*
X317310595Y-98734819D02*
X317882023Y-98734819D01*
X317596309Y-98734819D02*
X317596309Y-97734819D01*
X317596309Y-97734819D02*
X317691547Y-97877676D01*
X317691547Y-97877676D02*
X317786785Y-97972914D01*
X317786785Y-97972914D02*
X317882023Y-98020533D01*
X252540357Y-60634819D02*
X252873690Y-60158628D01*
X253111785Y-60634819D02*
X253111785Y-59634819D01*
X253111785Y-59634819D02*
X252730833Y-59634819D01*
X252730833Y-59634819D02*
X252635595Y-59682438D01*
X252635595Y-59682438D02*
X252587976Y-59730057D01*
X252587976Y-59730057D02*
X252540357Y-59825295D01*
X252540357Y-59825295D02*
X252540357Y-59968152D01*
X252540357Y-59968152D02*
X252587976Y-60063390D01*
X252587976Y-60063390D02*
X252635595Y-60111009D01*
X252635595Y-60111009D02*
X252730833Y-60158628D01*
X252730833Y-60158628D02*
X253111785Y-60158628D01*
X252207023Y-59634819D02*
X251587976Y-59634819D01*
X251587976Y-59634819D02*
X251921309Y-60015771D01*
X251921309Y-60015771D02*
X251778452Y-60015771D01*
X251778452Y-60015771D02*
X251683214Y-60063390D01*
X251683214Y-60063390D02*
X251635595Y-60111009D01*
X251635595Y-60111009D02*
X251587976Y-60206247D01*
X251587976Y-60206247D02*
X251587976Y-60444342D01*
X251587976Y-60444342D02*
X251635595Y-60539580D01*
X251635595Y-60539580D02*
X251683214Y-60587200D01*
X251683214Y-60587200D02*
X251778452Y-60634819D01*
X251778452Y-60634819D02*
X252064166Y-60634819D01*
X252064166Y-60634819D02*
X252159404Y-60587200D01*
X252159404Y-60587200D02*
X252207023Y-60539580D01*
X250968928Y-59634819D02*
X250873690Y-59634819D01*
X250873690Y-59634819D02*
X250778452Y-59682438D01*
X250778452Y-59682438D02*
X250730833Y-59730057D01*
X250730833Y-59730057D02*
X250683214Y-59825295D01*
X250683214Y-59825295D02*
X250635595Y-60015771D01*
X250635595Y-60015771D02*
X250635595Y-60253866D01*
X250635595Y-60253866D02*
X250683214Y-60444342D01*
X250683214Y-60444342D02*
X250730833Y-60539580D01*
X250730833Y-60539580D02*
X250778452Y-60587200D01*
X250778452Y-60587200D02*
X250873690Y-60634819D01*
X250873690Y-60634819D02*
X250968928Y-60634819D01*
X250968928Y-60634819D02*
X251064166Y-60587200D01*
X251064166Y-60587200D02*
X251111785Y-60539580D01*
X251111785Y-60539580D02*
X251159404Y-60444342D01*
X251159404Y-60444342D02*
X251207023Y-60253866D01*
X251207023Y-60253866D02*
X251207023Y-60015771D01*
X251207023Y-60015771D02*
X251159404Y-59825295D01*
X251159404Y-59825295D02*
X251111785Y-59730057D01*
X251111785Y-59730057D02*
X251064166Y-59682438D01*
X251064166Y-59682438D02*
X250968928Y-59634819D01*
X247777857Y-98734819D02*
X248111190Y-98258628D01*
X248349285Y-98734819D02*
X248349285Y-97734819D01*
X248349285Y-97734819D02*
X247968333Y-97734819D01*
X247968333Y-97734819D02*
X247873095Y-97782438D01*
X247873095Y-97782438D02*
X247825476Y-97830057D01*
X247825476Y-97830057D02*
X247777857Y-97925295D01*
X247777857Y-97925295D02*
X247777857Y-98068152D01*
X247777857Y-98068152D02*
X247825476Y-98163390D01*
X247825476Y-98163390D02*
X247873095Y-98211009D01*
X247873095Y-98211009D02*
X247968333Y-98258628D01*
X247968333Y-98258628D02*
X248349285Y-98258628D01*
X246873095Y-97734819D02*
X247349285Y-97734819D01*
X247349285Y-97734819D02*
X247396904Y-98211009D01*
X247396904Y-98211009D02*
X247349285Y-98163390D01*
X247349285Y-98163390D02*
X247254047Y-98115771D01*
X247254047Y-98115771D02*
X247015952Y-98115771D01*
X247015952Y-98115771D02*
X246920714Y-98163390D01*
X246920714Y-98163390D02*
X246873095Y-98211009D01*
X246873095Y-98211009D02*
X246825476Y-98306247D01*
X246825476Y-98306247D02*
X246825476Y-98544342D01*
X246825476Y-98544342D02*
X246873095Y-98639580D01*
X246873095Y-98639580D02*
X246920714Y-98687200D01*
X246920714Y-98687200D02*
X247015952Y-98734819D01*
X247015952Y-98734819D02*
X247254047Y-98734819D01*
X247254047Y-98734819D02*
X247349285Y-98687200D01*
X247349285Y-98687200D02*
X247396904Y-98639580D01*
X246254047Y-98163390D02*
X246349285Y-98115771D01*
X246349285Y-98115771D02*
X246396904Y-98068152D01*
X246396904Y-98068152D02*
X246444523Y-97972914D01*
X246444523Y-97972914D02*
X246444523Y-97925295D01*
X246444523Y-97925295D02*
X246396904Y-97830057D01*
X246396904Y-97830057D02*
X246349285Y-97782438D01*
X246349285Y-97782438D02*
X246254047Y-97734819D01*
X246254047Y-97734819D02*
X246063571Y-97734819D01*
X246063571Y-97734819D02*
X245968333Y-97782438D01*
X245968333Y-97782438D02*
X245920714Y-97830057D01*
X245920714Y-97830057D02*
X245873095Y-97925295D01*
X245873095Y-97925295D02*
X245873095Y-97972914D01*
X245873095Y-97972914D02*
X245920714Y-98068152D01*
X245920714Y-98068152D02*
X245968333Y-98115771D01*
X245968333Y-98115771D02*
X246063571Y-98163390D01*
X246063571Y-98163390D02*
X246254047Y-98163390D01*
X246254047Y-98163390D02*
X246349285Y-98211009D01*
X246349285Y-98211009D02*
X246396904Y-98258628D01*
X246396904Y-98258628D02*
X246444523Y-98353866D01*
X246444523Y-98353866D02*
X246444523Y-98544342D01*
X246444523Y-98544342D02*
X246396904Y-98639580D01*
X246396904Y-98639580D02*
X246349285Y-98687200D01*
X246349285Y-98687200D02*
X246254047Y-98734819D01*
X246254047Y-98734819D02*
X246063571Y-98734819D01*
X246063571Y-98734819D02*
X245968333Y-98687200D01*
X245968333Y-98687200D02*
X245920714Y-98639580D01*
X245920714Y-98639580D02*
X245873095Y-98544342D01*
X245873095Y-98544342D02*
X245873095Y-98353866D01*
X245873095Y-98353866D02*
X245920714Y-98258628D01*
X245920714Y-98258628D02*
X245968333Y-98211009D01*
X245968333Y-98211009D02*
X246063571Y-98163390D01*
X166815357Y-41584819D02*
X167148690Y-41108628D01*
X167386785Y-41584819D02*
X167386785Y-40584819D01*
X167386785Y-40584819D02*
X167005833Y-40584819D01*
X167005833Y-40584819D02*
X166910595Y-40632438D01*
X166910595Y-40632438D02*
X166862976Y-40680057D01*
X166862976Y-40680057D02*
X166815357Y-40775295D01*
X166815357Y-40775295D02*
X166815357Y-40918152D01*
X166815357Y-40918152D02*
X166862976Y-41013390D01*
X166862976Y-41013390D02*
X166910595Y-41061009D01*
X166910595Y-41061009D02*
X167005833Y-41108628D01*
X167005833Y-41108628D02*
X167386785Y-41108628D01*
X165862976Y-41584819D02*
X166434404Y-41584819D01*
X166148690Y-41584819D02*
X166148690Y-40584819D01*
X166148690Y-40584819D02*
X166243928Y-40727676D01*
X166243928Y-40727676D02*
X166339166Y-40822914D01*
X166339166Y-40822914D02*
X166434404Y-40870533D01*
X164910595Y-41584819D02*
X165482023Y-41584819D01*
X165196309Y-41584819D02*
X165196309Y-40584819D01*
X165196309Y-40584819D02*
X165291547Y-40727676D01*
X165291547Y-40727676D02*
X165386785Y-40822914D01*
X165386785Y-40822914D02*
X165482023Y-40870533D01*
X209677857Y-98734819D02*
X210011190Y-98258628D01*
X210249285Y-98734819D02*
X210249285Y-97734819D01*
X210249285Y-97734819D02*
X209868333Y-97734819D01*
X209868333Y-97734819D02*
X209773095Y-97782438D01*
X209773095Y-97782438D02*
X209725476Y-97830057D01*
X209725476Y-97830057D02*
X209677857Y-97925295D01*
X209677857Y-97925295D02*
X209677857Y-98068152D01*
X209677857Y-98068152D02*
X209725476Y-98163390D01*
X209725476Y-98163390D02*
X209773095Y-98211009D01*
X209773095Y-98211009D02*
X209868333Y-98258628D01*
X209868333Y-98258628D02*
X210249285Y-98258628D01*
X208773095Y-97734819D02*
X209249285Y-97734819D01*
X209249285Y-97734819D02*
X209296904Y-98211009D01*
X209296904Y-98211009D02*
X209249285Y-98163390D01*
X209249285Y-98163390D02*
X209154047Y-98115771D01*
X209154047Y-98115771D02*
X208915952Y-98115771D01*
X208915952Y-98115771D02*
X208820714Y-98163390D01*
X208820714Y-98163390D02*
X208773095Y-98211009D01*
X208773095Y-98211009D02*
X208725476Y-98306247D01*
X208725476Y-98306247D02*
X208725476Y-98544342D01*
X208725476Y-98544342D02*
X208773095Y-98639580D01*
X208773095Y-98639580D02*
X208820714Y-98687200D01*
X208820714Y-98687200D02*
X208915952Y-98734819D01*
X208915952Y-98734819D02*
X209154047Y-98734819D01*
X209154047Y-98734819D02*
X209249285Y-98687200D01*
X209249285Y-98687200D02*
X209296904Y-98639580D01*
X207868333Y-97734819D02*
X208058809Y-97734819D01*
X208058809Y-97734819D02*
X208154047Y-97782438D01*
X208154047Y-97782438D02*
X208201666Y-97830057D01*
X208201666Y-97830057D02*
X208296904Y-97972914D01*
X208296904Y-97972914D02*
X208344523Y-98163390D01*
X208344523Y-98163390D02*
X208344523Y-98544342D01*
X208344523Y-98544342D02*
X208296904Y-98639580D01*
X208296904Y-98639580D02*
X208249285Y-98687200D01*
X208249285Y-98687200D02*
X208154047Y-98734819D01*
X208154047Y-98734819D02*
X207963571Y-98734819D01*
X207963571Y-98734819D02*
X207868333Y-98687200D01*
X207868333Y-98687200D02*
X207820714Y-98639580D01*
X207820714Y-98639580D02*
X207773095Y-98544342D01*
X207773095Y-98544342D02*
X207773095Y-98306247D01*
X207773095Y-98306247D02*
X207820714Y-98211009D01*
X207820714Y-98211009D02*
X207868333Y-98163390D01*
X207868333Y-98163390D02*
X207963571Y-98115771D01*
X207963571Y-98115771D02*
X208154047Y-98115771D01*
X208154047Y-98115771D02*
X208249285Y-98163390D01*
X208249285Y-98163390D02*
X208296904Y-98211009D01*
X208296904Y-98211009D02*
X208344523Y-98306247D01*
X195390357Y-60634819D02*
X195723690Y-60158628D01*
X195961785Y-60634819D02*
X195961785Y-59634819D01*
X195961785Y-59634819D02*
X195580833Y-59634819D01*
X195580833Y-59634819D02*
X195485595Y-59682438D01*
X195485595Y-59682438D02*
X195437976Y-59730057D01*
X195437976Y-59730057D02*
X195390357Y-59825295D01*
X195390357Y-59825295D02*
X195390357Y-59968152D01*
X195390357Y-59968152D02*
X195437976Y-60063390D01*
X195437976Y-60063390D02*
X195485595Y-60111009D01*
X195485595Y-60111009D02*
X195580833Y-60158628D01*
X195580833Y-60158628D02*
X195961785Y-60158628D01*
X195009404Y-59730057D02*
X194961785Y-59682438D01*
X194961785Y-59682438D02*
X194866547Y-59634819D01*
X194866547Y-59634819D02*
X194628452Y-59634819D01*
X194628452Y-59634819D02*
X194533214Y-59682438D01*
X194533214Y-59682438D02*
X194485595Y-59730057D01*
X194485595Y-59730057D02*
X194437976Y-59825295D01*
X194437976Y-59825295D02*
X194437976Y-59920533D01*
X194437976Y-59920533D02*
X194485595Y-60063390D01*
X194485595Y-60063390D02*
X195057023Y-60634819D01*
X195057023Y-60634819D02*
X194437976Y-60634819D01*
X194104642Y-59634819D02*
X193437976Y-59634819D01*
X193437976Y-59634819D02*
X193866547Y-60634819D01*
X288354166Y-4704819D02*
X288687499Y-4228628D01*
X288925594Y-4704819D02*
X288925594Y-3704819D01*
X288925594Y-3704819D02*
X288544642Y-3704819D01*
X288544642Y-3704819D02*
X288449404Y-3752438D01*
X288449404Y-3752438D02*
X288401785Y-3800057D01*
X288401785Y-3800057D02*
X288354166Y-3895295D01*
X288354166Y-3895295D02*
X288354166Y-4038152D01*
X288354166Y-4038152D02*
X288401785Y-4133390D01*
X288401785Y-4133390D02*
X288449404Y-4181009D01*
X288449404Y-4181009D02*
X288544642Y-4228628D01*
X288544642Y-4228628D02*
X288925594Y-4228628D01*
X287401785Y-4704819D02*
X287973213Y-4704819D01*
X287687499Y-4704819D02*
X287687499Y-3704819D01*
X287687499Y-3704819D02*
X287782737Y-3847676D01*
X287782737Y-3847676D02*
X287877975Y-3942914D01*
X287877975Y-3942914D02*
X287973213Y-3990533D01*
X319080357Y-44059819D02*
X319413690Y-43583628D01*
X319651785Y-44059819D02*
X319651785Y-43059819D01*
X319651785Y-43059819D02*
X319270833Y-43059819D01*
X319270833Y-43059819D02*
X319175595Y-43107438D01*
X319175595Y-43107438D02*
X319127976Y-43155057D01*
X319127976Y-43155057D02*
X319080357Y-43250295D01*
X319080357Y-43250295D02*
X319080357Y-43393152D01*
X319080357Y-43393152D02*
X319127976Y-43488390D01*
X319127976Y-43488390D02*
X319175595Y-43536009D01*
X319175595Y-43536009D02*
X319270833Y-43583628D01*
X319270833Y-43583628D02*
X319651785Y-43583628D01*
X318127976Y-44059819D02*
X318699404Y-44059819D01*
X318413690Y-44059819D02*
X318413690Y-43059819D01*
X318413690Y-43059819D02*
X318508928Y-43202676D01*
X318508928Y-43202676D02*
X318604166Y-43297914D01*
X318604166Y-43297914D02*
X318699404Y-43345533D01*
X317556547Y-43488390D02*
X317651785Y-43440771D01*
X317651785Y-43440771D02*
X317699404Y-43393152D01*
X317699404Y-43393152D02*
X317747023Y-43297914D01*
X317747023Y-43297914D02*
X317747023Y-43250295D01*
X317747023Y-43250295D02*
X317699404Y-43155057D01*
X317699404Y-43155057D02*
X317651785Y-43107438D01*
X317651785Y-43107438D02*
X317556547Y-43059819D01*
X317556547Y-43059819D02*
X317366071Y-43059819D01*
X317366071Y-43059819D02*
X317270833Y-43107438D01*
X317270833Y-43107438D02*
X317223214Y-43155057D01*
X317223214Y-43155057D02*
X317175595Y-43250295D01*
X317175595Y-43250295D02*
X317175595Y-43297914D01*
X317175595Y-43297914D02*
X317223214Y-43393152D01*
X317223214Y-43393152D02*
X317270833Y-43440771D01*
X317270833Y-43440771D02*
X317366071Y-43488390D01*
X317366071Y-43488390D02*
X317556547Y-43488390D01*
X317556547Y-43488390D02*
X317651785Y-43536009D01*
X317651785Y-43536009D02*
X317699404Y-43583628D01*
X317699404Y-43583628D02*
X317747023Y-43678866D01*
X317747023Y-43678866D02*
X317747023Y-43869342D01*
X317747023Y-43869342D02*
X317699404Y-43964580D01*
X317699404Y-43964580D02*
X317651785Y-44012200D01*
X317651785Y-44012200D02*
X317556547Y-44059819D01*
X317556547Y-44059819D02*
X317366071Y-44059819D01*
X317366071Y-44059819D02*
X317270833Y-44012200D01*
X317270833Y-44012200D02*
X317223214Y-43964580D01*
X317223214Y-43964580D02*
X317175595Y-43869342D01*
X317175595Y-43869342D02*
X317175595Y-43678866D01*
X317175595Y-43678866D02*
X317223214Y-43583628D01*
X317223214Y-43583628D02*
X317270833Y-43536009D01*
X317270833Y-43536009D02*
X317366071Y-43488390D01*
X90139166Y-41584819D02*
X90472499Y-41108628D01*
X90710594Y-41584819D02*
X90710594Y-40584819D01*
X90710594Y-40584819D02*
X90329642Y-40584819D01*
X90329642Y-40584819D02*
X90234404Y-40632438D01*
X90234404Y-40632438D02*
X90186785Y-40680057D01*
X90186785Y-40680057D02*
X90139166Y-40775295D01*
X90139166Y-40775295D02*
X90139166Y-40918152D01*
X90139166Y-40918152D02*
X90186785Y-41013390D01*
X90186785Y-41013390D02*
X90234404Y-41061009D01*
X90234404Y-41061009D02*
X90329642Y-41108628D01*
X90329642Y-41108628D02*
X90710594Y-41108628D01*
X89805832Y-40584819D02*
X89139166Y-40584819D01*
X89139166Y-40584819D02*
X89567737Y-41584819D01*
X152527857Y-98734819D02*
X152861190Y-98258628D01*
X153099285Y-98734819D02*
X153099285Y-97734819D01*
X153099285Y-97734819D02*
X152718333Y-97734819D01*
X152718333Y-97734819D02*
X152623095Y-97782438D01*
X152623095Y-97782438D02*
X152575476Y-97830057D01*
X152575476Y-97830057D02*
X152527857Y-97925295D01*
X152527857Y-97925295D02*
X152527857Y-98068152D01*
X152527857Y-98068152D02*
X152575476Y-98163390D01*
X152575476Y-98163390D02*
X152623095Y-98211009D01*
X152623095Y-98211009D02*
X152718333Y-98258628D01*
X152718333Y-98258628D02*
X153099285Y-98258628D01*
X151623095Y-97734819D02*
X152099285Y-97734819D01*
X152099285Y-97734819D02*
X152146904Y-98211009D01*
X152146904Y-98211009D02*
X152099285Y-98163390D01*
X152099285Y-98163390D02*
X152004047Y-98115771D01*
X152004047Y-98115771D02*
X151765952Y-98115771D01*
X151765952Y-98115771D02*
X151670714Y-98163390D01*
X151670714Y-98163390D02*
X151623095Y-98211009D01*
X151623095Y-98211009D02*
X151575476Y-98306247D01*
X151575476Y-98306247D02*
X151575476Y-98544342D01*
X151575476Y-98544342D02*
X151623095Y-98639580D01*
X151623095Y-98639580D02*
X151670714Y-98687200D01*
X151670714Y-98687200D02*
X151765952Y-98734819D01*
X151765952Y-98734819D02*
X152004047Y-98734819D01*
X152004047Y-98734819D02*
X152099285Y-98687200D01*
X152099285Y-98687200D02*
X152146904Y-98639580D01*
X151242142Y-97734819D02*
X150623095Y-97734819D01*
X150623095Y-97734819D02*
X150956428Y-98115771D01*
X150956428Y-98115771D02*
X150813571Y-98115771D01*
X150813571Y-98115771D02*
X150718333Y-98163390D01*
X150718333Y-98163390D02*
X150670714Y-98211009D01*
X150670714Y-98211009D02*
X150623095Y-98306247D01*
X150623095Y-98306247D02*
X150623095Y-98544342D01*
X150623095Y-98544342D02*
X150670714Y-98639580D01*
X150670714Y-98639580D02*
X150718333Y-98687200D01*
X150718333Y-98687200D02*
X150813571Y-98734819D01*
X150813571Y-98734819D02*
X151099285Y-98734819D01*
X151099285Y-98734819D02*
X151194523Y-98687200D01*
X151194523Y-98687200D02*
X151242142Y-98639580D01*
X243015357Y-41584819D02*
X243348690Y-41108628D01*
X243586785Y-41584819D02*
X243586785Y-40584819D01*
X243586785Y-40584819D02*
X243205833Y-40584819D01*
X243205833Y-40584819D02*
X243110595Y-40632438D01*
X243110595Y-40632438D02*
X243062976Y-40680057D01*
X243062976Y-40680057D02*
X243015357Y-40775295D01*
X243015357Y-40775295D02*
X243015357Y-40918152D01*
X243015357Y-40918152D02*
X243062976Y-41013390D01*
X243062976Y-41013390D02*
X243110595Y-41061009D01*
X243110595Y-41061009D02*
X243205833Y-41108628D01*
X243205833Y-41108628D02*
X243586785Y-41108628D01*
X242062976Y-41584819D02*
X242634404Y-41584819D01*
X242348690Y-41584819D02*
X242348690Y-40584819D01*
X242348690Y-40584819D02*
X242443928Y-40727676D01*
X242443928Y-40727676D02*
X242539166Y-40822914D01*
X242539166Y-40822914D02*
X242634404Y-40870533D01*
X241158214Y-40584819D02*
X241634404Y-40584819D01*
X241634404Y-40584819D02*
X241682023Y-41061009D01*
X241682023Y-41061009D02*
X241634404Y-41013390D01*
X241634404Y-41013390D02*
X241539166Y-40965771D01*
X241539166Y-40965771D02*
X241301071Y-40965771D01*
X241301071Y-40965771D02*
X241205833Y-41013390D01*
X241205833Y-41013390D02*
X241158214Y-41061009D01*
X241158214Y-41061009D02*
X241110595Y-41156247D01*
X241110595Y-41156247D02*
X241110595Y-41394342D01*
X241110595Y-41394342D02*
X241158214Y-41489580D01*
X241158214Y-41489580D02*
X241205833Y-41537200D01*
X241205833Y-41537200D02*
X241301071Y-41584819D01*
X241301071Y-41584819D02*
X241539166Y-41584819D01*
X241539166Y-41584819D02*
X241634404Y-41537200D01*
X241634404Y-41537200D02*
X241682023Y-41489580D01*
%TO.C,D62*%
X232597500Y-58430000D02*
X232597500Y-59230000D01*
X232597500Y-58830000D02*
X232097500Y-58830000D01*
X232597500Y-59230000D02*
X233197500Y-58830000D01*
X233197500Y-58830000D02*
X232597500Y-58430000D01*
X233197500Y-58830000D02*
X233197500Y-58280000D01*
X233197500Y-58830000D02*
X233197500Y-59380000D01*
X233597500Y-58830000D02*
X233197500Y-58830000D01*
%TO.C,D21*%
X104010000Y-77480000D02*
X104010000Y-78280000D01*
X104010000Y-77880000D02*
X103510000Y-77880000D01*
X104010000Y-78280000D02*
X104610000Y-77880000D01*
X104610000Y-77880000D02*
X104010000Y-77480000D01*
X104610000Y-77880000D02*
X104610000Y-77330000D01*
X104610000Y-77880000D02*
X104610000Y-78430000D01*
X105010000Y-77880000D02*
X104610000Y-77880000D01*
%TO.C,R19*%
D12*
X37812064Y-61095000D02*
X37357936Y-61095000D01*
X37812064Y-62565000D02*
X37357936Y-62565000D01*
%TO.C,D40*%
D11*
X170685000Y-96530000D02*
X170685000Y-97330000D01*
X170685000Y-96930000D02*
X170185000Y-96930000D01*
X170685000Y-97330000D02*
X171285000Y-96930000D01*
X171285000Y-96930000D02*
X170685000Y-96530000D01*
X171285000Y-96930000D02*
X171285000Y-96380000D01*
X171285000Y-96930000D02*
X171285000Y-97480000D01*
X171685000Y-96930000D02*
X171285000Y-96930000D01*
%TO.C,R9*%
D12*
X128299564Y-42045000D02*
X127845436Y-42045000D01*
X128299564Y-43515000D02*
X127845436Y-43515000D01*
%TO.C,D39*%
D11*
X161160000Y-77480000D02*
X161160000Y-78280000D01*
X161160000Y-77880000D02*
X160660000Y-77880000D01*
X161160000Y-78280000D02*
X161760000Y-77880000D01*
X161760000Y-77880000D02*
X161160000Y-77480000D01*
X161760000Y-77880000D02*
X161760000Y-77330000D01*
X161760000Y-77880000D02*
X161760000Y-78430000D01*
X162160000Y-77880000D02*
X161760000Y-77880000D01*
%TO.C,D10*%
X75435000Y-96530000D02*
X75435000Y-97330000D01*
X75435000Y-96930000D02*
X74935000Y-96930000D01*
X75435000Y-97330000D02*
X76035000Y-96930000D01*
X76035000Y-96930000D02*
X75435000Y-96530000D01*
X76035000Y-96930000D02*
X76035000Y-96380000D01*
X76035000Y-96930000D02*
X76035000Y-97480000D01*
X76435000Y-96930000D02*
X76035000Y-96930000D01*
%TO.C,D12*%
X289747500Y-39380000D02*
X289747500Y-40180000D01*
X289747500Y-39780000D02*
X289247500Y-39780000D01*
X289747500Y-40180000D02*
X290347500Y-39780000D01*
X290347500Y-39780000D02*
X289747500Y-39380000D01*
X290347500Y-39780000D02*
X290347500Y-39230000D01*
X290347500Y-39780000D02*
X290347500Y-40330000D01*
X290747500Y-39780000D02*
X290347500Y-39780000D01*
%TO.C,R33*%
D12*
X318799564Y-61095000D02*
X318345436Y-61095000D01*
X318799564Y-62565000D02*
X318345436Y-62565000D01*
%TO.C,D34*%
D11*
X151635000Y-96530000D02*
X151635000Y-97330000D01*
X151635000Y-96930000D02*
X151135000Y-96930000D01*
X151635000Y-97330000D02*
X152235000Y-96930000D01*
X152235000Y-96930000D02*
X151635000Y-96530000D01*
X152235000Y-96930000D02*
X152235000Y-96380000D01*
X152235000Y-96930000D02*
X152235000Y-97480000D01*
X152635000Y-96930000D02*
X152235000Y-96930000D01*
%TO.C,R71*%
D12*
X318799564Y-118245000D02*
X318345436Y-118245000D01*
X318799564Y-119715000D02*
X318345436Y-119715000D01*
%TO.C,R42*%
X199737064Y-80145000D02*
X199282936Y-80145000D01*
X199737064Y-81615000D02*
X199282936Y-81615000D01*
%TO.C,R60*%
X299749564Y-99195000D02*
X299295436Y-99195000D01*
X299749564Y-100665000D02*
X299295436Y-100665000D01*
%TO.C,R49*%
X75912064Y-99195000D02*
X75457936Y-99195000D01*
X75912064Y-100665000D02*
X75457936Y-100665000D01*
%TO.C,D46*%
D11*
X189735000Y-96530000D02*
X189735000Y-97330000D01*
X189735000Y-96930000D02*
X189235000Y-96930000D01*
X189735000Y-97330000D02*
X190335000Y-96930000D01*
X190335000Y-96930000D02*
X189735000Y-96530000D01*
X190335000Y-96930000D02*
X190335000Y-96380000D01*
X190335000Y-96930000D02*
X190335000Y-97480000D01*
X190735000Y-96930000D02*
X190335000Y-96930000D01*
%TO.C,D20*%
X99247500Y-58430000D02*
X99247500Y-59230000D01*
X99247500Y-58830000D02*
X98747500Y-58830000D01*
X99247500Y-59230000D02*
X99847500Y-58830000D01*
X99847500Y-58830000D02*
X99247500Y-58430000D01*
X99847500Y-58830000D02*
X99847500Y-58280000D01*
X99847500Y-58830000D02*
X99847500Y-59380000D01*
X100247500Y-58830000D02*
X99847500Y-58830000D01*
%TO.C,R68*%
D12*
X261649564Y-118245000D02*
X261195436Y-118245000D01*
X261649564Y-119715000D02*
X261195436Y-119715000D01*
%TO.C,D59*%
D11*
X318322500Y-115580000D02*
X318322500Y-116380000D01*
X318322500Y-115980000D02*
X317822500Y-115980000D01*
X318322500Y-116380000D02*
X318922500Y-115980000D01*
X318922500Y-115980000D02*
X318322500Y-115580000D01*
X318922500Y-115980000D02*
X318922500Y-115430000D01*
X318922500Y-115980000D02*
X318922500Y-116530000D01*
X319322500Y-115980000D02*
X318922500Y-115980000D01*
%TO.C,D8*%
X61147500Y-58430000D02*
X61147500Y-59230000D01*
X61147500Y-58830000D02*
X60647500Y-58830000D01*
X61147500Y-59230000D02*
X61747500Y-58830000D01*
X61747500Y-58830000D02*
X61147500Y-58430000D01*
X61747500Y-58830000D02*
X61747500Y-58280000D01*
X61747500Y-58830000D02*
X61747500Y-59380000D01*
X62147500Y-58830000D02*
X61747500Y-58830000D01*
%TO.C,R43*%
D12*
X218787064Y-80145000D02*
X218332936Y-80145000D01*
X218787064Y-81615000D02*
X218332936Y-81615000D01*
%TO.C,R46*%
X287843364Y-80145000D02*
X287389236Y-80145000D01*
X287843364Y-81615000D02*
X287389236Y-81615000D01*
%TO.C,D55*%
D11*
X204022500Y-39380000D02*
X204022500Y-40180000D01*
X204022500Y-39780000D02*
X203522500Y-39780000D01*
X204022500Y-40180000D02*
X204622500Y-39780000D01*
X204622500Y-39780000D02*
X204022500Y-39380000D01*
X204622500Y-39780000D02*
X204622500Y-39230000D01*
X204622500Y-39780000D02*
X204622500Y-40330000D01*
X205022500Y-39780000D02*
X204622500Y-39780000D01*
%TO.C,D67*%
X242122500Y-39380000D02*
X242122500Y-40180000D01*
X242122500Y-39780000D02*
X241622500Y-39780000D01*
X242122500Y-40180000D02*
X242722500Y-39780000D01*
X242722500Y-39780000D02*
X242122500Y-39380000D01*
X242722500Y-39780000D02*
X242722500Y-39230000D01*
X242722500Y-39780000D02*
X242722500Y-40330000D01*
X243122500Y-39780000D02*
X242722500Y-39780000D01*
%TO.C,R55*%
D12*
X190212064Y-99195000D02*
X189757936Y-99195000D01*
X190212064Y-100665000D02*
X189757936Y-100665000D01*
%TO.C,R65*%
X154493364Y-118245000D02*
X154039236Y-118245000D01*
X154493364Y-119715000D02*
X154039236Y-119715000D01*
%TO.C,R51*%
X114012064Y-99195000D02*
X113557936Y-99195000D01*
X114012064Y-100665000D02*
X113557936Y-100665000D01*
%TO.C,R44*%
X237837064Y-80145000D02*
X237382936Y-80145000D01*
X237837064Y-81615000D02*
X237382936Y-81615000D01*
%TO.C,R4*%
X33049564Y-42045000D02*
X32595436Y-42045000D01*
X33049564Y-43515000D02*
X32595436Y-43515000D01*
%TO.C,D56*%
D11*
X213547500Y-58430000D02*
X213547500Y-59230000D01*
X213547500Y-58830000D02*
X213047500Y-58830000D01*
X213547500Y-59230000D02*
X214147500Y-58830000D01*
X214147500Y-58830000D02*
X213547500Y-58430000D01*
X214147500Y-58830000D02*
X214147500Y-58280000D01*
X214147500Y-58830000D02*
X214147500Y-59380000D01*
X214547500Y-58830000D02*
X214147500Y-58830000D01*
%TO.C,D36*%
X318322500Y-58430000D02*
X318322500Y-59230000D01*
X318322500Y-58830000D02*
X317822500Y-58830000D01*
X318322500Y-59230000D02*
X318922500Y-58830000D01*
X318922500Y-58830000D02*
X318322500Y-58430000D01*
X318922500Y-58830000D02*
X318922500Y-58280000D01*
X318922500Y-58830000D02*
X318922500Y-59380000D01*
X319322500Y-58830000D02*
X318922500Y-58830000D01*
%TO.C,R20*%
D12*
X61624564Y-61095000D02*
X61170436Y-61095000D01*
X61624564Y-62565000D02*
X61170436Y-62565000D01*
%TO.C,R22*%
X99724564Y-61095000D02*
X99270436Y-61095000D01*
X99724564Y-62565000D02*
X99270436Y-62565000D01*
%TO.C,R62*%
X35430864Y-118245000D02*
X34976736Y-118245000D01*
X35430864Y-119715000D02*
X34976736Y-119715000D01*
%TO.C,D3*%
D11*
X39716300Y-77480000D02*
X39716300Y-78280000D01*
X39716300Y-77880000D02*
X39216300Y-77880000D01*
X39716300Y-78280000D02*
X40316300Y-77880000D01*
X40316300Y-77880000D02*
X39716300Y-77480000D01*
X40316300Y-77880000D02*
X40316300Y-77330000D01*
X40316300Y-77880000D02*
X40316300Y-78430000D01*
X40716300Y-77880000D02*
X40316300Y-77880000D01*
%TO.C,R45*%
D12*
X256887064Y-80145000D02*
X256432936Y-80145000D01*
X256887064Y-81615000D02*
X256432936Y-81615000D01*
%TO.C,R29*%
X233074564Y-61095000D02*
X232620436Y-61095000D01*
X233074564Y-62565000D02*
X232620436Y-62565000D01*
%TO.C,D48*%
D11*
X318322500Y-77480000D02*
X318322500Y-78280000D01*
X318322500Y-77880000D02*
X317822500Y-77880000D01*
X318322500Y-78280000D02*
X318922500Y-77880000D01*
X318922500Y-77880000D02*
X318322500Y-77480000D01*
X318922500Y-77880000D02*
X318922500Y-77330000D01*
X318922500Y-77880000D02*
X318922500Y-78430000D01*
X319322500Y-77880000D02*
X318922500Y-77880000D01*
%TO.C,R39*%
D12*
X142587064Y-80145000D02*
X142132936Y-80145000D01*
X142587064Y-81615000D02*
X142132936Y-81615000D01*
%TO.C,U2*%
X212567500Y-17295000D02*
X248247500Y-17295000D01*
X212567500Y-18945000D02*
X212567500Y-17295000D01*
X212567500Y-22595000D02*
X212567500Y-20945000D01*
X248247500Y-17295000D02*
X248247500Y-22595000D01*
X248247500Y-22595000D02*
X212567500Y-22595000D01*
X212567500Y-18945000D02*
G75*
G02*
X212567500Y-20945000I0J-1000000D01*
G01*
%TO.C,R25*%
X156874564Y-61095000D02*
X156420436Y-61095000D01*
X156874564Y-62565000D02*
X156420436Y-62565000D01*
%TO.C,R63*%
X59243364Y-118245000D02*
X58789236Y-118245000D01*
X59243364Y-119715000D02*
X58789236Y-119715000D01*
%TO.C,R23*%
X118774564Y-61095000D02*
X118320436Y-61095000D01*
X118774564Y-62565000D02*
X118320436Y-62565000D01*
%TO.C,D7*%
D11*
X51622500Y-39380000D02*
X51622500Y-40180000D01*
X51622500Y-39780000D02*
X51122500Y-39780000D01*
X51622500Y-40180000D02*
X52222500Y-39780000D01*
X52222500Y-39780000D02*
X51622500Y-39380000D01*
X52222500Y-39780000D02*
X52222500Y-39230000D01*
X52222500Y-39780000D02*
X52222500Y-40330000D01*
X52622500Y-39780000D02*
X52222500Y-39780000D01*
%TO.C,D35*%
X242122500Y-115580000D02*
X242122500Y-116380000D01*
X242122500Y-115980000D02*
X241622500Y-115980000D01*
X242122500Y-116380000D02*
X242722500Y-115980000D01*
X242722500Y-115980000D02*
X242122500Y-115580000D01*
X242722500Y-115980000D02*
X242722500Y-115430000D01*
X242722500Y-115980000D02*
X242722500Y-116530000D01*
X243122500Y-115980000D02*
X242722500Y-115980000D01*
%TO.C,R50*%
D12*
X94962064Y-99195000D02*
X94507936Y-99195000D01*
X94962064Y-100665000D02*
X94507936Y-100665000D01*
%TO.C,D23*%
D11*
X154016300Y-115580000D02*
X154016300Y-116380000D01*
X154016300Y-115980000D02*
X153516300Y-115980000D01*
X154016300Y-116380000D02*
X154616300Y-115980000D01*
X154616300Y-115980000D02*
X154016300Y-115580000D01*
X154616300Y-115980000D02*
X154616300Y-115430000D01*
X154616300Y-115980000D02*
X154616300Y-116530000D01*
X155016300Y-115980000D02*
X154616300Y-115980000D01*
%TO.C,D4*%
X44478800Y-96530000D02*
X44478800Y-97330000D01*
X44478800Y-96930000D02*
X43978800Y-96930000D01*
X44478800Y-97330000D02*
X45078800Y-96930000D01*
X45078800Y-96930000D02*
X44478800Y-96530000D01*
X45078800Y-96930000D02*
X45078800Y-96380000D01*
X45078800Y-96930000D02*
X45078800Y-97480000D01*
X45478800Y-96930000D02*
X45078800Y-96930000D01*
%TO.C,R57*%
D12*
X228312064Y-99195000D02*
X227857936Y-99195000D01*
X228312064Y-100665000D02*
X227857936Y-100665000D01*
%TO.C,D25*%
D11*
X108772500Y-39380000D02*
X108772500Y-40180000D01*
X108772500Y-39780000D02*
X108272500Y-39780000D01*
X108772500Y-40180000D02*
X109372500Y-39780000D01*
X109372500Y-39780000D02*
X108772500Y-39380000D01*
X109372500Y-39780000D02*
X109372500Y-39230000D01*
X109372500Y-39780000D02*
X109372500Y-40330000D01*
X109772500Y-39780000D02*
X109372500Y-39780000D01*
%TO.C,D28*%
X132585000Y-96530000D02*
X132585000Y-97330000D01*
X132585000Y-96930000D02*
X132085000Y-96930000D01*
X132585000Y-97330000D02*
X133185000Y-96930000D01*
X133185000Y-96930000D02*
X132585000Y-96530000D01*
X133185000Y-96930000D02*
X133185000Y-96380000D01*
X133185000Y-96930000D02*
X133185000Y-97480000D01*
X133585000Y-96930000D02*
X133185000Y-96930000D01*
%TO.C,R12*%
D12*
X185449564Y-42045000D02*
X184995436Y-42045000D01*
X185449564Y-43515000D02*
X184995436Y-43515000D01*
%TO.C,R59*%
X273555864Y-99195000D02*
X273101736Y-99195000D01*
X273555864Y-100665000D02*
X273101736Y-100665000D01*
%TO.C,D13*%
D11*
X70672500Y-39380000D02*
X70672500Y-40180000D01*
X70672500Y-39780000D02*
X70172500Y-39780000D01*
X70672500Y-40180000D02*
X71272500Y-39780000D01*
X71272500Y-39780000D02*
X70672500Y-39380000D01*
X71272500Y-39780000D02*
X71272500Y-39230000D01*
X71272500Y-39780000D02*
X71272500Y-40330000D01*
X71672500Y-39780000D02*
X71272500Y-39780000D01*
%TO.C,D37*%
X146872500Y-39380000D02*
X146872500Y-40180000D01*
X146872500Y-39780000D02*
X146372500Y-39780000D01*
X146872500Y-40180000D02*
X147472500Y-39780000D01*
X147472500Y-39780000D02*
X146872500Y-39380000D01*
X147472500Y-39780000D02*
X147472500Y-39230000D01*
X147472500Y-39780000D02*
X147472500Y-40330000D01*
X147872500Y-39780000D02*
X147472500Y-39780000D01*
%TO.C,R10*%
D12*
X147349564Y-42045000D02*
X146895436Y-42045000D01*
X147349564Y-43515000D02*
X146895436Y-43515000D01*
%TO.C,R48*%
X44955864Y-99195000D02*
X44501736Y-99195000D01*
X44955864Y-100665000D02*
X44501736Y-100665000D01*
%TO.C,R26*%
X175924564Y-61095000D02*
X175470436Y-61095000D01*
X175924564Y-62565000D02*
X175470436Y-62565000D01*
%TO.C,Q1*%
X282427500Y-9340000D02*
X282427500Y-10340000D01*
X282427500Y-11460000D02*
X282427500Y-12460000D01*
X282427500Y-12460000D02*
X283947500Y-12460000D01*
X283947500Y-9340000D02*
X282427500Y-9340000D01*
X283947500Y-9390000D02*
X283947500Y-9340000D01*
X283947500Y-11290000D02*
X283947500Y-10510000D01*
X283947500Y-12460000D02*
X283947500Y-12410000D01*
X284727500Y-10850000D02*
X284247500Y-10850000D01*
X284487500Y-10520000D01*
X284727500Y-10850000D01*
G36*
X284727500Y-10850000D02*
G01*
X284247500Y-10850000D01*
X284487500Y-10520000D01*
X284727500Y-10850000D01*
G37*
%TO.C,R35*%
X66387064Y-80145000D02*
X65932936Y-80145000D01*
X66387064Y-81615000D02*
X65932936Y-81615000D01*
%TO.C,R14*%
X223549564Y-42045000D02*
X223095436Y-42045000D01*
X223549564Y-43515000D02*
X223095436Y-43515000D01*
%TO.C,D27*%
D11*
X123060000Y-77480000D02*
X123060000Y-78280000D01*
X123060000Y-77880000D02*
X122560000Y-77880000D01*
X123060000Y-78280000D02*
X123660000Y-77880000D01*
X123660000Y-77880000D02*
X123060000Y-77480000D01*
X123660000Y-77880000D02*
X123660000Y-77330000D01*
X123660000Y-77880000D02*
X123660000Y-78430000D01*
X124060000Y-77880000D02*
X123660000Y-77880000D01*
%TO.C,D68*%
X251647500Y-58430000D02*
X251647500Y-59230000D01*
X251647500Y-58830000D02*
X251147500Y-58830000D01*
X251647500Y-59230000D02*
X252247500Y-58830000D01*
X252247500Y-58830000D02*
X251647500Y-58430000D01*
X252247500Y-58830000D02*
X252247500Y-58280000D01*
X252247500Y-58830000D02*
X252247500Y-59380000D01*
X252647500Y-58830000D02*
X252247500Y-58830000D01*
%TO.C,R67*%
D12*
X242599564Y-118245000D02*
X242145436Y-118245000D01*
X242599564Y-119715000D02*
X242145436Y-119715000D01*
%TO.C,D49*%
D11*
X184972500Y-39380000D02*
X184972500Y-40180000D01*
X184972500Y-39780000D02*
X184472500Y-39780000D01*
X184972500Y-40180000D02*
X185572500Y-39780000D01*
X185572500Y-39780000D02*
X184972500Y-39380000D01*
X185572500Y-39780000D02*
X185572500Y-39230000D01*
X185572500Y-39780000D02*
X185572500Y-40330000D01*
X185972500Y-39780000D02*
X185572500Y-39780000D01*
%TO.C,R36*%
D12*
X85437064Y-80145000D02*
X84982936Y-80145000D01*
X85437064Y-81615000D02*
X84982936Y-81615000D01*
%TO.C,R6*%
X71149564Y-42045000D02*
X70695436Y-42045000D01*
X71149564Y-43515000D02*
X70695436Y-43515000D01*
%TO.C,D41*%
D11*
X261172500Y-115580000D02*
X261172500Y-116380000D01*
X261172500Y-115980000D02*
X260672500Y-115980000D01*
X261172500Y-116380000D02*
X261772500Y-115980000D01*
X261772500Y-115980000D02*
X261172500Y-115580000D01*
X261772500Y-115980000D02*
X261772500Y-115430000D01*
X261772500Y-115980000D02*
X261772500Y-116530000D01*
X262172500Y-115980000D02*
X261772500Y-115980000D01*
%TO.C,D22*%
X113535000Y-96530000D02*
X113535000Y-97330000D01*
X113535000Y-96930000D02*
X113035000Y-96930000D01*
X113535000Y-97330000D02*
X114135000Y-96930000D01*
X114135000Y-96930000D02*
X113535000Y-96530000D01*
X114135000Y-96930000D02*
X114135000Y-96380000D01*
X114135000Y-96930000D02*
X114135000Y-97480000D01*
X114535000Y-96930000D02*
X114135000Y-96930000D01*
%TO.C,D17*%
X82578800Y-115580000D02*
X82578800Y-116380000D01*
X82578800Y-115980000D02*
X82078800Y-115980000D01*
X82578800Y-116380000D02*
X83178800Y-115980000D01*
X83178800Y-115980000D02*
X82578800Y-115580000D01*
X83178800Y-115980000D02*
X83178800Y-115430000D01*
X83178800Y-115980000D02*
X83178800Y-116530000D01*
X83578800Y-115980000D02*
X83178800Y-115980000D01*
%TO.C,D60*%
X318322500Y-96530000D02*
X318322500Y-97330000D01*
X318322500Y-96930000D02*
X317822500Y-96930000D01*
X318322500Y-97330000D02*
X318922500Y-96930000D01*
X318922500Y-96930000D02*
X318322500Y-96530000D01*
X318922500Y-96930000D02*
X318922500Y-96380000D01*
X318922500Y-96930000D02*
X318922500Y-97480000D01*
X319322500Y-96930000D02*
X318922500Y-96930000D01*
%TO.C,D52*%
X208785000Y-96530000D02*
X208785000Y-97330000D01*
X208785000Y-96930000D02*
X208285000Y-96930000D01*
X208785000Y-97330000D02*
X209385000Y-96930000D01*
X209385000Y-96930000D02*
X208785000Y-96530000D01*
X209385000Y-96930000D02*
X209385000Y-96380000D01*
X209385000Y-96930000D02*
X209385000Y-97480000D01*
X209785000Y-96930000D02*
X209385000Y-96930000D01*
%TO.C,R34*%
D12*
X40193364Y-80145000D02*
X39739236Y-80145000D01*
X40193364Y-81615000D02*
X39739236Y-81615000D01*
%TO.C,D16*%
D11*
X94485000Y-96530000D02*
X94485000Y-97330000D01*
X94485000Y-96930000D02*
X93985000Y-96930000D01*
X94485000Y-97330000D02*
X95085000Y-96930000D01*
X95085000Y-96930000D02*
X94485000Y-96530000D01*
X95085000Y-96930000D02*
X95085000Y-96380000D01*
X95085000Y-96930000D02*
X95085000Y-97480000D01*
X95485000Y-96930000D02*
X95085000Y-96930000D01*
%TO.C,D70*%
X273078800Y-96530000D02*
X273078800Y-97330000D01*
X273078800Y-96930000D02*
X272578800Y-96930000D01*
X273078800Y-97330000D02*
X273678800Y-96930000D01*
X273678800Y-96930000D02*
X273078800Y-96530000D01*
X273678800Y-96930000D02*
X273678800Y-96380000D01*
X273678800Y-96930000D02*
X273678800Y-97480000D01*
X274078800Y-96930000D02*
X273678800Y-96930000D01*
%TO.C,U1*%
D10*
X296850000Y-7150000D02*
X296850000Y-25450000D01*
X330150000Y-7150000D02*
X296850000Y-7150000D01*
X330150000Y-7150000D02*
X330150000Y-25450000D01*
X330150000Y-25450000D02*
X296850000Y-25450000D01*
%TO.C,R24*%
D12*
X137824564Y-61095000D02*
X137370436Y-61095000D01*
X137824564Y-62565000D02*
X137370436Y-62565000D01*
%TO.C,D51*%
D11*
X199260000Y-77480000D02*
X199260000Y-78280000D01*
X199260000Y-77880000D02*
X198760000Y-77880000D01*
X199260000Y-78280000D02*
X199860000Y-77880000D01*
X199860000Y-77880000D02*
X199260000Y-77480000D01*
X199860000Y-77880000D02*
X199860000Y-77330000D01*
X199860000Y-77880000D02*
X199860000Y-78430000D01*
X200260000Y-77880000D02*
X199860000Y-77880000D01*
%TO.C,D11*%
X58766300Y-115580000D02*
X58766300Y-116380000D01*
X58766300Y-115980000D02*
X58266300Y-115980000D01*
X58766300Y-116380000D02*
X59366300Y-115980000D01*
X59366300Y-115980000D02*
X58766300Y-115580000D01*
X59366300Y-115980000D02*
X59366300Y-115430000D01*
X59366300Y-115980000D02*
X59366300Y-116530000D01*
X59766300Y-115980000D02*
X59366300Y-115980000D01*
%TO.C,R47*%
D12*
X318799564Y-80145000D02*
X318345436Y-80145000D01*
X318799564Y-81615000D02*
X318345436Y-81615000D01*
%TO.C,D15*%
D11*
X84960000Y-77480000D02*
X84960000Y-78280000D01*
X84960000Y-77880000D02*
X84460000Y-77880000D01*
X84960000Y-78280000D02*
X85560000Y-77880000D01*
X85560000Y-77880000D02*
X84960000Y-77480000D01*
X85560000Y-77880000D02*
X85560000Y-77330000D01*
X85560000Y-77880000D02*
X85560000Y-78430000D01*
X85960000Y-77880000D02*
X85560000Y-77880000D01*
%TO.C,R16*%
D12*
X261649564Y-42045000D02*
X261195436Y-42045000D01*
X261649564Y-43515000D02*
X261195436Y-43515000D01*
%TO.C,R2*%
X288414564Y-15165000D02*
X287960436Y-15165000D01*
X288414564Y-16635000D02*
X287960436Y-16635000D01*
%TO.C,D14*%
D11*
X80197500Y-58430000D02*
X80197500Y-59230000D01*
X80197500Y-58830000D02*
X79697500Y-58830000D01*
X80197500Y-59230000D02*
X80797500Y-58830000D01*
X80797500Y-58830000D02*
X80197500Y-58430000D01*
X80797500Y-58830000D02*
X80797500Y-58280000D01*
X80797500Y-58830000D02*
X80797500Y-59380000D01*
X81197500Y-58830000D02*
X80797500Y-58830000D01*
%TO.C,R70*%
D12*
X299749564Y-118245000D02*
X299295436Y-118245000D01*
X299749564Y-119715000D02*
X299295436Y-119715000D01*
%TO.C,D47*%
D11*
X280222500Y-115580000D02*
X280222500Y-116380000D01*
X280222500Y-115980000D02*
X279722500Y-115980000D01*
X280222500Y-116380000D02*
X280822500Y-115980000D01*
X280822500Y-115980000D02*
X280222500Y-115580000D01*
X280822500Y-115980000D02*
X280822500Y-115430000D01*
X280822500Y-115980000D02*
X280822500Y-116530000D01*
X281222500Y-115980000D02*
X280822500Y-115980000D01*
%TO.C,D44*%
X175447500Y-58430000D02*
X175447500Y-59230000D01*
X175447500Y-58830000D02*
X174947500Y-58830000D01*
X175447500Y-59230000D02*
X176047500Y-58830000D01*
X176047500Y-58830000D02*
X175447500Y-58430000D01*
X176047500Y-58830000D02*
X176047500Y-58280000D01*
X176047500Y-58830000D02*
X176047500Y-59380000D01*
X176447500Y-58830000D02*
X176047500Y-58830000D01*
%TO.C,R41*%
D12*
X180687064Y-80145000D02*
X180232936Y-80145000D01*
X180687064Y-81615000D02*
X180232936Y-81615000D01*
%TO.C,D38*%
D11*
X156397500Y-58430000D02*
X156397500Y-59230000D01*
X156397500Y-58830000D02*
X155897500Y-58830000D01*
X156397500Y-59230000D02*
X156997500Y-58830000D01*
X156997500Y-58830000D02*
X156397500Y-58430000D01*
X156997500Y-58830000D02*
X156997500Y-58280000D01*
X156997500Y-58830000D02*
X156997500Y-59380000D01*
X157397500Y-58830000D02*
X156997500Y-58830000D01*
%TO.C,R66*%
D12*
X223549564Y-118245000D02*
X223095436Y-118245000D01*
X223549564Y-119715000D02*
X223095436Y-119715000D01*
%TO.C,D45*%
D11*
X180210000Y-77480000D02*
X180210000Y-78280000D01*
X180210000Y-77880000D02*
X179710000Y-77880000D01*
X180210000Y-78280000D02*
X180810000Y-77880000D01*
X180810000Y-77880000D02*
X180210000Y-77480000D01*
X180810000Y-77880000D02*
X180810000Y-77330000D01*
X180810000Y-77880000D02*
X180810000Y-78430000D01*
X181210000Y-77880000D02*
X180810000Y-77880000D01*
%TO.C,R37*%
D12*
X104487064Y-80145000D02*
X104032936Y-80145000D01*
X104487064Y-81615000D02*
X104032936Y-81615000D01*
%TO.C,R54*%
X171162064Y-99195000D02*
X170707936Y-99195000D01*
X171162064Y-100665000D02*
X170707936Y-100665000D01*
%TO.C,D42*%
D11*
X287366300Y-77480000D02*
X287366300Y-78280000D01*
X287366300Y-77880000D02*
X286866300Y-77880000D01*
X287366300Y-78280000D02*
X287966300Y-77880000D01*
X287966300Y-77880000D02*
X287366300Y-77480000D01*
X287966300Y-77880000D02*
X287966300Y-77330000D01*
X287966300Y-77880000D02*
X287966300Y-78430000D01*
X288366300Y-77880000D02*
X287966300Y-77880000D01*
%TO.C,D33*%
X142110000Y-77480000D02*
X142110000Y-78280000D01*
X142110000Y-77880000D02*
X141610000Y-77880000D01*
X142110000Y-78280000D02*
X142710000Y-77880000D01*
X142710000Y-77880000D02*
X142110000Y-77480000D01*
X142710000Y-77880000D02*
X142710000Y-77330000D01*
X142710000Y-77880000D02*
X142710000Y-78430000D01*
X143110000Y-77880000D02*
X142710000Y-77880000D01*
%TO.C,R17*%
D12*
X290224564Y-42045000D02*
X289770436Y-42045000D01*
X290224564Y-43515000D02*
X289770436Y-43515000D01*
%TO.C,D32*%
D11*
X137347500Y-58430000D02*
X137347500Y-59230000D01*
X137347500Y-58830000D02*
X136847500Y-58830000D01*
X137347500Y-59230000D02*
X137947500Y-58830000D01*
X137947500Y-58830000D02*
X137347500Y-58430000D01*
X137947500Y-58830000D02*
X137947500Y-58280000D01*
X137947500Y-58830000D02*
X137947500Y-59380000D01*
X138347500Y-58830000D02*
X137947500Y-58830000D01*
%TO.C,R13*%
D12*
X204499564Y-42045000D02*
X204045436Y-42045000D01*
X204499564Y-43515000D02*
X204045436Y-43515000D01*
%TO.C,D5*%
D11*
X34953800Y-115580000D02*
X34953800Y-116380000D01*
X34953800Y-115980000D02*
X34453800Y-115980000D01*
X34953800Y-116380000D02*
X35553800Y-115980000D01*
X35553800Y-115980000D02*
X34953800Y-115580000D01*
X35553800Y-115980000D02*
X35553800Y-115430000D01*
X35553800Y-115980000D02*
X35553800Y-116530000D01*
X35953800Y-115980000D02*
X35553800Y-115980000D01*
%TO.C,R28*%
D12*
X214024564Y-61095000D02*
X213570436Y-61095000D01*
X214024564Y-62565000D02*
X213570436Y-62565000D01*
%TO.C,D26*%
D11*
X118297500Y-58430000D02*
X118297500Y-59230000D01*
X118297500Y-58830000D02*
X117797500Y-58830000D01*
X118297500Y-59230000D02*
X118897500Y-58830000D01*
X118897500Y-58830000D02*
X118297500Y-58430000D01*
X118897500Y-58830000D02*
X118897500Y-58280000D01*
X118897500Y-58830000D02*
X118897500Y-59380000D01*
X119297500Y-58830000D02*
X118897500Y-58830000D01*
%TO.C,D58*%
X227835000Y-96530000D02*
X227835000Y-97330000D01*
X227835000Y-96930000D02*
X227335000Y-96930000D01*
X227835000Y-97330000D02*
X228435000Y-96930000D01*
X228435000Y-96930000D02*
X227835000Y-96530000D01*
X228435000Y-96930000D02*
X228435000Y-96380000D01*
X228435000Y-96930000D02*
X228435000Y-97480000D01*
X228835000Y-96930000D02*
X228435000Y-96930000D01*
%TO.C,R52*%
D12*
X133062064Y-99195000D02*
X132607936Y-99195000D01*
X133062064Y-100665000D02*
X132607936Y-100665000D01*
%TO.C,D2*%
D11*
X37335000Y-58430000D02*
X37335000Y-59230000D01*
X37335000Y-58830000D02*
X36835000Y-58830000D01*
X37335000Y-59230000D02*
X37935000Y-58830000D01*
X37935000Y-58830000D02*
X37335000Y-58430000D01*
X37935000Y-58830000D02*
X37935000Y-58280000D01*
X37935000Y-58830000D02*
X37935000Y-59380000D01*
X38335000Y-58830000D02*
X37935000Y-58830000D01*
%TO.C,R69*%
D12*
X280699564Y-118245000D02*
X280245436Y-118245000D01*
X280699564Y-119715000D02*
X280245436Y-119715000D01*
%TO.C,D31*%
D11*
X127822500Y-39380000D02*
X127822500Y-40180000D01*
X127822500Y-39780000D02*
X127322500Y-39780000D01*
X127822500Y-40180000D02*
X128422500Y-39780000D01*
X128422500Y-39780000D02*
X127822500Y-39380000D01*
X128422500Y-39780000D02*
X128422500Y-39230000D01*
X128422500Y-39780000D02*
X128422500Y-40330000D01*
X128822500Y-39780000D02*
X128422500Y-39780000D01*
%TO.C,D9*%
X65910000Y-77480000D02*
X65910000Y-78280000D01*
X65910000Y-77880000D02*
X65410000Y-77880000D01*
X65910000Y-78280000D02*
X66510000Y-77880000D01*
X66510000Y-77880000D02*
X65910000Y-77480000D01*
X66510000Y-77880000D02*
X66510000Y-77330000D01*
X66510000Y-77880000D02*
X66510000Y-78430000D01*
X66910000Y-77880000D02*
X66510000Y-77880000D01*
%TO.C,D63*%
X237360000Y-77480000D02*
X237360000Y-78280000D01*
X237360000Y-77880000D02*
X236860000Y-77880000D01*
X237360000Y-78280000D02*
X237960000Y-77880000D01*
X237960000Y-77880000D02*
X237360000Y-77480000D01*
X237960000Y-77880000D02*
X237960000Y-77330000D01*
X237960000Y-77880000D02*
X237960000Y-78430000D01*
X238360000Y-77880000D02*
X237960000Y-77880000D01*
%TO.C,SW2*%
D12*
X322150000Y-41000000D02*
X322150000Y-41300000D01*
X322150000Y-43800000D02*
X322150000Y-43500000D01*
X325450000Y-41000000D02*
X322150000Y-41000000D01*
X325450000Y-41300000D02*
X325450000Y-41000000D01*
X325450000Y-43500000D02*
X325450000Y-43800000D01*
X325450000Y-43800000D02*
X322150000Y-43800000D01*
%TO.C,R64*%
X83055864Y-118245000D02*
X82601736Y-118245000D01*
X83055864Y-119715000D02*
X82601736Y-119715000D01*
%TO.C,D57*%
D11*
X218310000Y-77480000D02*
X218310000Y-78280000D01*
X218310000Y-77880000D02*
X217810000Y-77880000D01*
X218310000Y-78280000D02*
X218910000Y-77880000D01*
X218910000Y-77880000D02*
X218310000Y-77480000D01*
X218910000Y-77880000D02*
X218910000Y-77330000D01*
X218910000Y-77880000D02*
X218910000Y-78430000D01*
X219310000Y-77880000D02*
X218910000Y-77880000D01*
%TO.C,J1*%
D12*
X265737500Y-23355000D02*
X266347500Y-23355000D01*
X265737500Y-24655000D02*
X266347500Y-24655000D01*
X266347500Y-22655000D02*
X268297500Y-22655000D01*
X266347500Y-26155000D02*
X266347500Y-22655000D01*
X268297500Y-22655000D02*
X268297500Y-22045000D01*
X268697500Y-25655000D02*
X268697500Y-26155000D01*
X268797500Y-26155000D02*
X268797500Y-25655000D01*
X268897500Y-25655000D02*
X268697500Y-25655000D01*
X268897500Y-26155000D02*
X268897500Y-25655000D01*
X269297500Y-22045000D02*
X269297500Y-22655000D01*
X269297500Y-22655000D02*
X271247500Y-22655000D01*
X270097500Y-21845000D02*
X270397500Y-21845000D01*
X270097500Y-21945000D02*
X270397500Y-21945000D01*
X270097500Y-22045000D02*
X270097500Y-21845000D01*
X270397500Y-21845000D02*
X270397500Y-22045000D01*
X270907500Y-21745000D02*
X272157500Y-21745000D01*
X271247500Y-22655000D02*
X271247500Y-26155000D01*
X271247500Y-26155000D02*
X266347500Y-26155000D01*
X271857500Y-23355000D02*
X271247500Y-23355000D01*
X271857500Y-24655000D02*
X271247500Y-24655000D01*
X272157500Y-21745000D02*
X272157500Y-22995000D01*
X265737500Y-22045000D02*
X271857500Y-22045000D01*
X271857500Y-26765000D01*
X265737500Y-26765000D01*
X265737500Y-22045000D01*
%TO.C,R21*%
X80674564Y-61095000D02*
X80220436Y-61095000D01*
X80674564Y-62565000D02*
X80220436Y-62565000D01*
%TO.C,D65*%
D11*
X297947500Y-44955000D02*
X297947500Y-45755000D01*
X297947500Y-45355000D02*
X297447500Y-45355000D01*
X297947500Y-45755000D02*
X298547500Y-45355000D01*
X298547500Y-45355000D02*
X297947500Y-44955000D01*
X298547500Y-45355000D02*
X298547500Y-44805000D01*
X298547500Y-45355000D02*
X298547500Y-45905000D01*
X298947500Y-45355000D02*
X298547500Y-45355000D01*
%TO.C,D24*%
X270697500Y-58430000D02*
X270697500Y-59230000D01*
X270697500Y-58830000D02*
X270197500Y-58830000D01*
X270697500Y-59230000D02*
X271297500Y-58830000D01*
X271297500Y-58830000D02*
X270697500Y-58430000D01*
X271297500Y-58830000D02*
X271297500Y-58280000D01*
X271297500Y-58830000D02*
X271297500Y-59380000D01*
X271697500Y-58830000D02*
X271297500Y-58830000D01*
%TO.C,R38*%
D12*
X123537064Y-80145000D02*
X123082936Y-80145000D01*
X123537064Y-81615000D02*
X123082936Y-81615000D01*
%TO.C,D1*%
D11*
X32572500Y-39380000D02*
X32572500Y-40180000D01*
X32572500Y-39780000D02*
X32072500Y-39780000D01*
X32572500Y-40180000D02*
X33172500Y-39780000D01*
X33172500Y-39780000D02*
X32572500Y-39380000D01*
X33172500Y-39780000D02*
X33172500Y-39230000D01*
X33172500Y-39780000D02*
X33172500Y-40330000D01*
X33572500Y-39780000D02*
X33172500Y-39780000D01*
%TO.C,R31*%
D12*
X271174564Y-61095000D02*
X270720436Y-61095000D01*
X271174564Y-62565000D02*
X270720436Y-62565000D01*
%TO.C,D64*%
D11*
X246885000Y-96530000D02*
X246885000Y-97330000D01*
X246885000Y-96930000D02*
X246385000Y-96930000D01*
X246885000Y-97330000D02*
X247485000Y-96930000D01*
X247485000Y-96930000D02*
X246885000Y-96530000D01*
X247485000Y-96930000D02*
X247485000Y-96380000D01*
X247485000Y-96930000D02*
X247485000Y-97480000D01*
X247885000Y-96930000D02*
X247485000Y-96930000D01*
%TO.C,D30*%
X294510000Y-58430000D02*
X294510000Y-59230000D01*
X294510000Y-58830000D02*
X294010000Y-58830000D01*
X294510000Y-59230000D02*
X295110000Y-58830000D01*
X295110000Y-58830000D02*
X294510000Y-58430000D01*
X295110000Y-58830000D02*
X295110000Y-58280000D01*
X295110000Y-58830000D02*
X295110000Y-59380000D01*
X295510000Y-58830000D02*
X295110000Y-58830000D01*
%TO.C,R40*%
D12*
X161637064Y-80145000D02*
X161182936Y-80145000D01*
X161637064Y-81615000D02*
X161182936Y-81615000D01*
%TO.C,D61*%
D11*
X223072500Y-39380000D02*
X223072500Y-40180000D01*
X223072500Y-39780000D02*
X222572500Y-39780000D01*
X223072500Y-40180000D02*
X223672500Y-39780000D01*
X223672500Y-39780000D02*
X223072500Y-39380000D01*
X223672500Y-39780000D02*
X223672500Y-39230000D01*
X223672500Y-39780000D02*
X223672500Y-40330000D01*
X224072500Y-39780000D02*
X223672500Y-39780000D01*
%TO.C,D50*%
X194497500Y-58430000D02*
X194497500Y-59230000D01*
X194497500Y-58830000D02*
X193997500Y-58830000D01*
X194497500Y-59230000D02*
X195097500Y-58830000D01*
X195097500Y-58830000D02*
X194497500Y-58430000D01*
X195097500Y-58830000D02*
X195097500Y-58280000D01*
X195097500Y-58830000D02*
X195097500Y-59380000D01*
X195497500Y-58830000D02*
X195097500Y-58830000D01*
%TO.C,R3*%
D12*
X288414564Y-20165000D02*
X287960436Y-20165000D01*
X288414564Y-21635000D02*
X287960436Y-21635000D01*
%TO.C,D54*%
D11*
X299272500Y-96530000D02*
X299272500Y-97330000D01*
X299272500Y-96930000D02*
X298772500Y-96930000D01*
X299272500Y-97330000D02*
X299872500Y-96930000D01*
X299872500Y-96930000D02*
X299272500Y-96530000D01*
X299872500Y-96930000D02*
X299872500Y-96380000D01*
X299872500Y-96930000D02*
X299872500Y-97480000D01*
X300272500Y-96930000D02*
X299872500Y-96930000D01*
%TO.C,R8*%
D12*
X109249564Y-42045000D02*
X108795436Y-42045000D01*
X109249564Y-43515000D02*
X108795436Y-43515000D01*
%TO.C,R5*%
X52099564Y-42045000D02*
X51645436Y-42045000D01*
X52099564Y-43515000D02*
X51645436Y-43515000D01*
%TO.C,R32*%
X294987064Y-61095000D02*
X294532936Y-61095000D01*
X294987064Y-62565000D02*
X294532936Y-62565000D01*
%TO.C,D6*%
D11*
X261172500Y-39380000D02*
X261172500Y-40180000D01*
X261172500Y-39780000D02*
X260672500Y-39780000D01*
X261172500Y-40180000D02*
X261772500Y-39780000D01*
X261772500Y-39780000D02*
X261172500Y-39380000D01*
X261772500Y-39780000D02*
X261772500Y-39230000D01*
X261772500Y-39780000D02*
X261772500Y-40330000D01*
X262172500Y-39780000D02*
X261772500Y-39780000D01*
%TO.C,D69*%
X256410000Y-77480000D02*
X256410000Y-78280000D01*
X256410000Y-77880000D02*
X255910000Y-77880000D01*
X256410000Y-78280000D02*
X257010000Y-77880000D01*
X257010000Y-77880000D02*
X256410000Y-77480000D01*
X257010000Y-77880000D02*
X257010000Y-77330000D01*
X257010000Y-77880000D02*
X257010000Y-78430000D01*
X257410000Y-77880000D02*
X257010000Y-77880000D01*
%TO.C,R61*%
D12*
X318799564Y-99195000D02*
X318345436Y-99195000D01*
X318799564Y-100665000D02*
X318345436Y-100665000D01*
%TO.C,R30*%
X252124564Y-61095000D02*
X251670436Y-61095000D01*
X252124564Y-62565000D02*
X251670436Y-62565000D01*
%TO.C,R58*%
X247362064Y-99195000D02*
X246907936Y-99195000D01*
X247362064Y-100665000D02*
X246907936Y-100665000D01*
%TO.C,D43*%
D11*
X165922500Y-39380000D02*
X165922500Y-40180000D01*
X165922500Y-39780000D02*
X165422500Y-39780000D01*
X165922500Y-40180000D02*
X166522500Y-39780000D01*
X166522500Y-39780000D02*
X165922500Y-39380000D01*
X166522500Y-39780000D02*
X166522500Y-39230000D01*
X166522500Y-39780000D02*
X166522500Y-40330000D01*
X166922500Y-39780000D02*
X166522500Y-39780000D01*
%TO.C,R11*%
D12*
X166399564Y-42045000D02*
X165945436Y-42045000D01*
X166399564Y-43515000D02*
X165945436Y-43515000D01*
%TO.C,R56*%
X209262064Y-99195000D02*
X208807936Y-99195000D01*
X209262064Y-100665000D02*
X208807936Y-100665000D01*
%TO.C,R27*%
X194974564Y-61095000D02*
X194520436Y-61095000D01*
X194974564Y-62565000D02*
X194520436Y-62565000D01*
%TO.C,R1*%
X288414564Y-5165000D02*
X287960436Y-5165000D01*
X288414564Y-6635000D02*
X287960436Y-6635000D01*
%TO.C,D19*%
D11*
X89722500Y-39380000D02*
X89722500Y-40180000D01*
X89722500Y-39780000D02*
X89222500Y-39780000D01*
X89722500Y-40180000D02*
X90322500Y-39780000D01*
X90322500Y-39780000D02*
X89722500Y-39380000D01*
X90322500Y-39780000D02*
X90322500Y-39230000D01*
X90322500Y-39780000D02*
X90322500Y-40330000D01*
X90722500Y-39780000D02*
X90322500Y-39780000D01*
%TO.C,R18*%
D12*
X318664564Y-44520000D02*
X318210436Y-44520000D01*
X318664564Y-45990000D02*
X318210436Y-45990000D01*
%TO.C,R7*%
X90199564Y-42045000D02*
X89745436Y-42045000D01*
X90199564Y-43515000D02*
X89745436Y-43515000D01*
%TO.C,R53*%
X152112064Y-99195000D02*
X151657936Y-99195000D01*
X152112064Y-100665000D02*
X151657936Y-100665000D01*
%TO.C,R15*%
X242599564Y-42045000D02*
X242145436Y-42045000D01*
X242599564Y-43515000D02*
X242145436Y-43515000D01*
%TO.C,D29*%
D11*
X223072500Y-115580000D02*
X223072500Y-116380000D01*
X223072500Y-115980000D02*
X222572500Y-115980000D01*
X223072500Y-116380000D02*
X223672500Y-115980000D01*
X223672500Y-115980000D02*
X223072500Y-115580000D01*
X223672500Y-115980000D02*
X223672500Y-115430000D01*
X223672500Y-115980000D02*
X223672500Y-116530000D01*
X224072500Y-115980000D02*
X223672500Y-115980000D01*
%TO.C,D53*%
X299272500Y-115580000D02*
X299272500Y-116380000D01*
X299272500Y-115980000D02*
X298772500Y-115980000D01*
X299272500Y-116380000D02*
X299872500Y-115980000D01*
X299872500Y-115980000D02*
X299272500Y-115580000D01*
X299872500Y-115980000D02*
X299872500Y-115430000D01*
X299872500Y-115980000D02*
X299872500Y-116530000D01*
X300272500Y-115980000D02*
X299872500Y-115980000D01*
%TD*%
M02*
