M48
; DRILL file KiCad 10.0.1 date 2026-06-16T22:37:34
; FORMAT={-:-/ absolute / metric / decimal}
; #@! TF.CreationDate,2026-06-16T22:37:34+05:30
; #@! TF.GenerationSoftware,Kicad,Pcbnew,10.0.1
; #@! TF.FileFunction,NonPlated,1,2,NPTH
FMAT,2
METRIC
; #@! TA.AperFunction,NonPlated,NPTH,ComponentDrill
T1C1.750
; #@! TA.AperFunction,NonPlated,NPTH,ComponentDrill
T2C2.200
; #@! TA.AperFunction,NonPlated,NPTH,ComponentDrill
T3C4.000
%
G90
G05
T1
X23.742Y-37.78
X26.124Y-113.98
X28.505Y-56.83
X30.886Y-75.88
X33.902Y-37.78
X35.649Y-94.93
X36.284Y-113.98
X38.665Y-56.83
X41.046Y-75.88
X42.792Y-37.78
X45.809Y-94.93
X49.936Y-113.98
X52.317Y-56.83
X52.953Y-37.78
X57.08Y-75.88
X60.096Y-113.98
X61.842Y-37.78
X62.477Y-56.83
X66.605Y-94.93
X67.24Y-75.88
X71.367Y-56.83
X72.002Y-37.78
X73.749Y-113.98
X76.13Y-75.88
X76.765Y-94.93
X80.892Y-37.78
X81.528Y-56.83
X83.909Y-113.98
X85.655Y-94.93
X86.29Y-75.88
X90.417Y-56.83
X91.052Y-37.78
X95.18Y-75.88
X95.815Y-94.93
X99.942Y-37.78
X100.578Y-56.83
X104.705Y-94.93
X105.34Y-75.88
X109.468Y-56.83
X110.102Y-37.78
X114.23Y-75.88
X114.865Y-94.93
X118.992Y-37.78
X119.627Y-56.83
X123.755Y-94.93
X124.39Y-75.88
X128.517Y-56.83
X129.153Y-37.78
X133.28Y-75.88
X133.915Y-94.93
X138.042Y-37.78
X138.677Y-56.83
X142.805Y-94.93
X143.44Y-75.88
X145.186Y-113.98
X147.567Y-56.83
X148.202Y-37.78
X152.33Y-75.88
X152.965Y-94.93
X155.346Y-113.98
X157.093Y-37.78
X157.727Y-56.83
X161.855Y-94.93
X162.49Y-75.88
X166.617Y-56.83
X167.252Y-37.78
X171.38Y-75.88
X172.015Y-94.93
X176.142Y-37.78
X176.778Y-56.83
X180.905Y-94.93
X181.54Y-75.88
X185.667Y-56.83
X186.302Y-37.78
X190.43Y-75.88
X191.065Y-94.93
X195.192Y-37.78
X195.827Y-56.83
X199.955Y-94.93
X200.59Y-75.88
X204.718Y-56.83
X205.352Y-37.78
X209.48Y-75.88
X210.115Y-94.93
X214.242Y-37.78
X214.242Y-113.98
X214.877Y-56.83
X219.005Y-94.93
X219.64Y-75.88
X223.767Y-56.83
X224.403Y-37.78
X224.403Y-113.98
X228.53Y-75.88
X229.165Y-94.93
X233.292Y-37.78
X233.292Y-113.98
X233.927Y-56.83
X238.055Y-94.93
X238.69Y-75.88
X242.817Y-56.83
X243.452Y-37.78
X243.452Y-113.98
X247.58Y-75.88
X248.215Y-94.93
X252.343Y-37.78
X252.343Y-113.98
X252.977Y-56.83
X257.74Y-75.88
X261.868Y-56.83
X262.502Y-37.78
X262.502Y-113.98
X264.249Y-94.93
X271.392Y-113.98
X272.027Y-56.83
X274.409Y-94.93
X278.536Y-75.88
X280.917Y-37.78
X281.553Y-113.98
X285.68Y-56.83
X288.696Y-75.88
X290.442Y-94.93
X290.442Y-113.98
X291.077Y-37.78
X295.84Y-56.83
X300.602Y-94.93
X300.602Y-113.98
X309.493Y-56.83
X309.493Y-75.88
X309.493Y-94.93
X309.493Y-113.98
X319.652Y-56.83
X319.652Y-75.88
X319.652Y-94.93
X319.652Y-113.98
T2
X159.096Y-2.2
X159.096Y-25.2
X180.1Y-2.2
X180.1Y-25.2
T3
X28.822Y-37.78
X31.204Y-113.98
X33.585Y-56.83
X35.966Y-75.88
X40.729Y-94.93
X47.872Y-37.78
X55.016Y-113.98
X57.398Y-56.83
X62.16Y-75.88
X66.922Y-37.78
X71.685Y-94.93
X76.447Y-56.83
X78.829Y-113.98
X81.21Y-75.88
X85.972Y-37.78
X90.735Y-94.93
X95.498Y-56.83
X100.26Y-75.88
X105.022Y-37.78
X109.785Y-94.93
X114.547Y-56.83
X119.31Y-75.88
X124.072Y-37.78
X128.835Y-94.93
X133.597Y-56.83
X138.36Y-75.88
X143.123Y-37.78
X147.885Y-94.93
X150.266Y-113.98
X152.647Y-56.83
X157.41Y-75.88
X162.172Y-37.78
X166.935Y-94.93
X171.697Y-56.83
X176.46Y-75.88
X181.222Y-37.78
X185.985Y-94.93
X190.748Y-56.83
X195.51Y-75.88
X200.272Y-37.78
X205.035Y-94.93
X209.797Y-56.83
X214.56Y-75.88
X219.322Y-37.78
X219.322Y-113.98
X224.085Y-94.93
X228.847Y-56.83
X233.61Y-75.88
X238.373Y-37.78
X238.373Y-113.98
X243.135Y-94.93
X247.897Y-56.83
X252.66Y-75.88
X257.423Y-37.78
X257.423Y-113.98
X266.947Y-56.83
X269.329Y-94.93
X276.472Y-113.98
X283.616Y-75.88
X285.998Y-37.78
X290.76Y-56.83
X295.522Y-94.93
X295.522Y-113.98
X314.572Y-56.83
X314.572Y-75.88
X314.572Y-94.93
X314.572Y-113.98
M30
