%TF.GenerationSoftware,KiCad,Pcbnew,10.0.1*%
%TF.CreationDate,2026-06-16T22:36:38+05:30*%
%TF.ProjectId,Keyboard,4b657962-6f61-4726-942e-6b696361645f,rev?*%
%TF.SameCoordinates,Original*%
%TF.FileFunction,Soldermask,Top*%
%TF.FilePolarity,Negative*%
%FSLAX46Y46*%
G04 Gerber Fmt 4.6, Leading zero omitted, Abs format (unit mm)*
G04 Created by KiCad (PCBNEW 10.0.1) date 2026-06-16 22:36:38*
%MOMM*%
%LPD*%
G01*
G04 APERTURE LIST*
G04 Aperture macros list*
%AMRoundRect*
0 Rectangle with rounded corners*
0 $1 Rounding radius*
0 $2 $3 $4 $5 $6 $7 $8 $9 X,Y pos of 4 corners*
0 Add a 4 corners polygon primitive as box body*
4,1,4,$2,$3,$4,$5,$6,$7,$8,$9,$2,$3,0*
0 Add four circle primitives for the rounded corners*
1,1,$1+$1,$2,$3*
1,1,$1+$1,$4,$5*
1,1,$1+$1,$6,$7*
1,1,$1+$1,$8,$9*
0 Add four rect primitives between the rounded corners*
20,1,$1+$1,$2,$3,$4,$5,0*
20,1,$1+$1,$4,$5,$6,$7,0*
20,1,$1+$1,$6,$7,$8,$9,0*
20,1,$1+$1,$8,$9,$2,$3,0*%
G04 Aperture macros list end*
%ADD10C,1.750000*%
%ADD11C,4.000000*%
%ADD12C,2.500000*%
%ADD13R,1.800000X1.800000*%
%ADD14C,1.800000*%
%ADD15R,2.000000X2.000000*%
%ADD16C,2.000000*%
%ADD17C,2.800000*%
%ADD18C,2.404000*%
%ADD19RoundRect,0.102000X0.754000X0.754000X-0.754000X0.754000X-0.754000X-0.754000X0.754000X-0.754000X0*%
%ADD20C,1.712000*%
%ADD21RoundRect,0.250000X-0.550000X0.550000X-0.550000X-0.550000X0.550000X-0.550000X0.550000X0.550000X0*%
%ADD22C,1.600000*%
%ADD23C,1.752600*%
%ADD24RoundRect,0.250000X0.350000X0.625000X-0.350000X0.625000X-0.350000X-0.625000X0.350000X-0.625000X0*%
%ADD25O,1.200000X1.750000*%
G04 APERTURE END LIST*
D10*
%TO.C,S53*%
X290442500Y-113980000D03*
D11*
X295522500Y-113980000D03*
D10*
X300602500Y-113980000D03*
D12*
X291712500Y-111440000D03*
X298062500Y-108900000D03*
%TD*%
D13*
%TO.C,D99*%
X34668800Y-81125000D03*
D14*
X37208800Y-81125000D03*
%TD*%
D10*
%TO.C,S41*%
X252342500Y-113980000D03*
D11*
X257422500Y-113980000D03*
D10*
X262502500Y-113980000D03*
D12*
X253612500Y-111440000D03*
X259962500Y-108900000D03*
%TD*%
D10*
%TO.C,S2*%
X28505000Y-56830000D03*
D11*
X33585000Y-56830000D03*
D10*
X38665000Y-56830000D03*
D12*
X29775000Y-54290000D03*
X36125000Y-51750000D03*
%TD*%
D10*
%TO.C,S37*%
X138042500Y-37780000D03*
D11*
X143122500Y-37780000D03*
D10*
X148202500Y-37780000D03*
D12*
X139312500Y-35240000D03*
X145662500Y-32700000D03*
%TD*%
D13*
%TO.C,D128*%
X53718800Y-119225000D03*
D14*
X56258800Y-119225000D03*
%TD*%
D13*
%TO.C,D97*%
X289462500Y-62075000D03*
D14*
X292002500Y-62075000D03*
%TD*%
D10*
%TO.C,S36*%
X309492500Y-56830000D03*
D11*
X314572500Y-56830000D03*
D10*
X319652500Y-56830000D03*
D12*
X310762500Y-54290000D03*
X317112500Y-51750000D03*
%TD*%
D13*
%TO.C,D114*%
X70387500Y-100175000D03*
D14*
X72927500Y-100175000D03*
%TD*%
D13*
%TO.C,D94*%
X227550000Y-62075000D03*
D14*
X230090000Y-62075000D03*
%TD*%
D13*
%TO.C,D126*%
X313275000Y-100175000D03*
D14*
X315815000Y-100175000D03*
%TD*%
D10*
%TO.C,S20*%
X90417500Y-56830000D03*
D11*
X95497500Y-56830000D03*
D10*
X100577500Y-56830000D03*
D12*
X91687500Y-54290000D03*
X98037500Y-51750000D03*
%TD*%
D10*
%TO.C,S25*%
X99942500Y-37780000D03*
D11*
X105022500Y-37780000D03*
D10*
X110102500Y-37780000D03*
D12*
X101212500Y-35240000D03*
X107562500Y-32700000D03*
%TD*%
D13*
%TO.C,D101*%
X79912500Y-81125000D03*
D14*
X82452500Y-81125000D03*
%TD*%
D10*
%TO.C,S32*%
X128517500Y-56830000D03*
D11*
X133597500Y-56830000D03*
D10*
X138677500Y-56830000D03*
D12*
X129787500Y-54290000D03*
X136137500Y-51750000D03*
%TD*%
D10*
%TO.C,S6*%
X252342500Y-37780000D03*
D11*
X257422500Y-37780000D03*
D10*
X262502500Y-37780000D03*
D12*
X253612500Y-35240000D03*
X259962500Y-32700000D03*
%TD*%
D10*
%TO.C,S9*%
X57080000Y-75880000D03*
D11*
X62160000Y-75880000D03*
D10*
X67240000Y-75880000D03*
D12*
X58350000Y-73340000D03*
X64700000Y-70800000D03*
%TD*%
D13*
%TO.C,D136*%
X313275000Y-119225000D03*
D14*
X315815000Y-119225000D03*
%TD*%
D13*
%TO.C,D66*%
X46575000Y-43025000D03*
D14*
X49115000Y-43025000D03*
%TD*%
D13*
%TO.C,D109*%
X232312500Y-81125000D03*
D14*
X234852500Y-81125000D03*
%TD*%
D10*
%TO.C,S31*%
X118992500Y-37780000D03*
D11*
X124072500Y-37780000D03*
D10*
X129152500Y-37780000D03*
D12*
X120262500Y-35240000D03*
X126612500Y-32700000D03*
%TD*%
D13*
%TO.C,D78*%
X198975000Y-43025000D03*
D14*
X201515000Y-43025000D03*
%TD*%
D13*
%TO.C,D81*%
X256125000Y-43025000D03*
D14*
X258665000Y-43025000D03*
%TD*%
D13*
%TO.C,D96*%
X265650000Y-62075000D03*
D14*
X268190000Y-62075000D03*
%TD*%
D10*
%TO.C,S64*%
X238055000Y-94930000D03*
D11*
X243135000Y-94930000D03*
D10*
X248215000Y-94930000D03*
D12*
X239325000Y-92390000D03*
X245675000Y-89850000D03*
%TD*%
D13*
%TO.C,D113*%
X39431300Y-100175000D03*
D14*
X41971300Y-100175000D03*
%TD*%
D10*
%TO.C,S13*%
X61842500Y-37780000D03*
D11*
X66922500Y-37780000D03*
D10*
X72002500Y-37780000D03*
D12*
X63112500Y-35240000D03*
X69462500Y-32700000D03*
%TD*%
D13*
%TO.C,D100*%
X60862500Y-81125000D03*
D14*
X63402500Y-81125000D03*
%TD*%
D10*
%TO.C,S10*%
X66605000Y-94930000D03*
D11*
X71685000Y-94930000D03*
D10*
X76765000Y-94930000D03*
D12*
X67875000Y-92390000D03*
X74225000Y-89850000D03*
%TD*%
D10*
%TO.C,S5*%
X26123800Y-113980000D03*
D11*
X31203800Y-113980000D03*
D10*
X36283800Y-113980000D03*
D12*
X27393800Y-111440000D03*
X33743800Y-108900000D03*
%TD*%
D10*
%TO.C,S70*%
X264248800Y-94930000D03*
D11*
X269328800Y-94930000D03*
D10*
X274408800Y-94930000D03*
D12*
X265518800Y-92390000D03*
X271868800Y-89850000D03*
%TD*%
D13*
%TO.C,D116*%
X108487500Y-100175000D03*
D14*
X111027500Y-100175000D03*
%TD*%
D13*
%TO.C,D84*%
X32287500Y-62075000D03*
D14*
X34827500Y-62075000D03*
%TD*%
D13*
%TO.C,D89*%
X132300000Y-62075000D03*
D14*
X134840000Y-62075000D03*
%TD*%
D13*
%TO.C,D108*%
X213262500Y-81125000D03*
D14*
X215802500Y-81125000D03*
%TD*%
D10*
%TO.C,S44*%
X166617500Y-56830000D03*
D11*
X171697500Y-56830000D03*
D10*
X176777500Y-56830000D03*
D12*
X167887500Y-54290000D03*
X174237500Y-51750000D03*
%TD*%
D10*
%TO.C,S12*%
X280917500Y-37780000D03*
D11*
X285997500Y-37780000D03*
D10*
X291077500Y-37780000D03*
D12*
X282187500Y-35240000D03*
X288537500Y-32700000D03*
%TD*%
D10*
%TO.C,S19*%
X80892500Y-37780000D03*
D11*
X85972500Y-37780000D03*
D10*
X91052500Y-37780000D03*
D12*
X82162500Y-35240000D03*
X88512500Y-32700000D03*
%TD*%
D10*
%TO.C,S58*%
X219005000Y-94930000D03*
D11*
X224085000Y-94930000D03*
D10*
X229165000Y-94930000D03*
D12*
X220275000Y-92390000D03*
X226625000Y-89850000D03*
%TD*%
D10*
%TO.C,S11*%
X49936300Y-113980000D03*
D11*
X55016300Y-113980000D03*
D10*
X60096300Y-113980000D03*
D12*
X51206300Y-111440000D03*
X57556300Y-108900000D03*
%TD*%
D13*
%TO.C,D123*%
X241837500Y-100175000D03*
D14*
X244377500Y-100175000D03*
%TD*%
D10*
%TO.C,S54*%
X290442500Y-94930000D03*
D11*
X295522500Y-94930000D03*
D10*
X300602500Y-94930000D03*
D12*
X291712500Y-92390000D03*
X298062500Y-89850000D03*
%TD*%
D10*
%TO.C,S23*%
X145186300Y-113980000D03*
D11*
X150266300Y-113980000D03*
D10*
X155346300Y-113980000D03*
D12*
X146456300Y-111440000D03*
X152806300Y-108900000D03*
%TD*%
D13*
%TO.C,D117*%
X127537500Y-100175000D03*
D14*
X130077500Y-100175000D03*
%TD*%
D10*
%TO.C,S39*%
X152330000Y-75880000D03*
D11*
X157410000Y-75880000D03*
D10*
X162490000Y-75880000D03*
D12*
X153600000Y-73340000D03*
X159950000Y-70800000D03*
%TD*%
D10*
%TO.C,S30*%
X285680000Y-56830000D03*
D11*
X290760000Y-56830000D03*
D10*
X295840000Y-56830000D03*
D12*
X286950000Y-54290000D03*
X293300000Y-51750000D03*
%TD*%
D10*
%TO.C,S68*%
X242817500Y-56830000D03*
D11*
X247897500Y-56830000D03*
D10*
X252977500Y-56830000D03*
D12*
X244087500Y-54290000D03*
X250437500Y-51750000D03*
%TD*%
D13*
%TO.C,D82*%
X284700000Y-43025000D03*
D14*
X287240000Y-43025000D03*
%TD*%
D13*
%TO.C,D124*%
X268031300Y-100175000D03*
D14*
X270571300Y-100175000D03*
%TD*%
D13*
%TO.C,D127*%
X29906300Y-119225000D03*
D14*
X32446300Y-119225000D03*
%TD*%
D13*
%TO.C,D92*%
X189450000Y-62075000D03*
D14*
X191990000Y-62075000D03*
%TD*%
D13*
%TO.C,D111*%
X282318800Y-81125000D03*
D14*
X284858800Y-81125000D03*
%TD*%
D13*
%TO.C,D98*%
X313275000Y-62075000D03*
D14*
X315815000Y-62075000D03*
%TD*%
D13*
%TO.C,D76*%
X160875000Y-43025000D03*
D14*
X163415000Y-43025000D03*
%TD*%
D10*
%TO.C,S24*%
X261867500Y-56830000D03*
D11*
X266947500Y-56830000D03*
D10*
X272027500Y-56830000D03*
D12*
X263137500Y-54290000D03*
X269487500Y-51750000D03*
%TD*%
D13*
%TO.C,D135*%
X294225000Y-119225000D03*
D14*
X296765000Y-119225000D03*
%TD*%
D10*
%TO.C,S14*%
X71367500Y-56830000D03*
D11*
X76447500Y-56830000D03*
D10*
X81527500Y-56830000D03*
D12*
X72637500Y-54290000D03*
X78987500Y-51750000D03*
%TD*%
D13*
%TO.C,D73*%
X103725000Y-43025000D03*
D14*
X106265000Y-43025000D03*
%TD*%
D10*
%TO.C,S57*%
X209480000Y-75880000D03*
D11*
X214560000Y-75880000D03*
D10*
X219640000Y-75880000D03*
D12*
X210750000Y-73340000D03*
X217100000Y-70800000D03*
%TD*%
D13*
%TO.C,D118*%
X146587500Y-100175000D03*
D14*
X149127500Y-100175000D03*
%TD*%
D10*
%TO.C,S49*%
X176142500Y-37780000D03*
D11*
X181222500Y-37780000D03*
D10*
X186302500Y-37780000D03*
D12*
X177412500Y-35240000D03*
X183762500Y-32700000D03*
%TD*%
D13*
%TO.C,D90*%
X151350000Y-62075000D03*
D14*
X153890000Y-62075000D03*
%TD*%
D13*
%TO.C,D104*%
X137062500Y-81125000D03*
D14*
X139602500Y-81125000D03*
%TD*%
D13*
%TO.C,D129*%
X77531300Y-119225000D03*
D14*
X80071300Y-119225000D03*
%TD*%
D13*
%TO.C,D85*%
X56100000Y-62075000D03*
D14*
X58640000Y-62075000D03*
%TD*%
D13*
%TO.C,D79*%
X218025000Y-43025000D03*
D14*
X220565000Y-43025000D03*
%TD*%
D13*
%TO.C,D88*%
X113250000Y-62075000D03*
D14*
X115790000Y-62075000D03*
%TD*%
D10*
%TO.C,S26*%
X109467500Y-56830000D03*
D11*
X114547500Y-56830000D03*
D10*
X119627500Y-56830000D03*
D12*
X110737500Y-54290000D03*
X117087500Y-51750000D03*
%TD*%
D13*
%TO.C,D106*%
X175162500Y-81125000D03*
D14*
X177702500Y-81125000D03*
%TD*%
D13*
%TO.C,D112*%
X313275000Y-81125000D03*
D14*
X315815000Y-81125000D03*
%TD*%
D10*
%TO.C,S35*%
X233292500Y-113980000D03*
D11*
X238372500Y-113980000D03*
D10*
X243452500Y-113980000D03*
D12*
X234562500Y-111440000D03*
X240912500Y-108900000D03*
%TD*%
D10*
%TO.C,S51*%
X190430000Y-75880000D03*
D11*
X195510000Y-75880000D03*
D10*
X200590000Y-75880000D03*
D12*
X191700000Y-73340000D03*
X198050000Y-70800000D03*
%TD*%
D10*
%TO.C,S15*%
X76130000Y-75880000D03*
D11*
X81210000Y-75880000D03*
D10*
X86290000Y-75880000D03*
D12*
X77400000Y-73340000D03*
X83750000Y-70800000D03*
%TD*%
D10*
%TO.C,S50*%
X185667500Y-56830000D03*
D11*
X190747500Y-56830000D03*
D10*
X195827500Y-56830000D03*
D12*
X186937500Y-54290000D03*
X193287500Y-51750000D03*
%TD*%
D13*
%TO.C,D93*%
X208500000Y-62075000D03*
D14*
X211040000Y-62075000D03*
%TD*%
D13*
%TO.C,D102*%
X98962500Y-81125000D03*
D14*
X101502500Y-81125000D03*
%TD*%
D13*
%TO.C,D86*%
X75150000Y-62075000D03*
D14*
X77690000Y-62075000D03*
%TD*%
D13*
%TO.C,D131*%
X218025000Y-119225000D03*
D14*
X220565000Y-119225000D03*
%TD*%
D13*
%TO.C,D74*%
X122775000Y-43025000D03*
D14*
X125315000Y-43025000D03*
%TD*%
D13*
%TO.C,D119*%
X165637500Y-100175000D03*
D14*
X168177500Y-100175000D03*
%TD*%
D13*
%TO.C,D80*%
X237075000Y-43025000D03*
D14*
X239615000Y-43025000D03*
%TD*%
D13*
%TO.C,D125*%
X294225000Y-100175000D03*
D14*
X296765000Y-100175000D03*
%TD*%
D13*
%TO.C,D107*%
X194212500Y-81125000D03*
D14*
X196752500Y-81125000D03*
%TD*%
D10*
%TO.C,S34*%
X142805000Y-94930000D03*
D11*
X147885000Y-94930000D03*
D10*
X152965000Y-94930000D03*
D12*
X144075000Y-92390000D03*
X150425000Y-89850000D03*
%TD*%
D13*
%TO.C,D103*%
X118012500Y-81125000D03*
D14*
X120552500Y-81125000D03*
%TD*%
D13*
%TO.C,D120*%
X184687500Y-100175000D03*
D14*
X187227500Y-100175000D03*
%TD*%
D13*
%TO.C,D91*%
X170400000Y-62075000D03*
D14*
X172940000Y-62075000D03*
%TD*%
D10*
%TO.C,S16*%
X85655000Y-94930000D03*
D11*
X90735000Y-94930000D03*
D10*
X95815000Y-94930000D03*
D12*
X86925000Y-92390000D03*
X93275000Y-89850000D03*
%TD*%
D10*
%TO.C,S52*%
X199955000Y-94930000D03*
D11*
X205035000Y-94930000D03*
D10*
X210115000Y-94930000D03*
D12*
X201225000Y-92390000D03*
X207575000Y-89850000D03*
%TD*%
D13*
%TO.C,D18*%
X27525000Y-43025000D03*
D14*
X30065000Y-43025000D03*
%TD*%
D15*
%TO.C,SW1*%
X19850000Y-11700000D03*
D16*
X19850000Y-16700000D03*
X19850000Y-14200000D03*
D17*
X27350000Y-8600000D03*
X27350000Y-19800000D03*
D16*
X34350000Y-11700000D03*
X34350000Y-16700000D03*
%TD*%
D13*
%TO.C,D72*%
X84675000Y-43025000D03*
D14*
X87215000Y-43025000D03*
%TD*%
D10*
%TO.C,S60*%
X309492500Y-94930000D03*
D11*
X314572500Y-94930000D03*
D10*
X319652500Y-94930000D03*
D12*
X310762500Y-92390000D03*
X317112500Y-89850000D03*
%TD*%
D13*
%TO.C,D132*%
X237075000Y-119225000D03*
D14*
X239615000Y-119225000D03*
%TD*%
D13*
%TO.C,D122*%
X222787500Y-100175000D03*
D14*
X225327500Y-100175000D03*
%TD*%
D10*
%TO.C,S8*%
X52317500Y-56830000D03*
D11*
X57397500Y-56830000D03*
D10*
X62477500Y-56830000D03*
D12*
X53587500Y-54290000D03*
X59937500Y-51750000D03*
%TD*%
D13*
%TO.C,D133*%
X256125000Y-119225000D03*
D14*
X258665000Y-119225000D03*
%TD*%
D10*
%TO.C,S40*%
X161855000Y-94930000D03*
D11*
X166935000Y-94930000D03*
D10*
X172015000Y-94930000D03*
D12*
X163125000Y-92390000D03*
X169475000Y-89850000D03*
%TD*%
D13*
%TO.C,D87*%
X94200000Y-62075000D03*
D14*
X96740000Y-62075000D03*
%TD*%
D10*
%TO.C,S33*%
X133280000Y-75880000D03*
D11*
X138360000Y-75880000D03*
D10*
X143440000Y-75880000D03*
D12*
X134550000Y-73340000D03*
X140900000Y-70800000D03*
%TD*%
D10*
%TO.C,S47*%
X271392500Y-113980000D03*
D11*
X276472500Y-113980000D03*
D10*
X281552500Y-113980000D03*
D12*
X272662500Y-111440000D03*
X279012500Y-108900000D03*
%TD*%
D13*
%TO.C,D130*%
X148968800Y-119225000D03*
D14*
X151508800Y-119225000D03*
%TD*%
D10*
%TO.C,S46*%
X180905000Y-94930000D03*
D11*
X185985000Y-94930000D03*
D10*
X191065000Y-94930000D03*
D12*
X182175000Y-92390000D03*
X188525000Y-89850000D03*
%TD*%
D10*
%TO.C,S61*%
X214242500Y-37780000D03*
D11*
X219322500Y-37780000D03*
D10*
X224402500Y-37780000D03*
D12*
X215512500Y-35240000D03*
X221862500Y-32700000D03*
%TD*%
D13*
%TO.C,D115*%
X89437500Y-100175000D03*
D14*
X91977500Y-100175000D03*
%TD*%
D18*
%TO.C,J2*%
X159095550Y-2200000D03*
X159095550Y-25200000D03*
X180100000Y-2200000D03*
X180100000Y-25200000D03*
D19*
X173410000Y-25700000D03*
D20*
X170870000Y-25700000D03*
X168330000Y-25700000D03*
X165790000Y-25700000D03*
%TD*%
D13*
%TO.C,D110*%
X251362500Y-81125000D03*
D14*
X253902500Y-81125000D03*
%TD*%
D10*
%TO.C,S63*%
X228530000Y-75880000D03*
D11*
X233610000Y-75880000D03*
D10*
X238690000Y-75880000D03*
D12*
X229800000Y-73340000D03*
X236150000Y-70800000D03*
%TD*%
D13*
%TO.C,D95*%
X246600000Y-62075000D03*
D14*
X249140000Y-62075000D03*
%TD*%
D10*
%TO.C,S21*%
X95180000Y-75880000D03*
D11*
X100260000Y-75880000D03*
D10*
X105340000Y-75880000D03*
D12*
X96450000Y-73340000D03*
X102800000Y-70800000D03*
%TD*%
D10*
%TO.C,S4*%
X35648800Y-94930000D03*
D11*
X40728800Y-94930000D03*
D10*
X45808800Y-94930000D03*
D12*
X36918800Y-92390000D03*
X43268800Y-89850000D03*
%TD*%
D13*
%TO.C,D75*%
X141825000Y-43025000D03*
D14*
X144365000Y-43025000D03*
%TD*%
D10*
%TO.C,S42*%
X278536300Y-75880000D03*
D11*
X283616300Y-75880000D03*
D10*
X288696300Y-75880000D03*
D12*
X279806300Y-73340000D03*
X286156300Y-70800000D03*
%TD*%
D10*
%TO.C,S56*%
X204717500Y-56830000D03*
D11*
X209797500Y-56830000D03*
D10*
X214877500Y-56830000D03*
D12*
X205987500Y-54290000D03*
X212337500Y-51750000D03*
%TD*%
D10*
%TO.C,S17*%
X73748800Y-113980000D03*
D11*
X78828800Y-113980000D03*
D10*
X83908800Y-113980000D03*
D12*
X75018800Y-111440000D03*
X81368800Y-108900000D03*
%TD*%
D10*
%TO.C,S43*%
X157092500Y-37780000D03*
D11*
X162172500Y-37780000D03*
D10*
X167252500Y-37780000D03*
D12*
X158362500Y-35240000D03*
X164712500Y-32700000D03*
%TD*%
D10*
%TO.C,S59*%
X309492500Y-113980000D03*
D11*
X314572500Y-113980000D03*
D10*
X319652500Y-113980000D03*
D12*
X310762500Y-111440000D03*
X317112500Y-108900000D03*
%TD*%
D10*
%TO.C,S67*%
X233292500Y-37780000D03*
D11*
X238372500Y-37780000D03*
D10*
X243452500Y-37780000D03*
D12*
X234562500Y-35240000D03*
X240912500Y-32700000D03*
%TD*%
D10*
%TO.C,S3*%
X30886300Y-75880000D03*
D11*
X35966300Y-75880000D03*
D10*
X41046300Y-75880000D03*
D12*
X32156300Y-73340000D03*
X38506300Y-70800000D03*
%TD*%
D10*
%TO.C,S45*%
X171380000Y-75880000D03*
D11*
X176460000Y-75880000D03*
D10*
X181540000Y-75880000D03*
D12*
X172650000Y-73340000D03*
X179000000Y-70800000D03*
%TD*%
D10*
%TO.C,S27*%
X114230000Y-75880000D03*
D11*
X119310000Y-75880000D03*
D10*
X124390000Y-75880000D03*
D12*
X115500000Y-73340000D03*
X121850000Y-70800000D03*
%TD*%
D13*
%TO.C,D83*%
X313275000Y-43025000D03*
D14*
X315815000Y-43025000D03*
%TD*%
D10*
%TO.C,S7*%
X42792500Y-37780000D03*
D11*
X47872500Y-37780000D03*
D10*
X52952500Y-37780000D03*
D12*
X44062500Y-35240000D03*
X50412500Y-32700000D03*
%TD*%
D10*
%TO.C,S69*%
X247580000Y-75880000D03*
D11*
X252660000Y-75880000D03*
D10*
X257740000Y-75880000D03*
D12*
X248850000Y-73340000D03*
X255200000Y-70800000D03*
%TD*%
D10*
%TO.C,S28*%
X123755000Y-94930000D03*
D11*
X128835000Y-94930000D03*
D10*
X133915000Y-94930000D03*
D12*
X125025000Y-92390000D03*
X131375000Y-89850000D03*
%TD*%
D10*
%TO.C,S48*%
X309492500Y-75880000D03*
D11*
X314572500Y-75880000D03*
D10*
X319652500Y-75880000D03*
D12*
X310762500Y-73340000D03*
X317112500Y-70800000D03*
%TD*%
D13*
%TO.C,D71*%
X65625000Y-43025000D03*
D14*
X68165000Y-43025000D03*
%TD*%
D13*
%TO.C,D105*%
X156112500Y-81125000D03*
D14*
X158652500Y-81125000D03*
%TD*%
D10*
%TO.C,S55*%
X195192500Y-37780000D03*
D11*
X200272500Y-37780000D03*
D10*
X205352500Y-37780000D03*
D12*
X196462500Y-35240000D03*
X202812500Y-32700000D03*
%TD*%
D13*
%TO.C,D134*%
X275175000Y-119225000D03*
D14*
X277715000Y-119225000D03*
%TD*%
D10*
%TO.C,S62*%
X223767500Y-56830000D03*
D11*
X228847500Y-56830000D03*
D10*
X233927500Y-56830000D03*
D12*
X225037500Y-54290000D03*
X231387500Y-51750000D03*
%TD*%
D13*
%TO.C,D121*%
X203737500Y-100175000D03*
D14*
X206277500Y-100175000D03*
%TD*%
D13*
%TO.C,D77*%
X179925000Y-43025000D03*
D14*
X182465000Y-43025000D03*
%TD*%
D10*
%TO.C,S38*%
X147567500Y-56830000D03*
D11*
X152647500Y-56830000D03*
D10*
X157727500Y-56830000D03*
D12*
X148837500Y-54290000D03*
X155187500Y-51750000D03*
%TD*%
D10*
%TO.C,S29*%
X214242500Y-113980000D03*
D11*
X219322500Y-113980000D03*
D10*
X224402500Y-113980000D03*
D12*
X215512500Y-111440000D03*
X221862500Y-108900000D03*
%TD*%
D10*
%TO.C,S1*%
X23742500Y-37780000D03*
D11*
X28822500Y-37780000D03*
D10*
X33902500Y-37780000D03*
D12*
X25012500Y-35240000D03*
X31362500Y-32700000D03*
%TD*%
D10*
%TO.C,S22*%
X104705000Y-94930000D03*
D11*
X109785000Y-94930000D03*
D10*
X114865000Y-94930000D03*
D12*
X105975000Y-92390000D03*
X112325000Y-89850000D03*
%TD*%
D21*
%TO.C,U2*%
X213897500Y-16135000D03*
D22*
X216437500Y-16135000D03*
X218977500Y-16135000D03*
X221517500Y-16135000D03*
X224057500Y-16135000D03*
X226597500Y-16135000D03*
X229137500Y-16135000D03*
X231677500Y-16135000D03*
X234217500Y-16135000D03*
X236757500Y-16135000D03*
X239297500Y-16135000D03*
X241837500Y-16135000D03*
X244377500Y-16135000D03*
X246917500Y-16135000D03*
X246917500Y-23755000D03*
X244377500Y-23755000D03*
X241837500Y-23755000D03*
X239297500Y-23755000D03*
X236757500Y-23755000D03*
X234217500Y-23755000D03*
X231677500Y-23755000D03*
X229137500Y-23755000D03*
X226597500Y-23755000D03*
X224057500Y-23755000D03*
X221517500Y-23755000D03*
X218977500Y-23755000D03*
X216437500Y-23755000D03*
X213897500Y-23755000D03*
%TD*%
D23*
%TO.C,U1*%
X326060000Y-23920000D03*
X323520000Y-23920000D03*
X320980000Y-23920000D03*
X318440000Y-23920000D03*
X315900000Y-23920000D03*
X313360000Y-23920000D03*
X310820000Y-23920000D03*
X308280000Y-23920000D03*
X305740000Y-23920000D03*
X303200000Y-23920000D03*
X300660000Y-23920000D03*
X298120000Y-23920000D03*
X298120000Y-8680000D03*
X300660000Y-8680000D03*
X303200000Y-8680000D03*
X305740000Y-8680000D03*
X308280000Y-8680000D03*
X310820000Y-8680000D03*
X313360000Y-8680000D03*
X315900000Y-8680000D03*
X318440000Y-8680000D03*
X320980000Y-8680000D03*
X323520000Y-8680000D03*
X326060000Y-8680000D03*
X303200000Y-21380000D03*
X303200000Y-18840000D03*
X303200000Y-16300000D03*
%TD*%
D24*
%TO.C,J1*%
X269797500Y-23855000D03*
D25*
X267797500Y-23855000D03*
%TD*%
M02*
