M48
; DRILL file KiCad 10.0.1 date 2026-06-17T11:34:52
; FORMAT={-:-/ absolute / metric / decimal}
; #@! TF.CreationDate,2026-06-17T11:34:52+05:30
; #@! TF.GenerationSoftware,Kicad,Pcbnew,10.0.1
; #@! TF.FileFunction,Plated,1,2,PTH
FMAT,2
METRIC
; #@! TA.AperFunction,Plated,PTH,ViaDrill
T1C0.400
; #@! TA.AperFunction,Plated,PTH,ComponentDrill
T2C1.000
; #@! TA.AperFunction,Plated,PTH,ComponentDrill
T3C1.092
; #@! TA.AperFunction,Plated,PTH,ComponentDrill
T4C1.500
%
G90
G05
T1
X21.51Y-79.293
X33.481Y-31.221
X38.2Y-22.0
X39.048Y-79.302
X41.088Y-36.562
X42.112Y-55.95
X45.956Y-78.546
T2
X13.89Y-23.8
X16.43Y-23.8
X18.97Y-23.8
X21.51Y-23.8
X49.7Y-16.4
X49.7Y-18.9
X49.7Y-21.4
X64.2Y-16.4
X64.2Y-21.4
T3
X31.98Y-0.03
X31.98Y-2.57
X31.98Y-5.11
X31.98Y-7.65
X31.98Y-10.19
X31.98Y-12.73
X31.98Y-15.27
X31.98Y-17.81
X31.98Y-20.35
X31.98Y-22.89
X31.98Y-25.43
X31.98Y-27.97
X47.22Y-0.03
X47.22Y-2.57
X47.22Y-5.11
X47.22Y-7.65
X47.22Y-10.19
X47.22Y-12.73
X47.22Y-15.27
X47.22Y-17.81
X47.22Y-20.35
X47.22Y-22.89
X47.22Y-25.43
X47.22Y-27.97
T4
X9.69Y-34.96
X9.69Y-54.06
X9.69Y-73.06
X16.04Y-32.42
X16.04Y-51.52
X16.04Y-70.52
X28.69Y-34.96
X28.69Y-54.06
X28.69Y-73.06
X35.04Y-32.42
X35.04Y-51.52
X35.04Y-70.52
X47.69Y-34.96
X47.69Y-54.06
X47.69Y-73.06
X54.04Y-32.42
X54.04Y-51.52
X54.04Y-70.52
T4
G00X56.55Y-13.3
M15
G01X57.85Y-13.3
M16
G05
G00X56.55Y-24.5
M15
G01X57.85Y-24.5
M16
G05
M30
